<svg width="40" height="40" viewBox="0 0 40 40" fill="none" xmlns="http://www.w3.org/2000/svg">
<mask id="mask0_601_3508" style="mask-type:luminance" maskUnits="userSpaceOnUse" x="-1" y="-3" width="47" height="44">
<path d="M22.6201 40.64C35.3227 40.64 45.6202 31.0051 45.6202 19.12C45.6202 7.23481 35.3227 -2.40002 22.6201 -2.40002C9.91749 -2.40002 -0.380005 7.23481 -0.380005 19.12C-0.380005 31.0051 9.91749 40.64 22.6201 40.64Z" fill="white"/>
</mask>
<g mask="url(#mask0_601_3508)">
<path d="M11.8366 11.3437C12.283 11.0618 12.7528 10.7564 13.1992 10.451C12.8703 9.60522 12.8938 8.68897 12.6824 7.81972C12.6589 7.72574 12.6354 7.60828 12.5649 7.60828C12.4474 7.60828 12.2125 7.79622 12.1185 7.8667C11.8601 8.05465 11.6252 8.28959 11.4372 8.54801C10.6384 9.51125 10.333 10.8269 10.5679 12.0485C10.9908 11.7901 11.4372 11.5787 11.8366 11.3437Z" fill="#7A7A7A"/>
<path d="M17.7569 29.6921C18.1093 29.5041 18.3912 29.2457 18.6262 28.9403C18.8376 28.6818 19.0255 28.3764 19.237 28.118C19.237 28.071 19.237 28.024 19.284 27.977C19.3075 27.9535 19.3545 27.9301 19.3779 27.9066C19.6129 27.6011 19.8478 27.2722 20.2237 27.1313C20.3882 27.0608 20.5761 27.2018 20.5996 27.3662C20.7406 27.3192 20.8815 27.2722 20.999 27.2487C21.6098 27.0373 22.2207 26.8728 22.855 26.6849C23.9592 26.356 25.0634 26.0271 26.1676 25.6982C26.6139 25.5572 27.0838 25.4632 27.4597 25.2048C27.8356 24.9699 28.0235 24.594 28.1175 24.1711C28.2115 23.7247 28.2115 23.2783 28.235 22.832C28.2585 22.2446 28.2585 21.6573 28.282 21.0935C28.3055 20.5296 28.3055 19.9658 28.329 19.4019C28.329 19.0965 28.329 18.7911 28.3524 18.4622C28.3759 18.1803 28.4699 17.9453 28.5169 17.6869C28.5639 17.4755 28.7988 17.405 28.9868 17.4755C29.0338 17.405 29.0807 17.358 29.1277 17.2875C29.5271 16.8177 29.9735 16.3948 30.3729 15.9249C31.0777 15.0556 31.3596 14.0454 31.3596 12.9412C31.3596 12.3774 31.2891 11.8135 31.1952 11.2732C31.1717 11.0853 31.1247 10.8973 31.1012 10.7094C31.0777 10.7328 31.0542 10.7563 31.0307 10.7563C30.3729 11.0853 29.903 11.6491 29.5976 12.3069C29.2452 13.0822 29.0573 13.9984 29.0338 14.8442C29.0338 15.1261 28.6344 15.1026 28.6109 14.8442C28.4934 13.834 28.4699 12.8708 28.8693 11.9075C29.0338 11.5316 29.2452 11.1557 29.5271 10.8503C29.5036 10.8738 29.4801 10.8738 29.4801 10.8973C29.1042 11.2027 28.7753 11.5551 28.4699 11.931C28.188 12.3069 27.9296 12.7298 27.7651 13.1762C27.5772 13.6225 27.5302 14.1159 27.2248 14.5153C27.0838 14.7032 26.8019 14.5623 26.7314 14.3978C26.52 13.8105 26.8724 13.0822 27.1073 12.5418C27.2248 12.3069 27.3422 12.0955 27.4832 11.8605C27.4362 11.8605 27.4127 11.837 27.3657 11.8135C26.8254 11.4846 26.285 11.1557 25.7682 10.8503C25.2748 10.5449 24.7579 10.263 24.1941 10.169C23.2074 10.0046 22.1972 10.4039 21.2104 10.5214C20.1767 10.6389 19.2135 10.3335 18.2503 10.0046C17.4515 9.72263 16.6527 9.4642 15.7835 9.53468C15.2666 9.55818 14.7732 9.74612 14.3504 10.0515C13.7395 10.6859 13.0817 11.2497 12.3534 11.7431C11.9305 12.025 11.5076 12.2599 11.0848 12.5184C10.6854 12.7533 10.3095 13.0352 10.1215 13.4816C9.93359 13.881 9.91009 14.3743 9.91009 14.7972C9.8866 15.3376 9.91009 15.8544 9.8866 16.3948C9.8631 16.9351 9.81612 17.452 9.74564 17.9923C9.72214 18.2508 9.67516 18.5092 9.65166 18.7676C9.62817 18.8851 9.62817 19.0025 9.60467 19.12C9.67515 19.167 9.69865 19.2375 9.69865 19.3315C9.62817 19.6839 9.41673 20.0363 9.27577 20.3887C9.13481 20.7646 9.04083 21.117 8.94686 21.4928C8.78241 22.2446 8.71192 23.0199 8.66494 23.7952C8.66494 23.9832 8.64145 24.1946 8.64145 24.3825C8.64145 24.5235 8.59446 24.7349 8.68843 24.8524C8.87638 25.0873 9.41673 25.1578 9.67516 25.2048C10.4269 25.3223 11.1787 25.1813 11.8366 24.8524C11.86 24.8524 11.8835 24.8289 11.8835 24.8289C11.8835 24.5235 11.8835 24.2181 11.8835 23.9127C11.7896 23.8892 11.7191 23.8422 11.6251 23.7952C11.2962 23.6073 8.71193 21.5868 9.34625 21.2579H9.36974C9.34625 21.1404 9.34625 21.0465 9.36974 20.929C9.39323 20.8115 9.44022 20.7176 9.48721 20.6236C9.60467 20.4356 9.76913 20.2712 9.93359 20.1067C10.0276 20.0128 10.1215 19.8953 10.239 19.8248C10.3095 19.7778 10.427 19.7308 10.5209 19.7073C10.5679 19.6839 10.6149 19.6839 10.6619 19.6839C10.7324 19.6839 10.7793 19.7308 10.7793 19.8013C10.7793 19.8483 10.7794 19.8953 10.7559 19.9423C10.7559 19.9893 10.7559 20.0128 10.7324 20.0597C10.7089 20.0832 10.7089 20.1302 10.6854 20.1537C10.6854 20.1537 10.6619 20.2007 10.6854 20.1772C10.6384 20.2947 10.5444 20.3887 10.4739 20.4826C10.3565 20.6236 10.239 20.7646 10.098 20.9055C10.0745 20.929 10.0745 20.929 10.0511 20.9525C10.0276 20.976 10.0041 21.023 9.98057 21.07C9.98057 21.0935 9.95708 21.0935 9.95708 21.117C9.95708 21.117 9.95708 21.1404 9.93359 21.1404C9.95708 21.1404 9.95708 21.1639 9.98057 21.1639C10.0276 21.1874 10.0745 21.2344 10.1215 21.2579C10.192 21.2579 10.2625 21.2814 10.3095 21.3284C10.4504 21.4224 10.5679 21.5163 10.7089 21.6103C11.2962 21.9392 12.001 22.0097 12.6588 21.9627C13.1287 21.9392 13.5751 21.8922 14.0214 21.8452C14.4208 21.8218 14.8437 21.8218 15.2431 21.7748C15.4076 21.6808 15.5485 21.5633 15.666 21.4224C15.8069 21.2579 15.8774 21.0465 15.9479 20.835C16.1124 20.3652 16.3708 19.9658 16.6762 19.5664C16.8172 19.3784 17.1461 19.5429 17.0051 19.7543C16.7232 20.2242 16.6057 20.7646 16.4413 21.2814C16.3708 21.5398 16.2533 21.7748 16.0654 21.9627C15.9949 22.0332 15.9479 22.0802 15.8774 22.1507C15.8774 22.2446 15.8304 22.3621 15.6895 22.4326C14.9847 22.8085 14.2799 23.1844 13.5751 23.5603C13.2462 23.7247 12.9173 23.8892 12.5883 23.9597C12.5883 24.359 12.5883 24.7349 12.5883 25.1343C12.7293 25.2283 12.8468 25.3223 12.9642 25.4163C13.2462 25.6747 13.4811 25.9801 13.7865 26.168C14.5383 26.6614 15.5015 26.6144 16.3473 26.5439C17.1931 26.497 18.1093 26.356 18.7906 25.7921C19.1195 25.5102 19.3545 25.1578 19.5189 24.7584C19.6129 24.547 19.7069 24.3356 19.7773 24.1241C19.8478 23.8892 19.8948 23.6777 20.0593 23.4898C20.2472 23.3018 20.5761 23.3958 20.6466 23.6542C20.7641 24.1006 20.4821 24.7114 20.2942 25.1343C20.1062 25.5807 19.8243 26.0271 19.4719 26.3795C18.7201 27.1078 17.6864 27.3662 16.6762 27.4602C15.6895 27.5542 14.5853 27.6011 13.6455 27.1548C13.2227 26.9433 12.8938 26.5909 12.6118 26.2385C12.4709 26.0741 12.3534 25.8861 12.2124 25.7217C12.189 25.6982 12.1655 25.6512 12.142 25.6277C11.3902 26.0506 10.5444 26.1915 9.67516 26.0976C9.74564 26.9433 10.051 27.7891 10.6619 28.3764C11.3432 29.0577 12.3299 29.3162 13.2227 29.5276C14.2329 29.7625 15.2901 29.974 16.3238 30.021C16.8642 29.927 17.3575 29.9035 17.7569 29.6921Z" fill="#7A7A7A"/>
<path d="M40.0522 33.9209C39.9817 33.78 39.8878 33.6625 39.8173 33.5215C39.6293 33.2161 39.4649 32.9342 39.2769 32.6523C38.901 32.0649 38.5251 31.5011 38.1258 30.9373C37.3035 29.7861 36.4342 28.7054 35.5415 27.6247C35.0951 27.1078 34.6487 26.591 34.1788 26.0741C33.9439 25.8157 33.7325 25.5808 33.4975 25.3223C33.5445 25.6043 33.568 25.8627 33.4271 26.1211C33.3096 26.3091 33.0982 26.3091 32.9337 26.1916C32.6518 25.9567 32.5813 25.5338 32.4873 25.2049C32.3934 24.876 32.2759 24.5705 32.1584 24.2651C32.1349 24.1946 32.0879 24.1242 32.0644 24.0537C32.0644 24.0772 32.0879 24.1007 32.0879 24.1477C32.0879 24.1712 32.0879 24.2651 32.1114 24.2886C32.1114 24.3121 32.1114 24.3356 32.1114 24.3591C32.1114 24.4061 32.1114 24.4531 32.0879 24.5001C32.0879 24.5236 32.0879 24.547 32.0644 24.5705C32.0175 24.7115 31.9235 24.8055 31.7825 24.829C31.6651 24.8525 31.5476 24.782 31.4536 24.7115C31.4301 24.688 31.3596 24.6175 31.3596 24.594C31.3596 24.547 31.3831 24.6175 31.3831 24.6175L31.3127 24.5236C31.2422 24.3826 31.1952 24.2181 31.1482 24.0772C31.1012 23.9597 31.0777 23.8187 31.0307 23.7013C30.9837 23.5838 30.9368 23.4663 30.9133 23.3489C30.8898 23.2784 30.8898 23.2314 30.8663 23.1609C30.8663 23.1139 30.8193 23.067 30.7958 23.02C30.7488 22.926 30.7723 22.832 30.8428 22.7615C30.9133 22.6911 31.0307 22.7146 31.1012 22.785C31.1482 22.832 31.1952 22.9025 31.2422 22.926C31.3126 22.973 31.3831 23.02 31.4301 23.0905C31.5476 23.2079 31.6416 23.3489 31.712 23.4898C31.7355 23.5368 31.759 23.5603 31.7825 23.6073C31.5946 23.2079 31.3831 22.832 31.1482 22.4561C30.7723 21.8453 30.3729 21.258 29.9265 20.6941C29.7151 20.4122 29.4802 20.1303 29.2687 19.8484C29.2452 19.8014 29.1982 19.7544 29.1747 19.7074C29.1747 19.7309 29.1747 19.7544 29.1747 19.7779C29.1513 20.4592 29.1278 21.1405 29.1043 21.8218C29.0808 22.8555 29.1513 24.0067 28.7284 24.9699C28.7049 25.0169 28.6814 25.0404 28.6814 25.0874C28.7284 25.1344 28.7754 25.1579 28.8223 25.2049C28.8928 25.2753 28.9398 25.3223 28.9868 25.4163C29.0103 25.4633 29.0338 25.4868 29.0573 25.5338C29.0573 25.5573 29.0808 25.6043 29.0808 25.6277C29.1043 25.7217 28.9868 25.8157 28.9163 25.7687C28.8928 25.7452 28.8693 25.7217 28.8223 25.7217C28.7754 25.6982 28.7519 25.6512 28.7049 25.6277C28.6814 25.6043 28.6579 25.5808 28.6344 25.5573C28.6109 25.5338 28.5874 25.5103 28.5639 25.4868C28.5404 25.4633 28.5169 25.4398 28.4934 25.4163C28.4465 25.4868 28.3995 25.5338 28.329 25.6043C28.3525 25.6512 28.3995 25.7217 28.3995 25.7922C28.423 25.8862 28.4464 26.0036 28.423 26.0976C28.423 26.1211 28.3995 26.1681 28.3995 26.1916C28.3995 26.2151 28.3995 26.2151 28.376 26.2386C28.3525 26.2856 28.329 26.3325 28.282 26.356C28.235 26.403 28.1175 26.3795 28.094 26.3325C28.0706 26.2856 28.0471 26.2621 28.0471 26.2151C28.0471 26.1916 28.0471 26.1681 28.0236 26.1446C28.0236 26.0976 28.0001 26.0741 28.0001 26.0271C28.0001 25.9801 27.9766 25.9332 27.9531 25.8862C27.5067 26.1916 26.9899 26.356 26.4495 26.5205C25.2748 26.8494 24.0767 27.2018 22.902 27.5307C22.3147 27.6952 21.7273 27.8596 21.14 28.0006C20.8111 28.0711 20.5057 28.165 20.1768 28.212C20.1533 28.212 20.1298 28.212 20.1063 28.2355C19.9653 28.447 19.8244 28.6584 19.6834 28.8698C19.4015 29.2927 19.0961 29.7156 18.7202 30.0445C18.0389 30.6553 17.2166 30.8198 16.3473 30.8198C16.3473 30.8433 16.3708 30.8668 16.3708 30.8903C16.4178 31.0312 16.4883 31.1722 16.5353 31.3132C16.6527 31.5951 16.7702 31.9005 16.8642 32.1824C16.9582 32.4878 17.0521 32.7698 17.1696 33.0752C17.2871 33.3806 17.475 33.8035 17.2871 34.1089C17.1931 34.2733 17.0051 34.2968 16.8407 34.2263C16.6997 34.1559 16.6057 34.0384 16.5353 33.8974C16.2768 34.8137 15.8775 35.7064 15.5251 36.5992C15.2666 37.2335 15.0552 37.8678 14.8437 38.5021C14.7498 38.8311 14.6558 39.16 14.5853 39.5124C14.5148 39.7943 14.4913 40.0997 14.3974 40.3816C15.3371 41.3214 16.6527 41.6738 17.9449 41.7912C19.3545 41.9087 20.7876 41.8147 22.1972 41.6973C27.4597 41.2979 32.8632 40.1232 37.28 37.0691C37.8438 36.6932 38.3842 36.2703 38.8775 35.8004C39.136 35.5655 39.3944 35.307 39.6058 35.0486C39.6998 34.9311 39.8173 34.7902 39.9112 34.6727C39.9817 34.5787 40.1462 34.4143 40.1462 34.3203C40.2636 34.1794 40.0992 33.9914 40.0522 33.9209Z" fill="#7A7A7A"/>
<path d="M27.5772 26.121C25.6037 26.356 23.6068 26.7319 21.7273 27.3897C21.5394 27.4602 21.3514 27.5307 21.1635 27.6246C21.046 27.6246 20.9285 27.6246 20.8346 27.6246C20.5761 27.6246 20.2942 27.6246 20.0828 27.7891C19.9418 27.8831 19.8243 28.0005 19.7774 28.165C19.7539 28.1885 19.7539 28.212 19.7304 28.259C19.7069 28.3294 19.6599 28.3999 19.6364 28.4939C19.5659 28.6583 19.4954 28.8228 19.425 28.9872C19.19 29.2222 18.9551 29.4571 18.6967 29.6451C18.3443 29.9035 17.9214 30.0679 17.522 30.2559C17.2401 30.3969 16.9581 30.5848 16.7467 30.7962C16.5118 30.7023 16.2298 30.8197 16.1594 31.1017C16.0889 31.3601 16.1594 31.548 16.3238 31.7595L16.3473 31.783C16.3473 31.9004 16.3708 32.0179 16.4178 32.1589C16.5118 32.4643 16.7702 32.7932 16.7702 33.0986C16.7702 33.2865 16.6292 33.4745 16.5587 33.6389C16.4413 33.8504 16.3473 34.0853 16.2533 34.3203C16.1124 34.6727 15.9714 35.0486 15.8774 35.4245C15.6425 35.8003 15.4546 36.1997 15.2666 36.6226C14.8437 37.6093 14.4443 38.6665 14.2094 39.7238C14.0919 40.2641 13.998 40.8514 14.3974 41.2743C14.7263 41.6267 15.2196 41.7912 15.666 41.9321C16.0184 42.0496 16.3473 42.1201 16.6997 42.1906C17.616 42.543 18.5322 42.5665 19.4484 42.2141H19.4719H19.4954C19.5189 42.2375 19.5659 42.2375 19.5894 42.261C19.7069 42.308 19.8243 42.261 19.8713 42.1671C20.4352 42.1906 21.0225 42.1201 21.5629 41.9321C21.9622 41.7912 22.0327 41.1569 21.5629 41.0629C21.2105 40.9924 20.8581 40.9219 20.4822 40.8514C20.3882 40.8279 20.3177 40.8044 20.2237 40.8044C20.2002 40.8044 20.1767 40.8045 20.1533 40.781C20.0828 40.64 20.0593 40.4521 20.0123 40.3111C19.8008 39.6063 19.6129 38.9015 19.4719 38.1967C19.3075 37.4919 19.19 36.7636 19.096 36.0353C19.0491 35.6594 19.0021 35.2835 18.9786 34.9076C18.9551 34.6727 18.9551 34.4142 18.9081 34.1793C18.9551 34.1558 19.0021 34.1323 19.0491 34.1088C19.284 33.9914 19.4954 33.8739 19.6364 33.6389C19.8008 33.357 19.7774 33.0281 19.7304 32.7227C19.6834 32.4173 19.6129 32.1354 19.6599 31.83C19.7069 31.501 19.8478 31.1956 20.0358 30.9372C20.4352 30.3734 21.046 30.021 21.6568 29.7155C22.2677 29.4101 22.902 29.1517 23.5128 28.9168C24.9694 28.3529 26.473 27.8596 27.8121 27.0138C28.1645 26.7319 28.047 26.0506 27.5772 26.121Z" fill="#5B5B5B"/>
<path d="M12.0715 23.8893C12.0245 23.6074 11.8601 23.2315 11.5547 23.1845C11.1788 23.1375 11.0848 23.4429 10.9203 23.7014C10.7324 24.0068 10.38 24.2417 10.0276 24.3592C9.5812 24.5001 9.04085 24.4297 8.54749 24.3592C8.40653 24.3357 8.24207 24.4767 8.35954 24.6176C8.57098 24.923 8.85291 25.111 9.2288 25.1815C9.39326 25.2049 9.53422 25.2284 9.69867 25.2284C9.65168 25.4164 9.72216 25.6043 9.88662 25.7218C10.145 25.8863 10.5209 25.8158 10.7794 25.6983C11.0378 25.5808 11.2727 25.4399 11.5077 25.2519C11.8601 24.8995 12.142 24.4062 12.0715 23.8893Z" fill="#5B5B5B"/>
<path d="M18.3913 24.8054C17.9919 25.2518 17.3575 25.4397 16.7937 25.5807C16.1594 25.7452 15.5016 25.8861 14.8437 25.8391C14.3739 25.7921 13.9275 25.5807 13.6691 25.1578C13.5516 24.9699 13.4576 24.7349 13.4106 24.5235C13.3637 24.2651 13.4341 24.0301 13.3637 23.7717C13.2932 23.4898 12.9173 23.3723 12.7058 23.6073C12.6589 23.6073 12.6354 23.6307 12.5884 23.6542C11.9541 24.1946 12.3065 24.9699 12.7058 25.5337C12.4944 25.4397 12.283 25.3458 12.0715 25.3458C11.9071 25.2753 11.7426 25.2988 11.6016 25.3928C11.1083 25.4632 10.5914 25.5102 10.0981 25.5807C9.76916 25.6277 9.60471 25.9801 9.76916 26.215C9.72218 26.2385 9.67519 26.262 9.6282 26.262C9.51073 26.309 9.51073 26.5204 9.6282 26.5674C10.0276 26.7789 10.474 26.7554 10.8968 26.6379C11.5782 26.8494 12.283 27.0373 12.9643 27.2018C13.2697 27.2722 13.5751 27.3427 13.8805 27.4132C14.1155 27.4837 14.3739 27.5307 14.6088 27.5776C14.9377 27.6951 15.2901 27.7421 15.666 27.7421C15.7835 27.7421 15.901 27.7656 15.9949 27.7421C16.0889 27.7421 16.1594 27.6951 16.2064 27.6716C16.2299 27.6716 16.2534 27.6716 16.2769 27.6481C16.6058 27.5542 16.6527 27.1548 16.4883 26.9433C17.522 26.8024 18.5087 26.3325 19.0961 25.3928C19.4015 24.9229 18.7437 24.406 18.3913 24.8054Z" fill="#5B5B5B"/>
<path d="M15.6895 20.6706C15.572 20.6236 15.4075 20.6001 15.3136 20.7176L15.2901 20.7411C15.2431 20.788 15.2196 20.8585 15.2196 20.9055C15.1021 20.976 14.8672 21.07 14.7497 21.0935C14.5383 21.1874 14.3268 21.2344 14.0919 21.3049C13.622 21.4224 13.1522 21.4459 12.6823 21.4224C12.2124 21.3989 11.7661 21.3049 11.3432 21.1404C11.1317 21.07 10.9203 20.976 10.7089 20.882C10.4974 20.788 10.3095 20.6471 10.0745 20.6471C9.88658 20.6236 9.79261 20.8585 9.86309 20.9995C10.0041 21.2579 10.3095 21.3989 10.5444 21.5163C10.8028 21.6573 11.1082 21.7513 11.3902 21.8218C11.9775 21.9862 12.5648 22.0567 13.1757 22.0097C13.763 21.9862 14.3503 21.8922 14.8907 21.6808C15.1491 21.5868 15.478 21.4928 15.6895 21.3049C15.9244 21.1639 15.9714 20.8115 15.6895 20.6706Z" fill="#999999"/>
<path d="M13.2461 10.2865C13.2227 10.0046 13.0817 9.74618 12.9877 9.48775C12.8938 9.22933 12.8468 8.9709 12.7763 8.73596C12.7763 8.68898 12.7528 8.64199 12.7528 8.595C12.7528 8.57151 12.7528 8.54801 12.7528 8.52452C12.7528 8.40705 12.7528 8.28959 12.7528 8.17212C12.7528 8.03116 12.7763 7.91369 12.7293 7.77273C12.6588 7.56129 12.3064 7.46732 12.1889 7.70225C12.095 7.8902 12.095 8.12513 12.095 8.33657C12.095 8.43055 12.095 8.54801 12.095 8.64199V8.66548C12.095 8.87692 12.095 9.06487 12.1185 9.27631C12.142 9.79317 12.1889 10.31 12.3064 10.8269C12.3769 11.0618 12.6823 11.2028 12.8937 11.0618C13.1287 10.8739 13.2696 10.5919 13.2461 10.2865Z" fill="#999999"/>
<path d="M29.7856 10.31C29.1043 10.7564 28.5169 11.3202 28.0705 12.0015C27.8591 12.3304 27.6712 12.7063 27.5302 13.0822C27.4597 13.2702 27.3892 13.4581 27.3422 13.6461C27.2718 13.881 27.2013 14.1159 27.3422 14.3274C27.4362 14.4683 27.6477 14.5623 27.7886 14.4448C27.9296 14.3509 27.9766 14.2334 28.0236 14.0924C28.094 14.0924 28.188 14.0689 28.2115 13.9985C28.3995 13.74 28.5169 13.4816 28.6344 13.1997C28.7753 12.9178 28.9163 12.6124 29.0808 12.3539C29.4097 11.8136 29.7856 11.3437 30.2554 10.9208C30.5843 10.6389 30.1615 10.0516 29.7856 10.31Z" fill="#999999"/>
<path d="M40.1697 34.0619C40.0052 33.6625 39.7468 33.2631 39.5354 32.8872C39.3004 32.4878 39.089 32.0884 38.8306 31.689C37.8908 30.1385 36.7866 28.6584 35.518 27.3427C35.4475 27.2723 35.377 27.2018 35.283 27.1078C35.0481 26.8024 34.7897 26.497 34.4843 26.2385C34.3433 26.1211 34.1789 26.0036 34.0144 25.8861C33.803 25.6512 33.5915 25.4163 33.4271 25.1344C33.3096 24.9464 33.1216 24.8994 32.9572 24.9229C32.9572 24.8994 32.9337 24.8759 32.9337 24.8524C32.6988 24.1946 32.4168 23.5368 32.0644 22.926C31.712 22.3386 31.3126 21.7748 30.8663 21.2579C30.4434 20.7646 29.9265 20.1772 29.3157 19.8953C29.1747 19.8248 28.9868 19.9658 29.0808 20.1302C29.4097 20.6706 29.9265 21.117 30.3024 21.6338C30.7018 22.1507 31.0542 22.7145 31.3596 23.3019C31.6651 23.8657 31.9 24.453 32.1114 25.0639C32.2054 25.3693 32.2994 25.6982 32.3933 26.0036C32.4638 26.2855 32.5343 26.7084 32.8397 26.8259C32.9337 26.8729 33.0277 26.8729 33.1216 26.7789C33.2156 26.6849 33.2626 26.5909 33.2861 26.4735C33.6385 26.8494 34.0144 27.1783 34.3668 27.5307C34.5782 27.7186 34.7662 27.9301 34.9541 28.1415L34.9776 28.165C35.5415 29.0343 36.1053 29.927 36.6692 30.7963C37.233 31.6655 37.8673 32.5113 38.3137 33.451C38.5956 34.0384 38.7366 34.7197 38.5486 35.307C38.4077 35.495 38.3137 35.7064 38.2902 35.9648C38.2667 36.1528 38.4547 36.3407 38.6191 36.3877C38.8306 36.4347 39.0185 36.3407 39.136 36.1763C39.2534 35.9883 39.3474 35.8004 39.4179 35.5889C39.5823 35.448 39.7703 35.307 39.8878 35.1895C40.1697 34.9076 40.3341 34.5082 40.1697 34.0619Z" fill="#999999"/>
<path d="M12.5179 16.0424C12.4944 15.7604 12.4474 15.4785 12.3299 15.2201C12.2125 14.9617 12.0245 14.7972 11.7896 14.6328C11.6016 14.4918 11.4372 14.7502 11.5077 14.9147C11.5546 15.0087 11.5547 15.1261 11.5781 15.2201C11.5547 15.1966 11.5077 15.1966 11.4842 15.1731C11.2962 15.0321 11.0143 15.1026 10.8968 15.2671C10.7324 15.4785 10.8029 15.7839 11.0143 15.9014C11.0848 15.9484 11.1553 15.9954 11.2257 16.0424C11.2257 16.0424 11.2727 16.0894 11.2962 16.0894C11.3197 16.1128 11.3432 16.1363 11.3667 16.1363L11.3902 16.1598C11.3902 16.1598 11.4372 16.2303 11.4137 16.2068C11.4607 16.3008 11.4607 16.3478 11.4607 16.4418C11.4842 16.8411 11.4372 17.1701 11.3197 17.5694C11.2492 17.7809 11.4137 18.0628 11.6251 18.1098C11.8601 18.1568 12.0715 18.0393 12.1655 17.8044C12.3534 17.264 12.5649 16.6532 12.5179 16.0424Z" fill="#5B5B5B"/>
<path d="M21.7978 17.0762C21.7508 16.7708 21.4454 16.5829 21.1869 16.5124C21.1165 16.4184 21.0225 16.3479 20.905 16.3244C20.858 16.3009 20.811 16.3009 20.7875 16.2774C20.7875 16.2774 20.764 16.2774 20.764 16.254C20.4586 16.1365 20.1532 16.1835 19.8713 16.3244C19.6364 16.4419 19.4484 16.6533 19.3075 16.8648C19.0725 17.0292 18.8611 17.2407 18.7201 17.4756C18.5557 17.7575 18.7906 18.063 19.0725 18.063C19.143 18.2039 19.284 18.3214 19.4484 18.2979C19.7068 18.2979 19.8478 18.1099 19.8713 17.875C19.8713 17.969 19.8948 17.8045 19.8948 17.781C19.8948 17.7575 19.8948 17.7575 19.8948 17.734C19.8948 17.734 19.8948 17.7105 19.9183 17.7105C19.9653 17.6401 20.0358 17.5931 20.1062 17.5226C20.1297 17.5226 20.1767 17.4756 20.1767 17.4756C20.2237 17.4521 20.2472 17.4286 20.2942 17.4051C20.3177 17.3816 20.3647 17.3816 20.3882 17.3581C20.4116 17.3581 20.4586 17.3347 20.4586 17.3347C20.5056 17.3112 20.5761 17.3112 20.6231 17.2877H20.6466C20.6936 17.2877 20.7171 17.3112 20.764 17.3112H20.7875C20.7875 17.3112 20.7875 17.3112 20.811 17.3347C20.9285 17.3816 21.046 17.4051 21.1399 17.3581C21.1869 17.3816 21.2339 17.4051 21.2809 17.4286C21.5863 17.6166 21.8448 17.3816 21.7978 17.0762Z" fill="#5B5B5B"/>
<path d="M21.0695 17.8044C21.093 17.7339 21.093 17.64 21.093 17.546C21.093 17.452 21.093 17.358 21.0695 17.2641C21.046 17.0996 20.9755 16.9587 20.8581 16.8412C20.8111 16.7942 20.7641 16.7472 20.6936 16.7002C20.5996 16.6298 20.5057 16.5828 20.3882 16.5828C20.0593 16.5828 19.8713 16.8882 19.8244 17.1936C19.7774 17.3111 19.7774 17.452 19.7774 17.593C19.7774 17.8279 19.8479 18.0629 20.0593 18.2038C20.2237 18.2978 20.4352 18.3213 20.5996 18.2508C20.8581 18.2038 20.999 18.0394 21.0695 17.8044Z" fill="#563827"/>
<path d="M11.7426 16.0894C11.7191 16.019 11.6956 15.9485 11.6487 15.9015C11.6487 15.878 11.6252 15.878 11.6017 15.8545C11.5547 15.784 11.4607 15.737 11.3667 15.7135C11.2962 15.69 11.2023 15.69 11.1318 15.7135C11.0378 15.737 10.9204 15.784 10.8499 15.8545C10.7089 15.972 10.6619 16.1599 10.6619 16.3244C10.6619 16.3949 10.6854 16.4888 10.6854 16.5593C10.6854 16.6063 10.7089 16.6533 10.7324 16.7003C10.8029 16.8882 10.9204 17.0762 11.1318 17.1231C11.2493 17.1701 11.3902 17.1466 11.5077 17.0762C11.6252 17.0057 11.6956 16.8882 11.7426 16.7707C11.7661 16.7003 11.7661 16.6063 11.7661 16.5358C11.7661 16.5123 11.7661 16.4653 11.7661 16.4183C11.7661 16.3244 11.7661 16.2069 11.7426 16.0894Z" fill="#563827"/>
<path d="M18.0858 24.0067C18.0623 23.9597 18.0388 23.9362 17.9919 23.9127C17.9684 23.9127 17.9449 23.8892 17.8979 23.8892C17.8509 23.8657 17.8039 23.8657 17.7569 23.8892C17.7334 23.8892 17.6864 23.8892 17.6629 23.9127C17.6395 23.9127 17.616 23.9362 17.5925 23.9597C17.5455 23.9832 17.522 24.0067 17.4985 24.0537C17.4985 24.0772 17.475 24.1006 17.475 24.1476C17.475 24.1711 17.475 24.2181 17.4515 24.2416C17.4515 24.2886 17.4515 24.3356 17.475 24.3826C17.475 24.4061 17.4985 24.4296 17.522 24.453C17.5455 24.4765 17.569 24.5 17.5925 24.5235C17.616 24.547 17.6629 24.5705 17.7099 24.594C17.7334 24.594 17.7804 24.594 17.8039 24.6175C17.8274 24.6175 17.8744 24.6175 17.8979 24.594C17.9214 24.594 17.9449 24.5705 17.9919 24.5705C18.0388 24.547 18.0623 24.5235 18.0858 24.4765C18.1093 24.453 18.1328 24.4061 18.1563 24.3591C18.1563 24.3356 18.1563 24.2886 18.1798 24.2651C18.1798 24.2181 18.1798 24.1711 18.1563 24.1241C18.1328 24.0537 18.1093 24.0302 18.0858 24.0067Z" fill="#563827"/>
<path d="M17.2166 24.8524C17.1931 24.8524 17.1931 24.8289 17.1931 24.8289C17.1696 24.8054 17.1461 24.8054 17.1226 24.8054C17.0991 24.8054 17.0756 24.8054 17.0521 24.8054C17.0051 24.8054 16.9817 24.8054 16.9347 24.8289C16.9347 24.8289 16.9347 24.8289 16.9112 24.8289C16.8877 24.8289 16.8642 24.8524 16.8407 24.8759C16.8172 24.8994 16.7937 24.9464 16.7937 24.9699C16.7937 25.0169 16.7937 25.0404 16.7937 25.0873C16.7937 25.1108 16.8172 25.1343 16.8407 25.1578C16.8407 25.1578 16.8407 25.1578 16.8407 25.1813L16.8642 25.2048C16.8877 25.2283 16.8877 25.2518 16.9112 25.2518C16.9347 25.2518 16.9347 25.2518 16.9582 25.2753C16.9582 25.2753 16.9817 25.2753 16.9817 25.2988C17.0051 25.2988 17.0286 25.2988 17.0521 25.2988C17.0991 25.2988 17.1226 25.2988 17.1461 25.2753C17.1696 25.2753 17.1696 25.2753 17.1696 25.2518C17.1931 25.2283 17.2166 25.2048 17.2401 25.1813C17.2636 25.1578 17.2871 25.1343 17.2871 25.0873C17.2871 25.0638 17.2871 25.0404 17.2871 25.0169C17.2871 24.9699 17.2636 24.9229 17.2636 24.8994C17.2636 24.8759 17.2401 24.8759 17.2166 24.8524Z" fill="#563827"/>
<path d="M17.8979 25.0168C17.6395 25.0168 17.6395 25.3927 17.8979 25.3927C18.1563 25.3927 18.1563 25.0168 17.8979 25.0168Z" fill="#563827"/>
<path d="M9.20534 23.7013C9.18184 23.6779 9.13486 23.6779 9.11137 23.6779C9.06438 23.6779 9.04088 23.6779 9.01739 23.7013C8.99389 23.7013 8.94691 23.7248 8.92341 23.7483C8.89992 23.7718 8.89992 23.7953 8.87643 23.7953C8.85294 23.8188 8.85294 23.8658 8.85294 23.8893C8.85294 23.9363 8.85294 23.9598 8.85294 24.0068C8.85294 24.0303 8.87643 24.0538 8.87643 24.0772C8.89992 24.1007 8.92341 24.1242 8.94691 24.1477L8.9704 24.1712L8.9939 24.1947C9.01739 24.1947 9.04088 24.2182 9.06438 24.2182C9.08787 24.2182 9.11136 24.2182 9.13485 24.2182C9.15835 24.2182 9.18184 24.2182 9.20534 24.2182C9.20534 24.2182 9.22883 24.2182 9.22883 24.1947C9.25233 24.1947 9.27581 24.1712 9.27581 24.1712C9.29931 24.1712 9.29931 24.1477 9.29931 24.1477C9.29931 24.1477 9.29931 24.1242 9.3228 24.1242C9.3463 24.1007 9.3463 24.0772 9.3463 24.0772V24.0538C9.3463 24.0538 9.3463 24.0538 9.3463 24.0303C9.3463 23.9833 9.36979 23.9598 9.3463 23.9128C9.3463 23.8658 9.3228 23.8423 9.3228 23.8188C9.29931 23.7953 9.29931 23.7718 9.27581 23.7718C9.25232 23.7248 9.22883 23.7013 9.20534 23.7013Z" fill="#563827"/>
<path d="M9.72219 24.5705C10.0041 24.5705 10.0041 24.1241 9.72219 24.1241C9.41678 24.1241 9.41678 24.5705 9.72219 24.5705Z" fill="#563827"/>
<path d="M9.13487 23.3254C9.34631 23.3254 9.34631 22.973 9.13487 22.973C8.92343 22.973 8.92343 23.3254 9.13487 23.3254Z" fill="#563827"/>
<path d="M27.4598 19.4725C27.4598 19.5195 27.4833 19.543 27.4833 19.59C27.4833 19.637 27.5537 19.6839 27.6007 19.6839C27.6477 19.6839 27.7182 19.637 27.7417 19.59C27.7417 19.5195 27.7652 19.449 27.7887 19.3785C27.8122 19.3081 27.8122 19.2141 27.8357 19.1201C27.8357 19.0496 27.8592 18.9791 27.8592 18.9087C27.8592 18.8852 27.8592 18.9087 27.8592 18.9322C27.8592 18.9087 27.8592 18.8852 27.8592 18.8617C27.8592 18.8382 27.8592 18.8382 27.8592 18.8147C27.8592 18.7912 27.8592 18.7912 27.8592 18.7677C27.8592 18.6972 27.8357 18.6737 27.7887 18.6267C27.7417 18.5798 27.6477 18.5563 27.5772 18.6032C27.5302 18.6267 27.4833 18.6737 27.4598 18.7207C27.4598 18.7442 27.4598 18.7442 27.4363 18.7677C27.4128 18.8147 27.4128 18.8617 27.4128 18.9087C27.4128 18.9791 27.3893 19.0496 27.3893 19.1201C27.3893 19.1906 27.3893 19.2846 27.4128 19.3785C27.4363 19.402 27.4363 19.4255 27.4598 19.4725Z" fill="#563827"/>
<path d="M27.5772 20.0598C27.5772 20.1303 27.5772 20.1773 27.6007 20.2478C27.6007 20.3183 27.6242 20.3653 27.6242 20.4357C27.6242 20.4827 27.6477 20.5062 27.6712 20.5297C27.6947 20.5532 27.7416 20.5767 27.7651 20.5767C27.7886 20.5767 27.8356 20.5532 27.8591 20.5297C27.8826 20.5062 27.8826 20.4827 27.9061 20.4357C27.9061 20.3653 27.9296 20.3183 27.9296 20.2478C27.9296 20.1773 27.9531 20.1303 27.9531 20.0598C27.9531 20.0129 27.9296 19.9659 27.9061 19.9424C27.8826 19.9189 27.8356 19.8954 27.7886 19.8954C27.6477 19.8954 27.5772 19.9659 27.5772 20.0598Z" fill="#563827"/>
<path d="M26.9194 20.0599C26.9664 20.0599 27.0134 20.0599 27.0604 20.0364C27.0839 20.0129 27.1308 19.9659 27.1308 19.9424C27.1308 19.9189 27.1308 19.8719 27.1543 19.8484C27.1543 19.8014 27.1778 19.7544 27.1778 19.7074C27.1778 19.637 27.1778 19.5665 27.1778 19.5195C27.1778 19.449 27.1309 19.402 27.0604 19.3785C26.9899 19.3785 26.9194 19.402 26.8959 19.4725C26.8724 19.543 26.8489 19.59 26.8489 19.6605C26.8489 19.684 26.8254 19.7309 26.8254 19.7544C26.8254 19.7779 26.8254 19.8249 26.8019 19.8484C26.8019 19.8954 26.8019 19.9424 26.8254 19.9894C26.8254 20.0129 26.8724 20.0599 26.9194 20.0599Z" fill="#563827"/>
<path d="M40.8275 33.4041C40.4516 32.7932 40.0757 32.1824 39.6763 31.5716C38.7601 30.1855 37.7733 28.8698 36.6691 27.6482C36.1053 27.0138 35.5415 26.403 34.9306 25.8392C34.3668 25.2988 33.7794 24.829 33.1686 24.3356C33.1216 24.2181 33.0981 24.1241 33.0512 24.0067C32.7692 23.3254 32.4403 22.6441 32.0174 22.0332C31.6181 21.3989 31.1482 20.8116 30.6548 20.2477C30.4199 19.9893 30.1849 19.7074 29.9265 19.4724C29.7151 19.261 29.4801 19.0731 29.2452 18.9086C29.2452 18.8381 29.2452 18.7676 29.2452 18.7207C29.2452 18.5562 29.2687 18.4152 29.2452 18.2508C29.2687 18.2038 29.3157 18.1568 29.3392 18.1098C29.5271 17.8749 29.7621 17.6635 29.9735 17.4285C30.4199 16.9821 30.8663 16.5358 31.2422 16.0189C31.9705 15.0087 32.1584 13.74 32.0879 12.4949C32.0644 11.8606 31.9705 11.2262 31.853 10.6154C31.759 10.0281 31.5946 9.41725 30.8663 9.37027C30.3259 9.34677 29.8091 9.65219 29.3627 9.93411C28.8928 10.2395 28.4699 10.5919 28.094 10.9913C28.0236 11.0618 27.9766 11.1323 27.9061 11.2028C27.8826 11.1558 27.8356 11.1088 27.7651 11.0618C26.8254 10.498 25.8387 9.79315 24.758 9.51123C23.6538 9.20581 22.5731 9.51123 21.4924 9.65219C21.4454 9.65219 21.3749 9.65219 21.3279 9.67568C21.3514 9.62869 21.3749 9.58171 21.3984 9.55821C21.4454 9.48773 21.3514 9.37026 21.2574 9.41725C21.187 9.46424 21.1165 9.51123 21.0695 9.55821C21.046 9.58171 21.0225 9.6052 20.999 9.62869L20.9755 9.65219C20.952 9.65219 20.952 9.67568 20.9285 9.67568L20.905 9.69917C20.905 9.69917 20.905 9.67568 20.9285 9.67568C20.952 9.6052 20.9755 9.55821 20.952 9.48773C20.9285 9.44075 20.905 9.39376 20.8581 9.34677C20.8111 9.32328 20.7641 9.29978 20.6936 9.29978C20.6231 9.29978 20.5526 9.32328 20.5057 9.37027C20.4822 9.41725 20.4352 9.46424 20.4117 9.51123C20.3882 9.53472 20.3882 9.55821 20.3647 9.6052C20.3412 9.62869 20.3412 9.67568 20.3177 9.69917C19.6364 9.62869 19.0021 9.41725 18.3208 9.20581C17.428 8.92389 16.5353 8.68895 15.5955 8.80642C14.7967 8.92389 13.998 9.2528 13.6456 9.98109C13.6221 9.72267 13.5986 9.46424 13.5751 9.20581C13.5281 8.75944 13.4811 8.31306 13.4106 7.86668C13.3636 7.56127 13.2462 7.23236 12.9878 7.04441C12.6588 6.80948 12.2595 6.90345 11.9305 7.11489C10.8264 7.8197 10.0276 9.01786 9.76915 10.31C9.62819 11.0383 9.62819 11.8136 9.81614 12.5419C9.81614 12.5889 9.83963 12.6124 9.86312 12.6593C9.72216 12.8003 9.5812 12.9883 9.46374 13.1762C8.99387 14.0455 9.06434 15.0792 9.04085 16.0424C9.01736 16.6062 8.97037 17.1936 8.92338 17.7574C8.89989 18.0393 8.8529 18.3213 8.82941 18.6267C8.78242 18.9086 8.68845 19.214 8.85291 19.449C8.8764 19.4959 8.92339 19.5194 8.97037 19.5429C8.80592 19.7779 8.66496 20.0363 8.57098 20.2712C8.38303 20.6706 8.24208 21.117 8.1481 21.5399C7.93666 22.4796 7.84269 23.4193 7.8192 24.3826C7.7957 24.829 7.81919 25.2518 8.19508 25.5572C8.47701 25.7922 8.85291 25.9331 9.2288 26.0271C9.13483 26.403 9.13483 26.7319 9.20531 27.1313C9.27579 27.6012 9.46373 28.071 9.74565 28.4704C10.3565 29.3632 11.2727 29.8565 12.3064 30.162C13.4341 30.5144 14.6323 30.7258 15.807 30.8198C15.7835 31.0077 15.8305 31.2427 15.8774 31.4071C15.9479 31.736 16.0419 32.0649 16.1359 32.3703C16.1829 32.5348 16.2298 32.7227 16.2768 32.8872C15.619 34.0149 15.1491 35.2365 14.6793 36.4347C14.4443 37.069 14.2094 37.7034 14.0215 38.3612C13.8335 39.019 13.5986 39.7708 13.6456 40.4521C13.6456 40.5226 13.6691 40.5931 13.6926 40.64C13.6456 40.781 13.6691 40.9455 13.81 41.0864C15.7365 42.9894 18.6497 42.8954 21.14 42.7779C23.9827 42.6135 26.8254 42.2611 29.5976 41.5563C32.3229 40.8515 34.9776 39.7943 37.327 38.2672C38.5251 37.4919 39.6998 36.5992 40.5926 35.448C40.804 35.1896 41.0389 34.8841 41.1329 34.5552C41.2504 34.0854 41.0154 33.733 40.8275 33.4041ZM11.4372 8.54799C11.6486 8.28957 11.8601 8.07813 12.1185 7.86668C12.2125 7.7962 12.4239 7.58476 12.5649 7.60826C12.6353 7.60826 12.6588 7.72572 12.6823 7.8197C12.8938 8.68895 12.8703 9.6052 13.1992 10.451C12.7528 10.7564 12.3064 11.0618 11.8366 11.3437C11.4372 11.5786 10.9908 11.8136 10.5679 12.072C10.333 10.8269 10.6384 9.51123 11.4372 8.54799ZM13.2932 29.4337C12.3769 29.2222 11.4137 28.9638 10.7324 28.2825C10.1216 27.6952 9.81613 26.8494 9.74565 26.0036C10.5914 26.0976 11.4607 25.9566 12.2125 25.5338C12.236 25.5572 12.2595 25.6042 12.2829 25.6277C12.4239 25.7922 12.5649 25.9801 12.6823 26.1446C12.9643 26.497 13.2932 26.8494 13.716 27.0608C14.6323 27.5072 15.7365 27.4602 16.7467 27.3662C17.7569 27.2723 18.7906 27.0138 19.5424 26.2855C19.8948 25.9331 20.1767 25.5103 20.3647 25.0404C20.5526 24.641 20.8346 24.0067 20.7171 23.5603C20.6466 23.3019 20.3177 23.2079 20.1298 23.3959C19.9653 23.5838 19.9183 23.7952 19.8478 24.0302C19.7774 24.2416 19.7069 24.4531 19.5894 24.6645C19.4015 25.0404 19.1665 25.4163 18.8611 25.6982C18.2033 26.2621 17.2636 26.403 16.4178 26.45C15.5485 26.497 14.6088 26.5675 13.857 26.0741C13.5516 25.8627 13.3167 25.5572 13.0347 25.3223C12.9173 25.2048 12.7998 25.1109 12.6588 25.0404C12.6588 24.641 12.6588 24.2651 12.6588 23.8657C12.9877 23.7952 13.3167 23.6308 13.6456 23.4663C14.3504 23.0904 15.0552 22.738 15.76 22.3386C15.9009 22.2682 15.9479 22.1742 15.9479 22.0567C16.0184 22.0097 16.0889 21.9393 16.1359 21.8688C16.3238 21.6808 16.4178 21.4459 16.5118 21.1875C16.6762 20.6706 16.7937 20.1538 17.0756 19.6604C17.1931 19.449 16.8877 19.2845 16.7467 19.4724C16.4413 19.8718 16.1829 20.2712 16.0184 20.7411C15.9479 20.9525 15.8774 21.1405 15.7365 21.3284C15.619 21.4694 15.4546 21.5869 15.3136 21.6808C14.9142 21.7278 14.4913 21.7278 14.0919 21.7513C13.6456 21.7983 13.1757 21.8453 12.7293 21.8688C12.0715 21.8923 11.3667 21.8453 10.7794 21.5164C10.6384 21.4224 10.4974 21.3284 10.38 21.2345C10.3095 21.1875 10.239 21.164 10.192 21.164C10.145 21.1405 10.0981 21.0935 10.0511 21.07C10.0276 21.07 10.0276 21.0465 10.0041 21.0465L10.0276 21.023C10.0276 20.9995 10.0511 20.9995 10.0511 20.976C10.0746 20.929 10.0981 20.9055 10.1216 20.8586C10.145 20.8351 10.145 20.8351 10.1685 20.8116C10.286 20.6706 10.427 20.5297 10.5444 20.3887C10.6384 20.2947 10.7089 20.2007 10.7559 20.0833C10.7559 20.1068 10.7559 20.0598 10.7559 20.0598C10.7794 20.0363 10.7794 19.9893 10.8029 19.9658C10.8264 19.9188 10.8264 19.8953 10.8264 19.8483C10.8498 19.8014 10.8498 19.7544 10.8498 19.7074C10.8498 19.6369 10.8029 19.5899 10.7324 19.5899C10.6854 19.5899 10.6384 19.6134 10.5914 19.6134C10.474 19.6369 10.38 19.6839 10.3095 19.7309C10.192 19.8014 10.0981 19.9188 10.0041 20.0128C9.83963 20.1772 9.67518 20.3417 9.55771 20.5297C9.48723 20.6236 9.46374 20.7176 9.44024 20.8351C9.41675 20.9525 9.41675 21.0465 9.44024 21.164H9.41675C8.75893 21.4929 11.3432 23.5133 11.6956 23.7013C11.7896 23.7483 11.8601 23.7952 11.954 23.8187C11.954 24.1241 11.954 24.4296 11.954 24.735C11.9305 24.735 11.9071 24.7585 11.9071 24.7585C11.2492 25.0874 10.474 25.2283 9.74565 25.1109C9.48723 25.0639 8.94688 24.9934 8.75893 24.7585C8.66496 24.641 8.71194 24.4296 8.71194 24.2886C8.71194 24.1007 8.71194 23.8892 8.73544 23.7013C8.75893 22.926 8.82941 22.1507 9.01736 21.3989C9.11133 21.023 9.20531 20.6471 9.34627 20.2947C9.46374 19.9423 9.69867 19.5899 9.76915 19.2375C9.79264 19.1435 9.74566 19.0731 9.67518 19.0261C9.69867 18.9321 9.72216 18.8146 9.72216 18.6737C9.76915 18.4152 9.79264 18.1568 9.81614 17.8984C9.88662 17.358 9.91011 16.8412 9.95709 16.3008C9.98059 15.7605 9.98059 15.2436 9.98059 14.7033C10.0041 14.2569 10.0276 13.787 10.192 13.3876C10.38 12.9413 10.7559 12.6593 11.1553 12.4244C11.5781 12.166 12.001 11.9076 12.4239 11.6491C13.1522 11.1558 13.81 10.5919 14.4208 9.9576C14.8202 9.65219 15.3136 9.46424 15.8539 9.44075C16.7232 9.39376 17.522 9.65219 18.3208 9.91061C19.284 10.2395 20.2472 10.5449 21.2809 10.4275C22.2677 10.3335 23.2779 9.91061 24.2646 10.0751C24.8284 10.169 25.3453 10.451 25.8387 10.7564C26.379 11.0853 26.8959 11.4142 27.4362 11.7196C27.4832 11.7431 27.5067 11.7666 27.5537 11.7666C27.4127 11.978 27.2953 12.213 27.1778 12.4479C26.9194 12.9883 26.567 13.7166 26.8019 14.3039C26.8724 14.4918 27.1308 14.6093 27.2953 14.4214C27.6007 14.022 27.6712 13.5286 27.8356 13.0822C28.0236 12.6359 28.2585 12.213 28.5404 11.8371C28.8223 11.4612 29.1747 11.1088 29.5506 10.8034C29.5741 10.7799 29.5976 10.7799 29.5976 10.7564C29.3392 11.0618 29.1043 11.4377 28.9398 11.8136C28.5404 12.7533 28.5639 13.74 28.6814 14.7503C28.7049 15.0087 29.1042 15.0322 29.1042 14.7503C29.1277 13.9045 29.3157 12.9883 29.6681 12.213C29.9735 11.5552 30.4434 10.9913 31.1012 10.6624C31.1247 10.6389 31.1482 10.6389 31.1717 10.6154C31.1952 10.8034 31.2422 10.9913 31.2656 11.1793C31.3596 11.7431 31.4066 12.3069 31.4301 12.8473C31.4301 13.9515 31.1717 14.9852 30.4434 15.831C30.044 16.3008 29.5976 16.7237 29.1982 17.1936C29.1512 17.2406 29.1043 17.311 29.0573 17.3815C28.8928 17.311 28.6344 17.3815 28.5874 17.593C28.5404 17.8749 28.4464 18.0863 28.4229 18.3683C28.3994 18.6737 28.3994 18.9791 28.3994 19.308C28.376 19.8718 28.376 20.4357 28.3525 20.9995C28.329 21.5869 28.329 22.1742 28.3055 22.738C28.3055 23.1844 28.3055 23.6308 28.188 24.0772C28.094 24.5 27.9061 24.8759 27.5302 25.1109C27.1308 25.3693 26.6844 25.4868 26.2381 25.6042C25.1339 25.9331 24.0297 26.2621 22.9255 26.591C22.3146 26.7789 21.6803 26.9669 21.0695 27.1548C20.952 27.2018 20.8111 27.2488 20.6701 27.2723C20.6466 27.1078 20.4587 26.9669 20.2942 27.0373C19.9183 27.1783 19.6834 27.4837 19.4485 27.8126C19.425 27.8361 19.378 27.8596 19.3545 27.8831C19.3075 27.9301 19.284 27.9771 19.3075 28.0241C19.1195 28.306 18.9316 28.5879 18.6967 28.8463C18.4617 29.1517 18.1798 29.4337 17.8274 29.5981C17.4045 29.8096 16.9346 29.8565 16.4648 29.8331C15.3606 29.88 14.3034 29.6686 13.2932 29.4337ZM40.0052 34.6257C39.9112 34.7667 39.8173 34.8841 39.6998 35.0016C39.4649 35.26 39.2299 35.5185 38.9715 35.7534C38.4781 36.2233 37.9378 36.6227 37.3739 37.0221C32.9572 40.0762 27.5772 41.2509 22.2912 41.6503C20.8815 41.7442 19.4485 41.8617 18.0388 41.7442C16.7467 41.6268 15.4311 41.2509 14.4913 40.3346C14.5618 40.0527 14.6088 39.7473 14.6793 39.4654C14.7498 39.1365 14.8437 38.7841 14.9377 38.4551C15.1257 37.7973 15.3606 37.163 15.619 36.5522C15.9714 35.6594 16.3708 34.7667 16.6292 33.8504C16.6997 33.9914 16.7937 34.1324 16.9346 34.1793C17.0991 34.2498 17.2871 34.2263 17.381 34.0619C17.569 33.733 17.3575 33.3336 17.2636 33.0282C17.1696 32.7227 17.0756 32.4408 16.9581 32.1354C16.8642 31.83 16.7467 31.5481 16.6292 31.2662C16.5823 31.1252 16.5118 30.9842 16.4648 30.8433C16.4648 30.8198 16.4413 30.7963 16.4413 30.7728C17.3105 30.7728 18.1328 30.6083 18.8141 29.9975C19.19 29.6686 19.4954 29.2457 19.7774 28.8228C19.9183 28.6114 20.0593 28.4 20.2002 28.1885C20.2237 28.1885 20.2472 28.1885 20.2707 28.165C20.5996 28.0945 20.9285 28.0241 21.2339 27.9536C21.8213 27.8126 22.4086 27.6482 22.996 27.4837C24.1706 27.1548 25.3688 26.8024 26.5435 26.4735C27.0838 26.3325 27.6242 26.1446 28.047 25.8392C28.0705 25.8862 28.0705 25.9331 28.094 25.9801C28.094 26.0271 28.1175 26.0506 28.1175 26.0976C28.1175 26.1211 28.1175 26.1446 28.141 26.1681C28.141 26.2151 28.1645 26.2386 28.188 26.2855C28.235 26.3325 28.329 26.356 28.376 26.309C28.4229 26.2855 28.4464 26.2386 28.4699 26.1916C28.4699 26.1681 28.4934 26.1681 28.4934 26.1446C28.4934 26.1211 28.5169 26.0741 28.5169 26.0506C28.5404 25.9566 28.5169 25.8392 28.4934 25.7452C28.4699 25.6747 28.4464 25.6277 28.4229 25.5572C28.4699 25.5103 28.5404 25.4398 28.5874 25.3693C28.6109 25.3928 28.6344 25.4163 28.6579 25.4398C28.6814 25.4633 28.7049 25.4868 28.7284 25.5103C28.7519 25.5338 28.7753 25.5572 28.7988 25.5807C28.8223 25.6042 28.8693 25.6512 28.9163 25.6747C28.9398 25.6982 28.9633 25.7217 29.0103 25.7217C29.1043 25.7922 29.1982 25.6747 29.1747 25.5807C29.1747 25.5572 29.1512 25.5103 29.1512 25.4868C29.1277 25.4398 29.1043 25.3928 29.0808 25.3693C29.0338 25.2988 28.9868 25.2283 28.9163 25.1579C28.8693 25.1109 28.8223 25.0639 28.7753 25.0404C28.7988 24.9934 28.8223 24.9699 28.8223 24.9229C29.2452 23.9597 29.1747 22.8085 29.1982 21.7748C29.2217 21.0935 29.2452 20.4122 29.2687 19.7309C29.2687 19.7074 29.2687 19.6839 29.2687 19.6604C29.2922 19.7074 29.3392 19.7544 29.3627 19.8014C29.5741 20.0833 29.8091 20.3652 30.0205 20.6471C30.4434 21.211 30.8663 21.7983 31.2422 22.4091C31.4771 22.785 31.6885 23.1609 31.8765 23.5603C31.853 23.5133 31.8295 23.4898 31.806 23.4428C31.7355 23.3019 31.6415 23.1609 31.5241 23.0434C31.4771 22.973 31.4066 22.926 31.3361 22.879C31.2891 22.8555 31.2422 22.785 31.1952 22.738C31.1247 22.6676 31.0072 22.6676 30.9367 22.7145C30.8428 22.785 30.8428 22.879 30.8898 22.973C30.9132 23.02 30.9367 23.0669 30.9602 23.1139C30.9837 23.1844 30.9837 23.2314 31.0072 23.3019C31.0307 23.4193 31.0777 23.5368 31.1247 23.6543C31.1717 23.7717 31.2187 23.9127 31.2422 24.0302C31.2891 24.1711 31.3361 24.3356 31.4066 24.4765L31.4771 24.5705C31.4536 24.5705 31.4301 24.5 31.4536 24.547C31.4536 24.594 31.5241 24.641 31.5476 24.6645C31.6415 24.7585 31.7355 24.8055 31.8765 24.782C32.0174 24.7585 32.1114 24.641 32.1584 24.5235C32.1584 24.5 32.1819 24.4765 32.1819 24.4531C32.1819 24.4061 32.2054 24.3591 32.2054 24.3121C32.2054 24.2886 32.2054 24.2651 32.2054 24.2416C32.2054 24.1946 32.2054 24.1241 32.1819 24.1007C32.1819 24.0772 32.1584 24.0537 32.1584 24.0067C32.1819 24.0772 32.2289 24.1476 32.2524 24.2181C32.3698 24.5235 32.4873 24.8524 32.5813 25.1579C32.6753 25.4868 32.7457 25.9097 33.0277 26.1446C33.1921 26.2621 33.4036 26.2621 33.521 26.0741C33.662 25.8392 33.6385 25.5572 33.5915 25.2753C33.8264 25.5338 34.0379 25.7922 34.2728 26.0271C34.7427 26.544 35.1891 27.0373 35.6354 27.5777C36.5282 28.6584 37.3974 29.7391 38.2197 30.8903C38.6191 31.4541 38.995 32.0179 39.3709 32.6053C39.5588 32.8872 39.7233 33.1926 39.9112 33.4745C39.9817 33.6155 40.0757 33.733 40.1462 33.8739C40.1932 33.9444 40.3576 34.1324 40.3341 34.2263C40.2401 34.3673 40.0522 34.5552 40.0052 34.6257Z" fill="#563827"/>
<path d="M21.3984 33.592L21.3749 33.5685C21.3514 33.5215 21.3044 33.4745 21.2809 33.451L21.2574 33.4275C21.2574 33.4275 21.2574 33.4275 21.2339 33.404C21.2105 33.3806 21.187 33.3336 21.1635 33.3101C21.14 33.2866 21.14 33.2396 21.1165 33.2161C21.1165 33.1926 21.093 33.1691 21.093 33.1456C21.0695 33.0751 21.0225 33.0047 20.999 32.9342C20.952 32.8167 20.8346 32.6757 20.7406 32.5818C20.5996 32.4643 20.3882 32.6053 20.4822 32.7932C20.5291 32.8872 20.5291 32.9812 20.5291 33.0986C20.5291 33.2396 20.5526 33.3806 20.5996 33.498C20.6936 33.7799 20.8815 34.0149 21.0695 34.2733C21.2105 34.4612 21.3514 34.7197 21.6333 34.6492C21.7978 34.6022 21.8918 34.4378 21.8683 34.2968C21.8448 34.1558 21.7743 34.0619 21.6803 33.9679C21.5864 33.8034 21.4924 33.7095 21.3984 33.592Z" fill="#563827"/>
<path d="M21.9153 33.216C21.8918 33.1925 21.8918 33.1925 21.8683 33.169C21.8448 33.1455 21.8213 33.0986 21.7978 33.0751C21.7508 33.0046 21.7038 32.9341 21.6569 32.8636C21.5864 32.7697 21.4454 32.7227 21.3514 32.7697C21.234 32.8401 21.2105 32.9811 21.2575 33.0751C21.3279 33.216 21.4219 33.3335 21.4924 33.451C21.5394 33.5214 21.5864 33.5919 21.6569 33.6624C21.7038 33.7094 21.7743 33.7799 21.8213 33.8269C21.8683 33.8504 21.8918 33.8973 21.9388 33.9208C21.9858 33.9443 22.0797 33.9678 22.1502 33.9443C22.2912 33.8973 22.2912 33.7329 22.2207 33.6154C22.1267 33.4745 22.0093 33.3335 21.9153 33.216Z" fill="#563827"/>
<path d="M27.1543 31.3132C27.0838 31.1957 26.9194 31.1957 26.8489 31.3132L26.8254 31.3367C26.8489 31.3132 26.8489 31.3132 26.8254 31.3367C26.7784 31.3837 26.7784 31.4307 26.7784 31.5011C26.7784 31.5481 26.7784 31.5951 26.7784 31.6186C26.7784 31.7126 26.7549 31.8066 26.7549 31.9005C26.7549 31.924 26.7549 31.924 26.7549 31.9005C26.7549 31.924 26.7549 31.9475 26.7549 31.971C26.7549 31.9945 26.7549 32.018 26.7549 32.0415C26.7549 32.0885 26.7549 32.1355 26.7314 32.1825V32.206C26.7314 32.206 26.7314 32.2059 26.7314 32.2294C26.7314 32.2529 26.7314 32.2764 26.7314 32.2999C26.7314 32.3469 26.708 32.3939 26.708 32.4409C26.6845 32.5349 26.7314 32.6523 26.8254 32.6758C26.9194 32.6993 27.0134 32.6523 27.0604 32.5584C27.1308 32.3939 27.1778 32.2059 27.2248 32.0415C27.2483 31.9475 27.2483 31.8301 27.2718 31.7361C27.2718 31.6186 27.2953 31.5246 27.2483 31.4307C27.1778 31.3602 27.1543 31.3367 27.1543 31.3132Z" fill="#563827"/>
<path d="M27.6712 31.3367C27.6477 31.3602 27.6007 31.4072 27.5772 31.4307C27.5772 31.4542 27.5537 31.4777 27.5537 31.4777C27.5537 31.5012 27.5537 31.5012 27.5302 31.5247C27.5067 31.5952 27.4597 31.6891 27.4362 31.7596C27.3893 31.9006 27.3423 32.0416 27.2953 32.1825C27.2483 32.3 27.3423 32.4409 27.4597 32.4644C27.5772 32.4879 27.6947 32.4174 27.7417 32.3C27.7886 32.159 27.8591 32.0181 27.8826 31.8771C27.9061 31.7831 27.9061 31.7126 27.9061 31.6187C27.9061 31.5247 27.9061 31.4542 27.8826 31.3837C27.8591 31.2898 27.7417 31.2428 27.6712 31.3367Z" fill="#563827"/>
<path d="M32.1115 24.2416V24.2651V24.2886C32.1349 24.2886 32.1349 24.2651 32.1115 24.2416Z" fill="#563827"/>
<path d="M32.1819 25.8157C32.1819 25.7687 32.1819 25.7217 32.1819 25.6747C32.1819 25.6512 32.1819 25.6277 32.1584 25.6042C32.1584 25.5572 32.1349 25.5102 32.1349 25.4632C32.1114 25.4163 32.0644 25.3458 32.0175 25.3223C31.9705 25.2988 31.9 25.2753 31.8295 25.2988C31.712 25.3458 31.6416 25.4632 31.6651 25.5807C31.6651 25.6277 31.6885 25.6747 31.6885 25.7217C31.6885 25.7452 31.6885 25.7687 31.712 25.7922C31.712 25.8391 31.7355 25.8626 31.759 25.8861C31.759 25.9096 31.7825 25.9331 31.7825 25.9566C31.7825 25.9801 31.806 26.0036 31.806 26.0271C31.8295 26.0506 31.8295 26.0976 31.853 26.1211L31.8765 26.1446C31.9235 26.1681 31.947 26.1915 31.994 26.1915C32.0409 26.1915 32.0879 26.1681 32.1114 26.1211C32.1349 26.0741 32.1584 26.0506 32.1584 26.0036C32.1584 25.9801 32.1584 25.9566 32.1584 25.9331C32.1819 25.9096 32.1819 25.8626 32.1819 25.8157Z" fill="#563827"/>
<path d="M13.0113 14.5859C12.9643 14.3979 12.7058 14.4684 12.7058 14.6329C12.6589 15.0557 12.5649 15.5021 12.4474 15.9015C12.4004 16.1129 12.3065 16.3244 12.236 16.5123C12.1655 16.7238 11.9775 16.9587 12.001 17.1701C12.0245 17.4051 12.2595 17.5695 12.4709 17.4286C12.7058 17.2876 12.7998 16.9587 12.8703 16.7003C12.9408 16.4888 12.9878 16.2539 13.0348 16.019C13.1287 15.5491 13.1287 15.0792 13.0113 14.5859Z" fill="#563827"/>
<path d="M14.4209 18.4386C14.2799 18.3916 14.1389 18.3682 13.998 18.3447C13.7161 18.2977 13.4341 18.3447 13.1522 18.3916C13.0817 18.4151 13.0347 18.4856 13.0582 18.5561C13.0817 18.6266 13.1522 18.6501 13.2227 18.6501C13.4576 18.6031 13.716 18.6266 13.951 18.6736C14.0685 18.6971 14.1859 18.7206 14.3034 18.7675C14.4209 18.8145 14.5618 18.885 14.6793 18.838C14.7263 18.8145 14.7733 18.7675 14.7498 18.6971C14.7263 18.5326 14.5618 18.4856 14.4209 18.4386Z" fill="#563827"/>
<path d="M14.6088 18.0159C14.4679 17.9924 14.3034 17.9689 14.1624 17.9689C14.092 17.9689 14.0215 18.0394 14.0215 18.1098C14.0215 18.1803 14.045 18.2743 14.139 18.2743C14.2799 18.2978 14.4444 18.3213 14.5853 18.3448C14.7498 18.3683 14.9142 18.3683 15.0787 18.3448C15.1492 18.3213 15.1492 18.2273 15.1022 18.1803C14.9142 18.0628 14.7498 18.0394 14.6088 18.0159Z" fill="#563827"/>
<path d="M37.1625 30.4205C36.998 30.209 36.8336 29.9976 36.6691 29.7861C36.5047 29.5982 36.3637 29.4337 36.1758 29.2693C36.0583 29.1753 35.9643 29.1048 35.8234 29.0344C35.7059 28.9874 35.6119 28.9169 35.518 28.8464C35.4005 28.7759 35.2125 28.7994 35.1186 28.9169C35.0246 29.0578 35.0481 29.1988 35.1421 29.3163C35.1656 29.3633 35.2125 29.4102 35.236 29.4572C35.2595 29.4807 35.2595 29.4807 35.236 29.4572L35.2595 29.4807C35.2595 29.5042 35.283 29.5277 35.3065 29.5512C35.377 29.6687 35.4475 29.7861 35.5415 29.9036C35.6824 30.0916 35.8469 30.256 35.9878 30.4205C36.0583 30.5144 36.1288 30.5849 36.1993 30.6789C36.2228 30.7024 36.2228 30.7259 36.2463 30.7494C36.2698 30.7964 36.3167 30.8434 36.3402 30.8903C36.4812 31.1018 36.6222 31.3367 36.7866 31.5247C36.9276 31.6656 37.1625 31.7126 37.327 31.5951C37.4914 31.5012 37.6089 31.2662 37.5384 31.0783C37.4914 30.8434 37.327 30.6319 37.1625 30.4205Z" fill="#563827"/>
<path d="M34.3668 28.0242V28.0477C34.3668 28.0477 34.3668 28.0712 34.3903 28.0712C34.3903 28.0712 34.3903 28.0477 34.3668 28.0242Z" fill="#563827"/>
<path d="M34.3903 28.0476C34.3903 28.0241 34.3668 28.0006 34.3668 27.9771C34.3433 27.9536 34.3198 27.9067 34.2963 27.8832C34.2728 27.8597 34.2493 27.8362 34.2259 27.8362C34.1789 27.8127 34.1319 27.7892 34.0849 27.7892C34.0379 27.7892 34.0144 27.7892 33.9674 27.8127C33.8969 27.8362 33.85 27.8832 33.8265 27.9301C33.803 28.0006 33.803 28.0476 33.8265 28.1181C33.85 28.1416 33.85 28.1886 33.8734 28.2121C33.8969 28.2356 33.9204 28.2356 33.9204 28.2591C33.9204 28.2591 33.9204 28.2591 33.9439 28.2825C33.9439 28.2825 33.9439 28.306 33.9674 28.306V28.3295C33.9674 28.353 33.9674 28.353 33.9674 28.3765V28.353C33.9674 28.3765 33.9674 28.4 33.9674 28.4235C33.9674 28.447 33.9674 28.4705 33.9909 28.494C34.0144 28.541 34.0614 28.588 34.1319 28.588C34.1789 28.6115 34.2493 28.588 34.2963 28.5645C34.3198 28.5645 34.3198 28.541 34.3433 28.541C34.3668 28.5175 34.3903 28.4705 34.3903 28.447C34.4138 28.3765 34.4373 28.306 34.4138 28.2591C34.4138 28.2121 34.4138 28.1651 34.3903 28.1416C34.4138 28.1181 34.3903 28.0711 34.3903 28.0476Z" fill="#563827"/>
<path d="M36.1288 31.5011C35.8939 31.5011 35.8939 31.877 36.1288 31.877C36.3873 31.877 36.3873 31.5011 36.1288 31.5011Z" fill="#563827"/>
<path d="M20.8111 10.686C20.7876 10.6155 20.7406 10.545 20.6701 10.4981C20.5996 10.4511 20.5291 10.4041 20.4352 10.4276C20.3412 10.4276 20.2237 10.4511 20.1767 10.545C20.1532 10.5685 20.1298 10.592 20.1298 10.592C20.1063 10.592 20.1063 10.6155 20.0828 10.6155C20.0828 10.592 20.0828 10.5685 20.0828 10.5685C20.0828 10.4746 20.0358 10.4041 19.9888 10.3336C19.9183 10.2866 19.8478 10.2396 19.7774 10.2396C19.7069 10.2396 19.6129 10.2396 19.5424 10.2866C19.4719 10.3336 19.378 10.4041 19.378 10.4981C19.378 10.545 19.378 10.5685 19.378 10.592V10.6155C19.378 10.639 19.331 10.686 19.331 10.686C19.331 10.7095 19.3075 10.7095 19.3075 10.733C19.284 10.8035 19.2605 10.8739 19.2605 10.9444C19.2605 10.9914 19.2605 11.0619 19.284 11.1089C19.3545 11.3203 19.5189 11.5083 19.7539 11.5553C19.8713 11.5788 20.0123 11.5788 20.1298 11.5318C20.2237 11.5083 20.3177 11.4613 20.3882 11.3908C20.4587 11.3438 20.5526 11.2733 20.6231 11.2029C20.6936 11.1324 20.7641 11.0619 20.8111 10.9679C20.8346 10.9209 20.8346 10.78 20.8111 10.686Z" fill="#848383"/>
<path d="M20.2472 12.1191C20.2002 11.9312 20.0123 11.7902 19.8243 11.7902C19.7539 11.7902 19.7069 11.8137 19.6364 11.8137C19.6129 11.8137 19.6129 11.8137 19.5894 11.8137C19.5659 11.8137 19.5659 11.8137 19.6364 11.8137C19.5894 11.8372 19.4954 11.8137 19.4484 11.8137C19.4249 11.8137 19.378 11.8137 19.3545 11.7902C19.331 11.7902 19.3075 11.7667 19.284 11.7667C19.2605 11.7432 19.1665 11.7197 19.143 11.6727C19.19 11.7197 19.19 11.7197 19.1665 11.6962L19.143 11.6727C19.1195 11.6492 19.096 11.6257 19.0725 11.6022C19.0491 11.5788 18.9786 11.5318 18.9786 11.5083C19.0021 11.5553 19.0256 11.5553 18.9786 11.5318C18.9786 11.5318 18.9786 11.5083 18.9551 11.5083C18.9316 11.4848 18.9316 11.4613 18.9081 11.4378C18.9081 11.4143 18.8846 11.3908 18.8846 11.3673V11.3438C18.8611 11.2968 18.8611 11.2498 18.8376 11.1794C18.8376 11.1559 18.8376 11.0854 18.8376 11.1559C18.8376 11.1324 18.8376 11.1089 18.8376 11.0854C18.8376 11.0384 18.8376 10.9914 18.8376 10.9444C18.8376 10.9209 18.8376 10.8974 18.8376 10.8974C18.8376 10.8739 18.8611 10.827 18.8611 10.8035C18.8611 10.7565 18.8846 10.7095 18.9081 10.6625C18.9316 10.5685 18.9786 10.4746 19.0491 10.3806C19.096 10.3101 19.1195 10.2161 19.0725 10.1457C19.0256 10.0752 18.9081 10.0517 18.8376 10.0987C18.7671 10.1457 18.7201 10.1926 18.6497 10.2396C18.6027 10.2866 18.5322 10.3336 18.4852 10.3806C18.3912 10.4981 18.2973 10.639 18.2268 10.827C18.1093 11.1324 18.1093 11.4613 18.2033 11.7667C18.3208 12.0956 18.5322 12.3775 18.8376 12.5655C19.0256 12.6829 19.2135 12.7299 19.4484 12.7534C19.6599 12.7769 19.8948 12.7534 20.0593 12.636C20.2002 12.5185 20.3177 12.307 20.2472 12.1191Z" fill="#848383"/>
<path d="M23.6068 12.6594C23.3719 12.495 23.0664 12.4715 22.808 12.542C22.5261 12.636 22.3147 12.8004 22.1502 13.0588C21.9857 13.3173 21.9623 13.7636 22.2207 13.9751C22.2207 13.9751 22.2442 13.9751 22.2442 13.9986C22.3147 14.0456 22.3616 14.0925 22.4321 14.116C22.4791 14.116 22.5966 14.1395 22.5026 14.116C22.5496 14.116 22.5731 14.1395 22.6201 14.1395C22.7375 14.1395 22.8315 14.0691 22.855 13.9751C22.902 13.8811 22.8785 13.7636 22.808 13.6932C22.808 13.6932 22.808 13.6932 22.808 13.6697C22.808 13.6697 22.808 13.6697 22.808 13.6932V13.6697C22.808 13.6697 22.808 13.6697 22.808 13.6462C22.8315 13.6227 22.855 13.5757 22.855 13.5522C22.8785 13.5287 22.902 13.5052 22.9255 13.4817C22.949 13.4582 22.9725 13.4582 22.996 13.4347C23.0195 13.4347 23.0664 13.4112 23.0899 13.4112H23.1134C23.1369 13.4112 23.1369 13.4112 23.1604 13.4347C23.1604 13.4347 23.1839 13.4347 23.1839 13.4582C23.2074 13.4817 23.2074 13.4817 23.2309 13.5052C23.2309 13.5287 23.2544 13.5287 23.2544 13.5522C23.3249 13.6462 23.3954 13.7167 23.5128 13.7636C23.6303 13.8106 23.7947 13.7636 23.8652 13.6697C24.1941 13.2703 23.8887 12.8474 23.6068 12.6594Z" fill="#848383"/>
<path d="M23.4187 14.5153L23.3954 14.4919C23.4187 14.4919 23.4187 14.4919 23.4187 14.5153Z" fill="#848383"/>
<path d="M23.8887 14.2334C23.8887 14.2099 23.8887 14.2099 23.8887 14.1865C23.8652 14.116 23.8417 14.0925 23.7948 14.0455C23.7948 14.022 23.7713 14.022 23.7478 13.9985C23.7243 13.975 23.6773 13.9515 23.6538 13.928C23.6303 13.9045 23.5833 13.9045 23.5363 13.881C23.4893 13.8575 23.4658 13.8575 23.4189 13.8575C23.3954 13.8575 23.3954 13.8575 23.3719 13.8575C23.3249 13.8575 23.3014 13.8575 23.2544 13.881C23.2309 13.881 23.2074 13.9045 23.1839 13.928C23.1604 13.9515 23.1369 13.975 23.1369 13.9985L23.1134 14.0455C23.1134 14.069 23.1134 14.0925 23.1134 14.1395C23.1134 14.163 23.1134 14.1865 23.1369 14.1865C23.1369 14.2099 23.1604 14.2334 23.1839 14.2569C23.2309 14.2804 23.2544 14.3039 23.3014 14.3039C23.3014 14.3039 23.3014 14.3039 23.3249 14.3039V14.3274V14.3509C23.3249 14.3744 23.3249 14.3744 23.3484 14.3979C23.3484 14.4214 23.3719 14.4449 23.3719 14.4449C23.3954 14.4919 23.4188 14.5154 23.4658 14.5389C23.5128 14.5623 23.5598 14.5858 23.6068 14.5858C23.6538 14.5858 23.7008 14.5623 23.7478 14.5389C23.7947 14.5154 23.8182 14.4919 23.8417 14.4449C23.8417 14.4214 23.8652 14.3979 23.8652 14.3979C23.8652 14.3744 23.8652 14.3744 23.8887 14.3509C23.9122 14.3274 23.9122 14.2804 23.8887 14.2334Z" fill="#848383"/>
<path d="M26.8019 12.0015C26.7549 11.931 26.7079 11.884 26.6374 11.837C26.5435 11.7666 26.379 11.7431 26.285 11.7901C26.2615 11.8135 26.2146 11.8135 26.1911 11.837C26.1911 11.8135 26.1911 11.7901 26.1911 11.7666C26.1911 11.7431 26.2146 11.7196 26.2146 11.6726C26.2381 11.6491 26.2381 11.6256 26.2615 11.5786C26.2381 11.6021 26.2381 11.6491 26.2146 11.6726C26.2381 11.6256 26.2615 11.6021 26.285 11.5551C26.285 11.5551 26.285 11.5551 26.285 11.5316C26.379 11.4611 26.426 11.3437 26.4025 11.2262C26.3555 11.1087 26.2615 11.0383 26.1206 11.0148C26.0971 11.0148 26.0971 11.0148 26.0736 11.0148C26.0266 11.0148 26.0031 11.0148 25.9561 11.0148C25.8387 11.0148 25.7917 11.0383 25.6977 11.0853C25.5802 11.1557 25.4863 11.2497 25.4158 11.3672C25.2748 11.5786 25.2513 11.9075 25.3218 12.1425C25.3688 12.2834 25.4393 12.4009 25.5333 12.5184C25.6272 12.6358 25.7447 12.7063 25.8857 12.7533C26.0266 12.8003 26.1911 12.8003 26.332 12.7768C26.473 12.7298 26.6374 12.6593 26.7314 12.5418C26.8019 12.4714 26.8489 12.3774 26.8489 12.2834C26.8724 12.2129 26.8489 12.0955 26.8019 12.0015Z" fill="#848383"/>
<path d="M25.9326 13.3878C25.9326 13.3643 25.9091 13.3408 25.9091 13.3173C25.8856 13.2938 25.8856 13.2703 25.8621 13.2703C25.8621 13.2703 25.8386 13.2703 25.8386 13.2468L25.8152 13.2233C25.7917 13.1998 25.7682 13.1998 25.7447 13.1763L25.7212 13.1528C25.6977 13.1293 25.6507 13.1058 25.6272 13.0588C25.6272 13.0588 25.6272 13.0588 25.6507 13.0823C25.6272 13.0588 25.6272 13.0354 25.6037 13.0354C25.5802 13.0119 25.5567 13.0119 25.5332 12.9884C25.4862 12.9649 25.4158 12.9884 25.3688 13.0119C25.3218 13.0354 25.2748 13.0823 25.2748 13.1293C25.2513 13.1763 25.2748 13.2468 25.2983 13.2938C25.3218 13.3408 25.3453 13.3878 25.3923 13.4113C25.4158 13.4347 25.4393 13.4582 25.4628 13.4817C25.4862 13.5052 25.5097 13.5287 25.5332 13.5522C25.5567 13.5757 25.6037 13.5757 25.6272 13.5992C25.6507 13.5992 25.6507 13.5992 25.6742 13.6227H25.6977C25.7212 13.6227 25.7447 13.6227 25.7447 13.6227C25.7682 13.6227 25.8152 13.6227 25.8386 13.5992C25.8621 13.5757 25.9091 13.5522 25.9091 13.5052C25.9326 13.4817 25.9326 13.4347 25.9326 13.3878Z" fill="#848383"/>
<path d="M25.7447 21.399C25.6037 21.2345 25.3688 21.0935 25.1574 21.0466C25.0164 21.0231 24.8519 21.0231 24.711 21.0701C24.57 21.117 24.4525 21.1875 24.3586 21.2815C24.2411 21.399 24.1706 21.5869 24.1706 21.7514C24.1706 21.9393 24.2646 22.1508 24.476 22.1977C24.57 22.2212 24.664 22.1977 24.7345 22.1273C24.758 22.1038 24.758 22.1038 24.7815 22.0803C24.8049 22.0568 24.805 22.0333 24.8284 22.0098C24.8519 21.9863 24.8519 21.9628 24.8754 21.9158C24.8754 21.9158 24.8754 21.8923 24.8989 21.8923C24.8989 21.8923 24.8989 21.8923 24.9224 21.8923C24.9224 21.8923 24.9224 21.8923 24.9459 21.8923C24.9694 21.8923 24.9929 21.8923 25.0164 21.9158C25.0399 21.9158 25.0634 21.9393 25.0634 21.9393C25.0869 21.9628 25.1104 21.9863 25.1104 21.9863C25.1339 22.0098 25.1339 22.0333 25.1574 22.0568C25.1574 22.0803 25.1808 22.1038 25.1808 22.1273C25.1808 22.1508 25.1808 22.1977 25.1808 22.2212C25.1808 22.2447 25.1574 22.2917 25.1574 22.3152C25.1574 22.3622 25.1339 22.4092 25.1339 22.4797C25.1339 22.5032 25.1339 22.5266 25.1339 22.5501C25.1339 22.5971 25.1339 22.6441 25.1339 22.6911C25.1573 22.8086 25.2983 22.926 25.4158 22.9025C25.4863 22.9025 25.5332 22.879 25.5802 22.8556H25.6037C25.6742 22.8321 25.7212 22.7851 25.7917 22.7381C25.8622 22.6676 25.9091 22.5736 25.9561 22.4797C26.0031 22.3622 26.0031 22.2447 26.0031 22.1273C26.0031 21.8453 25.9091 21.6104 25.7447 21.399Z" fill="#848383"/>
<path d="M24.8049 22.4092C24.7815 22.3622 24.7345 22.3387 24.6875 22.3152C24.6405 22.2917 24.5935 22.2917 24.5465 22.3152C24.4995 22.3387 24.429 22.3622 24.4056 22.4092C24.3586 22.5032 24.3351 22.5737 24.3116 22.6676C24.2881 22.7146 24.2881 22.7616 24.2881 22.8321C24.2881 22.8556 24.2881 22.8791 24.2881 22.8791C24.2881 22.9261 24.2881 22.9496 24.3116 22.973C24.3116 22.9965 24.3116 23.02 24.3351 23.067C24.3586 23.1375 24.4056 23.1845 24.476 23.1845C24.5465 23.1845 24.617 23.161 24.6405 23.114C24.6405 23.0905 24.664 23.067 24.6875 23.0435C24.711 23.02 24.711 22.9965 24.7345 22.973C24.7345 22.9496 24.758 22.9261 24.758 22.9026C24.758 22.8791 24.7814 22.8321 24.7814 22.8086C24.8049 22.7381 24.8284 22.6676 24.8519 22.5971C24.8284 22.5267 24.8284 22.4562 24.8049 22.4092Z" fill="#848383"/>
<path d="M31.4066 28.9875C31.3831 28.8935 31.3127 28.7995 31.2187 28.729C31.1247 28.682 31.0072 28.6586 30.8898 28.682C30.7958 28.7055 30.7488 28.7525 30.6783 28.7995C30.6548 28.823 30.6314 28.823 30.6079 28.8465H30.5844C30.5374 28.8465 30.4669 28.823 30.4199 28.7995C30.3964 28.7995 30.3729 28.776 30.3494 28.7525C30.3729 28.729 30.3964 28.729 30.4199 28.729C30.4669 28.7055 30.5139 28.7055 30.5609 28.682C30.5374 28.682 30.5139 28.7055 30.4904 28.7055C30.5139 28.7055 30.5139 28.7055 30.5374 28.682C30.6313 28.6351 30.7253 28.5881 30.7488 28.4706C30.7723 28.3766 30.7488 28.2357 30.6783 28.1652C30.5609 28.0712 30.4199 28.0007 30.2789 28.0007C30.138 28.0007 30.0205 28.0477 29.9031 28.1182C29.6681 28.2592 29.5037 28.5411 29.5037 28.823C29.5037 28.964 29.5506 29.1049 29.6211 29.2459C29.6916 29.3868 29.8091 29.4808 29.9265 29.5513C30.0205 29.6218 30.138 29.6688 30.2555 29.6923C30.3729 29.7392 30.5139 29.7627 30.6548 29.7392C30.8193 29.7392 30.9837 29.6923 31.1247 29.5983C31.2187 29.5278 31.2892 29.4573 31.3596 29.3634C31.4066 29.2694 31.4301 29.1049 31.4066 28.9875Z" fill="#848383"/>
<path d="M32.7927 29.9271C32.6988 29.9036 32.6048 29.9036 32.5108 29.9036C32.2994 29.9036 32.0879 29.974 31.947 30.1385C31.853 30.209 31.806 30.3264 31.7825 30.4204C31.759 30.5144 31.759 30.5849 31.7825 30.6554C31.806 30.8198 31.9939 30.9373 32.1584 30.8903C32.1819 30.8903 32.1819 30.8668 32.2054 30.8668C32.2054 30.9138 32.2054 30.9608 32.2524 31.0078C32.2759 31.0312 32.2759 31.0547 32.2994 31.0782C32.3464 31.1252 32.3933 31.1487 32.4403 31.1487C32.4873 31.1722 32.5813 31.1722 32.6283 31.1487C32.6518 31.1487 32.6518 31.1487 32.6753 31.1252C32.7692 31.1017 32.8162 31.0547 32.8867 31.0078C32.9572 30.9608 33.0042 30.8903 33.0512 30.8198C33.0981 30.7493 33.1216 30.6788 33.1686 30.5849C33.1686 30.5614 33.1921 30.5379 33.1921 30.5144C33.1921 30.4674 33.2156 30.3969 33.2156 30.3499C33.1216 30.1385 32.9807 29.974 32.7927 29.9271Z" fill="#848383"/>
<path d="M34.2493 31.1721C34.0849 30.9372 33.7794 30.8902 33.568 31.0781C33.474 31.1486 33.4036 31.2661 33.3566 31.3601L33.3331 31.3835C33.3331 31.3835 33.3331 31.3835 33.3096 31.407C33.2861 31.4305 33.2861 31.4305 33.2626 31.454C33.2626 31.454 33.2626 31.454 33.2391 31.4775L33.1921 31.5245C33.1686 31.5245 33.1686 31.548 33.1451 31.548C33.1451 31.548 33.1451 31.548 33.1216 31.548C33.0981 31.548 33.0746 31.548 33.0512 31.5715C33.0512 31.5715 33.0512 31.5715 33.0277 31.5715C33.0042 31.5715 32.9807 31.5715 32.9337 31.5715C32.8632 31.5715 32.7927 31.5715 32.7457 31.5715C32.6048 31.5715 32.4638 31.5715 32.3229 31.5715C32.2994 31.5715 32.2759 31.5715 32.2289 31.5715H32.2054H32.1819H32.1584C32.1349 31.5715 32.1114 31.548 32.1114 31.548C32.0879 31.5245 32.0644 31.5245 32.0409 31.501C32.0174 31.4775 32.0174 31.4775 31.9939 31.454C31.9705 31.407 31.9705 31.4305 31.9939 31.454L31.9705 31.4305C31.9 31.3131 31.806 31.2191 31.7355 31.1016C31.5946 30.8902 31.3126 30.9842 31.2891 31.2191C31.2657 31.3835 31.2422 31.454 31.2657 31.595C31.2891 31.7359 31.3361 31.8769 31.3831 31.9944C31.5241 32.2528 31.759 32.4407 32.0409 32.5112C32.2994 32.5582 32.5813 32.5347 32.8632 32.5347C33.1451 32.5347 33.4505 32.5112 33.6855 32.3468C33.8969 32.2058 34.0849 32.0179 34.2023 31.7829C34.2963 31.5715 34.3668 31.3601 34.2493 31.1721Z" fill="#848383"/>
<path d="M35.189 33.8976C35.1656 33.8506 35.1421 33.7801 35.1186 33.7332C35.0481 33.6392 35.0246 33.5922 34.9306 33.5452C34.9071 33.5217 34.8836 33.5217 34.8601 33.4982C34.8366 33.4747 34.8131 33.4512 34.7897 33.4512C34.7427 33.4277 34.6957 33.4042 34.6487 33.4042C34.6017 33.3807 34.5312 33.4042 34.4842 33.4042C34.4608 33.4277 34.4138 33.4277 34.3903 33.4512H34.3668C34.2963 33.4747 34.2493 33.4982 34.2023 33.5217C34.1553 33.5452 34.1083 33.5452 34.0614 33.5687C33.9439 33.6392 33.8264 33.7566 33.8029 33.8976C33.7794 34.0151 33.7794 34.109 33.8029 34.203C33.8029 34.2735 33.8499 34.3205 33.8734 34.391C33.8969 34.438 33.9204 34.4614 33.9439 34.5084C33.9909 34.5789 34.0379 34.6259 34.1318 34.6729C34.1553 34.6964 34.1788 34.6964 34.2023 34.7199C34.2493 34.7434 34.3198 34.7669 34.3903 34.7904C34.5077 34.8138 34.6487 34.8138 34.7662 34.7669C34.8131 34.7434 34.8836 34.7199 34.9306 34.6964C34.9776 34.6494 35.0246 34.6259 35.0716 34.5789C35.1421 34.4849 35.2125 34.391 35.236 34.25C35.236 34.156 35.236 34.0151 35.189 33.8976Z" fill="#848383"/>
<path d="M36.4577 34.1559C36.4342 33.9914 36.3872 33.8505 36.2463 33.733C36.1053 33.6155 35.8939 33.5685 35.7294 33.7095C35.5884 33.827 35.5415 34.0149 35.6119 34.2029V34.2263C35.6119 34.2498 35.6119 34.2968 35.6354 34.3203C35.6354 34.3673 35.6354 34.3908 35.6589 34.4378C35.6589 34.3908 35.6589 34.3673 35.6354 34.3203C35.6589 34.4378 35.6589 34.5553 35.6354 34.6962C35.6354 34.7432 35.6119 34.7902 35.6119 34.8372C35.5884 34.8607 35.5884 34.8842 35.5649 34.9077C35.5415 34.9546 35.518 35.0016 35.4945 35.0251L35.471 35.0486C35.4475 35.0721 35.424 35.0721 35.424 35.0956C35.424 35.0956 35.424 35.0956 35.4005 35.0956C35.377 35.1191 35.3535 35.1191 35.33 35.1426C35.33 35.1426 35.33 35.1426 35.3065 35.1426C35.283 35.1426 35.2595 35.1661 35.236 35.1661H35.2125C35.2125 35.1661 35.1891 35.1661 35.1656 35.1661C35.1421 35.1661 35.1186 35.1661 35.0951 35.1426C35.0951 35.1426 35.0716 35.1426 35.0716 35.1191C34.9541 35.0486 34.8132 35.0721 34.7192 35.1896C34.6487 35.2836 34.6487 35.448 34.7427 35.542C34.9306 35.7064 35.189 35.8239 35.4475 35.8004C35.7529 35.7769 35.9878 35.6125 36.1758 35.3775C36.3637 35.1426 36.4342 34.8607 36.4577 34.5787C36.5047 34.4378 36.4812 34.2968 36.4577 34.1559Z" fill="#848383"/>
<path d="M31.759 36.3877C31.7824 36.341 31.7824 36.3643 31.759 36.3877V36.3877Z" fill="#848383"/>
<path d="M34.1788 36.8577C34.1083 36.6697 34.0144 36.5053 33.8969 36.3408C33.6385 36.0354 33.2391 35.871 32.8632 35.871C32.6518 35.871 32.4638 35.918 32.2759 36.0119C32.0879 36.1059 31.9235 36.2234 31.806 36.4113C31.7825 36.4348 31.7355 36.5053 31.7355 36.5053C31.712 36.5288 31.712 36.5523 31.6885 36.5758C31.6415 36.6697 31.5945 36.7637 31.5711 36.8577C31.5241 37.0926 31.5711 37.3041 31.759 37.4685C31.8765 37.5625 32.1349 37.5625 32.1819 37.3511C32.1819 37.3276 32.1819 37.3041 32.2054 37.2806C32.2289 37.2336 32.2524 37.1866 32.2524 37.1396C32.2759 37.0926 32.2994 37.0456 32.3228 36.9987C32.3463 36.9752 32.3698 36.9517 32.3933 36.9282C32.4168 36.9047 32.4638 36.8812 32.5108 36.8577C32.4403 36.9282 32.5108 36.8577 32.5343 36.8577C32.5578 36.8342 32.5813 36.8342 32.6048 36.8107C32.6283 36.8107 32.6518 36.7872 32.6518 36.7872C32.6283 36.7872 32.6283 36.8107 32.6048 36.8107C32.6518 36.7872 32.7222 36.7637 32.7692 36.7637C32.8162 36.7637 32.8397 36.7637 32.8867 36.7637H32.9102C32.9337 36.7637 32.9572 36.7637 32.9807 36.7872C33.0042 36.7872 33.0277 36.8107 33.0746 36.8107C33.0746 36.8107 33.0746 36.8107 33.0981 36.8107C33.1216 36.8342 33.1451 36.8342 33.1686 36.8577C33.1686 36.8577 33.1921 36.8577 33.1921 36.8812C33.2391 36.9047 33.2626 36.9517 33.3096 36.9987C33.3331 37.0222 33.3331 37.0456 33.3566 37.0691C33.3566 37.0691 33.3566 37.0691 33.3566 37.0926C33.3566 37.0926 33.3801 37.1396 33.3801 37.1631C33.3801 37.1866 33.4035 37.2101 33.4035 37.2571C33.4035 37.2571 33.4035 37.2806 33.4035 37.3041C33.4035 37.3276 33.4035 37.3746 33.427 37.398C33.427 37.3511 33.427 37.3276 33.427 37.3511C33.427 37.398 33.427 37.445 33.4505 37.4685C33.474 37.5155 33.474 37.539 33.4975 37.586C33.615 37.8209 33.9439 37.8444 34.1084 37.6565C34.2728 37.4215 34.2493 37.0926 34.1788 36.8577Z" fill="#848383"/>
<path d="M33.0512 37.2336C33.0042 37.1866 32.9572 37.1631 32.8867 37.1631C32.8397 37.1631 32.7692 37.1866 32.7222 37.2336C32.6753 37.2806 32.6518 37.3275 32.6518 37.398C32.6518 37.4685 32.6518 37.5155 32.6518 37.586C32.6518 37.6095 32.6753 37.6564 32.6753 37.6799C32.6988 37.7269 32.6988 37.7504 32.7222 37.7974C32.7457 37.8444 32.7927 37.8679 32.8632 37.8679C32.9102 37.8679 32.9807 37.8444 33.0042 37.7974C33.0277 37.7739 33.0277 37.7269 33.0512 37.6799C33.0512 37.6564 33.0747 37.6095 33.0747 37.586C33.0747 37.5155 33.0747 37.4685 33.0747 37.398C33.0981 37.351 33.0746 37.2806 33.0512 37.2336Z" fill="#848383"/>
<path d="M28.2115 29.5746C28.2115 29.5512 28.2115 29.5277 28.188 29.5277C28.1645 29.4572 28.141 29.3867 28.094 29.3397C28.0705 29.2927 28.0236 29.2457 28.0001 29.2222C27.9531 29.1753 27.9061 29.1518 27.8826 29.1283C27.8591 29.1283 27.8591 29.1048 27.8356 29.1048C27.7886 29.0813 27.7416 29.0578 27.6947 29.0343C27.6477 29.0108 27.6242 29.0108 27.5772 29.0108C27.5302 29.0108 27.5067 28.9873 27.4597 29.0108C27.4127 29.0108 27.3423 29.0108 27.2953 29.0343C27.2483 29.0578 27.2013 29.0578 27.1778 29.0813C27.1778 29.0813 27.1543 29.0813 27.1543 29.1048C27.1073 29.1283 27.0603 29.1518 27.0368 29.1988C27.0133 29.2222 26.9899 29.2692 26.9664 29.2927C26.9429 29.3162 26.9429 29.3397 26.9429 29.3632C26.9429 29.3867 26.9194 29.4102 26.9194 29.4337C26.9194 29.4572 26.8959 29.5277 26.8959 29.5512V29.5746C26.8959 29.5981 26.8959 29.6686 26.9194 29.6921C26.9194 29.7156 26.9429 29.7391 26.9664 29.7861C26.9664 29.8096 26.9664 29.8096 26.9664 29.8331C26.9664 29.8801 26.9664 29.9271 26.9898 29.974C26.9898 29.9975 26.9898 29.9975 26.9898 30.021C27.0133 30.115 27.0603 30.1855 27.1308 30.2795C27.1543 30.3029 27.2013 30.3499 27.2483 30.3734C27.2718 30.3734 27.2718 30.3969 27.2953 30.3969C27.3423 30.4204 27.3892 30.4439 27.4362 30.4439C27.4832 30.4439 27.5302 30.4674 27.5772 30.4674H27.6007C27.6242 30.4674 27.6477 30.4674 27.6712 30.4674C27.6947 30.4674 27.7181 30.4674 27.7416 30.4674C27.7886 30.4439 27.8356 30.4204 27.8826 30.4204C27.9061 30.4204 27.9061 30.3969 27.9296 30.3969C27.9766 30.3734 28.0236 30.3264 28.0471 30.3029C28.1175 30.209 28.1645 30.1385 28.2115 30.0445C28.2115 30.021 28.2115 30.021 28.235 29.9975C28.235 29.9505 28.2585 29.8801 28.2585 29.8331C28.235 29.6686 28.2115 29.6216 28.2115 29.5746Z" fill="#848383"/>
</g>
</svg>
