<svg width="40" height="40" viewBox="0 0 40 40" fill="none" xmlns="http://www.w3.org/2000/svg">
<mask id="mask0_601_3453" style="mask-type:luminance" maskUnits="userSpaceOnUse" x="-2" y="-2" width="46" height="43">
<path d="M20.94 40.24C8.71243 40.24 -1.19999 30.9654 -1.19999 19.5247C-1.19999 8.08399 8.71243 -1.19055 20.94 -1.19055C33.1676 -1.19055 43.08 8.08399 43.08 19.5247C43.08 30.9654 33.1676 40.24 20.94 40.24Z" fill="white"/>
</mask>
<g mask="url(#mask0_601_3453)">
<path d="M10.6955 30.7869C10.8764 30.3573 11.0799 29.9276 11.3513 29.5431C11.487 29.3622 11.6227 29.2039 11.8036 29.0456C11.9619 28.9099 12.1654 28.7516 12.2785 28.5707C12.369 28.6159 12.4368 28.6385 12.5273 28.6838C12.5273 29.0908 12.5047 29.4979 12.5047 29.905C12.5047 30.3573 12.4594 30.8096 12.4142 31.2619C12.3464 31.7142 12.2785 32.2117 12.0976 32.6414C11.8488 33.1615 11.3513 33.2746 10.8538 33.3877C10.4693 33.4781 10.0623 33.5686 9.65519 33.546C9.74565 33.4103 9.79088 33.2294 9.85873 33.071C9.9718 32.7771 10.0849 32.5057 10.1979 32.2117C10.3336 31.7368 10.4919 31.2619 10.6955 30.7869Z" fill="#ACA491"/>
<path d="M8.7732 36.9608C9.90395 37.3226 11.0573 37.5488 12.2333 37.6392C14.9923 37.8428 17.7966 37.2548 20.1711 35.8074C22.3195 34.4732 23.993 32.4604 24.8072 30.0406C24.9881 29.4979 25.1238 28.9099 25.2143 28.3445C25.8249 28.0505 26.4128 27.7339 26.9782 27.3495C27.2044 27.1912 27.4079 27.0328 27.6114 26.8519C27.6567 26.8745 27.7245 26.8745 27.7697 26.8745C27.9507 27.4399 28.1994 27.9827 28.4482 28.548C28.7196 29.2039 28.9909 29.8597 29.2171 30.5382C29.692 31.8498 30.0991 33.1841 30.3704 34.541C30.5966 35.7622 30.7323 37.0513 30.6418 38.2951C30.6192 38.5438 30.6418 38.8831 30.5061 39.1092C30.3705 39.3354 30.0765 39.4484 29.8503 39.5615C29.2623 39.8329 28.6517 40.0817 28.0411 40.2852C25.5535 41.1672 22.9301 41.6195 20.2842 41.6873C17.7739 41.7552 15.2863 41.4385 12.8665 40.8732C11.6905 40.6018 10.4919 40.2852 9.36119 39.8781C9.11243 39.7877 8.81844 39.6746 8.63752 39.4711C8.4566 39.2675 8.41137 38.9961 8.41137 38.7248C8.41137 38.1142 8.70536 37.5488 8.7732 36.9608Z" fill="#ACA491"/>
<path d="M2.55408 22.5551C2.62193 21.5374 2.80285 20.5198 3.02899 19.5247C3.50391 17.4894 4.27282 15.5219 5.06434 13.577C5.40356 12.7176 5.74278 11.7904 6.33077 11.0667C7.03184 10.23 8.00428 10.0491 9.04456 10.1621C10.0848 10.2752 11.1025 10.5014 12.0976 10.818C12.5951 10.9763 13.0926 11.1572 13.5675 11.3607C13.8163 11.4738 14.0651 11.5869 14.3138 11.6773C14.1781 11.7226 14.0651 11.7452 13.9294 11.7904C13.7259 11.8582 13.5449 11.9261 13.3414 11.9939C12.7308 11.4964 11.9619 11.2476 11.2156 11.0441C10.8085 10.931 10.4015 10.8406 9.97178 10.7953C9.63255 10.7727 9.04456 10.7275 8.84103 11.0667C8.7958 11.1346 8.81841 11.225 8.88626 11.2703C9.02194 11.3833 9.2481 11.3833 9.42902 11.3833C9.60994 11.3833 9.81347 11.3833 9.99439 11.3833C10.3562 11.4059 10.7407 11.4512 11.1025 11.5416C11.487 11.6321 11.8488 11.7452 12.2106 11.8809C12.4368 11.9487 12.6856 12.0392 12.9117 12.1296C12.8213 12.1749 12.7082 12.1975 12.6177 12.2427C12.5046 12.3105 12.4368 12.401 12.3237 12.4689C12.2106 12.5367 12.2785 12.7176 12.3916 12.695C12.5725 12.6724 12.6856 12.695 12.8665 12.6724C13.0248 12.6272 13.1831 12.6045 13.3188 12.5593C13.6128 12.4915 13.9068 12.4236 14.1782 12.3558C14.7888 12.1975 15.422 12.0844 16.0326 11.9713C18.0905 11.6095 20.2163 11.4964 22.2969 11.8582C23.2241 12.0166 24.1513 12.2879 25.0107 12.6498C25.463 12.8307 25.8927 13.0342 26.2997 13.283C26.6842 13.5091 27.1139 13.8257 27.5662 13.8936C27.7923 13.9388 27.928 13.6901 27.8376 13.5091C27.7471 13.3282 27.6114 13.1699 27.4305 13.0342C27.4531 13.0342 27.4757 13.0342 27.4757 13.0342C27.9054 13.0116 28.3351 13.0116 28.7648 13.0116C29.1945 13.0116 29.6241 13.0568 30.0538 13.1021C30.28 13.1247 30.5287 13.1473 30.7549 13.1699C30.981 13.1925 31.2298 13.1699 31.4559 13.1925C31.5916 13.2151 31.7047 12.989 31.5464 12.9211C31.3203 12.8307 31.1167 12.7402 30.9132 12.6724C30.687 12.6045 30.4383 12.5593 30.2121 12.5141C29.7598 12.4236 29.3075 12.3784 28.8552 12.3558C28.4708 12.3332 28.0863 12.3332 27.7019 12.3332C28.2899 12.2201 28.9005 12.107 29.5111 12.0166C30.1217 11.9261 30.7323 11.8582 31.3429 12.0166C31.8856 12.1522 32.3832 12.401 32.8128 12.7628C33.6948 13.4639 34.2828 14.4137 34.6899 15.454C35.1422 16.5848 35.4588 17.7834 35.7302 18.9593C36.2955 21.3339 36.5669 23.7763 36.3408 26.1961C36.2503 27.1007 36.0694 28.0958 35.4362 28.7968C35.1874 29.0682 34.916 29.2265 34.5994 29.317C35.0065 28.6159 35.21 27.8244 35.3457 27.0329C35.4814 26.1735 35.4588 25.2915 35.3005 24.4321C35.2779 24.2512 34.9839 24.2512 34.9839 24.4548C35.0517 25.2915 34.9386 26.1056 34.7351 26.9198C34.5316 27.7113 34.1245 28.435 33.7174 29.136C33.6722 29.2265 33.6722 29.317 33.6948 29.4074C33.333 29.3848 32.9711 29.317 32.6319 29.2265C32.1344 29.0908 31.6369 28.9099 31.1619 28.729C30.6644 28.5481 30.1669 28.3219 29.7598 27.9827C29.0814 27.4399 28.7874 26.5353 29.1492 25.7212C29.1718 25.676 29.1718 25.6081 29.1718 25.5629C29.3301 25.382 29.4884 25.201 29.6241 24.9975C30.1217 24.3191 30.1217 23.5502 30.0086 22.7586C29.8955 21.8314 29.7598 20.9042 29.5563 19.977C29.3754 19.0498 29.0814 18.1904 28.8326 17.2858C28.7648 17.0823 28.4255 17.1501 28.4708 17.3537C28.6065 18.1678 28.6743 19.0272 28.7874 19.8413C28.9005 20.6781 28.9909 21.5148 29.0814 22.3516C29.1492 23.0074 29.3301 23.7989 28.9457 24.3869C28.7195 24.7035 28.4482 24.9975 28.1994 25.2915L27.8149 25.7438C27.7471 25.8343 27.7019 25.8795 27.634 25.9247C27.4757 25.97 27.3853 26.1056 27.34 26.264C27.1139 26.3996 26.8651 26.5579 26.6164 26.6936C26.1867 26.9424 25.757 27.1685 25.3273 27.3721C25.3499 27.0781 25.3499 26.7841 25.3499 26.4901C25.3499 25.5403 25.1916 24.6583 24.9202 23.7763C25.0107 23.8442 25.0785 23.912 25.169 23.9798C25.2142 24.0251 25.3047 24.0251 25.3499 23.9798C25.4178 23.9346 25.4178 23.8668 25.4178 23.7989C25.3725 23.618 25.3273 23.4597 25.2142 23.3014C25.1238 23.1657 24.9881 23.03 24.8524 22.9169C24.7167 22.8039 24.5358 22.7134 24.3775 22.6456C24.287 22.6003 24.1966 22.5777 24.0835 22.5551C23.993 22.5325 23.9252 22.5325 23.8347 22.5551C23.8121 22.5551 23.8121 22.5551 23.7895 22.5777C23.7895 22.5777 23.7669 22.6003 23.7216 22.6003C23.5407 22.6908 23.4955 22.8717 23.6312 23.03C23.6538 23.0526 23.6764 23.0979 23.7216 23.1205C23.7443 23.1431 23.7895 23.1657 23.8121 23.1883C23.8347 23.1883 23.8573 23.2109 23.8573 23.2109C23.8799 23.2109 23.9026 23.2336 23.9478 23.2336L24.0382 23.2562C23.993 23.2336 23.993 23.2336 24.0156 23.2562H24.0382C24.0609 23.2562 24.0609 23.2788 24.0835 23.2788C24.1966 23.324 24.287 23.3692 24.3775 23.4371C24.6262 24.5 24.6941 25.6533 24.6036 26.7389C24.5132 27.9148 24.2418 29.0682 23.7895 30.1537C22.9301 32.2795 21.4375 33.9983 19.47 35.1516C17.3669 36.3954 14.9244 36.893 12.5046 36.7573C11.3061 36.6894 10.1075 36.4633 8.97672 36.1014C8.00428 35.7848 6.98661 35.3099 6.37601 34.4506C5.67494 33.4329 5.87848 32.1438 6.10462 31.0131C6.14985 30.8095 6.17247 30.4929 6.35339 30.3799C6.55692 30.2442 6.87353 30.3573 7.07706 30.4251C7.46152 30.5608 7.84597 30.7869 8.16258 31.0809C7.91382 31.5785 7.71028 32.0986 7.7329 32.664C7.75551 33.2972 8.11735 33.7947 8.6601 34.1113C9.18025 34.4053 9.81347 34.4505 10.3788 34.3601C10.9894 34.2696 11.7131 34.1566 12.2106 33.7721C13.0926 33.0937 13.1605 31.6689 13.2057 30.6512C13.3188 28.5933 12.8213 26.377 13.6354 24.4095C13.7032 24.3869 13.7485 24.3643 13.8163 24.3417C13.8842 24.3191 13.952 24.2965 14.0198 24.2738C14.0425 24.2738 14.1329 24.2512 14.0651 24.2512C14.1103 24.2286 14.1555 24.2286 14.2008 24.206C14.4043 24.1155 14.4269 23.8668 14.2234 23.7537C14.0877 23.6632 13.8389 23.6406 13.6806 23.6406C13.5223 23.6632 13.3414 23.6859 13.1831 23.7537C13.0022 23.8442 12.8213 23.9346 12.6856 24.0703C12.663 24.0929 12.6403 24.1381 12.6177 24.1608C12.6177 24.1834 12.5951 24.1834 12.5951 24.206C12.5725 24.2286 12.5725 24.2512 12.5499 24.2738C12.5273 24.2965 12.5273 24.2965 12.5499 24.2738C12.5499 24.2738 12.5499 24.2738 12.5273 24.2965C12.5046 24.3191 12.5046 24.3417 12.482 24.3643C12.482 24.3643 12.482 24.3869 12.4594 24.4095C12.4594 24.3869 12.4368 24.4548 12.4368 24.4548C12.4368 24.4774 12.4142 24.4774 12.4142 24.5C12.369 24.6131 12.3916 24.7261 12.482 24.8166C12.5725 24.8844 12.7082 24.9071 12.7986 24.8392C12.8213 24.8166 12.8439 24.8166 12.8665 24.794C12.9117 24.7714 12.9343 24.7714 12.9569 24.7487C12.8891 24.7714 12.9117 24.7714 13.0022 24.7261C13.0248 24.7261 13.0248 24.7035 13.0474 24.7035C13.07 24.7035 13.07 24.6809 13.0926 24.6809C12.776 25.4498 12.5951 26.2639 12.5273 27.1007C12.5046 27.3269 12.5046 27.5304 12.482 27.7565C11.6 27.3269 10.7181 26.8293 10.0396 26.1056C9.33855 25.3594 8.9541 24.4321 8.99933 23.4145C9.04456 22.3968 9.36117 21.3791 9.63255 20.4067C10.1979 18.3713 10.9216 16.3812 11.7131 14.4363C11.8036 14.1876 11.487 14.0293 11.3513 14.2554C10.6955 15.3862 10.1527 16.5395 9.67778 17.7381C9.27071 18.7784 8.93149 19.8639 8.61488 20.9268C8.32088 21.9445 8.00427 23.0526 8.11735 24.1381C8.25304 25.2237 8.77318 26.1056 9.49686 26.8293C9.11241 26.8067 8.75057 26.7841 8.36611 26.7389C7.7329 26.671 7.1223 26.6032 6.48908 26.4675C5.47141 26.2413 4.43112 25.8569 3.59437 25.2237L3.57175 25.201C3.57175 25.0427 3.57175 24.8618 3.57175 24.6809C3.59436 24.3869 3.59437 24.0929 3.59437 23.7989C3.59437 23.5954 3.59437 23.3919 3.61698 23.1883C3.6396 22.9848 3.68483 22.7813 3.70744 22.5551C3.73006 22.3516 3.6396 22.1254 3.39083 22.2159C3.1873 22.3063 3.05161 22.5777 3.00638 22.7813C2.8933 23.2109 2.93854 23.7311 2.98377 24.1834C3.00638 24.3869 3.029 24.5904 3.07423 24.8166C2.87069 24.6357 2.68977 24.4095 2.57669 24.1608C2.46362 23.6406 2.53146 23.0526 2.55408 22.5551Z" fill="#ACA491"/>
<path d="M25.1238 25.8568C25.7344 25.5176 26.3223 25.1558 26.8651 24.7035C27.3852 24.2964 27.9506 23.8215 28.2898 23.2561C28.6291 22.6455 28.4934 21.854 28.4708 21.1756C28.4481 20.384 28.4029 19.6151 28.4255 18.8236C28.4255 18.6201 28.7195 18.5975 28.7648 18.7784C29.0135 19.5925 29.1266 20.4293 29.1944 21.2886C29.2623 22.0349 29.3527 22.7812 29.0587 23.4823C29.1492 23.437 29.2623 23.4597 29.3527 23.5049C29.6015 22.6455 29.6015 21.7635 29.4884 20.8816C29.4206 20.384 29.3527 19.9091 29.2623 19.4116C29.0587 18.9141 28.8326 18.4392 28.6064 17.9642C28.3577 17.4441 29.0587 17.037 29.3754 17.5119C30.5061 19.2533 31.6368 20.972 32.3153 22.9395C32.9485 24.7939 33.1973 26.8067 33.0616 28.7742C33.039 29.0455 32.7902 29.3169 32.4962 29.2039C31.7725 28.9551 31.0715 28.6837 30.393 28.3671C30.2121 28.4123 30.0086 28.3445 29.9181 28.1636C29.8955 28.1636 29.8729 28.141 29.8503 28.141C29.4658 27.96 29.0814 27.7339 28.8552 27.372C28.6291 27.0328 28.5612 26.5805 28.6064 26.1735C28.6517 25.7438 28.7647 25.3141 28.9004 24.907C28.5612 25.2915 28.1994 25.6307 27.7923 25.9473C27.2495 26.4448 26.6842 26.8971 26.051 27.3042C25.9153 27.3947 25.7117 27.372 25.576 27.2816C25.4404 27.259 25.3047 27.1911 25.2368 27.0554C25.1916 27.0102 25.1464 26.9424 25.1464 26.8745C25.1238 26.8067 25.1238 26.7162 25.1238 26.6484C24.8524 26.4448 24.8071 26.0378 25.1238 25.8568Z" fill="#8C8473"/>
<path d="M2.4184 23.7535C2.50886 23.4822 2.78024 23.3691 3.029 23.5048C3.82052 23.9118 4.70251 24.1606 5.58449 24.2963C6.30817 24.4094 7.28061 24.5451 7.82336 23.9118C8.29828 23.3239 8.45658 22.4419 8.68273 21.7408C8.97672 20.8136 9.27072 19.8638 9.58732 18.9366C9.94916 17.8963 10.2205 16.8334 10.7407 15.8609C10.7859 15.7931 10.8764 15.7705 10.9442 15.7931C11.193 15.7026 11.5548 15.9514 11.4644 16.268C11.0799 17.6927 10.8764 19.1401 10.8538 20.6101C10.8538 21.3564 10.8764 22.1026 10.9442 22.8489C11.0121 23.4595 11.0347 24.1606 11.3287 24.726C11.6001 25.2687 12.1428 25.5853 12.5046 26.0603C12.6177 26.0829 12.7308 26.1281 12.8439 26.1733C12.9796 26.2186 13.07 26.4673 12.8891 26.5352C12.8439 26.5578 12.8213 26.5578 12.776 26.5804C12.9343 27.1005 12.9343 27.7338 12.2785 27.779C11.9619 27.8016 11.7131 27.6433 11.4644 27.4624C11.193 27.2362 10.9216 26.9875 10.6502 26.7613C10.2205 26.3995 9.76825 26.0376 9.40641 25.5853C9.42902 25.608 9.45163 25.6306 9.45163 25.6758C9.63255 26.0603 9.60994 26.5126 9.27072 26.8066C8.97672 27.0553 8.56965 27.1232 8.20781 27.0553C7.91382 27.0101 7.59721 26.8292 7.34845 26.603C6.46647 26.5126 5.6071 26.2412 4.81558 25.8793C4.2502 25.6306 3.73006 25.3592 3.18731 25.0426C2.73501 24.7938 2.23748 24.3415 2.4184 23.7535ZM8.4792 24.4772C8.52443 24.4998 8.56966 24.5224 8.61489 24.5451L8.6375 24.5677C8.72796 24.5677 8.7958 24.5677 8.88626 24.5677C8.84103 24.3868 8.7958 24.2058 8.77319 24.0249C8.68273 24.1832 8.59227 24.3189 8.4792 24.4772Z" fill="#8C8473"/>
<path d="M10.1979 32.2116C10.2206 32.2116 10.2205 32.189 10.2432 32.189C10.2884 31.5784 10.5145 30.9904 10.7859 30.425C10.9216 30.131 11.1025 29.8144 11.2608 29.5204C11.3513 29.3621 11.4191 29.2264 11.5096 29.0681C11.6001 28.9098 11.6679 28.7063 11.8036 28.5706C12.075 28.2766 12.5499 28.3218 12.7308 28.7063C12.8665 29.0003 12.7987 29.4074 12.7987 29.724C12.7987 30.0858 12.8665 30.5381 12.7082 30.8773C12.663 30.9904 12.5951 31.0809 12.5273 31.1713C12.5273 31.2392 12.5047 31.3296 12.482 31.3975C12.3237 31.7593 11.9619 32.0985 11.6679 32.3473C11.5774 32.4151 11.4644 32.5056 11.3739 32.5735C11.1251 32.7996 10.8312 32.9805 10.4919 33.0484C10.2658 33.0936 10.017 32.9805 9.94917 32.7544C9.81348 32.5056 9.97179 32.3021 10.1979 32.2116Z" fill="#8C8473"/>
<path d="M24.4679 30.4929C24.7393 29.7918 24.8976 29.0682 24.8524 28.3219C24.8524 28.1409 24.9881 28.0053 25.1238 27.96C25.5761 27.8017 25.9831 27.5756 26.3676 27.3042C26.6842 27.078 27.0008 26.6257 27.4079 26.5805C27.8828 26.5353 28.0637 27.0102 28.222 27.372C28.4029 27.8243 28.5838 28.2993 28.7422 28.7742C28.7874 28.9099 28.81 29.0229 28.8552 29.1586C28.9683 29.2943 29.0814 29.43 29.1718 29.5657C29.4432 29.9501 29.6694 30.3572 29.8277 30.8095C30.1217 31.6463 30.1669 32.5056 30.1669 33.3876C30.3026 33.7268 30.4157 34.0661 30.4609 34.4279C30.4609 34.4731 30.4609 34.5184 30.4609 34.5636C30.6418 34.948 30.7775 35.3325 30.8453 35.7396C30.8906 35.9431 30.5966 36.0788 30.5061 35.8752C30.3478 35.536 30.1669 35.2194 29.986 34.9028C29.8729 34.8802 29.7598 34.7897 29.692 34.6314C29.6467 34.4957 29.5789 34.3601 29.5337 34.2244C28.9909 34.0887 28.6517 33.659 28.4255 33.1162C28.3577 32.9579 28.2899 32.7996 28.222 32.6413C27.2948 31.7141 26.1414 30.8095 24.7619 30.9226C24.581 30.8774 24.4001 30.6738 24.4679 30.4929Z" fill="#8C8473"/>
<path d="M7.00922 33.4102C7.46151 35.0159 9.51947 35.5134 10.9216 35.7622C12.7308 36.0788 14.6531 36.0562 16.4396 35.6265C18.2262 35.1742 19.8093 34.2696 21.0757 32.9353C22.2064 31.7367 23.0432 30.2668 23.5859 28.7063C24.1965 26.9197 24.287 25.0427 24.1287 23.1883C24.1061 22.9621 24.4453 22.9395 24.5132 23.1431C25.0107 24.8618 24.9428 26.7388 24.5132 28.4576C24.0835 30.2215 23.2241 31.8724 22.0481 33.2519C20.7365 34.7671 19.0404 35.8526 17.0955 36.3954C15.1506 36.9382 13.0926 37.006 11.1025 36.6894C9.33855 36.418 6.48907 35.6943 6.30815 33.5007C6.21769 33.071 6.89614 33.0032 7.00922 33.4102Z" fill="#8C8473"/>
<path d="M26.8425 13.0116C26.8425 12.3784 27.5209 12.1522 28.0411 11.9939C28.5838 11.813 29.1718 11.7451 29.7598 11.7225C30.9358 11.7225 32.0892 12.0391 33.0616 12.6497C33.2651 12.7854 33.2877 12.989 33.1973 13.1473C34.0114 13.7353 34.6899 14.5268 35.1874 15.3862C35.3457 15.6575 34.9839 15.9289 34.7577 15.7254C33.6722 14.7077 32.451 13.6222 31.0489 13.102C30.5513 12.9211 30.0538 12.8307 29.5337 12.8307C29.0814 12.8759 28.6517 12.989 28.222 13.1473C27.9506 13.2603 27.7019 13.4187 27.4305 13.5996C27.2948 13.69 27.1591 13.5317 27.2043 13.4187C27.0008 13.396 26.8425 13.2377 26.8425 13.0116Z" fill="#8C8473"/>
<path d="M6.55694 10.2978C7.32585 9.84547 8.27567 9.84547 9.13504 9.8907C10.8538 9.98116 12.6177 10.4108 13.9972 11.519C14.2008 11.6999 14.1103 11.9939 13.9294 12.1296C13.7259 12.2879 13.4545 12.3331 13.2057 12.2879H13.1831C13.0022 12.2427 12.8439 12.1748 12.7082 12.0617C11.6453 11.5416 10.4467 11.2702 9.27073 11.225C8.11737 11.1798 6.85094 11.4964 6.12726 12.4914C5.90111 12.808 5.47143 12.6723 5.4262 12.3105C5.33574 11.4511 5.87849 10.6822 6.55694 10.2978Z" fill="#8C8473"/>
<path d="M28.0863 34.0434C28.0863 34.0208 28.1089 34.0208 28.1089 33.9982C28.0637 33.9077 28.0863 33.7947 28.1542 33.7268C28.222 33.659 28.3577 33.659 28.4255 33.7494C28.5612 33.9077 28.6743 34.1113 28.7195 34.3148C28.7422 34.3827 28.7648 34.4505 28.7648 34.5183C28.7648 34.541 28.7648 34.5636 28.7648 34.5862C28.7648 34.5862 28.7648 34.5862 28.7648 34.5636V34.6088C28.7648 34.6314 28.7648 34.6767 28.7648 34.6993C28.7648 34.7897 28.7648 34.9028 28.6743 34.9706C28.6291 35.0159 28.516 35.0385 28.4482 34.9933C28.4482 34.9933 28.4482 34.9933 28.4255 34.9706C28.3803 34.9706 28.3577 34.948 28.3125 34.9254C28.0185 34.7671 27.928 34.36 28.0863 34.0434Z" fill="#8C8473"/>
<path d="M27.8376 35.3325C27.8376 35.2872 27.8602 35.2646 27.8828 35.242C27.9054 35.242 27.9054 35.2194 27.928 35.2194C27.9507 35.1968 27.9959 35.1968 28.0411 35.1968C28.0637 35.1968 28.0864 35.1968 28.1316 35.2194C28.1542 35.2194 28.1768 35.242 28.1994 35.2646C28.222 35.2872 28.2447 35.3099 28.2447 35.3325C28.2673 35.3551 28.2673 35.3777 28.2673 35.4229C28.2673 35.4455 28.2673 35.4682 28.2673 35.4682C28.2673 35.5134 28.2447 35.536 28.222 35.5586C28.1994 35.5586 28.1994 35.5812 28.1768 35.5812C28.1542 35.6038 28.109 35.6038 28.0637 35.6038C28.0411 35.6038 28.0185 35.6038 27.9733 35.5812C27.9507 35.5812 27.928 35.5586 27.9054 35.536C27.8828 35.5134 27.8602 35.4908 27.8602 35.4682C27.8376 35.4455 27.8376 35.4229 27.8376 35.3777C27.815 35.3777 27.815 35.3551 27.8376 35.3325Z" fill="#8C8473"/>
<path d="M22.5683 12.9437C22.5909 12.8758 22.6587 12.7854 22.7492 12.7854C22.9527 12.7628 23.1336 12.7628 23.3372 12.8306C23.4276 12.8532 23.5181 12.8985 23.6086 12.9437C23.6312 12.9663 23.6764 12.9889 23.699 13.0115C23.7442 13.0568 23.8121 13.0794 23.8347 13.1246C23.9252 13.2151 23.9478 13.3281 23.9026 13.4412C23.8573 13.5543 23.7442 13.6221 23.6312 13.6221C23.5859 13.6221 23.5407 13.6221 23.4955 13.6221C23.4729 13.6221 23.4503 13.6221 23.4276 13.5995C23.405 13.5995 23.3824 13.5995 23.3598 13.5995C23.3146 13.5995 23.2919 13.5995 23.2467 13.5769H23.2241C23.111 13.5543 23.0432 13.5317 22.9527 13.5091C22.817 13.4412 22.6813 13.3281 22.5909 13.1924C22.523 13.102 22.523 13.0115 22.5683 12.9437Z" fill="#8C8473"/>
<path d="M21.5732 12.6949C21.8446 12.6949 21.8446 13.1246 21.5732 13.1246C21.2792 13.1246 21.2792 12.6949 21.5732 12.6949Z" fill="#8C8473"/>
<path d="M17.4573 22.7134C17.887 22.6681 18.3167 22.6907 18.7464 22.7586C19.1534 22.8264 19.5605 22.9395 19.945 23.1204C20.3068 23.3013 20.6913 23.5275 20.8948 23.8893C20.9852 24.0476 20.8269 24.2285 20.6686 24.1833C20.3294 24.1381 19.9902 23.9798 19.6736 23.8667C19.357 23.7536 19.0178 23.6632 18.6785 23.6179C18.3393 23.5727 18.0001 23.5501 17.6609 23.5727C17.5026 23.5727 17.3442 23.5953 17.1859 23.6406C17.005 23.6632 16.8241 23.7536 16.6432 23.6858C16.4849 23.6179 16.3718 23.5049 16.3718 23.324C16.304 22.7812 17.0729 22.7586 17.4573 22.7134Z" fill="#BCB2A0"/>
<path d="M16.9372 25.9699C16.9824 25.8794 17.0729 25.7889 17.1859 25.7663C17.4347 25.6985 17.7287 25.6985 17.9775 25.6985C18.2262 25.6985 18.475 25.7211 18.7237 25.7437C18.9499 25.7663 19.1534 25.8116 19.357 25.902C19.6057 25.9925 19.8093 26.1508 20.0128 26.3091C20.2163 26.4674 19.9902 26.8292 19.764 26.7388C19.5605 26.6709 19.3796 26.6257 19.176 26.6031C18.9725 26.5579 18.8368 26.5352 18.5881 26.5352C18.3845 26.5352 18.1584 26.5352 17.9548 26.5352C17.7513 26.5579 17.5025 26.6031 17.299 26.5805C17.1407 26.5805 17.0276 26.49 16.9372 26.3769C16.8467 26.2639 16.8241 26.1056 16.9372 25.9699Z" fill="#BCB2A0"/>
<path d="M11.9619 33.772C12.0524 33.4328 12.4594 33.2519 12.6403 32.9805C12.8439 32.6865 12.9796 32.3473 13.0474 32.0081C13.251 31.1261 13.1379 30.1763 13.1379 29.2717C13.1153 28.3445 13.1153 27.4173 13.1153 26.49C13.1153 25.6985 13.2057 24.907 13.7033 24.2512C13.8616 24.0476 14.2008 24.2286 14.0651 24.4547C13.6354 25.201 13.8163 26.2187 13.8389 27.0328C13.8616 27.9826 13.8842 28.9551 13.9068 29.9049C13.9294 30.7869 13.9746 31.7141 13.7033 32.5735C13.5902 32.9353 13.4093 33.2745 13.1831 33.5685C12.957 33.8625 12.5951 34.247 12.188 34.1565C12.0071 34.1339 11.9167 33.9304 11.9619 33.772Z" fill="#BCB2A0"/>
<path d="M14.1782 28.1183C14.1782 28.0957 14.1782 28.0957 14.1782 28.1183C14.1782 28.0731 14.1782 28.0505 14.1782 28.0278C14.1782 27.9826 14.2008 27.96 14.2234 27.9374C14.246 27.9148 14.246 27.8922 14.2686 27.8922C14.2912 27.8695 14.3365 27.8469 14.3591 27.8469C14.4043 27.8469 14.4495 27.8469 14.5174 27.8469C14.5626 27.8695 14.6304 27.8922 14.6531 27.9374L14.6757 27.96C14.7435 27.9826 14.7888 28.0278 14.8114 28.0957C14.8566 28.2766 14.834 28.4801 14.7435 28.6611C14.7209 28.7063 14.6983 28.7289 14.6531 28.7515C14.6304 28.7741 14.5852 28.7741 14.5626 28.7741C14.54 28.7741 14.4948 28.7741 14.4721 28.7741C14.4269 28.7515 14.4043 28.7515 14.3591 28.7063C14.3138 28.6611 14.2912 28.6158 14.246 28.5706C14.2234 28.548 14.2234 28.5254 14.2008 28.5028C14.2008 28.4801 14.1782 28.4575 14.1782 28.4123C14.1782 28.2992 14.1782 28.2088 14.1782 28.1183Z" fill="#BCB2A0"/>
<path d="M14.5174 26.965C14.7662 26.965 14.7662 27.3494 14.5174 27.3494C14.2686 27.3494 14.2686 26.965 14.5174 26.965Z" fill="#BCB2A0"/>
<path d="M15.8517 28.8872C16.6884 28.6158 17.6382 28.7063 18.475 29.0003C19.1534 29.249 19.9902 29.5657 20.2616 30.312C20.352 30.6059 19.945 30.7416 19.7867 30.5155C19.651 30.2893 19.357 30.2215 19.1082 30.131C18.769 30.018 18.4524 29.9049 18.1358 29.7918C17.4573 29.5883 16.8015 29.5883 16.1004 29.724C15.5124 29.8823 15.2863 29.0681 15.8517 28.8872Z" fill="#BCB2A0"/>
<path d="M16.0326 31.5558C16.1457 31.2618 16.4849 31.2618 16.7563 31.3522C17.0955 31.4427 17.4121 31.6688 17.6609 31.9176C17.7965 32.0759 17.9322 32.2342 18.0227 32.4151C18.1132 32.5961 18.2036 32.777 18.2941 32.9579C18.4298 33.2067 18.1132 33.4328 17.9096 33.2519C17.6609 33.0257 17.4347 32.777 17.1859 32.5508C17.1181 32.5056 17.0729 32.4377 17.005 32.3925C17.0276 32.3925 17.0276 32.4151 17.0276 32.4151C17.0276 32.4151 16.8919 32.3021 16.9598 32.3699C16.9372 32.3473 16.9146 32.3473 16.892 32.3247C16.8241 32.2794 16.7563 32.2568 16.6884 32.2116H16.6658C16.6206 32.189 16.5753 32.189 16.5527 32.1664C16.4849 32.1438 16.417 32.1438 16.3266 32.1211C16.1004 31.9854 15.9421 31.7819 16.0326 31.5558Z" fill="#BCB2A0"/>
<path d="M12.0749 17.2405C12.0749 17.1953 12.0976 17.1727 12.1202 17.1274C12.1202 17.0596 12.1202 16.9918 12.1428 16.9239C12.1654 16.743 12.3463 16.6073 12.5272 16.6073C12.5951 16.6073 12.6855 16.6299 12.7534 16.6751C12.8212 16.7204 12.8665 16.7656 12.9117 16.8334C13.0022 16.9691 13.0022 17.1501 12.9569 17.2857C12.9343 17.331 12.9343 17.3762 12.9117 17.4214C12.8891 17.4667 12.8891 17.4893 12.8665 17.5345C12.8438 17.5797 12.8212 17.6024 12.7986 17.6476L12.776 17.6702C12.7534 17.6928 12.7308 17.7154 12.7082 17.738C12.6403 17.7833 12.5725 17.7833 12.5046 17.7833C12.482 17.7833 12.4368 17.7833 12.3915 17.7833H12.3689C12.3011 17.7607 12.2559 17.738 12.188 17.6702C12.1428 17.625 12.1202 17.5797 12.0976 17.5345C12.0976 17.5119 12.0749 17.4893 12.0749 17.4667C12.0523 17.3536 12.0523 17.3084 12.0749 17.2405Z" fill="#BCB2A0"/>
<path d="M12.8665 15.9514C13.1152 15.9514 13.1152 16.3585 12.8665 16.3585C12.5951 16.3585 12.5951 15.9514 12.8665 15.9514Z" fill="#BCB2A0"/>
<path d="M2.66719 20.9041C2.73504 20.5423 2.80289 20.2031 2.87073 19.8412C3.02904 19.1402 3.20995 18.4391 3.4361 17.7607C3.86579 16.3812 4.45377 15.1147 5.26791 13.9161C5.35837 13.8031 5.58452 13.8709 5.51667 14.0292C5.01914 15.3183 4.52161 16.6299 4.13716 17.9642C3.95624 18.62 3.79794 19.2759 3.66225 19.9543C3.59441 20.3162 3.52656 20.6554 3.48133 21.0172C3.4361 21.3791 3.4361 21.7183 3.20995 22.0349C3.05165 22.261 2.75765 22.1932 2.66719 21.967C2.5315 21.6052 2.62196 21.266 2.66719 20.9041Z" fill="#BCB2A0"/>
<path d="M34.1697 28.7968C34.7351 28.3219 34.9839 27.666 35.21 26.965C35.4588 26.1282 35.6397 25.2689 35.7528 24.4095C35.9563 22.6455 35.8206 20.8816 35.5493 19.1402C35.5266 18.9367 35.7754 18.8688 35.8433 19.0498C36.5443 20.7911 36.7026 22.736 36.5217 24.5904C36.4312 25.5176 36.2503 26.4448 36.0016 27.3494C35.7754 28.1183 35.4362 28.8872 34.803 29.4074C34.3733 29.8145 33.7401 29.1812 34.1697 28.7968Z" fill="#BCB2A0"/>
<path d="M5.20002 31.2618C5.26786 30.9 5.3131 30.5155 5.44879 30.1763C5.76539 29.43 6.57953 29.2943 7.3032 29.5205C8.02688 29.7466 8.61487 30.1989 9.02194 30.8321C9.15763 31.0357 9.04456 31.2618 8.86364 31.3749C8.6601 31.7367 8.47918 32.1212 8.47918 32.5056C8.45657 32.9127 8.72795 33.2293 9.08979 33.3876C9.08979 33.2067 9.18024 33.0032 9.22547 32.8449C9.29331 32.5509 9.38378 32.2569 9.47424 31.9629C9.63254 31.4201 9.79085 30.9 9.97177 30.3798C10.1527 29.9049 10.3788 29.4526 10.6728 29.0229C10.8085 28.8194 10.9894 28.6385 11.1704 28.4802C11.2834 28.3897 11.3965 28.2766 11.487 28.1636C11.1704 27.9826 10.8311 27.7791 10.5371 27.5756C10.4693 27.6208 10.4014 27.666 10.311 27.666C9.1124 27.7339 7.86858 27.5982 6.69261 27.372C5.65232 27.1685 4.61203 26.8293 3.70743 26.2639C2.75761 25.6759 1.83039 24.8844 1.67209 23.7084C1.58163 23.1431 1.64948 22.5551 1.71732 21.9897C1.76255 21.4243 1.85302 20.8589 1.96609 20.2936C2.37316 18.0773 3.16468 15.9515 4.00143 13.8709C4.4085 12.8985 4.79295 11.8582 5.38094 10.9762C6.01415 10.0716 6.89614 9.50626 8.02688 9.4158C9.2707 9.32534 10.605 9.66456 11.781 10.0264C12.3689 10.2073 12.9343 10.4109 13.4997 10.6596C14.0198 10.8858 14.5626 11.1345 15.0149 11.4964C15.1958 11.4511 15.3541 11.4059 15.535 11.3607C16.6432 11.0893 17.7965 10.931 18.9499 10.8632C19.3796 10.8405 19.7866 10.8405 20.2163 10.8632C20.1937 10.8405 20.1711 10.7953 20.1711 10.7727C20.1485 10.7048 20.2163 10.637 20.2842 10.6596C20.3746 10.7048 20.4425 10.7727 20.5103 10.8405C20.5329 10.8405 20.5555 10.8632 20.5782 10.8858C20.6912 10.8858 20.8269 10.9084 20.94 10.9084C20.94 10.8858 20.94 10.8632 20.94 10.8632C20.94 10.7953 20.9174 10.7275 20.94 10.6822C20.9626 10.6144 21.0531 10.5692 21.1209 10.6144C21.1661 10.6596 21.2114 10.7048 21.234 10.7501C21.2792 10.8179 21.3018 10.8632 21.3245 10.931C22.6135 11.0667 23.8799 11.3381 25.0785 11.7904C25.3499 11.8808 25.5987 11.9939 25.8701 12.1296C26.9782 11.7678 28.1089 11.5416 29.2397 11.3381C30.4835 11.1345 31.6595 11.1345 32.7676 11.813C35.0291 13.1699 35.7754 15.9063 36.386 18.3035C37.0418 20.9268 37.4037 23.6632 37.2001 26.3544C37.1097 27.4173 36.8835 28.5932 36.1372 29.4074C35.2779 30.3572 33.9888 30.4703 32.7902 30.1763C32.1118 30.018 31.4559 29.7918 30.8227 29.5431C30.28 29.3395 29.7372 29.0455 29.2849 28.6611C29.4658 29.1134 29.6467 29.5431 29.8277 29.9954C30.3252 31.2618 30.7549 32.5509 31.0489 33.8851C31.3429 35.1742 31.5012 36.5085 31.4786 37.8201C31.4559 38.4081 31.5012 39.1318 31.1393 39.6293C30.7549 40.1269 29.986 40.3756 29.4432 40.6018C24.3322 42.7954 18.5202 42.9537 13.1379 41.7777C12.3916 41.6194 11.6453 41.4159 10.9216 41.1898C10.2205 40.9862 9.51947 40.7827 8.84102 40.4887C8.16257 40.1947 7.71027 39.6746 7.64243 38.9283C7.57458 38.182 7.91381 37.4809 8.00427 36.7346C8.00427 36.712 8.00427 36.6668 8.02688 36.6442C7.03183 36.2371 6.082 35.6039 5.56186 34.6314C5.17741 33.953 5.06433 33.1841 5.10956 32.3926C5.08694 32.0533 5.13218 31.6463 5.20002 31.2618ZM11.3513 29.5431C11.0799 29.9049 10.8764 30.3572 10.6954 30.7869C10.4919 31.2618 10.3336 31.7367 10.1753 32.2116C10.0622 32.5056 9.94915 32.777 9.83607 33.071C9.76823 33.2293 9.723 33.4102 9.63254 33.5459C10.0396 33.5685 10.4467 33.4781 10.8311 33.3876C11.3287 33.2519 11.8488 33.1388 12.075 32.6413C12.2785 32.2116 12.3463 31.7141 12.3916 31.2618C12.4594 30.8095 12.482 30.3572 12.482 29.9049C12.482 29.4978 12.5046 29.0908 12.5046 28.6837C12.4142 28.6385 12.3463 28.6159 12.2559 28.5706C12.1428 28.7516 11.9393 28.9099 11.781 29.0455C11.6453 29.2038 11.487 29.3622 11.3513 29.5431ZM8.41134 38.7021C8.41134 38.9735 8.45657 39.2449 8.63749 39.4484C8.81841 39.6519 9.1124 39.765 9.36116 39.8555C10.5145 40.2625 11.6905 40.5792 12.8665 40.8505C15.3089 41.4159 17.7965 41.7325 20.2842 41.6647C22.9301 41.5968 25.5534 41.1445 28.0411 40.2625C28.6517 40.0364 29.2623 39.8103 29.8503 39.5389C30.0764 39.4258 30.3704 39.3127 30.5061 39.0866C30.6418 38.8604 30.6192 38.5212 30.6418 38.2724C30.7323 37.0286 30.6192 35.7396 30.3704 34.5184C30.099 33.1615 29.692 31.8272 29.2171 30.5155C28.9683 29.8371 28.7195 29.1812 28.4481 28.5254C28.222 27.96 27.9506 27.4173 27.7697 26.8519C27.7245 26.8519 27.6566 26.8519 27.6114 26.8293C27.4079 27.0102 27.2043 27.1685 26.9782 27.3268C26.4354 27.7113 25.8248 28.0505 25.2142 28.3219C25.1238 28.9099 24.9881 29.4752 24.8072 30.018C23.993 32.4152 22.3421 34.4505 20.1711 35.7848C17.7965 37.2548 14.9923 37.8201 12.2333 37.6166C11.0573 37.5261 9.8813 37.3226 8.77317 36.9382C8.70533 37.5488 8.41134 38.1141 8.41134 38.7021ZM6.44384 34.4505C7.03183 35.3099 8.07211 35.8074 9.04455 36.1014C10.1753 36.4632 11.3739 36.6894 12.5725 36.7572C14.9923 36.8929 17.4347 36.3954 19.5379 35.1516C21.5054 33.9756 22.998 32.2569 23.8573 30.1537C24.3096 29.0682 24.581 27.9148 24.6715 26.7388C24.7619 25.6533 24.6941 24.4999 24.4453 23.437C24.3549 23.3918 24.2644 23.324 24.1513 23.2787C24.1287 23.2787 24.1287 23.2561 24.1061 23.2561H24.0835C24.0609 23.2561 24.0609 23.2561 24.1061 23.2561L24.0156 23.2335C23.993 23.2335 23.9704 23.2109 23.9252 23.2109C23.9026 23.2109 23.9026 23.2109 23.8799 23.1883C23.8573 23.1657 23.8121 23.1431 23.7895 23.1204C23.7669 23.0978 23.7216 23.0752 23.699 23.03C23.5633 22.8943 23.6086 22.6908 23.7895 22.6003C23.8121 22.5777 23.8347 22.5777 23.8573 22.5777C23.8799 22.5777 23.8799 22.5777 23.9026 22.5551C23.993 22.5325 24.0609 22.5325 24.1513 22.5551C24.2418 22.5777 24.3549 22.6229 24.4453 22.6455C24.6036 22.7134 24.7845 22.8038 24.9202 22.9169C25.0559 23.03 25.169 23.1657 25.2821 23.3014C25.3951 23.4597 25.4404 23.618 25.4856 23.7989C25.5082 23.8667 25.4856 23.9346 25.4178 23.9798C25.3725 24.025 25.2821 24.025 25.2368 23.9798C25.169 23.912 25.0785 23.8441 24.9881 23.7763C25.2594 24.6583 25.3951 25.5402 25.4178 26.4901C25.4178 26.7841 25.4178 27.0781 25.3951 27.372C25.8248 27.1459 26.2545 26.9197 26.6842 26.6936C26.933 26.5579 27.1591 26.4222 27.4079 26.2639C27.4531 26.1056 27.5436 25.9699 27.7019 25.9247C27.7471 25.8795 27.7923 25.8342 27.8828 25.7438L28.2672 25.2915C28.516 24.9975 28.81 24.7035 29.0135 24.3869C29.398 23.7989 29.2171 23.0074 29.1492 22.3515C29.0588 21.5148 28.9457 20.678 28.8552 19.8413C28.7421 19.0045 28.6743 18.1678 28.5386 17.3536C28.4934 17.1501 28.8552 17.0823 28.9004 17.2858C29.1492 18.1904 29.4432 19.0498 29.6241 19.977C29.805 20.9042 29.9634 21.8088 30.0764 22.7586C30.1669 23.5501 30.1669 24.319 29.692 24.9975C29.5563 25.201 29.398 25.3819 29.2397 25.5629C29.2397 25.6081 29.2397 25.6533 29.2171 25.7212C28.8552 26.5353 29.1718 27.4399 29.8277 27.9826C30.2347 28.3219 30.7323 28.5254 31.2298 28.7289C31.7047 28.9099 32.2022 29.0908 32.6998 29.2265C33.039 29.3169 33.4008 29.3848 33.7627 29.4074C33.74 29.3169 33.74 29.2265 33.7853 29.136C34.1923 28.4349 34.5768 27.7113 34.8029 26.9197C35.0065 26.1282 35.1196 25.2915 35.0517 24.4547C35.0291 24.2512 35.3231 24.2512 35.3683 24.4321C35.5266 25.2915 35.5492 26.1735 35.4135 27.0328C35.2779 27.8243 35.0743 28.6159 34.6673 29.3169C34.9612 29.2265 35.2552 29.0682 35.504 28.7968C36.1146 28.0957 36.3181 27.1007 36.4086 26.1961C36.6574 23.7763 36.3634 21.3112 35.798 18.9593C35.5266 17.7833 35.21 16.5847 34.7577 15.454C34.3506 14.4363 33.7627 13.4639 32.8807 12.7628C32.451 12.4236 31.9535 12.1522 31.4107 12.0165C30.8001 11.8808 30.1895 11.9261 29.5789 12.0165C28.9683 12.107 28.3803 12.22 27.7697 12.3331C28.1542 12.3331 28.5386 12.3331 28.9231 12.3557C29.3754 12.3784 29.8503 12.4236 30.28 12.514C30.5287 12.5593 30.7549 12.6045 30.981 12.6723C31.2072 12.7402 31.4107 12.8307 31.6142 12.9211C31.7725 12.989 31.6595 13.1925 31.5238 13.1925C31.2976 13.1699 31.0489 13.1925 30.8227 13.1699C30.5966 13.1473 30.3704 13.1246 30.1217 13.102C29.692 13.0794 29.2623 13.0342 28.8326 13.0116C28.4029 13.0116 27.9732 13.0116 27.5436 13.0342C27.5209 13.0342 27.4983 13.0342 27.4983 13.0342C27.6566 13.1699 27.8149 13.3282 27.9054 13.5091C27.9959 13.69 27.8828 13.9388 27.634 13.8936C27.1817 13.8257 26.752 13.5091 26.3676 13.2829C25.9605 13.0568 25.5082 12.8307 25.0785 12.6497C24.1965 12.2879 23.292 12.0391 22.3647 11.8582C20.3068 11.4964 18.1584 11.6094 16.1004 11.9713C15.4672 12.0844 14.8566 12.1974 14.246 12.3557C13.952 12.4236 13.658 12.4914 13.3866 12.5593C13.2283 12.6045 13.07 12.6271 12.9343 12.6723C12.776 12.7176 12.6403 12.695 12.4594 12.695C12.3463 12.695 12.2785 12.5367 12.3916 12.4688C12.5046 12.401 12.5725 12.3105 12.6856 12.2427C12.776 12.1974 12.8665 12.1522 12.9795 12.1296C12.7534 12.0391 12.5046 11.9487 12.2785 11.8808C11.9166 11.7677 11.5322 11.6321 11.1704 11.5416C10.8085 11.4511 10.4241 11.4059 10.0622 11.3833C9.88131 11.3833 9.67777 11.3833 9.49685 11.3833C9.31593 11.3833 9.08978 11.3833 8.9541 11.2702C8.90886 11.225 8.86363 11.1345 8.90886 11.0667C9.1124 10.7275 9.70038 10.7727 10.0396 10.7953C10.4693 10.8179 10.8537 10.931 11.2834 11.0441C12.0297 11.2476 12.7986 11.4964 13.4092 11.9939C13.5901 11.9261 13.7937 11.8582 13.9972 11.7904C14.1329 11.7451 14.246 11.7225 14.3817 11.6773C14.1329 11.5642 13.8841 11.4511 13.6354 11.3607C13.1605 11.1571 12.6629 10.9762 12.1654 10.8179C11.1704 10.5013 10.1527 10.2752 9.1124 10.1621C8.07211 10.049 7.07705 10.2073 6.39861 11.0667C5.81062 11.7904 5.4714 12.7176 5.13218 13.5769C4.34066 15.5218 3.57175 17.4667 3.09684 19.5247C2.87069 20.5197 2.68977 21.5374 2.62192 22.5551C2.57669 23.0752 2.53146 23.6406 2.75761 24.1155C2.87069 24.3643 3.0516 24.5678 3.25513 24.7713C3.2099 24.5678 3.18729 24.3643 3.16468 24.1381C3.11945 23.6858 3.07422 23.1883 3.18729 22.736C3.23252 22.5325 3.36821 22.2611 3.57174 22.1706C3.82051 22.0802 3.91097 22.3063 3.88836 22.5098C3.86574 22.7134 3.82051 22.9169 3.79789 23.1431C3.77528 23.3466 3.77528 23.5501 3.77528 23.7537C3.77528 24.0477 3.77528 24.3416 3.75267 24.6356C3.75267 24.8166 3.73005 24.9749 3.75267 25.1558L3.77528 25.1784C4.61203 25.8116 5.65232 26.1961 6.66999 26.4222C7.28059 26.5579 7.91381 26.6484 8.54702 26.6936C8.90886 26.7388 9.29331 26.7388 9.67777 26.7841C8.95409 26.0604 8.43396 25.1784 8.29827 24.0929C8.16258 23.0074 8.50179 21.8992 8.79579 20.8816C9.08978 19.796 9.42901 18.7331 9.85869 17.6929C10.3336 16.4943 10.8764 15.3183 11.5322 14.2102C11.6679 13.984 12.0071 14.1423 11.894 14.3911C11.1025 16.3586 10.3788 18.3261 9.81346 20.3614C9.54208 21.3339 9.22547 22.3515 9.18024 23.3692C9.13502 24.3869 9.54208 25.3141 10.2205 26.0604C10.899 26.8067 11.781 27.2816 12.6629 27.7113C12.6856 27.4851 12.6856 27.2816 12.7082 27.0554C12.776 26.2187 12.9569 25.4045 13.2735 24.6356C13.2509 24.6356 13.2509 24.6583 13.2283 24.6583C13.2057 24.6583 13.2057 24.6809 13.1831 24.6809C13.0926 24.7261 13.07 24.7261 13.1379 24.7035C13.1152 24.7261 13.07 24.7487 13.0474 24.7487C13.0248 24.7713 13.0022 24.7713 12.9795 24.7939C12.8891 24.8618 12.7534 24.8392 12.6629 24.7713C12.5725 24.6809 12.5725 24.5678 12.5951 24.4547C12.5951 24.4321 12.6177 24.4321 12.6177 24.4095C12.6177 24.4095 12.6403 24.3416 12.6403 24.3643C12.6403 24.3416 12.6629 24.319 12.6629 24.319C12.6629 24.2964 12.6856 24.2738 12.7082 24.2512C12.7082 24.2286 12.7082 24.2286 12.7308 24.2286C12.7082 24.2512 12.7082 24.2512 12.7308 24.2286C12.7534 24.206 12.7534 24.1833 12.776 24.1607C12.776 24.1381 12.7986 24.1381 12.7986 24.1155C12.8212 24.0929 12.8439 24.0477 12.8665 24.025C13.0022 23.8893 13.1831 23.7763 13.364 23.7084C13.5223 23.6406 13.7032 23.618 13.8615 23.5954C14.0198 23.5727 14.2686 23.618 14.4043 23.7084C14.5852 23.8215 14.5852 24.0703 14.3817 24.1607C14.3364 24.1833 14.2912 24.1833 14.246 24.206C14.3138 24.1833 14.2008 24.206 14.2008 24.2286C14.1329 24.2512 14.0651 24.2738 13.9972 24.2964C13.9294 24.319 13.8841 24.3416 13.8163 24.3643C13.0022 26.3318 13.4997 28.548 13.3866 30.606C13.3414 31.6236 13.2735 33.0484 12.3916 33.7268C11.894 34.1113 11.1704 34.2244 10.5598 34.3148C9.97177 34.4053 9.36116 34.3601 8.84102 34.0661C8.29826 33.7721 7.93642 33.2519 7.91381 32.6187C7.8912 32.0533 8.09473 31.5332 8.34349 31.0357C8.02688 30.7643 7.64243 30.5155 7.25798 30.3798C7.05444 30.312 6.73783 30.2215 6.5343 30.3346C6.35338 30.4477 6.33076 30.7643 6.28553 30.9678C5.94631 32.1438 5.74278 33.4328 6.44384 34.4505Z" fill="#563827"/>
<path d="M17.0276 24.0477C16.8467 24.0703 16.5979 24.093 16.417 24.0025C16.3265 23.9346 16.2813 23.8442 16.3265 23.7311C16.5075 23.3467 17.1407 23.3014 17.5025 23.2562C17.9322 23.211 18.3845 23.2336 18.8142 23.3014C19.6735 23.4597 20.4651 23.799 21.1435 24.3643C21.3018 24.5 21.1209 24.7714 20.94 24.6583C20.2615 24.2965 19.47 24.0703 18.7011 24.0025C18.3166 23.9573 17.9548 23.9573 17.5704 23.9799C17.412 23.9799 17.2311 24.0251 17.0276 24.0477Z" fill="#563827"/>
<path d="M17.1633 26.5127C17.0502 26.5127 16.9372 26.3318 17.0728 26.2639C17.4347 26.0604 17.9322 26.083 18.3393 26.1508C18.7463 26.2187 19.1534 26.3544 19.5153 26.5579C19.6736 26.6484 19.5605 26.9197 19.3796 26.8293C19.0403 26.6484 18.6785 26.5579 18.294 26.5127C18.1131 26.4901 17.9322 26.4901 17.7513 26.4901C17.5478 26.4901 17.3668 26.5127 17.1633 26.5127Z" fill="#563827"/>
<path d="M15.5803 31.3522C15.829 31.3296 16.0778 31.4653 16.304 31.5558C16.5075 31.6462 16.711 31.7819 16.892 31.9402C17.2312 32.2116 17.5026 32.5734 17.7061 32.9353C17.8418 33.1614 17.5252 33.3876 17.3669 33.1614C17.2538 33.0031 17.1181 32.8674 16.9598 32.7544C16.892 32.7091 16.8241 32.6639 16.7336 32.5961C16.7336 32.5961 16.7336 32.5961 16.711 32.5961C16.6884 32.5734 16.6658 32.5734 16.6432 32.5508C16.598 32.5282 16.5527 32.5056 16.5075 32.483C16.3492 32.3925 16.1683 32.3021 15.9874 32.2342C15.8969 32.189 15.8064 32.1664 15.716 32.1211C15.6934 32.1211 15.6707 32.0985 15.6481 32.0985C15.5803 32.0759 15.5124 32.0533 15.4446 32.0081C15.3089 31.9176 15.2184 31.7819 15.2637 31.6236C15.2863 31.4879 15.3994 31.3748 15.5803 31.3522Z" fill="#563827"/>
<path d="M13.6128 34.1565C13.7259 34.1565 13.8163 34.1565 13.9068 34.2017C13.9972 34.2243 14.0651 34.2922 14.1556 34.3374C14.3139 34.4279 14.4269 34.5636 14.54 34.6993C14.6531 34.8349 14.7435 34.9706 14.8114 35.1289C14.834 35.2194 14.8566 35.2872 14.8792 35.3777C14.9018 35.4455 14.9245 35.536 14.9245 35.6038C14.9471 35.7622 14.7435 35.83 14.6983 35.6943C14.6757 35.6265 14.6531 35.5586 14.6079 35.5134C14.5626 35.4682 14.5174 35.4003 14.4722 35.3551C14.3591 35.242 14.3139 35.1516 14.1782 35.0611C14.1329 35.0159 14.0651 34.9706 14.0199 34.9254C13.9972 34.9028 13.952 34.8802 13.9294 34.8576C13.9068 34.8576 13.9068 34.8349 13.8842 34.8349C13.8163 34.7897 13.7485 34.7671 13.6806 34.7219C13.6128 34.6766 13.545 34.6314 13.4771 34.5636C13.3414 34.4053 13.4093 34.1565 13.6128 34.1565Z" fill="#563827"/>
<path d="M11.8488 34.835C11.9619 34.9028 12.0524 34.9706 12.1655 35.0385C12.1881 35.0611 12.2107 35.0611 12.2333 35.0837C12.2559 35.1063 12.2559 35.1289 12.2559 35.1516C12.2559 35.1968 12.2559 35.2194 12.2107 35.2646C12.1428 35.3325 12.0298 35.3325 11.9619 35.242C11.8941 35.129 11.8262 35.0385 11.7358 34.9254C11.7132 34.9028 11.7132 34.8576 11.7358 34.835C11.7584 34.8123 11.8036 34.8123 11.8488 34.835Z" fill="#563827"/>
<path d="M9.29331 35.1289C9.31592 35.0384 9.33854 34.9706 9.38377 34.9027C9.40638 34.8575 9.42899 34.8349 9.45161 34.7897C9.47422 34.7671 9.49684 34.7444 9.51946 34.7218C9.56469 34.6766 9.63253 34.654 9.70037 34.6766C9.76822 34.6992 9.79083 34.7671 9.79083 34.8349V34.8575C9.79083 34.8801 9.79083 34.9027 9.79083 34.9254C9.79083 34.948 9.79083 34.9706 9.79083 34.9932C9.79083 35.061 9.79083 35.1063 9.79083 35.1741C9.79083 35.1515 9.79083 35.1289 9.79083 35.1063C9.79083 35.1741 9.79083 35.242 9.79083 35.3098C9.79083 35.3324 9.79083 35.3777 9.79083 35.4003C9.79083 35.4229 9.79083 35.4455 9.79083 35.4455C9.79083 35.5133 9.76822 35.5812 9.72299 35.649C9.67776 35.6943 9.60992 35.7395 9.54207 35.7395C9.47423 35.7395 9.40638 35.7169 9.36115 35.6717C9.24808 35.6038 9.24808 35.4455 9.24808 35.3324C9.24808 35.2872 9.27069 35.2194 9.29331 35.1289Z" fill="#563827"/>
<path d="M16.8919 29.2944C16.9145 29.2717 16.9145 29.2718 16.9371 29.2491C16.9824 29.2039 17.0276 29.1813 17.0728 29.1587C17.1407 29.1361 17.2085 29.1361 17.2764 29.1134C17.3894 29.0908 17.5251 29.1134 17.6382 29.1134C17.8644 29.1361 18.0905 29.1813 18.294 29.2717C18.4976 29.3622 18.6785 29.4979 18.8368 29.6336C18.9273 29.724 18.9951 29.8145 19.0629 29.905C19.1308 29.9954 19.1534 30.1085 19.1986 30.2216C19.2439 30.3573 19.0629 30.4703 18.9499 30.3799C18.882 30.312 18.7916 30.2668 18.7237 30.2216C18.6785 30.199 18.6559 30.1537 18.6106 30.1311C18.588 30.1311 18.5654 30.1085 18.5654 30.0859C18.5428 30.0859 18.5428 30.0859 18.5654 30.0859L18.5428 30.0633C18.475 30.018 18.3845 29.9728 18.294 29.9276C18.2488 29.905 18.2036 29.8824 18.1584 29.8597C18.1357 29.8597 18.1357 29.8597 18.1131 29.8371L18.0679 29.8145C18.0453 29.8145 18.0227 29.7919 18.0227 29.7919C18.0227 29.7919 18.0227 29.7919 18.0001 29.7919C17.9774 29.7919 17.9548 29.7693 17.9322 29.7693C17.887 29.7467 17.8417 29.7467 17.7965 29.7467C17.7513 29.7467 17.7061 29.724 17.6608 29.724C17.6382 29.724 17.6156 29.724 17.593 29.724C17.5025 29.724 17.4121 29.724 17.299 29.724C17.2538 29.724 17.2085 29.724 17.1633 29.724C17.0955 29.724 17.0502 29.7014 17.005 29.6788C17.005 29.6788 17.005 29.6788 16.9824 29.6788C16.8919 29.6562 16.8015 29.5884 16.8015 29.4753C16.7562 29.4301 16.8015 29.3622 16.8919 29.2944Z" fill="#563827"/>
<path d="M3.91095 20.8589C3.91095 20.9042 3.91096 20.9494 3.88834 20.9946C3.88834 21.0399 3.86572 21.0625 3.86572 21.1077C3.84311 21.1756 3.77526 21.2208 3.70742 21.2208C3.63957 21.1982 3.59434 21.1303 3.59434 21.0625C3.59434 21.0172 3.61696 20.9946 3.61696 20.9494C3.61696 20.9042 3.63958 20.8589 3.66219 20.8137C3.68481 20.7685 3.6848 20.7459 3.70742 20.7006C3.73003 20.6554 3.73003 20.6328 3.75265 20.6102C3.79788 20.5423 3.88834 20.5649 3.88834 20.6328C3.88834 20.678 3.88834 20.7006 3.88834 20.7459C3.91096 20.7911 3.91095 20.8137 3.91095 20.8589Z" fill="#563827"/>
<path d="M23.3824 19.3438C23.5407 19.276 23.7217 19.2986 23.8573 19.4117C23.9704 19.4795 24.0383 19.57 24.0835 19.7057C24.1061 19.7735 24.1287 19.864 24.1061 19.9318C24.1287 20.0223 24.1287 20.1127 24.1287 20.2032C24.1287 20.3615 24.0835 20.5198 24.0156 20.6555C23.9478 20.8138 23.8121 20.9721 23.6312 21.0173C23.4503 21.0626 23.2467 21.0173 23.1111 20.8816C23.0206 20.7912 22.9301 20.6555 22.8849 20.5198C22.8171 20.2484 22.8397 19.9318 22.9754 19.6604C23.0884 19.5247 23.2241 19.3891 23.3824 19.3438Z" fill="#563827"/>
<path d="M15.8516 19.3663C15.8516 19.5246 15.8064 19.6829 15.7385 19.8186C15.6707 19.9769 15.535 20.1352 15.3541 20.1804C15.1732 20.2257 14.9696 20.1804 14.834 20.0448C14.7435 19.9543 14.653 19.8186 14.6078 19.6829C14.54 19.4115 14.5626 19.0949 14.6983 18.8236C14.7887 18.6652 14.9018 18.5296 15.0601 18.4843C15.2184 18.4165 15.3993 18.4391 15.535 18.5522C15.6481 18.62 15.7159 18.7105 15.7612 18.8462C15.7838 18.914 15.8064 19.0045 15.7838 19.0723C15.8516 19.1854 15.8516 19.2759 15.8516 19.3663Z" fill="#563827"/>
<path d="M18.3619 20.384C18.2036 20.384 18.0453 20.3614 17.887 20.3388C17.7287 20.3162 17.5704 20.3388 17.4121 20.2936C17.3443 20.2709 17.299 20.1805 17.3895 20.1353C17.6609 19.977 18.0227 19.9543 18.3167 19.9317C18.6559 19.9091 19.0178 19.9317 19.357 19.977C20.0354 20.0674 20.6913 20.2257 21.3019 20.5197C21.4376 20.5876 21.3697 20.7911 21.2114 20.7685C20.5782 20.6328 19.945 20.4971 19.3118 20.4293C18.9952 20.4066 18.6786 20.4066 18.3619 20.384Z" fill="#563827"/>
<path d="M23.7895 22.6228C23.7445 22.6453 23.722 22.6453 23.7895 22.6228V22.6228Z" fill="#563827"/>
</g>
</svg>
