<svg width="40" height="40" viewBox="0 0 40 40" fill="none" xmlns="http://www.w3.org/2000/svg">
<mask id="mask0_601_3292" style="mask-type:luminance" maskUnits="userSpaceOnUse" x="-2" y="-2" width="46" height="43">
<path d="M20.68 40.24C33.0954 40.24 43.16 30.823 43.16 19.2066C43.16 7.59018 33.0954 -1.82678 20.68 -1.82678C8.26465 -1.82678 -1.79999 7.59018 -1.79999 19.2066C-1.79999 30.823 8.26465 40.24 20.68 40.24Z" fill="white"/>
</mask>
<g mask="url(#mask0_601_3292)">
<path d="M37.4883 34.2698C37.4654 34.4994 37.4194 34.752 37.3735 35.0046C37.3506 35.0275 37.3046 35.0735 37.2817 35.1194C36.5009 36.7956 35.0314 37.9208 33.3781 38.6785C32.0233 39.2755 30.5767 39.6659 29.1301 39.9644C28.579 40.0792 28.0279 40.1711 27.4768 40.2629C23.3436 40.9518 19.1186 40.9288 14.9394 40.5844C13.8373 40.4925 12.758 40.4007 11.6788 40.1711C11.1507 40.0563 10.5996 39.9185 10.0944 39.7577C9.72702 39.6429 9.35962 39.5281 9.01519 39.4133C8.57891 38.7704 8.02782 38.1504 8.14263 37.3008C8.21151 36.8186 8.4641 36.3823 8.69372 35.969C8.94631 35.5097 9.22185 35.0505 9.47444 34.5683C10.4388 32.7313 10.8522 30.7336 10.8292 28.644C10.8292 28.07 10.7833 27.5189 10.7144 26.9448C10.6914 26.7382 10.6685 26.5086 10.6225 26.3019C10.8292 26.5315 11.0359 26.8071 11.1507 27.1056C11.2196 27.2893 11.2655 27.473 11.2885 27.6567C11.3114 27.8174 11.3803 27.9322 11.4262 28.0929C11.4951 28.2766 11.7247 28.2996 11.8395 28.1389C11.9544 27.9781 12.0232 27.8863 12.0462 27.6796C12.0692 27.4959 12.0232 27.3122 11.9773 27.1515C11.8855 26.8071 11.7247 26.4626 11.5181 26.1871C11.0818 25.5671 10.4848 25.1308 9.93368 24.6486C9.33666 24.1434 8.87742 23.5694 8.51002 22.8805C8.34929 22.582 8.18855 22.2835 8.07374 21.985C8.02782 21.8472 7.98189 21.6865 7.98189 21.5258C7.98189 21.5028 7.98189 21.4798 7.98189 21.4569C8.14263 21.4569 8.2804 21.4569 8.44114 21.4339C9.26778 21.3421 10.0715 21.2502 10.8981 21.3421C11.7936 21.4339 12.6662 21.6406 13.5158 21.9161C14.3654 22.1917 15.192 22.5131 16.0187 22.8346C16.8223 23.1561 17.649 23.4775 18.4986 23.6153C19.3482 23.7301 20.2437 23.6842 21.0244 23.2709C21.0704 23.2479 21.1163 23.225 21.1622 23.202C21.7133 22.8805 22.1266 22.3754 22.3333 21.7783C22.4022 21.8702 22.471 21.962 22.6088 21.985C22.6777 22.008 22.7466 22.008 22.8155 21.962C22.8844 21.9391 22.9073 21.8931 22.9533 21.8472C23.0451 21.7324 23.0451 21.5717 23.0221 21.4339C22.9992 21.365 22.9532 21.2961 22.9303 21.2272C22.8844 21.1584 22.8384 21.0895 22.7925 21.0435C22.7696 20.9976 22.7236 20.9747 22.7007 20.9517C22.6088 20.8828 22.517 20.791 22.4022 20.745C22.3333 20.7221 22.2644 20.6762 22.1955 20.6762C22.1496 20.6762 22.1037 20.6532 22.0577 20.6532C22.0348 20.6532 21.9888 20.6532 21.9659 20.6532C21.9429 20.6532 21.897 20.6532 21.874 20.6532C21.7592 20.6532 21.6674 20.7221 21.6444 20.8369C21.6214 20.9517 21.6674 21.0435 21.7592 21.1124C21.7592 21.1354 21.7363 21.1584 21.7363 21.1813C21.3689 22.5591 19.9452 23.0183 18.6593 22.8576C17.9016 22.7657 17.1668 22.4902 16.4779 22.2146C15.7431 21.9391 15.0313 21.6865 14.2965 21.4569C12.8269 21.0206 11.3114 20.6991 9.77295 20.6991C9.15297 20.6991 8.51002 20.8139 7.89004 20.6762C7.66042 20.6302 7.4308 20.5384 7.31599 20.3088C7.17822 20.0332 7.27006 19.6658 7.38488 19.3903C7.7982 18.1962 8.71668 17.2777 9.6811 16.497C9.79591 16.4741 9.88776 16.4052 9.93368 16.2904C9.9796 16.2444 10.0255 16.2215 10.0944 16.1756C10.2552 16.0608 10.1633 15.8082 10.0026 15.7393C10.1174 14.6601 10.4159 13.6038 11.4721 13.0757C11.9773 12.8231 12.5743 12.7542 13.1484 12.869C13.4699 12.9379 13.7684 13.0297 14.0439 13.1675C14.1587 13.2134 14.2735 13.2823 14.3654 13.3282C14.618 13.6038 15.0083 13.7645 15.3528 13.8564C15.7661 13.9712 16.2024 14.0171 16.6157 13.9712C17.5571 13.8564 18.3838 13.3512 19.2793 13.1216C20.1519 12.892 20.9555 13.0068 21.5526 13.7186C21.8051 14.0401 21.9659 14.4304 22.0807 14.8208C22.1496 15.0734 22.1955 15.326 22.2414 15.5556C22.2873 15.8082 22.2873 16.0378 22.471 16.2444C22.5859 16.3593 22.7696 16.3822 22.8844 16.3133C22.9762 16.4281 23.091 16.543 23.2058 16.6578C23.5732 16.9792 23.9406 17.3007 24.2851 17.5992C25.0198 18.2422 25.7546 18.8851 26.4665 19.551C27.1783 20.2169 27.8442 20.9287 28.4642 21.6865C29.0382 22.3754 29.5434 23.1331 30.0715 23.8679C30.37 24.2583 30.6686 24.6716 31.0589 24.993C31.4493 25.3145 31.8396 25.4982 32.3218 25.613C32.4137 25.636 32.5055 25.5671 32.5515 25.4753C32.9418 25.636 33.3322 25.7738 33.6766 25.9804C34.4114 26.3937 35.0543 26.8989 35.6054 27.5419C36.1565 28.1848 36.5469 28.9425 36.7995 29.7462C37.098 30.6877 37.3506 31.675 37.4883 32.6624C37.5343 33.1906 37.5572 33.7416 37.4883 34.2698Z" fill="#96AA61"/>
<path d="M29.1301 39.9414C28.579 40.0562 28.0279 40.1481 27.4768 40.2399C23.3436 40.9288 19.1186 40.9058 14.9395 40.5614C13.8373 40.4695 12.7581 40.3777 11.6788 40.1481C11.1507 40.0332 10.5996 39.8955 10.0945 39.7347C9.72706 39.6199 9.35967 39.5051 9.01523 39.3903C8.57895 38.7474 8.02786 38.1274 8.14267 37.2778C8.21156 36.7956 8.46414 36.3593 8.69376 35.946C8.94635 35.4867 9.22189 35.0275 9.47448 34.5453C10.4389 32.7083 10.8522 30.7106 10.8292 28.621C10.8292 28.047 10.7833 27.4959 10.7144 26.9218C10.6915 26.7152 10.6685 26.4855 10.6226 26.2789C10.8292 26.5085 11.0359 26.7841 11.1507 27.0826C11.2196 27.2663 11.2655 27.45 11.2885 27.6337C11.3115 27.7944 11.3803 27.9092 11.4263 28.0699C11.4952 28.2536 11.7248 28.2766 11.8396 28.1159C11.9544 27.9551 12.0233 27.8633 12.0462 27.6566C12.0692 27.4729 12.0233 27.2892 11.9774 27.1285C11.8855 26.7841 11.7248 26.4396 11.5181 26.1641C11.0818 25.5441 10.4848 25.1078 9.93372 24.6256C9.3367 24.1204 8.87746 23.5464 8.51007 22.8575C8.34933 22.559 8.18859 22.2605 8.07378 21.962C8.02786 21.8242 7.98193 21.6635 7.98193 21.5027C7.98193 21.4798 7.98193 21.4568 7.98193 21.4339C8.14267 21.4339 8.28044 21.4339 8.44118 21.4109C9.26782 21.319 10.0715 21.2272 10.8981 21.3191C11.7937 21.4109 12.6662 21.6176 13.5158 21.8931C14.3654 22.1687 15.1921 22.4901 16.0187 22.8116C16.8224 23.1331 17.649 23.4545 18.4986 23.5923C19.3482 23.7071 20.2438 23.6612 21.0245 23.2479C21.0474 23.2479 21.0704 23.2708 21.0934 23.2708C21.7133 23.5005 22.1267 24.0745 22.4481 24.6486C22.9533 25.5211 23.3207 26.4855 23.4125 27.4959C23.5503 28.9884 23.0681 30.5269 23.4355 31.9735C24.2162 35.0045 28.2346 36.2904 29.0383 39.2985C29.0842 39.551 29.1301 39.7577 29.1301 39.9414Z" fill="#DADD72"/>
<path d="M22.6088 20.1939C22.4711 19.9183 22.0118 19.9183 21.897 20.1939C21.4837 21.0664 20.8178 21.8931 19.7845 22.0079C18.6364 22.1457 17.4194 21.7553 16.3401 21.4109C16.2483 21.3879 16.1565 21.3649 16.0876 21.319C15.3757 21.0435 14.6639 20.8139 13.9291 20.6531C13.9062 20.6531 13.8602 20.6302 13.8373 20.6302C12.4825 20.2628 11.1048 19.9872 9.68111 20.1939C9.31371 20.148 8.96928 20.0791 8.64781 19.9413C8.21153 19.7346 7.82117 19.2984 8.00487 18.7932C8.18857 18.288 7.38489 18.0814 7.20119 18.5636C7.15527 18.6784 7.13231 18.7702 7.13231 18.885C6.71899 19.5509 6.97157 20.5613 7.70636 20.9516C8.32634 21.2961 8.94632 21.0894 9.58926 20.9746C9.65815 20.9746 9.72703 20.9516 9.77296 20.9516C10.5766 21.0205 11.3803 21.0205 12.161 21.0664C13.3321 21.2961 14.4572 21.7094 15.5824 22.0768C15.9039 22.1916 16.2483 22.2834 16.5698 22.3982C16.7305 22.4671 16.8912 22.536 17.029 22.6279C17.626 22.9034 18.246 23.2478 18.889 23.3627C19.486 23.4775 20.106 23.4545 20.703 23.2708C22.0118 22.9034 23.3436 21.6175 22.6088 20.1939Z" fill="#839350"/>
<path d="M37.5802 32.1113C37.5113 31.4454 37.3965 30.7335 37.2128 30.0676C37.0291 29.4247 36.6387 28.8966 36.2025 28.4144C36.1795 28.3914 36.1795 28.3914 36.1565 28.3684C36.2943 28.2077 36.3402 27.9322 36.1565 27.7714C35.9728 27.6107 35.7662 27.4499 35.5595 27.2892C35.238 26.9448 34.8477 26.6922 34.4344 26.4626C34.044 26.187 33.6307 25.9344 33.2174 25.7278C33.1255 25.6819 33.0107 25.6819 32.8959 25.7048C32.827 25.6359 32.7581 25.59 32.7122 25.5211C32.5744 25.3833 32.3907 25.3604 32.253 25.4063C31.7937 24.8782 31.2885 24.396 30.7834 23.9597C30.8293 23.8219 30.8063 23.6612 30.6915 23.5464C30.5537 23.4086 30.4389 23.2708 30.3012 23.1331C30.393 22.9953 30.393 22.7886 30.2093 22.6508C29.7041 22.2375 29.199 21.8012 28.6708 21.3879C28.5331 21.2272 28.3953 21.0894 28.2575 20.9287C28.1886 20.8368 28.0968 20.8139 28.0049 20.7909C27.339 20.125 26.5813 19.5509 25.8006 18.9769C25.0658 18.2421 24.2851 17.5303 23.4355 16.9333C23.3895 16.8873 23.3436 16.8644 23.2977 16.8184C23.2288 16.7725 23.1829 16.7266 23.114 16.7266C23.0681 16.7036 23.0221 16.6577 22.9533 16.6348C22.9992 16.4051 23.0451 16.1525 23.0221 15.9229C23.137 15.8081 23.1829 15.6703 23.137 15.4866C23.0451 15.2111 22.9073 14.9355 22.7466 14.7059C22.5629 14.3156 22.3103 13.9482 21.9659 13.6726C20.9785 12.846 19.3482 12.6164 18.223 13.2823C17.8556 13.3971 17.5112 13.5808 17.2357 13.8563C17.1897 13.8334 17.1668 13.8334 17.1209 13.8334C16.7994 13.8104 16.455 13.7645 16.1335 13.7415C16.1335 13.7415 16.1105 13.7415 16.1105 13.7185C14.9854 13.3512 13.8602 12.5934 12.6432 12.6393C12.3218 12.6623 12.0232 12.7082 11.7247 12.823C10.944 13.0526 10.3011 13.6726 10.0485 14.4763C9.97961 14.7059 10.1403 14.9815 10.37 15.0504C10.6455 15.1192 10.8292 14.9585 10.944 14.7289C11.1277 14.2926 11.4722 13.9482 11.8855 13.7645C12.3677 13.5808 12.9417 13.6497 13.401 14.0171C13.6076 14.2008 13.8143 14.3845 14.0669 14.4993C14.2047 14.5682 14.3424 14.5911 14.4802 14.6141C14.9854 15.0044 15.6283 15.2111 16.2713 15.1652C16.5238 15.1422 16.7764 15.0963 17.006 15.0044C17.1668 15.1192 17.3964 15.1422 17.5801 14.9585C17.672 14.8667 17.7638 14.7748 17.8786 14.7059C18.0623 14.637 18.246 14.5682 18.4297 14.4993C18.7971 14.3845 19.1645 14.3156 19.5319 14.3385C19.7615 14.3845 19.9911 14.4533 20.1978 14.5682C21.1852 15.0733 21.7592 16.1525 21.9429 17.2088C22.0118 17.5762 22.5629 17.6221 22.7236 17.3236C22.9303 17.6221 23.1829 17.8747 23.3436 18.0814C23.9177 18.7473 24.5377 19.4132 25.1576 20.0332C26.3976 21.2731 27.6835 22.4212 29.0382 23.5464C29.176 23.6612 29.3138 23.776 29.4745 23.9138C29.773 24.2352 30.0945 24.5797 30.416 24.9011C30.5078 24.993 30.6226 25.0389 30.7145 25.016C31.1967 25.4752 31.633 25.9574 32.0463 26.4855C32.0233 26.5544 32.0004 26.6463 32.0233 26.7381C32.1381 27.2203 32.3448 27.6796 32.5055 28.1618C32.6433 28.5981 32.7811 29.0573 32.9189 29.4936C33.1714 30.4121 33.3781 31.3535 33.5159 32.295C33.6536 33.2364 33.7455 34.1779 33.7685 35.1423C33.7914 36.1067 33.8144 37.0941 33.6766 38.0355C33.6536 38.2422 33.7225 38.5407 33.9751 38.5866C34.4344 38.6555 34.7329 38.4259 34.9166 38.0814C35.6054 37.6681 36.2484 37.1859 36.7535 36.5659C37.2817 35.8771 37.4654 35.0734 37.4424 34.2468C37.6491 33.5579 37.672 32.8231 37.5802 32.1113Z" fill="#839350"/>
<path d="M12.5743 30.7336C12.5054 30.481 12.2069 30.3891 12.0003 30.5039C11.8166 30.5039 11.6788 30.6417 11.5869 30.7795C11.4721 30.9632 11.3803 31.1928 11.3573 31.3995C11.3114 31.6521 11.2884 31.9276 11.3803 32.1802C11.4492 32.318 11.5869 32.4328 11.7477 32.4787C11.9543 32.5246 12.138 32.4557 12.2988 32.318C12.4136 32.2032 12.4825 32.0654 12.5284 31.9276C12.5743 31.8128 12.5973 31.698 12.6202 31.5832C12.6662 31.2847 12.6662 31.0091 12.5743 30.7336Z" fill="#BFBF58"/>
<path d="M13.5847 31.3076C13.5617 31.2617 13.5617 31.2387 13.5158 31.2157C13.4699 31.1698 13.424 31.1469 13.378 31.1469C13.3321 31.1239 13.2632 31.1239 13.2173 31.1469C13.1714 31.1698 13.1255 31.1928 13.0795 31.2157L13.0566 31.2387C13.0566 31.2387 13.0566 31.2387 13.0566 31.2617C13.0336 31.2846 13.0106 31.3076 13.0106 31.3306C12.9877 31.3765 12.9647 31.4224 12.9647 31.4683C12.9647 31.5143 12.9647 31.5372 12.9877 31.5831C12.9877 31.6291 13.0106 31.652 13.0566 31.675C13.1025 31.7209 13.1255 31.7439 13.1714 31.7439C13.1943 31.7439 13.1943 31.7439 13.2173 31.7439C13.2403 31.7439 13.2403 31.7439 13.2632 31.7439C13.2632 31.7439 13.2632 31.7439 13.2862 31.7439H13.3092C13.3551 31.7439 13.424 31.7209 13.4699 31.698C13.5158 31.675 13.5617 31.6291 13.5847 31.5831C13.6077 31.5372 13.6306 31.4913 13.6306 31.4224C13.6077 31.3994 13.5847 31.3535 13.5847 31.3076Z" fill="#BFBF58"/>
<path d="M12.161 33.2364C12.161 33.2135 12.1381 33.1905 12.1381 33.1676C12.1151 33.1446 12.0921 33.0987 12.0692 33.0987C12.0462 33.0757 12.0232 33.0757 12.0003 33.0527C11.9773 33.0298 11.9314 33.0298 11.8855 33.0298C11.8625 33.0298 11.8395 33.0298 11.8166 33.0298C11.7936 33.0298 11.7707 33.0527 11.7477 33.0527C11.7247 33.0757 11.6788 33.0987 11.6788 33.1216C11.6558 33.1446 11.6558 33.1676 11.6329 33.1905C11.6099 33.2135 11.6099 33.2594 11.6099 33.3053V33.3742C11.6099 33.3972 11.6329 33.4201 11.6329 33.4431C11.6558 33.489 11.7018 33.512 11.7247 33.535L11.7477 33.5579C11.7936 33.5809 11.8166 33.5809 11.8625 33.5809C11.9084 33.5809 11.9544 33.5809 11.9773 33.5579L12.0003 33.535C12.0232 33.512 12.0692 33.489 12.0692 33.4661C12.0921 33.4431 12.0921 33.4201 12.1151 33.3972C12.1381 33.3742 12.1381 33.3283 12.1381 33.2824C12.161 33.2824 12.161 33.2594 12.161 33.2364Z" fill="#BFBF58"/>
<path d="M13.1944 25.9804C13.1484 25.8656 13.1025 25.7737 13.0107 25.6819C12.9647 25.636 12.9188 25.59 12.8729 25.5671C12.827 25.5211 12.7581 25.5211 12.7121 25.4982C12.6433 25.4752 12.5744 25.4752 12.5284 25.4982C12.4825 25.4982 12.4596 25.5211 12.4366 25.5441C12.4136 25.5441 12.4136 25.5441 12.3907 25.5441C12.2988 25.5671 12.184 25.613 12.161 25.7048C12.1151 25.7967 12.0922 25.8885 12.0922 26.0033C12.0922 26.0952 12.1151 26.1641 12.1381 26.2559C12.161 26.3248 12.207 26.4167 12.2529 26.4856C12.2759 26.5315 12.3218 26.5774 12.3447 26.6004C12.3907 26.6463 12.4366 26.6693 12.4825 26.7152C12.5514 26.7611 12.6433 26.807 12.7121 26.83C12.781 26.8529 12.8499 26.8529 12.9418 26.83C12.9877 26.83 13.0107 26.807 13.0566 26.7841C13.1255 26.7381 13.1943 26.6693 13.2173 26.6004C13.2632 26.5085 13.2862 26.3937 13.2862 26.2789C13.2403 26.1641 13.2403 26.0722 13.1944 25.9804Z" fill="#BFBF58"/>
<path d="M13.6995 26.6464C13.3781 26.6464 13.3781 27.1286 13.6995 27.1286C13.998 27.1515 13.998 26.6464 13.6995 26.6464Z" fill="#BFBF58"/>
<path d="M20.2437 23.0642C19.2104 23.202 18.1771 23.202 17.1438 23.0413C16.1105 22.8805 15.1232 22.5361 14.1587 22.1457C13.1943 21.7324 12.207 21.4339 11.1737 21.3191C10.6914 21.2732 10.1863 21.2502 9.68111 21.2732C9.13002 21.2961 8.67078 21.388 8.14264 21.5487C7.91302 21.6176 7.93598 21.985 8.21153 21.985C9.22187 21.9391 10.2781 21.9161 11.2885 22.0998C12.3218 22.2835 13.2632 22.6509 14.2276 23.0413C16.1335 23.822 18.246 24.0746 20.2667 23.8449C20.703 23.7531 20.703 22.9953 20.2437 23.0642Z" fill="#BFBF58"/>
<path d="M15.5365 27.4041C15.4906 27.2663 15.3987 27.1515 15.2839 27.0826C15.2839 26.9907 15.215 26.9219 15.1462 26.8759C15.0543 26.83 14.9165 26.8759 14.8477 26.9678C14.8247 26.9907 14.8247 27.0367 14.8017 27.0826C14.7788 27.1055 14.7558 27.1285 14.7328 27.1744C14.664 27.2892 14.641 27.4041 14.641 27.5418C14.641 27.5878 14.641 27.6107 14.641 27.6566C14.641 27.7255 14.664 27.7715 14.6869 27.8174C14.6869 27.8174 14.6869 27.8403 14.7099 27.8403C14.7099 27.8633 14.7328 27.8633 14.7328 27.8863C14.7788 27.9551 14.8706 28.024 14.9625 28.024C14.9854 28.047 14.9854 28.07 15.0084 28.07C15.0773 28.1388 15.1921 28.1848 15.3069 28.1388C15.4217 28.1159 15.4906 28.024 15.5136 27.9322C15.5365 27.8633 15.5595 27.7944 15.5595 27.7255C15.5824 27.6337 15.5824 27.5189 15.5365 27.4041Z" fill="#BFBF58"/>
<path d="M11.8625 36.4511C11.8395 36.2904 11.8166 36.1067 11.7247 35.946C11.564 35.6015 11.1966 35.3719 10.8062 35.3949C10.5766 35.4179 10.37 35.4867 10.2322 35.6475C10.1174 35.7852 10.0255 35.923 9.95665 36.0838C9.8648 36.2215 9.79591 36.4052 9.79591 36.5889C9.74999 36.8185 9.70406 37.0252 9.6811 37.2548C9.63518 37.6681 9.65814 38.1044 10.0255 38.38C10.3929 38.6326 10.8522 38.5177 11.1736 38.2652C11.4262 38.0585 11.6329 37.76 11.7477 37.4844C11.9084 37.14 11.9544 36.7956 11.8625 36.4511Z" fill="#BFBF58"/>
<path d="M13.6306 35.7854C13.6306 35.7395 13.6306 35.6935 13.6076 35.6476C13.6076 35.6246 13.6076 35.6246 13.5847 35.6017C13.5617 35.5558 13.5617 35.5098 13.5388 35.4869L13.5158 35.4639C13.5158 35.418 13.4928 35.395 13.4699 35.3491C13.4469 35.3261 13.424 35.2802 13.378 35.2802H13.3551C13.3321 35.2573 13.3091 35.2343 13.2862 35.2113C13.2403 35.1884 13.1943 35.1654 13.1484 35.1654C13.1254 35.1654 13.0795 35.1654 13.0566 35.1654C13.0106 35.1654 12.9647 35.1884 12.9188 35.2113C12.8499 35.2573 12.804 35.3032 12.758 35.3721C12.7351 35.418 12.7121 35.4639 12.6892 35.5098C12.6662 35.5558 12.6662 35.6246 12.6662 35.6706C12.6662 35.7165 12.6662 35.7624 12.6892 35.8313C12.7351 35.9461 12.804 36.0839 12.9188 36.1528C12.9877 36.1987 13.0566 36.1987 13.1484 36.2217C13.1943 36.2217 13.2403 36.2217 13.2632 36.1987H13.2862C13.3321 36.1987 13.378 36.1987 13.401 36.1757C13.4469 36.1528 13.4699 36.1298 13.5158 36.1069L13.5617 36.038C13.5847 35.992 13.6076 35.9232 13.6076 35.8772C13.6306 35.8313 13.6306 35.8083 13.6306 35.7854Z" fill="#BFBF58"/>
<path d="M13.6077 33.9023C13.5847 33.8793 13.5847 33.8564 13.5617 33.8564C13.5158 33.8104 13.4928 33.7875 13.4469 33.7875C13.401 33.7645 13.378 33.7645 13.3321 33.7875C13.2862 33.7875 13.2632 33.8104 13.2173 33.8104C13.1714 33.8334 13.1484 33.8793 13.1255 33.9023C13.1025 33.9482 13.0795 33.9941 13.0795 34.0401C13.0795 34.063 13.0795 34.086 13.0795 34.1319C13.0795 34.1549 13.0795 34.1549 13.0795 34.1778C13.0795 34.2008 13.1025 34.2467 13.1025 34.2697C13.1025 34.2697 13.1025 34.2927 13.1255 34.2927C13.1484 34.3156 13.1484 34.3386 13.1714 34.3615C13.1943 34.3845 13.2173 34.3845 13.2403 34.4075C13.2632 34.4075 13.2862 34.4075 13.3092 34.4075C13.3551 34.4075 13.378 34.4075 13.424 34.3845L13.4469 34.3615C13.4699 34.3386 13.4928 34.3386 13.4928 34.3156C13.5158 34.2927 13.5388 34.2697 13.5388 34.2467C13.5617 34.2238 13.5617 34.2008 13.5847 34.1778C13.6077 34.1319 13.6306 34.086 13.6306 34.0401C13.6536 33.9941 13.6306 33.9482 13.6077 33.9023Z" fill="#BFBF58"/>
<path d="M31.8856 28.2766C31.8397 28.2077 31.7708 28.1388 31.7249 28.0699C31.7019 28.0469 31.7019 28.001 31.6789 27.9781C31.5412 27.6336 31.2886 27.2892 30.8753 27.2892C30.439 27.2892 30.2094 27.6795 30.1405 28.0699C30.0716 28.4373 30.0716 28.7817 30.1634 29.1491C30.2323 29.4476 30.3701 29.7691 30.5997 29.9528C30.8523 30.1824 31.2427 30.2972 31.5641 30.1595C31.9545 30.0217 32.1841 29.6313 32.1841 29.218C32.23 28.8736 32.0923 28.5291 31.8856 28.2766Z" fill="#839350"/>
<path d="M30.1175 26.4167C30.1175 26.3937 30.1175 26.3937 30.1175 26.3937C30.1175 26.3707 30.0945 26.3478 30.0945 26.3248C30.0945 26.3248 30.0945 26.3248 30.0945 26.3018L30.0486 26.233C30.0256 26.21 30.0026 26.187 29.9567 26.1641C29.9338 26.1411 29.9108 26.1411 29.8878 26.1411C29.8419 26.1411 29.8189 26.1411 29.773 26.1411L29.7041 26.1641C29.6812 26.187 29.6582 26.187 29.6352 26.21C29.6123 26.233 29.5893 26.2559 29.5664 26.3018C29.5434 26.3248 29.5434 26.3707 29.5434 26.4167C29.5434 26.4396 29.5434 26.4855 29.5664 26.5085C29.5664 26.5544 29.5893 26.5544 29.6123 26.5774C29.6123 26.6004 29.6352 26.6004 29.6352 26.6233C29.6582 26.6463 29.6812 26.6692 29.7271 26.6922C29.7271 26.6922 29.7501 26.6922 29.7501 26.7152C29.796 26.7381 29.8419 26.7611 29.8878 26.7611C29.9338 26.7611 29.9567 26.7611 29.9797 26.7381C30.0026 26.7381 30.0486 26.7152 30.0715 26.6922C30.0945 26.6692 30.1175 26.6233 30.1404 26.5774C30.1634 26.5315 30.1634 26.5085 30.1634 26.4626C30.1404 26.4855 30.1175 26.4626 30.1175 26.4167Z" fill="#839350"/>
<path d="M29.9338 28.6669C29.9338 28.621 29.9338 28.598 29.9108 28.5521C29.8879 28.4143 29.773 28.3225 29.6353 28.2766C29.4975 28.2306 29.3368 28.2766 29.2449 28.3684C29.176 28.4373 29.1301 28.5291 29.0842 28.621C29.0612 28.6899 29.0612 28.7588 29.0612 28.8506C29.0612 28.9654 29.0842 29.0573 29.1531 29.1491C29.176 29.195 29.222 29.241 29.2679 29.2869C29.2679 29.3328 29.2908 29.4017 29.2908 29.4476C29.2908 29.4706 29.3138 29.4936 29.3138 29.5395C29.3368 29.5854 29.3597 29.6084 29.4057 29.6313C29.4745 29.6773 29.5434 29.7002 29.6123 29.7002C29.773 29.7002 29.9108 29.6084 29.9338 29.4476C30.0486 29.218 30.0027 28.9425 29.9338 28.6669Z" fill="#839350"/>
<path d="M27.5687 24.5337C27.2931 24.5337 27.2931 24.947 27.5687 24.947C27.8442 24.947 27.8442 24.5337 27.5687 24.5337Z" fill="#839350"/>
<path d="M19.6008 20.4924C19.5778 20.4465 19.5549 20.3776 19.5089 20.3547C19.486 20.3317 19.463 20.3317 19.44 20.3087C19.44 20.2858 19.44 20.2858 19.44 20.2628C19.44 20.2398 19.44 20.1939 19.4171 20.171C19.3941 20.148 19.3712 20.1021 19.3252 20.0791C19.3023 20.0562 19.2793 20.0562 19.2334 20.0562C19.2104 20.0562 19.1645 20.0562 19.1415 20.0562C19.0956 20.0791 19.0267 20.1021 18.9808 20.125C18.9578 20.148 18.9119 20.171 18.8889 20.1939C18.866 20.2169 18.843 20.2398 18.8201 20.2628C18.7971 20.2858 18.7741 20.3087 18.7741 20.3317C18.7512 20.4006 18.7282 20.4235 18.7282 20.5154V20.5384C18.7282 20.6302 18.7512 20.6761 18.7971 20.745C18.8201 20.8139 18.8889 20.8598 18.9578 20.9058C18.9808 20.9287 19.0267 20.9287 19.0497 20.9517C19.0726 20.9517 19.1186 20.9517 19.1415 20.9746C19.1415 20.9746 19.1415 20.9746 19.1645 20.9746C19.2563 20.9746 19.3023 20.9517 19.3712 20.9287C19.4171 20.9058 19.44 20.8828 19.486 20.8369C19.5089 20.8139 19.5319 20.7909 19.5548 20.768C19.5778 20.745 19.5778 20.6991 19.6008 20.6761L19.6237 20.5843C19.6237 20.5384 19.6237 20.5154 19.6008 20.4924Z" fill="#839350"/>
<path d="M20.1978 19.7577C19.8993 19.7577 19.8993 20.2399 20.1978 20.2399C20.4963 20.2399 20.4963 19.7577 20.1978 19.7577Z" fill="#839350"/>
<path d="M29.3826 30.7565C29.2678 30.6876 29.1301 30.6647 28.9923 30.6647C28.8545 30.6876 28.7167 30.7106 28.6019 30.8024C28.4871 30.8943 28.3953 30.9861 28.3264 31.101C28.2805 31.1928 28.2345 31.3076 28.2116 31.4224C28.1886 31.5372 28.1656 31.675 28.1656 31.7898C28.1656 31.9506 28.1886 32.1113 28.2575 32.272C28.3493 32.4328 28.4871 32.5476 28.6708 32.5935C28.8086 32.6853 28.9923 32.7313 29.176 32.6624C29.4515 32.5935 29.6123 32.3409 29.6812 32.1113C29.7271 31.9965 29.7271 31.8817 29.75 31.7669C29.773 31.675 29.773 31.5832 29.773 31.4683C29.773 31.1928 29.6582 30.8943 29.3826 30.7565Z" fill="#839350"/>
<path d="M33.3092 35.1652C33.2863 35.0733 33.2403 34.9585 33.1715 34.8667C33.1026 34.66 33.0107 34.4533 32.8729 34.2926C32.6204 34.04 32.23 34.0171 31.9545 34.2467C31.7019 34.4533 31.6789 34.7978 31.6559 35.0963C31.633 35.4178 31.656 35.7163 31.7248 36.0148C31.7478 36.1296 31.7937 36.2444 31.8396 36.3362V36.3592C31.8396 36.6577 31.9545 36.9562 32.2759 37.0481C32.5056 37.117 32.6892 37.0021 32.827 36.8414C32.9418 36.8184 33.0337 36.7496 33.1255 36.6807C33.3322 36.474 33.4011 36.1296 33.424 35.854C33.4011 35.6474 33.3781 35.3948 33.3092 35.1652Z" fill="#839350"/>
<path d="M15.9268 19.8725C15.9038 19.8266 15.9038 19.7807 15.8809 19.7577C15.8579 19.7118 15.835 19.6889 15.789 19.6429C15.6742 19.5281 15.5365 19.4822 15.3757 19.4592C15.3298 19.4592 15.2609 19.4822 15.2379 19.5281C15.215 19.5511 15.192 19.597 15.192 19.6429C15.192 19.6889 15.192 19.7348 15.215 19.7807C15.215 19.8037 15.2379 19.8037 15.2379 19.8266C15.2609 19.8496 15.2839 19.8725 15.3298 19.8725L15.3068 19.8496C15.3298 19.8496 15.3298 19.8725 15.3528 19.8725L15.3757 19.8955C15.3987 19.9185 15.3987 19.9414 15.4216 19.9644C15.4216 19.9874 15.4446 20.0103 15.4446 20.0333C15.4446 20.1022 15.4676 20.1251 15.4905 20.1711C15.5135 20.217 15.5364 20.2399 15.5824 20.2629C15.6283 20.2859 15.6742 20.3088 15.7201 20.3088C15.812 20.3088 15.9038 20.2629 15.9498 20.1711C15.9957 20.0792 15.9957 20.0103 15.9727 19.9185C15.9268 19.9185 15.9268 19.8955 15.9268 19.8725Z" fill="#563827"/>
<path d="M10.9211 18.8392C10.7603 18.7703 10.5767 18.7933 10.4389 18.8622C10.37 18.8851 10.3011 18.954 10.2552 18.9999C10.2322 19.0229 10.2322 19.0459 10.2093 19.0688C10.1863 19.0918 10.1863 19.1147 10.1863 19.1377C10.1633 19.1607 10.1633 19.2066 10.1633 19.2296C10.1633 19.2984 10.1863 19.3673 10.2552 19.4133C10.3011 19.4362 10.3241 19.4592 10.37 19.4592C10.393 19.4592 10.4389 19.4592 10.4618 19.4592C10.5078 19.4362 10.5307 19.4133 10.5767 19.3903C10.5996 19.3673 10.5996 19.3673 10.6226 19.3444C10.6455 19.3214 10.6685 19.2984 10.6915 19.2755C10.7144 19.2525 10.7374 19.2525 10.7603 19.2296C10.7374 19.2525 10.7374 19.2525 10.7144 19.2755C10.7374 19.2525 10.7603 19.2296 10.8063 19.2296C10.8292 19.2296 10.8522 19.2066 10.8752 19.2066C10.8752 19.2066 10.8752 19.2066 10.8981 19.2066C10.99 19.2066 11.0589 19.1377 11.0589 19.0688C11.0589 19.0229 11.0589 18.9999 11.0359 18.954C11.0129 18.8622 10.967 18.8392 10.9211 18.8392Z" fill="#563827"/>
<path d="M24.7902 22.9725C24.7902 22.6739 24.3769 22.5591 24.2391 22.8117C24.1473 22.9725 24.1014 23.2021 24.0325 23.3858C24.0325 23.4087 24.0095 23.4317 24.0095 23.4547V23.4776C24.0095 23.4547 24.0095 23.4547 24.0095 23.4776C23.9865 23.5235 23.9636 23.5695 23.9636 23.5924C23.9177 23.6843 23.8717 23.7532 23.8258 23.845C23.8028 23.868 23.7799 23.9139 23.7569 23.9369C23.7569 23.9369 23.7569 23.9369 23.7569 23.9598C23.7569 23.9828 23.734 23.9828 23.734 24.0058C23.688 24.0746 23.6192 24.1206 23.5732 24.1895C23.4814 24.3043 23.3666 24.3961 23.2288 24.442C23.0221 24.5109 23.114 24.8094 23.3206 24.7635C23.5043 24.7405 23.688 24.6717 23.8717 24.6028C24.0325 24.5109 24.1932 24.3732 24.308 24.2354C24.4458 24.0517 24.5606 23.845 24.6524 23.6384C24.6984 23.4317 24.7902 23.2021 24.7902 22.9725Z" fill="#563827"/>
<path d="M24.7903 24.6716C24.8821 24.5109 24.974 24.3731 25.0658 24.2353C25.0888 24.2124 25.0888 24.2124 25.1117 24.1894L25.1347 24.1664C25.1347 24.1664 25.1347 24.1435 25.1577 24.1435L25.1347 24.1664C25.1806 24.1205 25.2036 24.0746 25.2495 24.0287C25.2725 23.9827 25.2954 23.9598 25.3184 23.9139C25.3643 23.845 25.3873 23.7761 25.3643 23.6842C25.3414 23.6153 25.2954 23.5694 25.2265 23.5465C25.1806 23.5465 25.1347 23.5235 25.0658 23.5465C25.0199 23.5694 24.9969 23.5924 24.974 23.6153C24.951 23.6383 24.9051 23.6842 24.8821 23.7072C24.8132 23.7761 24.7443 23.8679 24.6984 23.9598C24.6066 24.0976 24.5147 24.2583 24.4229 24.419C24.3769 24.5338 24.3999 24.6716 24.4918 24.7175C24.5836 24.8094 24.7214 24.7864 24.7903 24.6716Z" fill="#563827"/>
<path d="M37.9476 30.481C37.672 29.4707 37.3506 28.4833 36.7765 27.6107C36.2254 26.8071 35.5365 26.1182 34.7099 25.5901C33.7685 24.9701 32.6663 24.7634 31.61 24.396C31.3574 24.0975 31.1048 23.776 30.8523 23.4546C30.3241 22.7428 29.8419 21.985 29.2679 21.2961C28.0509 19.8266 26.5813 18.5636 25.1117 17.3696C24.6984 17.0481 24.308 16.7267 23.8947 16.4281C23.6421 16.2444 23.3666 16.0378 23.091 15.8311C23.114 15.4637 22.9762 15.0274 22.8844 14.7289C22.7696 14.2697 22.5859 13.8334 22.3333 13.4431C21.8051 12.6623 20.9785 12.2031 20.0371 12.249C19.0267 12.2949 18.1771 12.846 17.2357 13.1445C16.7764 13.2823 16.2942 13.3512 15.812 13.3053C15.5824 13.2823 15.3528 13.2364 15.1231 13.1675C14.9624 13.1216 14.8246 13.0527 14.6639 12.9838C14.2735 12.5705 13.6536 12.3409 13.1484 12.2261C12.4366 12.0883 11.7247 12.1801 11.0818 12.5016C9.70406 13.1675 9.33667 14.5912 9.22185 15.9689C8.11967 16.5659 7.2471 17.6222 6.71897 18.7473C6.42046 19.3903 6.19084 20.2169 6.62712 20.8599C6.83378 21.1584 7.13229 21.3421 7.45376 21.4109C7.36192 21.7554 7.47673 22.1917 7.56858 22.4672C7.84412 23.202 8.23448 23.8909 8.71669 24.5108C9.06112 24.9471 9.47444 25.2916 9.88776 25.659C9.88776 26.0723 9.93368 26.4626 9.97961 26.853C10.0255 27.3811 10.0255 27.9092 10.0255 28.4374C10.0255 29.4936 9.93368 30.5269 9.70406 31.5602C9.45148 32.6165 9.03816 33.6039 8.51003 34.5683C8.02782 35.4638 7.33895 36.3593 7.27007 37.3926C7.22414 37.9437 7.40784 38.4948 7.68339 38.9541C7.95893 39.4592 8.30337 39.8266 8.78557 40.1481C8.90038 40.217 8.99223 40.194 9.08408 40.1481C9.24482 40.24 9.40555 40.3318 9.56629 40.4007C10.0255 40.6073 10.5077 40.7451 10.9899 40.8829C11.9773 41.1355 13.0106 41.2733 14.021 41.3881C16.2024 41.6177 18.3838 41.7555 20.5882 41.7325C22.7696 41.7095 24.951 41.5718 27.1094 41.2273C29.2219 40.9059 31.3804 40.4696 33.3551 39.6659C35.1462 38.9541 36.7995 37.8289 37.7639 36.1756C37.7868 36.1756 37.8098 36.1527 37.8328 36.1297C38.0624 35.969 38.1542 35.6934 38.2231 35.4409C38.3839 34.9127 38.4757 34.3616 38.4757 33.7876C38.4757 32.6854 38.2231 31.5602 37.9476 30.481ZM37.4883 34.2698C37.4654 34.4994 37.4195 34.752 37.3735 35.0046C37.3506 35.0275 37.3046 35.0735 37.2817 35.1194C36.501 36.7956 35.0314 37.9437 33.3781 38.6785C31.5182 39.5052 29.4516 39.9414 27.4539 40.2629C23.3207 40.9518 19.0956 40.9288 14.9165 40.5844C13.8143 40.4925 12.7351 40.4007 11.6558 40.1711C11.1277 40.0563 10.5766 39.9185 10.0715 39.7577C9.70406 39.6429 9.33667 39.5281 8.99223 39.4133C8.55595 38.7704 8.00486 38.1504 8.11967 37.3008C8.18856 36.8186 8.44114 36.3823 8.67076 35.969C8.92335 35.5097 9.19889 35.0505 9.45148 34.5683C10.4159 32.7313 10.8292 30.7336 10.8062 28.644C10.8062 28.07 10.7603 27.5189 10.6914 26.9448C10.6685 26.7382 10.6455 26.5086 10.5996 26.3019C10.8062 26.5315 10.9899 26.8071 11.1277 27.1056C11.1966 27.2893 11.2425 27.473 11.2655 27.6567C11.2885 27.8404 11.3573 27.9322 11.4033 28.0929C11.4722 28.2766 11.7018 28.2996 11.8166 28.1389C11.9314 27.9781 12.0003 27.8863 12.0232 27.6796C12.0462 27.4959 12.0003 27.3122 11.9544 27.1515C11.8625 26.8071 11.7018 26.4626 11.4951 26.1871C11.0588 25.5671 10.4618 25.1308 9.91072 24.6486C9.3137 24.1434 8.85446 23.5694 8.48706 22.8805C8.32633 22.582 8.16559 22.2835 8.05078 21.985C8.00486 21.8472 7.95893 21.6865 7.95893 21.5258C7.95893 21.5028 7.95893 21.4798 7.95893 21.4569C8.11967 21.4569 8.25744 21.4569 8.41818 21.4339C9.24482 21.3421 10.0485 21.2502 10.8751 21.3421C11.7707 21.4339 12.6432 21.6406 13.4928 21.9161C14.3424 22.1917 15.1691 22.5131 15.9957 22.8346C16.7994 23.1561 17.626 23.4775 18.4756 23.6153C19.3712 23.7531 20.3356 23.6612 21.1392 23.179C21.6903 22.8346 22.1037 22.3524 22.3103 21.7554C22.3792 21.8472 22.4481 21.9391 22.5859 21.962C22.6547 21.985 22.7236 21.985 22.7925 21.962C22.8614 21.9391 22.8844 21.8931 22.9303 21.8472C23.0221 21.7324 23.0221 21.5717 22.9992 21.4339C22.9762 21.365 22.9303 21.2961 22.9073 21.2272C22.8614 21.1584 22.8155 21.0895 22.7696 21.0435C22.7466 20.9976 22.7007 20.9747 22.6777 20.9517C22.5859 20.8828 22.494 20.791 22.3792 20.745C22.3103 20.7221 22.2414 20.6762 22.1725 20.6532C22.1266 20.6532 22.0807 20.6302 22.0348 20.6302C22.0118 20.6302 21.9659 20.6302 21.9429 20.6302C21.92 20.6302 21.874 20.6302 21.8511 20.6302C21.7363 20.6302 21.6444 20.6991 21.6214 20.8139C21.5985 20.9058 21.6444 21.0206 21.7363 21.0895C21.7363 21.1124 21.7133 21.1354 21.7133 21.1584C21.3459 22.5361 19.9222 22.9953 18.6364 22.8346C17.8786 22.7428 17.1438 22.4672 16.455 22.1917C15.7202 21.9161 15.0083 21.6635 14.2506 21.4339C12.781 20.9976 11.2655 20.6762 9.72702 20.6762C9.10704 20.6762 8.4641 20.768 7.84412 20.6532C7.6145 20.6073 7.38488 20.5154 7.27007 20.2858C7.13229 20.0102 7.2471 19.6429 7.33895 19.3673C7.75227 18.1733 8.67076 17.2548 9.63517 16.4741C9.74999 16.4511 9.84183 16.3822 9.88776 16.2674C9.93368 16.2215 9.97961 16.1756 10.0485 16.1526C10.2092 16.0378 10.1174 15.7852 9.95665 15.7163C10.0715 14.6371 10.3929 13.5808 11.4262 13.0527C11.9314 12.8001 12.5284 12.7312 13.1025 12.846C13.4239 12.9149 13.7224 13.0297 13.998 13.1445C14.1128 13.1905 14.2276 13.2594 14.3195 13.3053C14.572 13.5808 14.9624 13.7416 15.3068 13.8334C15.7202 13.9482 16.1564 13.9941 16.5698 13.9482C17.5112 13.8334 18.3379 13.3282 19.2334 13.0986C20.1059 12.869 20.9096 12.9838 21.5066 13.6956C21.7592 14.0171 21.92 14.4075 22.0348 14.7978C22.1037 15.0504 22.1496 15.28 22.1955 15.5326C22.2414 15.7852 22.2414 16.0148 22.4251 16.2215C22.5399 16.3363 22.7007 16.3593 22.8384 16.2904C22.9303 16.4052 23.0451 16.52 23.1599 16.6348C23.5043 16.9563 23.8947 17.2777 24.2391 17.5763C24.9739 18.2192 25.7087 18.8621 26.4206 19.528C27.1324 20.1939 27.7983 20.9058 28.4183 21.6635C28.9923 22.3524 29.4975 23.1101 30.0256 23.8449C30.3241 24.2353 30.6226 24.6486 31.013 24.9701C31.4033 25.2916 31.7937 25.4753 32.2759 25.5901C32.3678 25.613 32.4596 25.5441 32.5055 25.4523C32.8959 25.613 33.2863 25.7508 33.6307 25.9575C34.3655 26.3708 35.0084 26.8759 35.5595 27.5189C36.1106 28.1618 36.501 28.9196 36.7535 29.7233C37.0521 30.6647 37.3046 31.6521 37.4424 32.6395C37.5343 33.1906 37.5572 33.7416 37.4883 34.2698Z" fill="#563827"/>
<path d="M31.7018 31.0551C31.4492 31.4454 31.2196 31.8128 31.0359 32.2491C30.8522 32.6624 30.7374 33.1217 30.6226 33.5579C30.5308 34.0172 30.4619 34.4764 30.4389 34.9357C30.4159 35.2801 30.393 35.946 30.7374 36.1297C30.8063 36.1527 30.8752 36.1756 30.9441 36.1297C31.2426 35.9001 31.1967 35.349 31.2196 35.0046C31.2426 34.5683 31.2656 34.132 31.3344 33.6957C31.4033 33.2824 31.5181 32.8461 31.6329 32.4328C31.7478 32.0195 31.8626 31.5832 32.0233 31.1699C32.1381 30.9862 31.8166 30.8943 31.7018 31.0551Z" fill="#563827"/>
<path d="M30.5767 32.0654C30.5997 32.0195 30.5997 31.9966 30.5997 31.9506C30.6226 31.8588 30.6226 31.7899 30.6226 31.698C30.6226 31.6521 30.5997 31.6292 30.5537 31.6062C30.5078 31.6062 30.4848 31.6062 30.4619 31.6521C30.416 31.721 30.37 31.7899 30.3471 31.8588C30.3012 31.9277 30.2782 32.0195 30.2782 32.0884C30.2323 32.2491 30.2093 32.3869 30.1863 32.5476C30.1863 32.6165 30.2093 32.6854 30.2782 32.7084C30.3471 32.7313 30.416 32.6854 30.4389 32.6165C30.4848 32.4558 30.5078 32.318 30.5537 32.1573C30.5537 32.1343 30.5767 32.1114 30.5767 32.0654Z" fill="#563827"/>
<path d="M25.6628 28.4143C25.571 28.1617 25.4791 27.9091 25.3643 27.6565C25.2954 27.5417 25.2495 27.4269 25.1577 27.3121C25.0658 27.1973 24.974 27.1055 24.8821 26.9906C24.7903 26.8758 24.6066 27.0136 24.6755 27.1514C24.7443 27.2662 24.7673 27.381 24.8132 27.4958C24.8592 27.6106 24.928 27.7254 24.974 27.8402C25.0658 28.0699 25.1577 28.2995 25.2036 28.5521C25.2495 28.8047 25.2725 29.0343 25.2954 29.2869C25.3184 29.5165 25.2954 29.8609 25.5021 30.0217C25.548 30.0676 25.6399 30.0446 25.6858 30.0217C25.9154 29.8609 25.8695 29.4706 25.8465 29.218C25.8236 28.9424 25.7547 28.6669 25.6628 28.4143Z" fill="#563827"/>
<path d="M25.7317 30.8253C25.6399 30.8253 25.571 30.8942 25.571 30.9861C25.571 31.1009 25.571 31.2157 25.571 31.3305C25.571 31.3534 25.571 31.3764 25.5939 31.3994V31.4223C25.5939 31.4453 25.5939 31.4683 25.5939 31.4912C25.5939 31.5142 25.5939 31.5601 25.6169 31.5831C25.6169 31.606 25.6399 31.652 25.6628 31.6749C25.6858 31.7208 25.7776 31.7208 25.8006 31.6749C25.8236 31.652 25.8236 31.606 25.8465 31.5831C25.8465 31.5601 25.8465 31.5142 25.8695 31.4912C25.8695 31.4683 25.8695 31.4223 25.8695 31.3994V31.3764C25.8695 31.3535 25.8925 31.3305 25.8925 31.3075C25.8925 31.1927 25.8925 31.0779 25.8925 30.9631C25.8925 30.9172 25.8236 30.8253 25.7317 30.8253Z" fill="#563827"/>
<path d="M11.4262 15.6934C11.3344 15.7623 11.2885 15.8541 11.2885 15.946C11.2425 16.0378 11.1737 16.1526 11.1737 16.2674C11.1277 16.566 11.1507 17.0252 11.5181 17.14C11.8855 17.2319 12.1151 16.8185 12.184 16.52C12.2299 16.2674 12.2758 15.9 12.0692 15.7163C11.8625 15.5327 11.587 15.5327 11.4262 15.6934Z" fill="#563827"/>
<path d="M18.5675 16.4051C18.5445 16.3822 18.5445 16.3592 18.5215 16.3363C18.5215 16.3133 18.4986 16.2903 18.4756 16.2903C18.4067 16.2444 18.3608 16.2214 18.269 16.1985H18.246H18.223C18.1771 16.1985 18.1541 16.1985 18.1082 16.2214C18.0393 16.2444 17.9704 16.2674 17.9016 16.3133C17.7638 16.4051 17.6949 16.52 17.626 16.6807C17.5801 16.7955 17.5571 16.9333 17.5571 17.0711C17.5571 17.1859 17.5571 17.3007 17.6031 17.4155C17.6719 17.6221 17.8556 17.7829 18.0623 17.7599C18.223 17.7599 18.3838 17.6681 18.4986 17.5533C18.5904 17.4384 18.6593 17.3236 18.6823 17.1859C18.7052 17.0481 18.7052 16.9103 18.6823 16.7725C18.6593 16.6348 18.6134 16.497 18.5675 16.4051Z" fill="#563827"/>
<path d="M19.3941 15.6015C19.2793 15.5326 19.1645 15.4867 19.0267 15.5096C18.9349 15.5096 18.866 15.5785 18.866 15.6474C18.866 15.7163 18.9119 15.8081 18.9808 15.8311C19.0037 15.8311 19.0267 15.8311 19.0497 15.8541H19.0726C19.0956 15.8541 19.1186 15.877 19.1415 15.9L19.1645 15.923C19.1874 15.9459 19.2104 15.9459 19.2104 15.9689C19.2104 15.9689 19.2104 15.9918 19.2334 15.9918C19.2563 16.0378 19.2793 16.0607 19.3022 16.1067C19.3252 16.1296 19.3252 16.1755 19.3252 16.1985C19.3252 16.2215 19.3252 16.2215 19.3482 16.2444C19.3482 16.2444 19.3482 16.2444 19.3482 16.2674C19.3482 16.2904 19.3711 16.3133 19.3711 16.3363C19.3941 16.3822 19.4171 16.4281 19.463 16.4511C19.5319 16.474 19.6008 16.474 19.6467 16.4281C19.6926 16.3822 19.7156 16.3133 19.7156 16.2444C19.7385 16.1067 19.6926 15.9689 19.6237 15.8541C19.6008 15.7393 19.5089 15.6704 19.3941 15.6015Z" fill="#563827"/>
<path d="M11.2656 15.303C11.2885 15.28 11.3115 15.28 11.3115 15.2571C11.3344 15.2571 11.3344 15.2341 11.3574 15.2341C11.3574 15.2341 11.3574 15.2341 11.3804 15.2341C11.3804 15.2341 11.3804 15.2341 11.3574 15.2341H11.3804C11.4033 15.2341 11.4263 15.2112 11.4722 15.2112C11.4952 15.2112 11.4952 15.2112 11.5181 15.2112C11.5181 15.2112 11.5181 15.2112 11.5411 15.2112C11.5641 15.2112 11.61 15.2112 11.6329 15.2112C11.6559 15.2112 11.6559 15.2112 11.6789 15.2112C11.6789 15.2112 11.6789 15.2112 11.7018 15.2112C11.7248 15.2112 11.7707 15.2112 11.7937 15.2112C11.7937 15.2112 11.7937 15.2112 11.8166 15.2112C11.8166 15.2112 11.8166 15.2112 11.8396 15.2112H11.8166C11.8166 15.2112 11.8166 15.2112 11.8396 15.2112C11.8626 15.2112 11.8855 15.2112 11.9315 15.2112C12.0003 15.2112 12.0463 15.1652 12.0463 15.0963C12.0922 14.9586 11.9544 14.9126 11.8626 14.8667C11.7937 14.8208 11.6789 14.8208 11.61 14.8208C11.5411 14.8208 11.4722 14.8438 11.4033 14.8667C11.2426 14.9356 11.1048 15.0275 11.013 15.1652C10.967 15.2341 10.99 15.326 11.0589 15.3489C11.1048 15.3949 11.1967 15.3949 11.2656 15.326C11.2196 15.3489 11.2426 15.326 11.2656 15.303Z" fill="#563827"/>
<path d="M11.495 15.2112C11.4722 15.2112 11.4722 15.2339 11.495 15.2112V15.2112Z" fill="#563827"/>
</g>
</svg>
