<svg width="125" height="125" viewBox="0 0 125 125" fill="none" xmlns="http://www.w3.org/2000/svg">
<mask id="mask0_564_2534" style="mask-type:luminance" maskUnits="userSpaceOnUse" x="-10" y="-14" width="150" height="140">
<path d="M65.2698 125.75C106.495 125.75 139.915 94.4811 139.915 55.9088C139.915 17.3365 106.495 -13.9325 65.2698 -13.9325C24.0446 -13.9325 -9.375 17.3365 -9.375 55.9088C-9.375 94.4811 24.0446 125.75 65.2698 125.75Z" fill="white"/>
</mask>
<g mask="url(#mask0_564_2534)">
<path d="M80.2139 29.8329C80.8239 30.5192 81.2051 31.3579 81.5864 32.1966C81.8914 32.8828 82.1201 33.569 82.3488 34.2552C83.2638 34.0265 84.3312 34.484 84.8649 35.3227C85.3224 36.0851 85.3987 37.0001 85.5511 37.8388C85.5511 37.9913 85.5512 38.1438 85.6274 38.2963C85.8561 37.6863 86.2374 37.0001 86.4661 36.4664C86.9236 35.0939 87.3811 33.7978 87.686 32.3491C88.296 29.6805 88.601 26.9356 88.5248 24.267C88.5248 23.657 88.5248 23.0471 88.4485 22.4371C88.3723 22.1321 88.0673 20.9122 87.686 20.8359C87.3811 20.8359 86.5423 21.8271 86.3136 22.0559C85.7799 22.5896 85.1699 23.1233 84.6362 23.5808C82.5776 25.4107 80.5189 27.3168 78.384 28.9942C78.994 28.9942 79.6802 29.2992 80.2139 29.8329Z" fill="#FFE7C5"/>
<path d="M35.2288 40.8886C35.305 40.5836 35.3813 40.2786 35.5338 40.0499C35.7625 39.5924 36.1437 39.1349 36.6012 38.8299C36.9062 38.6012 37.1349 38.4487 37.4399 38.2962C37.5924 37.4575 37.8974 36.6188 38.5074 36.0851C39.0411 35.6276 39.6511 35.3226 40.3373 35.2464C40.3373 34.5602 40.4135 33.8739 40.6422 33.264C40.7947 32.654 41.0997 32.1203 41.481 31.6628C41.481 31.6628 41.481 31.6628 41.481 31.5866C39.5748 28.918 37.7449 26.2494 35.3813 23.962C34.4663 23.047 32.9414 21.8271 31.569 22.6658C30.5778 23.352 30.5778 24.8769 30.654 25.9444C30.8065 28.7655 31.264 31.5866 32.0265 34.2552C32.7127 36.7713 33.9326 38.8299 35.2288 40.8886Z" fill="#FFE7C5"/>
<path d="M109.568 126.437C109.263 126.894 109.111 127.428 109.416 128.114C110.331 129.791 109.721 131.926 108.653 133.375C107.357 135.129 105.222 136.196 103.24 137.035C98.5128 139.17 93.5568 140.618 88.6008 141.838C86.0847 142.448 83.5686 143.058 81.0525 143.668C78.5363 144.278 76.0202 144.888 73.4279 144.964C71.0642 145.041 68.7006 144.812 66.337 144.736C66.032 144.736 65.8033 144.736 65.4983 144.736C62.8297 144.659 60.2373 144.964 57.5687 145.193C54.9001 145.422 51.9265 145.727 49.3341 145.117C48.8004 144.964 47.5043 144.659 47.6567 143.897C47.8092 143.134 49.1817 142.753 49.7154 142.524C50.7066 142.143 51.1641 140.618 50.0204 140.085C49.1054 139.627 47.8855 139.093 47.5042 138.026C47.428 137.721 47.428 137.492 47.428 137.263C47.5805 137.34 47.8092 137.34 47.9617 137.263C48.343 137.111 48.7242 136.882 48.8004 136.501C48.8004 136.425 48.8004 136.12 48.8004 136.12C48.8004 136.044 48.8004 136.044 48.8004 136.044C48.8767 136.044 48.8767 135.967 48.9529 135.967C49.3341 135.815 49.4104 135.434 49.3341 135.129C49.4866 134.976 49.5629 134.824 49.6391 134.671C49.8679 134.061 49.9441 133.451 49.7916 132.841C49.5629 131.85 48.6479 131.088 48.7242 130.02C48.7242 129.258 49.2579 128.419 49.9441 128.19C51.0878 127.733 51.3165 126.36 50.2491 125.598C48.5717 124.454 48.5717 121.786 49.9441 120.413C50.6303 119.727 50.3253 118.812 49.7154 118.278C48.8767 117.668 46.6655 115.533 48.1905 114.466C49.0292 113.856 48.9529 112.56 47.8855 112.179C46.7418 111.797 46.6655 110.654 47.1993 109.815C47.8855 109.815 48.4954 109.662 49.1054 109.357C49.7916 108.976 49.6391 107.833 48.8767 107.68C48.2667 107.528 47.6567 107.528 47.0468 107.528H46.9705C46.8943 107.528 46.818 107.528 46.818 107.528C46.6655 107.528 46.513 107.451 46.3606 107.451C46.2843 107.451 46.2081 107.375 46.1318 107.375C46.0556 107.299 45.9793 107.299 45.9031 107.223L45.8268 107.146C45.7506 107.07 45.6743 106.994 45.5981 106.918C45.5981 106.841 45.5218 106.841 45.5218 106.765C45.5218 106.765 45.5219 106.689 45.4456 106.689L45.3694 106.536C45.3694 106.46 45.3694 106.46 45.3694 106.384V106.308C45.3694 106.231 45.4456 106.231 45.4456 106.155C45.9793 105.316 45.0644 104.097 44.1494 104.401C44.1494 104.401 44.0732 104.401 43.9969 104.478H43.9207H43.8444C43.8444 104.478 43.7682 104.478 43.7682 104.401C43.7682 104.401 43.7682 104.401 43.8444 104.401C43.8444 104.401 43.8444 104.401 43.7682 104.401C43.7682 104.401 43.7682 104.401 43.6919 104.401L43.6157 104.325L43.5395 104.249L43.4632 104.173C43.4632 104.173 43.4632 104.096 43.387 104.096C43.387 104.096 43.387 104.02 43.3107 103.944C43.3107 103.944 43.3107 103.944 43.3107 103.868C43.3107 103.868 43.3107 103.868 43.3107 103.792C43.3107 103.715 43.3107 103.639 43.3107 103.487C43.387 103.487 43.4632 103.487 43.4632 103.487C44.0732 103.41 44.6069 102.8 44.2257 102.114C43.387 100.742 41.7858 100.055 40.6421 98.9118C40.1084 98.3781 39.5747 97.7681 39.1172 97.1581C38.6597 96.5482 38.126 95.9382 38.2785 95.1757C38.3547 94.2608 38.5072 93.4221 38.0498 92.5834C37.6685 91.9734 37.2111 91.5922 36.6773 91.0584C36.7536 90.4485 36.5248 89.991 36.2199 89.5335C36.2199 89.3048 36.2961 89.076 36.2961 88.8473C36.3724 87.7799 36.2199 86.7887 36.2961 85.7212C36.2961 85.035 35.2287 84.8825 35.0762 85.5687C34.9237 86.0262 34.7712 86.4837 34.6187 87.0174C34.5424 86.8649 34.4662 86.7124 34.39 86.5599C33.7037 85.035 33.475 83.2813 33.6275 81.6039C33.78 80.0028 35.2287 78.1729 33.8562 76.8004C33.6275 76.4955 33.17 76.2667 33.0175 75.8855C32.9413 75.5805 32.9413 75.2755 33.0938 74.9705L33.17 74.8943C33.3225 74.7418 33.3225 74.5131 33.3987 74.3606C33.8562 73.5981 34.4662 72.9119 34.9237 72.1494C35.2286 71.6157 34.5424 71.082 34.085 71.5395C33.78 71.8445 33.3987 72.1494 33.0938 72.5307C33.0938 72.5307 33.0938 72.5307 33.0938 72.4544C32.9413 71.5395 33.0938 70.5483 33.0175 69.6333C32.9413 68.7184 32.7125 67.8034 32.6363 66.9647C32.4838 66.0498 32.6363 65.4398 33.0938 64.6773C33.475 64.0674 33.78 63.3812 33.7037 62.6187C33.6275 61.8562 33.0938 61.3225 33.0175 60.5601C32.7888 59.1876 33.475 57.739 34.6949 57.0527C35.3049 56.7478 34.8474 55.7566 34.2375 55.9853C33.9325 56.0616 33.7037 56.1378 33.475 56.2903C33.3987 55.6803 33.3987 55.0704 33.3225 54.3841C33.2462 53.6979 33.2463 53.0117 33.3987 52.3255C33.6275 51.6393 34.085 51.1056 34.5424 50.5718C34.9999 50.1144 35.4574 49.5806 35.3811 48.8944C35.3811 48.5894 35.2287 48.3607 35.0762 48.132C35.1524 47.9795 35.2286 47.827 35.2286 47.6745C35.1524 47.1408 34.9999 46.6833 34.9237 46.2258V45.9971V45.6921V45.4634C34.9237 45.3871 34.9237 45.3109 34.9237 45.2346C34.9999 44.9296 35.0762 44.7009 35.1524 44.4722C35.1524 44.3959 35.2286 44.3959 35.2286 44.3959C35.4574 43.9384 35.6861 43.5572 36.0674 43.3285C36.2961 43.176 36.5248 43.0235 36.7536 42.7947C36.9061 42.6423 37.0585 42.4135 37.1348 42.1085C37.211 41.6511 37.2111 41.2698 37.4398 40.8886C37.516 40.8124 37.5923 40.7361 37.5923 40.6599C37.8973 40.7361 38.2785 40.5836 38.3547 40.2786V40.2024C38.431 40.0499 38.431 39.9737 38.431 39.8212C38.8122 39.5924 39.1172 39.4399 39.4984 39.4399C40.0321 39.3637 39.9559 38.525 39.4984 38.3725C39.3459 38.2962 39.2697 38.2962 39.1172 38.2962C39.1934 38.1438 39.3459 37.9913 39.4222 37.915C39.7272 37.61 40.4134 37.1525 40.7946 37.4575C41.4046 37.9913 42.5483 37.6863 42.472 36.7713C42.3958 35.9326 42.2433 35.1702 42.5483 34.2552C42.777 33.569 43.1582 32.8828 43.7682 32.4253C44.3019 31.9678 44.9881 31.6628 45.6743 31.5104C46.0556 31.4341 46.3606 31.4341 46.7418 31.5104C46.818 31.5104 46.8943 31.5104 46.9705 31.5866C46.9705 31.7391 46.9705 31.9678 46.9705 32.1203C46.9705 32.1966 47.0468 32.2728 47.0468 32.2728C47.0468 32.3491 47.0468 32.3491 47.123 32.3491C47.123 32.3491 47.123 32.4253 47.1993 32.4253C47.2755 32.5778 47.3518 32.7303 47.5042 32.8828C47.733 33.1115 48.1142 33.1878 48.4192 33.1115C48.7242 33.0353 48.9529 32.8065 49.0292 32.5015C49.0292 32.5015 49.0292 32.5015 49.0292 32.4253C49.1054 32.349 49.1054 32.2728 49.1054 32.2728C49.1817 32.1966 49.1817 32.1203 49.1817 32.0441C49.1817 32.0441 49.2579 31.9678 49.2579 31.8916C49.2579 31.8153 49.3341 31.7391 49.3341 31.7391C49.3341 31.7391 49.3341 31.6628 49.4104 31.6628C49.4866 31.5866 49.6391 31.4341 49.7154 31.3579C49.7916 31.2816 49.8679 31.2816 49.9441 31.2054C50.0966 31.1291 50.2491 30.9766 50.4016 30.9004C50.6303 30.7479 50.9353 30.5954 51.2403 30.4429C51.3165 30.4429 51.3928 30.3667 51.3928 30.3667C51.3928 30.3667 51.3928 30.3667 51.469 30.3667C51.6215 30.2904 51.774 30.2904 51.9265 30.2142C51.9265 30.2142 51.9265 30.2142 52.0027 30.2142C52.079 30.2142 52.079 30.2142 52.1553 30.2142H52.2315C52.384 30.5954 52.6127 30.8241 53.0702 30.8241C53.2227 30.8241 53.3752 30.7479 53.4514 30.7479C53.8327 31.2816 54.7476 30.9004 54.5189 30.2142C54.4426 29.9854 54.3664 29.7567 54.2139 29.6042C54.2901 29.4517 54.2901 29.3755 54.3664 29.223C54.5951 28.7655 54.9001 28.1555 55.2813 27.9268C55.5863 27.6981 55.7388 27.6218 56.0438 27.6218C56.1963 27.5456 56.425 27.6218 56.6538 27.6981H56.73C56.8063 27.7743 56.8825 27.7743 56.9587 27.8505C57.035 27.9268 57.1112 28.003 57.1875 28.0793L57.2637 28.2318C57.2637 28.308 57.34 28.5368 57.34 28.6892C57.4925 29.1467 57.8737 29.528 58.4074 29.528C58.8649 29.528 59.3986 29.1467 59.4749 28.6892C59.5511 28.0793 60.0848 27.8505 60.6186 27.8505C60.6948 27.9268 60.771 28.003 60.8473 28.0793C61.1523 28.308 61.4573 28.308 61.8385 28.2318C62.1435 28.5368 62.8297 28.2318 62.601 27.7743C62.6772 27.6981 62.6772 27.6981 62.7534 27.6981C63.2109 27.3931 63.6684 27.2406 64.2021 27.0881C64.6596 27.0118 65.1933 27.0118 65.4983 27.2406C65.8033 27.4693 65.8795 27.6981 65.727 28.0793C65.6508 28.613 65.8033 29.1467 66.337 29.3755C66.7945 29.5279 67.4044 29.4517 67.7094 28.918C67.7857 28.7655 67.8619 28.5368 67.8619 28.3843C67.9382 28.3843 67.9382 28.308 68.0144 28.308C68.0906 28.308 68.1669 28.3843 68.2431 28.3843C68.3194 28.3843 68.3956 28.4605 68.4719 28.5368C69.0056 28.9942 69.1581 29.8329 69.6156 30.3667C69.9206 30.7479 70.6068 30.5192 70.683 30.0617C71.7505 29.6805 72.8942 29.0705 74.0378 29.2992C74.8766 29.528 75.4865 30.2904 75.334 31.2054C75.2578 31.7391 75.5628 32.4253 76.1727 32.3491C76.7827 32.2728 77.1639 32.0441 77.6214 31.6628C77.7739 31.5103 78.0026 31.1291 78.2314 31.1291C78.4601 31.1291 78.6888 31.4341 78.8413 31.5866C79.2988 32.1203 79.6038 32.8828 79.9088 33.569C80.29 34.4077 80.595 35.1702 80.9 36.0089C81.1287 36.6951 81.9674 36.7713 82.3486 36.1614C82.5011 35.9326 82.9586 36.0851 83.1874 36.2376C83.5686 36.6188 83.6448 37.305 83.7211 37.7625C83.7211 37.915 83.7973 38.1438 83.7973 38.2962C83.7211 38.2962 83.6448 38.22 83.4923 38.22C82.8824 37.9913 82.2724 38.6775 82.5011 39.2112C82.6536 39.5924 82.5774 39.8974 82.8824 40.2786C83.1111 40.5836 83.4161 40.8886 83.6448 41.1936C84.1023 41.8035 84.4835 42.566 84.7885 43.2522C85.3985 44.7009 85.6272 46.3783 85.3985 47.9032C85.3222 48.7419 85.0173 49.5044 85.0173 50.3431C85.0173 51.1056 85.3222 51.7918 85.7035 52.478C86.0847 53.2405 86.5422 53.9267 86.5422 54.8416C86.5422 55.8328 86.1609 56.824 85.7797 57.739C85.551 58.5014 86.2372 58.9589 86.8472 58.8826C86.9234 58.8826 86.9997 59.5689 86.9997 59.6451C86.9997 59.8738 86.9234 60.1788 86.8472 60.4076C86.6947 60.4838 86.4659 60.6363 86.4659 60.9413C86.2372 62.39 86.9996 63.6099 87.5334 64.9061C87.7621 65.516 87.9908 66.126 87.9908 66.8122C88.0671 67.5747 87.7621 68.0322 87.5334 68.7184C87.3046 69.3283 87.3809 69.9383 87.7621 70.472C88.0671 70.9295 88.6008 71.1582 88.8296 71.692C88.9058 71.9207 88.982 72.1494 88.982 72.4544C88.7533 72.2257 88.5246 72.0732 88.2196 71.997C87.9908 71.9207 87.6096 72.0732 87.5334 72.3782C87.3046 73.5219 88.0671 74.5131 88.2196 75.6568C88.3721 76.8004 88.2196 77.9441 87.8383 79.0116C87.6858 79.5453 87.5334 80.1553 87.7621 80.689C87.9146 80.994 88.0671 81.2227 88.3721 81.4515C88.4483 81.5277 88.8296 81.7564 88.8296 81.6802C88.982 82.0614 88.5246 82.7476 88.2958 83.0526C88.1433 83.2814 88.0671 83.5101 87.9146 83.8151C87.8383 83.7388 87.8384 83.7388 87.7621 83.6626C87.5334 83.5101 87.1521 83.5101 87.0759 83.8151C86.9996 84.1201 86.9234 84.425 86.9234 84.73C86.9234 85.1113 86.9234 85.4162 86.9234 85.7975C86.9234 86.4837 86.6947 87.1699 86.4659 87.7799C86.0847 88.9235 85.246 89.8385 84.4073 90.6772C84.331 90.7535 84.1785 90.906 84.1023 90.9822L83.8736 91.1347C83.7973 91.1347 83.7211 91.0584 83.6448 91.0584C83.4923 90.9822 83.3398 90.9822 83.1874 90.9822C82.4249 90.9822 81.9674 91.4397 81.8149 92.1259C81.5099 93.1171 80.8237 93.9558 79.7563 94.1083C79.1463 94.1845 79.1463 95.252 79.7563 95.3282C80.2138 95.4044 80.5187 95.4807 80.9762 95.3282C81.4337 95.1757 81.8149 94.947 82.1199 94.642C82.4249 94.337 82.7299 94.032 82.9586 93.6508C83.0349 93.4983 83.1873 93.2696 83.2636 93.1171C83.4923 93.1933 83.7973 93.2696 84.1023 93.2696C84.7123 93.1933 85.1697 92.8883 85.6272 92.5071C86.4659 91.8209 87.1521 90.9822 87.6859 89.991C87.7621 89.8385 87.8383 89.686 87.9146 89.5335C87.9146 89.7623 87.9908 89.991 87.9908 90.296V90.3722C87.9908 90.4485 87.9146 90.601 87.9146 90.6772V90.7534V90.8297C87.9146 90.9059 87.8383 90.9059 87.8383 90.8297C87.8383 90.9059 87.7621 90.906 87.7621 90.9822C87.7621 90.9822 87.7621 90.9822 87.6859 91.0584C87.6096 91.1347 87.5334 91.2109 87.3809 91.3634C87.2284 91.5159 87.0759 91.5922 86.9234 91.7447C86.7709 91.8971 86.6947 92.0496 86.6184 92.2021C86.5422 92.3546 86.3897 92.5071 86.3897 92.6596C86.3897 92.7358 86.3134 92.7358 86.3134 92.8121C86.2372 93.0408 86.1609 93.2696 86.1609 93.5746C86.2372 93.8795 86.3897 94.1845 86.6946 94.337C86.8471 94.4133 86.9996 94.4133 87.1521 94.4133C87.1521 94.4133 87.6096 94.4133 87.6859 94.337C87.8384 94.337 87.9908 94.337 87.9908 94.2608H88.0671C88.1433 94.2608 88.2958 94.1845 88.3721 94.1845C88.6008 94.1083 88.7533 94.032 88.982 93.8795C89.0583 93.9558 89.2108 94.032 89.3633 94.1083C89.4395 94.1083 89.5158 94.1845 89.6683 94.1845C89.6683 94.2608 89.6683 94.2608 89.6683 94.2608C89.6683 94.337 89.6683 94.337 89.6683 94.337C89.6683 94.337 89.6683 94.4133 89.592 94.4133C89.592 94.4895 89.5158 94.5657 89.5158 94.5657C89.4395 94.7182 89.3633 94.7945 89.287 94.947C88.9058 95.4044 89.0583 96.2432 89.5158 96.6244C89.9732 97.0819 90.6595 97.1581 91.1932 96.8531C91.1932 96.8531 91.1932 96.8531 91.2694 96.8531C91.3457 96.8531 91.4219 96.8531 91.4219 96.9294C91.4219 96.9294 91.4219 96.9294 91.4982 96.9294C91.5744 97.0056 91.5744 97.0056 91.6506 97.0819L91.7269 97.1581C91.7269 97.2344 91.8031 97.2344 91.8031 97.2344C91.8031 97.3106 91.8794 97.3868 91.8794 97.3868C91.8794 97.4631 91.8794 97.5393 91.8794 97.6918C91.8794 97.7681 91.8794 97.7681 91.8794 97.8443C91.8794 97.9206 91.8031 97.9968 91.8031 98.0731C91.8031 98.1493 91.7269 98.2256 91.7269 98.3018L91.6506 98.5305C91.4981 98.8355 91.4981 99.1405 91.7269 99.4455C91.8794 99.6742 92.2606 99.8267 92.5656 99.7505C92.6418 99.7505 92.6418 99.7505 92.6418 99.6742C92.7181 99.6742 92.7943 99.7505 92.8706 99.7505C93.938 99.7505 94.0905 101.123 94.243 101.962C94.3955 103.105 94.4717 104.325 94.548 105.469C94.6242 106.46 95.6154 107.146 96.5304 106.613C97.9028 105.85 97.5978 111.416 97.5978 111.95C97.5978 112.636 98.2078 113.398 98.9703 113.322C100.495 113.094 101.791 114.39 100.953 115.915C100.571 116.677 101.029 118.049 102.096 117.897C103.698 117.668 107.434 117.363 107.357 119.956C107.357 120.642 107.967 121.252 108.653 121.252C109.645 121.176 110.56 121.633 110.941 122.624C111.246 123.615 110.56 124.759 109.721 125.293C108.958 125.369 109.111 126.132 109.568 126.437Z" fill="#FFE7C5"/>
<path d="M68.6247 67.9561C67.786 66.8124 66.4898 66.4312 65.1936 67.0411C64.05 67.6511 63.3637 68.7185 62.9063 69.8622C62.83 70.091 62.6775 70.4722 62.525 70.7009C62.4488 70.7009 62.3725 70.6247 62.2963 70.5484C61.9151 70.1672 61.6101 69.6335 61.2288 69.2523C60.7714 68.7948 60.1614 68.4898 59.5514 68.2611C59.2465 68.1848 58.9415 68.1848 58.7127 68.2611C57.874 67.8798 56.8828 67.7273 55.9679 67.9561C53.6805 68.566 53.6042 71.7684 53.6042 73.7508C53.6042 76.1144 53.9092 78.5543 54.5955 80.8416C55.2817 83.0528 56.2729 85.1114 58.7127 85.7214C59.7802 85.9501 60.9239 86.0264 61.9913 86.0264C63.2875 86.1026 64.5837 86.1026 65.8798 85.8739C68.1672 85.5689 69.5397 84.044 69.7684 81.7566C69.9971 79.393 70.0734 76.9531 70.0734 74.5895C70.0734 72.3783 69.9209 69.786 68.6247 67.9561Z" fill="white"/>
<path d="M66.7186 65.5159C66.1849 64.8297 65.4986 64.4484 64.8124 64.2197C64.7362 64.2197 64.6599 64.1434 64.5837 64.1434C65.1936 63.9147 65.3461 63.076 64.7362 62.6948C64.1262 62.3135 63.44 62.2373 62.7538 62.161C62.2201 61.7036 61.3814 61.7036 60.6952 61.6273C59.9327 61.6273 59.1702 61.7036 58.4078 61.9323C58.179 62.0085 58.0265 62.2373 58.0265 62.5423C58.0265 62.6185 58.1028 62.771 58.179 62.8473C57.5691 63.1522 57.0353 63.6097 56.4254 64.0672C56.0441 64.3722 56.1966 64.9059 56.5779 65.1346C56.5016 65.2109 56.3491 65.2871 56.2729 65.3634C55.5867 66.1258 55.5104 67.422 56.2729 68.1845C56.8066 68.7182 57.4928 68.7944 58.179 68.7944C58.484 68.9469 58.7128 69.1757 59.0177 69.3282C59.4752 69.6331 59.7802 70.0906 60.3139 70.3956C60.9239 70.7006 61.6101 70.7768 62.2201 70.5481C62.4488 70.4718 62.6775 70.3956 62.83 70.3193L62.9063 70.3956C63.135 70.5481 63.44 70.4718 63.6687 70.3193C64.1262 69.9381 64.6599 69.6331 65.1937 69.3282C65.2699 69.3282 65.2699 69.2519 65.3461 69.2519C65.6511 69.0994 65.8799 68.9469 66.1849 68.7182L66.2611 68.6419C66.7948 68.1845 67.2523 67.6507 67.481 66.9645C67.786 66.3546 67.3285 65.7446 66.7186 65.5159Z" fill="#F4B082"/>
<path d="M40.7186 30.824C40.3374 30.1378 40.0324 29.4516 39.6512 28.7654C38.8887 27.393 38.05 26.0205 36.9826 24.8769C35.9914 23.7332 34.8477 22.742 33.5515 22.0558C32.5603 21.522 31.4166 21.522 30.8066 22.5132C30.3492 23.1994 30.4254 23.8857 30.7304 24.5719C30.1967 24.7244 30.1204 25.5631 30.7304 25.7918C31.4166 26.0968 32.1791 26.5543 32.8653 27.0118C33.6277 27.9267 34.3902 28.8416 35.0764 29.8328C35.6101 30.9765 35.9151 32.1965 36.0676 33.4164C36.1438 34.1789 36.0676 35.0176 36.1439 35.78C36.2201 36.8475 37.2113 37.6862 38.2787 37.1525C38.9649 36.7712 39.4987 35.8563 40.0324 35.2463C40.5661 34.5601 41.5573 33.7976 41.5573 32.8064C41.5573 32.1202 41.0998 31.434 40.7186 30.824Z" fill="#EAC79D"/>
<path d="M88.6012 21.8273C88.4487 21.0649 87.4575 20.6837 86.8475 21.1411C85.1701 22.2848 83.4927 23.5048 81.9678 24.7247C81.2053 25.3347 80.4429 26.0209 79.6804 26.6309C79.2992 26.9358 78.9942 27.3171 78.613 27.6983C78.4605 27.8508 78.308 28.0795 78.0792 28.232C77.9268 28.4607 77.8505 28.6895 77.7743 28.9182C77.5455 29.452 78.1555 29.9857 78.6892 29.8332C79.0704 29.7569 79.3754 29.5282 79.7567 29.2995C79.7567 29.5282 79.7567 29.8332 79.7567 30.0619C79.7567 30.5194 79.9854 30.8244 80.0616 31.2056C80.0616 31.3581 80.0616 31.4343 80.1379 31.5868C80.1379 31.6631 80.2141 31.7393 80.2141 31.8156C80.2904 32.0443 80.2904 32.273 80.3666 32.5018C80.6716 33.4167 81.8915 33.8742 82.5778 33.1118C84.0264 31.4343 85.2464 29.6807 86.4663 27.8508C87.6862 26.0971 88.9824 24.1147 88.6012 21.8273Z" fill="#EAC79D"/>
<path d="M38.05 40.965C37.745 41.27 37.44 41.6512 37.135 41.9562C37.2113 41.4987 37.2113 41.1175 37.44 40.7363C37.5163 40.66 37.5925 40.5838 37.5925 40.5075C37.8975 40.5838 38.2787 40.4313 38.3549 40.1263V40.05C38.4312 40.2788 38.355 40.66 38.05 40.965Z" fill="#EAC79D"/>
<path d="M66.3372 144.812C66.0323 144.812 65.8035 144.812 65.4985 144.812C62.8299 144.736 60.2376 145.041 57.569 145.27C54.9004 145.498 51.9267 145.803 49.3344 145.193C48.8007 145.041 47.5045 144.736 47.657 143.973C47.8095 143.211 49.1819 142.83 49.7156 142.601C50.7068 142.22 51.1643 140.695 50.0206 140.161C49.1057 139.704 47.8857 139.17 47.5045 138.103C47.4282 137.798 47.4282 137.569 47.4282 137.34C47.5807 137.416 47.8095 137.416 47.962 137.34C48.3432 137.188 48.7244 136.959 48.8007 136.578C48.8007 136.501 48.8007 136.196 48.8007 136.196C48.8007 136.12 48.8007 136.12 48.8007 136.12C48.8769 136.12 48.8769 136.044 48.9532 136.044C49.3344 135.891 49.4106 135.51 49.3344 135.205C49.4869 135.053 49.5631 134.9 49.6394 134.748C49.8681 134.138 49.9444 133.528 49.7919 132.918C49.5631 131.927 48.6482 131.164 48.7244 130.097C48.7244 129.334 49.2582 128.496 49.9444 128.267C51.0881 127.809 51.3168 126.437 50.2493 125.674C48.5719 124.531 48.5719 121.862 49.9444 120.49C50.6306 119.803 50.3256 118.889 49.7156 118.355C48.8769 117.745 46.6658 115.61 48.1907 114.543C49.0294 113.933 48.9532 112.636 47.8857 112.255C46.742 111.874 46.6658 110.73 47.1995 109.892C47.8857 109.892 48.4957 109.739 49.1057 109.434C49.7919 109.053 49.6394 107.909 48.8769 107.757C48.267 107.604 47.657 107.604 47.047 107.604H46.9708C46.8945 107.604 46.8183 107.604 46.8183 107.604C46.6658 107.604 46.5133 107.528 46.3608 107.528C46.2846 107.528 46.2083 107.452 46.1321 107.452C46.0558 107.375 45.9796 107.375 45.9033 107.299L45.8271 107.223C45.7508 107.147 45.6746 107.07 45.5983 106.994C45.5983 106.918 45.5221 106.918 45.5221 106.842C45.5221 106.842 45.5221 106.765 45.4459 106.765L45.3696 106.613C45.3696 106.537 45.3696 106.537 45.3696 106.46V106.384C45.3696 106.308 45.4459 106.308 45.4459 106.232C45.9796 105.393 45.0646 104.173 44.1497 104.478C44.1497 104.478 44.0734 104.478 43.9972 104.554H43.9209H43.8447C43.8447 104.554 43.7684 104.554 43.7684 104.478C43.7684 104.478 43.7684 104.478 43.8447 104.478C43.8447 104.478 43.8447 104.478 43.7684 104.478C43.7684 104.478 43.7684 104.478 43.6922 104.478L43.6159 104.402L43.5397 104.326L43.4635 104.249C43.4635 104.249 43.4635 104.173 43.3872 104.173C43.3872 104.173 43.3872 104.097 43.311 104.021C43.311 104.021 43.311 104.021 43.311 103.944C43.311 103.944 43.311 103.944 43.311 103.868C43.311 103.792 43.311 103.716 43.311 103.563C43.3872 103.563 43.4635 103.563 43.4635 103.563C44.0734 103.487 44.6072 102.877 44.2259 102.191C43.3872 100.818 41.786 100.132 40.6424 98.9884C40.1086 98.4546 39.5749 97.8447 39.1174 97.2347C38.66 96.6247 38.1262 96.0148 38.2787 95.2523C38.355 94.3374 38.5075 93.4986 38.05 92.6599C37.6688 92.05 37.2113 91.6687 36.6776 91.135C36.7538 90.525 36.5251 90.0676 36.2201 89.6101C36.2201 89.3814 36.2963 89.1526 36.2963 88.9239C36.3726 87.8564 36.2201 86.8652 36.2963 85.7978C36.2963 85.1116 35.2289 84.9591 35.0764 85.6453C34.9239 86.1028 34.7714 86.5603 34.6189 87.094C34.5427 86.9415 34.4664 86.789 34.3902 86.6365C33.704 85.1116 33.4752 83.3579 33.6277 81.6805C33.7802 80.0794 35.2289 78.2495 33.8565 76.877C33.6277 76.572 33.1703 76.3433 33.0178 75.9621C32.9415 75.6571 32.9415 75.3521 33.094 75.0471L33.1703 74.9709C33.3228 74.8184 33.3227 74.5896 33.399 74.4372C33.8565 73.6747 34.4664 72.9885 34.9239 72.226C35.2289 71.6923 34.5427 71.1586 34.0852 71.6161C33.7802 71.9211 33.399 72.226 33.094 72.6073C33.094 72.6073 33.094 72.6073 33.094 72.531C32.9415 71.6161 33.094 70.6249 33.0178 69.7099C32.9415 68.795 32.7128 67.88 32.6365 67.0413C32.484 66.1264 32.6365 65.5164 33.094 64.7539C33.4752 64.144 33.7802 63.4577 33.704 62.6953C33.6277 61.9328 33.094 61.3991 33.0178 60.6366C32.789 59.2642 33.4752 57.8156 34.6952 57.1293C35.3051 56.8244 34.8477 55.8331 34.2377 56.0619C33.9327 56.1381 33.704 56.2144 33.4752 56.3669C33.399 55.7569 33.399 55.1469 33.3227 54.4607C33.2465 53.7745 33.2465 53.0883 33.399 52.4021C33.6277 51.7159 34.0852 51.1822 34.5427 50.6484C35.0002 50.191 35.4576 49.6572 35.3814 48.971C35.3814 48.666 35.2289 48.4373 35.0764 48.2086C35.1527 48.0561 35.2289 47.9036 35.2289 47.7511C35.1526 47.2174 35.0002 46.7599 34.9239 46.3024V46.0737V45.7687V45.5399C34.9239 45.4637 34.9239 45.3875 34.9239 45.3112C35.0002 45.0062 35.0764 44.7775 35.1527 44.5488C35.1527 44.4725 35.2289 44.4725 35.2289 44.4725C35.4576 44.015 35.6864 43.6338 36.0676 43.4051C36.2963 43.2526 36.5251 43.1001 36.7538 42.8713C36.6013 44.5487 37.3638 46.2262 38.8887 47.0649C39.3462 47.2936 39.5749 48.0561 39.2699 48.5135C38.1262 50.1909 37.745 52.1733 37.9737 54.232C38.1262 55.2232 38.4312 56.2144 38.8887 57.0531C39.4224 57.968 40.1849 58.578 40.7949 59.4167C41.4048 60.3317 41.4048 61.3991 40.7949 62.3141C40.1086 63.3053 39.4224 64.1439 38.8887 65.2114C37.9738 67.3463 38.05 69.9386 39.6512 71.6923C40.0324 72.1498 40.1086 72.9885 39.4224 73.2935C37.745 74.0559 37.2875 75.8858 37.745 77.5632C38.2025 79.4694 39.8037 80.5368 40.4899 82.2905C41.2523 84.1204 40.2611 85.4166 39.4987 87.0177C38.8887 88.2377 39.4987 89.9913 41.0236 90.1438C41.7098 90.2201 42.396 90.83 42.091 91.5925C41.6335 92.7362 41.1761 94.1086 41.5573 95.4048C41.7861 96.1672 42.701 97.1585 43.5397 96.701C44.3784 96.2435 45.4458 97.0059 45.1409 97.9971C44.9884 98.6834 45.5221 99.2171 46.1321 99.3696C47.047 99.6746 47.962 99.3696 48.8007 99.1408C49.2582 98.9883 49.8681 99.2171 50.0968 99.6746C50.2493 99.9795 50.5543 100.208 50.8593 99.9795C51.393 99.4458 52.613 99.5983 52.6892 100.513C52.6892 100.666 52.918 101.809 53.0705 101.733C53.6042 101.428 54.0616 101.581 54.3666 101.886V101.809C54.6716 100.818 55.8915 100.894 56.2728 101.809C56.4253 102.191 56.4253 102.572 56.2728 102.953C56.349 103.334 56.5015 103.792 56.8828 104.021C57.4927 104.402 57.569 105.164 57.1115 105.698C56.044 106.994 55.8153 108.748 56.1965 110.273C56.4253 111.035 56.7303 111.798 57.264 112.408C57.7215 112.941 58.5602 113.323 58.7889 114.009C59.0939 114.924 58.3314 115.762 58.1027 116.601C57.8739 117.364 57.7977 118.202 57.7977 119.041C57.9502 120.795 58.7889 122.548 60.1613 123.616C60.695 123.997 60.8475 124.683 60.39 125.217C59.7038 125.979 59.4751 126.894 59.2464 127.886C59.0176 128.877 58.7889 129.944 58.7889 131.012C58.7127 132.613 59.0939 135.205 61.0763 135.434C61.7625 135.51 62.3725 136.12 62.1437 136.883C61.5338 139.017 60.4663 142.754 63.0587 144.126C64.2023 144.431 65.346 144.355 66.3372 144.812Z" fill="#EAC79D"/>
<path d="M110.331 123.463C108.806 119.345 104.994 117.211 102.173 114.161C98.8943 110.577 96.5307 106.307 94.0909 102.19C94.0909 102.114 94.0146 102.114 94.0146 102.114C94.0146 101.656 93.9384 101.199 93.7096 100.741C93.4809 100.36 93.1759 100.055 92.7184 99.8265C92.7184 99.369 92.5659 98.9115 92.3372 98.5303C92.1847 98.2253 91.956 97.9966 91.651 97.8441C91.651 97.3866 91.5747 96.8529 91.2697 96.3954C91.041 95.9379 90.6598 95.6329 90.2786 95.4805C90.2023 95.023 90.0498 94.6417 89.7448 94.2605L89.6686 94.1843C89.4399 93.4218 88.9824 92.8881 88.4487 92.5831C88.8299 91.9731 88.7536 90.982 87.9912 90.677C87.305 90.372 86.6187 90.2957 86.0088 90.2195C87.3812 87.5509 87.9912 84.4248 88.5249 81.4512C89.3636 77.0289 89.8211 72.3779 88.2199 68.0319C87.9149 67.117 86.8475 66.9645 86.2375 67.8032C85.5513 68.7944 85.5513 69.9381 85.8563 71.0055C86.0088 71.5392 87 74.0553 85.8563 74.1316C84.8651 74.1316 84.4839 75.2753 85.0938 76.0377C85.4751 76.4952 84.7888 77.4102 84.5601 77.7914C84.2551 78.4014 84.0264 78.9351 83.9502 79.6213C83.8739 80.3075 84.1026 80.9175 84.2551 81.6037C84.3314 81.7562 84.6364 82.8236 84.2551 82.8236C83.3402 82.7474 82.9589 83.8148 83.2639 84.501C83.5689 85.1873 84.7889 88.0084 83.1114 88.0084C82.4252 88.0084 81.8153 88.6183 81.8153 89.3045C81.8153 90.8294 80.3666 91.8969 78.9179 91.6682C78.003 91.5157 77.5455 92.5831 77.6217 93.3456C77.698 93.8793 77.088 94.2605 76.7068 94.3368C75.9443 94.4893 75.2581 94.3368 74.5719 94.108C73.8094 93.8793 72.8182 94.4893 72.8945 95.4042C73.047 97.0816 71.5221 98.2253 69.9971 97.4629C69.1584 97.0816 68.091 98.1491 68.9297 98.9115C70.1496 99.979 71.827 100.284 73.352 99.5215C74.3431 98.9878 75.0294 98.0728 75.3343 97.0816C76.478 97.2341 77.6217 97.1579 78.6129 96.4716C79.4516 95.9379 79.9853 95.1755 80.2141 94.2605C80.4428 94.2605 80.6716 94.1843 80.9003 94.108C80.4428 95.023 81.2815 96.2429 82.4252 96.0904C83.1114 97.1579 84.0264 97.9203 85.1701 98.454C84.9413 100.436 86.695 101.961 88.3724 102.876C88.0674 104.02 88.2962 105.316 88.9061 106.307C89.4399 107.222 90.2786 107.832 91.1935 108.29C91.041 108.976 91.1173 109.738 91.4222 110.425C92.1085 111.797 93.2521 113.093 94.3958 114.313C94.0146 115.457 94.6246 116.829 95.387 117.821C96.3782 119.117 97.5982 120.108 98.9706 120.947C98.8181 121.862 98.8943 122.776 99.2756 123.615C99.733 124.759 100.572 125.598 101.258 126.513C100.724 127.275 100.496 128.19 100.724 129.181C100.801 129.715 101.105 130.249 101.41 130.63C100.953 131.24 100.724 131.85 100.648 132.612C99.4281 132.993 98.4369 133.908 97.7506 135.052C97.2932 135.815 96.6832 136.729 96.912 137.644C97.1407 138.636 98.1319 139.169 99.0468 139.169C100.724 139.246 102.63 138.483 104.155 137.721C105.756 136.882 107.205 135.815 108.273 134.442C110.789 131.164 111.627 127.199 110.331 123.463Z" fill="#EAC79D"/>
<path d="M97.5218 124.53C97.5218 124.378 97.598 124.302 97.598 124.149C97.598 123.997 97.598 123.844 97.5218 123.692C97.5218 123.616 97.4455 123.539 97.4455 123.463C97.3693 123.387 97.293 123.311 97.2168 123.234C97.0643 123.082 96.9118 123.006 96.6831 123.082C96.3018 123.082 95.9206 123.311 95.8443 123.768C95.8443 123.768 95.8443 123.768 95.8443 123.844C95.8443 123.844 95.8443 123.844 95.8443 123.92C95.8443 123.92 95.8444 123.92 95.7681 123.92C95.6156 123.997 95.4631 124.073 95.3106 124.149C95.2344 124.225 95.1582 124.225 95.0057 124.302H94.9294C94.7769 124.302 94.5482 124.302 94.3957 124.378C94.2432 124.454 94.0907 124.53 93.9382 124.683C93.7857 124.912 93.7095 125.064 93.7095 125.369V125.445V125.522C93.7095 125.598 93.7095 125.75 93.7857 125.827L93.9382 126.132C93.9382 126.132 93.9382 126.132 93.9382 126.208C94.0144 126.36 94.1669 126.513 94.3194 126.589C94.4719 126.742 94.6244 126.818 94.8532 126.818C94.9294 126.818 95.0056 126.818 95.0819 126.818C95.1581 126.818 95.2344 126.818 95.3106 126.818C95.3869 126.818 95.4631 126.818 95.5394 126.818C95.6156 126.818 95.6919 126.818 95.7681 126.742C95.9206 126.665 96.0731 126.665 96.1493 126.589C96.2256 126.513 96.3018 126.513 96.3781 126.437C96.5306 126.36 96.6831 126.208 96.8356 126.132C96.988 125.979 97.0643 125.827 97.1405 125.674C97.2168 125.598 97.2168 125.522 97.293 125.522L97.3693 125.445C97.4455 125.217 97.5218 125.064 97.5218 124.835L97.4455 125.14C97.4455 124.912 97.5218 124.683 97.5218 124.53Z" fill="#EAC79D"/>
<path d="M93.3284 119.346C92.3372 119.346 92.3372 120.947 93.3284 120.947C94.3958 120.871 94.3958 119.346 93.3284 119.346Z" fill="#EAC79D"/>
<path d="M89.5924 112.941C89.5161 112.788 89.4399 112.56 89.3636 112.407C89.2874 112.255 89.1349 112.026 89.0587 111.874C88.9824 111.797 88.9824 111.721 88.9062 111.569C88.9062 111.569 88.9062 111.569 88.9062 111.492C88.9062 111.416 88.8299 111.416 88.8299 111.34C88.7537 111.187 88.6774 111.035 88.5249 110.959C88.3725 110.882 88.22 110.882 88.0675 110.882C87.7625 110.959 87.5337 111.264 87.6862 111.645C87.8387 112.102 87.9912 112.56 88.2199 112.941C88.2962 113.093 88.4487 113.322 88.6012 113.475C88.6774 113.551 88.6774 113.627 88.7537 113.703C88.8299 113.78 88.9062 113.78 88.9824 113.856C89.0586 113.932 89.2112 114.008 89.2874 114.008C89.5161 114.085 89.8211 113.856 89.8211 113.627C89.7449 113.398 89.7449 113.17 89.5924 112.941Z" fill="#EAC79D"/>
<path d="M85.0176 61.7039C85.0176 61.5514 84.8651 61.3989 84.7888 61.2464C84.5601 60.789 83.7977 60.789 83.5689 61.2464C83.4927 61.3989 83.4164 61.5514 83.3402 61.7039C83.2639 61.8564 83.2639 62.0851 83.2639 62.2376C83.2639 62.4664 83.2639 62.6951 83.2639 62.9238C83.2639 63.3813 83.3402 63.8388 83.3402 64.2963C83.3402 64.6775 83.6452 65.0587 84.1026 65.0587C84.5601 65.0587 84.8651 64.7537 84.8651 64.2963C84.8651 63.8388 84.9413 63.3813 84.9413 62.9238C84.9413 62.6951 84.9413 62.4664 84.9413 62.2376C85.0176 62.0089 85.0176 61.8564 85.0176 61.7039Z" fill="#EAC79D"/>
<path d="M83.5689 56.2138C83.5689 56.0613 83.5688 55.9088 83.4926 55.8326C83.4164 55.7563 83.4163 55.6801 83.3401 55.6038C83.2639 55.5276 83.1876 55.5276 83.1114 55.5276C83.0351 55.5276 82.9589 55.5276 82.8826 55.6038C82.8826 55.6038 82.8826 55.6801 82.8064 55.6801C82.8064 55.7563 82.7301 55.7563 82.6539 55.8326C82.5776 55.9088 82.5776 56.0613 82.5776 56.1375V56.2138C82.5776 56.3663 82.5776 56.5188 82.5776 56.6713C82.5776 56.8238 82.6539 56.9 82.7301 57.0525C82.8064 57.1288 82.9589 57.205 83.1114 57.205C83.2639 57.205 83.3401 57.1288 83.4926 57.0525C83.5688 56.9763 83.6451 56.8238 83.6451 56.6713C83.5688 56.5188 83.5689 56.3663 83.5689 56.2138Z" fill="#EAC79D"/>
<path d="M85.3987 49.1231C85.2462 48.4369 85.0175 47.6745 84.6363 47.0645C84.4838 46.7595 84.1025 46.6833 83.8738 46.8358C83.5688 46.9883 83.4163 47.2932 83.4926 47.5982C83.7213 48.2082 83.7976 48.8944 83.9501 49.5044V49.5806C83.9501 49.7331 83.95 49.8093 84.0263 49.9618C84.0263 50.1143 84.1025 50.2668 84.1025 50.4193C84.1788 50.8005 84.1788 51.1055 84.4838 51.4105C84.6363 51.563 84.9413 51.563 85.0937 51.4105C85.3987 51.1055 85.3987 50.7243 85.475 50.2668C85.5512 49.8856 85.475 49.5044 85.3987 49.1231Z" fill="#EAC79D"/>
<path d="M88.1436 90.5247L88.0674 90.6009C88.0674 90.6009 88.0674 90.6009 88.1436 90.5247Z" fill="#563827"/>
<path d="M62.2962 99.3694C62.2962 99.2931 62.2962 99.2169 62.2962 99.2169C62.2962 99.1406 62.22 99.0644 62.22 98.9882C62.0675 98.7594 61.7625 98.6069 61.5338 98.6069C61.0763 98.6069 60.6951 98.8357 60.3139 99.0644C60.0851 99.2931 59.7801 99.4456 59.4751 99.4456C58.8652 99.4456 58.4077 98.9882 58.2552 98.4544C58.1027 97.7682 57.3403 97.7682 56.8828 98.0732C56.5016 98.3782 55.8916 98.8357 55.5104 98.3782C55.1291 97.9207 55.2054 97.1582 54.6716 96.8533C54.4429 96.7008 54.1379 96.777 53.9854 96.9295C53.9092 97.0058 53.8329 97.1582 53.7567 97.3107C53.7567 97.3107 53.7567 97.3107 53.7567 97.387C53.6042 97.5395 53.6042 97.692 53.7567 97.8445C53.7567 98.0732 53.8329 98.3019 53.9092 98.4544C54.0617 98.9119 54.2904 99.3694 54.6716 99.6744C55.4341 100.284 56.2728 100.208 57.1115 99.8269C57.6452 100.742 58.7127 101.352 59.7801 101.199C60.1614 101.123 60.5426 101.047 60.9238 100.818C61.2288 100.666 61.4575 100.437 61.6863 100.284C61.7625 100.208 61.9913 100.056 62.0675 100.056C62.0675 99.9031 62.4487 99.5981 62.2962 99.3694Z" fill="#563827"/>
<path d="M71.5219 96.5481C71.2932 96.5481 71.1407 96.7006 70.9882 96.7768C70.9882 96.7768 70.912 96.7768 70.912 96.853C70.7595 96.9293 70.607 97.0818 70.3782 97.158C70.2258 97.2343 69.997 97.3868 69.8445 97.463C69.8445 97.463 69.8445 97.463 69.7683 97.463C69.692 97.463 69.5396 97.5393 69.4633 97.5393C69.3871 97.5393 69.3108 97.6155 69.2346 97.6155C69.1583 97.6155 69.1583 97.6155 69.0821 97.6155C68.9296 97.6155 68.7008 97.6155 68.5484 97.6155C68.4721 97.6155 68.4721 97.6155 68.3958 97.6155C68.2434 97.6155 68.1671 97.5393 68.0909 97.5393C67.9384 97.463 67.7859 97.3868 67.5572 97.3105C67.0997 97.2343 66.7185 97.3105 66.4135 97.6917C66.1847 97.9205 66.1847 98.2255 66.1847 98.5305C66.1085 98.5305 66.1085 98.5305 66.0322 98.5305C65.956 98.5305 65.8035 98.4542 65.7272 98.4542C65.4985 98.378 65.2698 98.378 64.9648 98.3017C64.6598 98.2255 64.3548 98.3017 64.2023 98.5305C64.0498 98.7592 63.9736 99.1404 64.1261 99.3692C64.4311 99.8266 64.8123 100.208 65.2698 100.437C65.7273 100.665 66.3372 100.742 66.8709 100.589C67.2522 100.437 67.6334 100.208 67.8621 99.9029C67.9384 99.9029 67.9384 99.9029 68.0146 99.9029C68.6246 99.9791 69.3108 99.9791 69.997 99.8266C70.607 99.6742 71.217 99.3692 71.6744 98.9117C72.1319 98.4542 72.6656 97.6918 72.3606 97.0818C72.2844 96.7006 71.9794 96.4718 71.5219 96.5481Z" fill="#563827"/>
<path d="M48.1908 59.7214C48.1908 59.2639 48.1145 58.7302 47.8095 58.3489C47.4283 57.8152 46.7421 57.3578 46.0559 57.434C45.5984 57.434 45.2172 57.5865 44.9122 57.8915C44.6072 58.1965 44.4547 58.5014 44.3022 58.8827C44.1497 59.4164 44.0735 60.0264 44.0735 60.6363C44.1497 61.3225 44.3022 62.0088 44.8359 62.4662C45.0647 62.695 45.3697 62.9237 45.7509 62.9999C46.2084 63.0762 46.6658 63 47.1233 62.8475C47.7333 62.5425 48.1908 61.9325 48.267 61.3226C48.3433 60.8651 48.3433 60.4838 48.267 60.0264C48.267 59.8739 48.1908 59.7976 48.1908 59.7214Z" fill="#563827"/>
<path d="M78.2316 58.2728C78.2316 57.8153 78.1553 57.2816 77.8503 56.9003C77.4691 56.3666 76.7829 55.9091 76.0967 55.9854C75.6392 55.9854 75.258 56.1379 74.953 56.4429C74.648 56.7478 74.4955 57.0528 74.343 57.4341C74.1905 57.9678 74.1143 58.5777 74.1143 59.1877C74.1905 59.8739 74.343 60.5601 74.8767 61.0176C75.1055 61.2463 75.4104 61.4751 75.7917 61.5513C76.2492 61.6276 76.7066 61.5513 77.1641 61.3988C77.7741 61.0939 78.2315 60.4839 78.3078 59.8739C78.384 59.4164 78.384 59.0352 78.3078 58.5778C78.2315 58.4253 78.2316 58.349 78.2316 58.2728Z" fill="#563827"/>
<path d="M69.1583 79.6216C69.7683 78.3255 69.9208 76.8768 70.0733 75.5043C70.0733 74.8944 69.5395 74.4369 69.0058 74.4369C68.3959 74.4369 68.0146 74.8944 67.9384 75.5043C67.8621 75.9618 67.7859 76.4193 67.7096 76.953C67.6334 77.4105 67.4809 78.0205 67.3284 78.3255C67.2522 78.4017 67.2522 78.4779 67.1759 78.6304L67.0997 78.7067C67.0234 78.7067 66.9472 78.7829 66.9472 78.7829C66.8709 78.8592 66.7947 78.8592 66.7184 78.9354C66.7184 78.9354 66.5659 79.0117 66.4897 79.0117C66.3372 79.0879 66.261 79.0879 66.1085 79.1642C65.8797 79.2404 65.651 79.3166 65.346 79.3166C64.8123 79.4691 64.5073 79.4691 64.0498 79.5454C63.8211 79.5454 63.5161 79.5454 63.2874 79.5454C63.1349 79.5454 62.9824 79.5454 62.9061 79.5454C62.8299 79.5454 62.8299 79.5454 62.7536 79.5454C62.7536 79.4691 62.6774 79.3929 62.6774 79.2404C62.6774 79.0879 62.6774 78.9354 62.6774 78.7829V77.6392C62.6774 76.8768 62.6774 76.0381 62.6774 75.2756C62.6774 74.5132 62.6012 73.6744 62.5249 72.912C62.5249 72.607 62.4487 72.302 62.3724 71.997C62.7536 71.6158 63.2111 71.3108 63.5161 70.8534C63.7448 70.5484 63.9736 70.2434 64.2786 70.0146C64.4311 69.8622 64.5073 69.7097 64.6598 69.6334C64.736 69.5572 64.8123 69.5572 64.8123 69.4809C64.8885 69.5572 65.041 69.6334 65.1173 69.6334C65.2698 69.7859 65.4985 69.9384 65.7272 70.0146C66.261 70.1671 66.7947 70.0147 67.2522 69.7097C68.2434 68.9472 67.9384 67.1935 66.7184 66.8886C66.1847 66.7361 65.5748 66.8886 65.1173 67.1935C64.8123 67.346 64.4311 67.5748 64.2023 67.8035C63.5161 68.261 62.9824 68.8709 62.5249 69.4809C62.2199 69.8621 61.9149 70.2434 61.61 70.7009C61.5337 70.8533 61.4575 70.9296 61.3812 71.0821C61.2287 70.8533 61.0762 70.7009 61 70.4721C60.4663 69.7859 59.9325 69.0997 59.3226 68.4897C58.7126 67.8798 57.8739 67.1936 56.959 67.0411C56.349 66.8886 55.5865 67.041 55.2053 67.5748C54.7478 68.1085 54.5953 68.871 54.9766 69.5572C55.3578 70.2434 56.1965 70.4721 56.8827 70.2434C57.1877 70.1671 57.4164 70.0146 57.6452 69.8621L57.7214 69.9384C58.3314 70.3959 58.7889 70.9296 59.3226 71.4633C59.5513 71.6921 59.7801 71.997 60.085 72.302C60.1613 72.3783 60.2375 72.4545 60.39 72.5308C60.39 72.607 60.39 72.6833 60.3138 72.7595C60.2375 73.1407 60.2375 73.4457 60.2375 73.8269C60.1613 74.5132 60.1613 75.2756 60.1613 75.9618C60.1613 76.648 60.1613 77.3343 60.1613 78.0205C60.1613 78.4017 60.1613 78.7067 60.1613 79.0879C60.1613 79.1642 60.1613 79.1642 60.1613 79.2404C60.1613 79.2404 60.085 79.3929 60.085 79.4691H60.0088C60.085 79.4691 59.8563 79.4691 59.8563 79.4691C59.7801 79.4691 59.6276 79.4691 59.5513 79.4691C59.3226 79.4691 59.0176 79.4691 58.7889 79.4691C58.7889 79.4691 58.7889 79.4691 58.7126 79.4691C58.6364 79.4691 58.5601 79.4691 58.4839 79.4691C58.3314 79.4691 58.2551 79.3929 58.1026 79.3929C57.6452 79.3166 57.1115 79.0879 56.8065 78.9354C56.4252 78.7829 55.8915 78.5542 55.6628 78.2492C55.0528 77.563 55.1291 76.3431 54.9003 75.4281C54.8241 75.0469 54.2904 74.8944 54.0616 75.1994C53.6041 75.8093 53.4517 76.4956 53.4517 77.258C53.5279 77.9442 53.6041 78.7829 54.0616 79.3929C54.8241 80.6128 56.349 81.299 57.6452 81.6803C58.8651 82.0615 60.4663 82.3665 61.61 81.604L61.6862 81.6803C62.2962 82.0615 63.0586 82.0615 63.7449 82.1377C64.4311 82.1377 65.1935 82.0615 65.8797 81.9852C67.1759 81.3753 68.5483 80.9178 69.1583 79.6216Z" fill="#563827"/>
<path d="M56.654 62.6948C58.1027 62.6948 59.4751 62.2373 60.9238 62.3136C61.61 62.3136 62.2962 62.4661 62.9062 62.6948C63.2112 62.8473 63.5162 62.9998 63.7449 63.1523C64.0499 63.3048 64.4311 63.4573 64.7361 63.6098C65.7273 64.0672 66.3373 62.6186 65.3461 62.2373C65.0411 62.0848 64.6599 62.0086 64.3549 61.8561C63.9736 61.7798 63.6687 61.7036 63.2874 61.6274C62.6012 61.4749 61.8387 61.3224 61.1525 61.3224C60.3901 61.3224 59.7039 61.4749 59.0177 61.4749C58.2552 61.5511 57.4165 61.6274 56.654 61.7798C56.0441 61.9323 56.1965 62.6948 56.654 62.6948Z" fill="#563827"/>
<path d="M58.6363 60.9411C58.9413 60.9411 59.1701 60.9411 59.475 60.9411C59.78 60.9411 60.0088 60.9411 60.3138 60.9411C60.6187 60.9411 60.8475 60.9411 61.1524 61.0173C61.3049 61.0173 61.3812 61.0173 61.5337 61.0936C61.6862 61.0936 61.8387 61.0936 61.9912 61.0173C62.3724 60.9411 62.3724 60.4073 62.0674 60.2549C61.9149 60.1786 61.7624 60.1024 61.6099 60.1024C61.4574 60.1024 61.2287 60.0261 61.0762 60.0261C60.7712 60.0261 60.5425 60.0261 60.2375 60.0261C59.9325 60.0261 59.6275 60.0261 59.3225 60.1024C59.0176 60.1786 58.7126 60.2549 58.4838 60.3311C58.1026 60.3311 58.1789 60.9411 58.6363 60.9411Z" fill="#563827"/>
<path d="M74.5717 54.2317C74.8005 54.2317 74.953 54.0792 75.0292 53.8504C75.0292 53.7742 75.0292 53.7742 75.1055 53.698C75.1817 53.6217 75.1817 53.4692 75.2579 53.393C75.3342 53.3167 75.3342 53.2405 75.4104 53.1642C75.4867 53.088 75.5629 52.9355 75.7154 52.8593C75.6392 52.8593 75.6392 52.9355 75.563 52.9355C75.6392 52.8593 75.7917 52.783 75.8679 52.7068L75.9442 52.6305C76.0204 52.5543 76.0967 52.478 76.1729 52.3255C76.1729 52.3255 76.1729 52.3255 76.1729 52.2493C76.2492 52.0968 76.2492 51.9443 76.1729 51.7918C76.0967 51.6393 76.0204 51.4868 75.8679 51.4868H75.7917H75.7154C75.6392 51.4868 75.4867 51.4868 75.3342 51.4868C75.258 51.4868 75.1817 51.5631 75.1055 51.5631C74.953 51.6393 74.8767 51.7156 74.8005 51.7918C74.648 51.9443 74.4955 52.173 74.343 52.3255C74.2668 52.4018 74.2668 52.478 74.1905 52.5543C74.1143 52.6305 74.1143 52.7068 74.1143 52.783C74.1143 52.8593 74.1143 52.9355 74.1143 53.0117C74.1143 53.2405 74.1143 53.4692 74.1905 53.6217C74.1905 54.0792 74.4192 54.2317 74.5717 54.2317Z" fill="#563827"/>
<path d="M76.2493 52.6304C76.1731 52.7066 76.1731 52.7066 76.0968 52.7829C76.0206 52.8591 75.9443 52.9354 75.8681 53.0879C75.7918 53.2404 75.7156 53.3929 75.7156 53.5453C75.7156 53.6216 75.7156 53.6978 75.7156 53.7741C75.7156 53.8503 75.7156 53.9266 75.7918 54.0028C75.8681 54.0791 75.8681 54.1553 75.9443 54.1553C76.0968 54.2315 76.2493 54.2315 76.4018 54.1553C76.478 54.0791 76.5543 54.0791 76.5543 54.0791C76.6305 54.0028 76.783 53.9266 76.8593 53.8503C76.783 53.8503 76.783 53.9266 76.7068 53.9266C76.783 53.8503 76.8593 53.7741 77.0118 53.6978C77.088 53.6216 77.088 53.6216 77.1642 53.5453C77.2405 53.4691 77.2405 53.4691 77.3167 53.3166L77.2405 53.4691C77.3167 53.3928 77.393 53.3166 77.4692 53.2404C77.4692 53.1641 77.5455 53.1641 77.5455 53.0879C77.6217 52.9354 77.6217 52.8591 77.5455 52.7066C77.4692 52.5541 77.393 52.4779 77.2405 52.4779C77.1642 52.4779 77.1643 52.4779 77.088 52.4779C77.0118 52.4779 76.9355 52.4779 76.9355 52.4779C76.8593 52.4779 76.783 52.4779 76.783 52.4779H76.7068C76.6305 52.4779 76.5543 52.5542 76.478 52.5542C76.4018 52.5542 76.3256 52.6304 76.2493 52.6304Z" fill="#563827"/>
<path d="M44.6071 56.1381C44.6071 55.9856 44.6071 55.8331 44.5309 55.6806C44.6071 55.7569 44.6071 55.8331 44.6834 55.9094C44.7596 55.9856 44.9884 56.0618 45.0646 56.0618C45.2171 56.0618 45.2933 55.9856 45.3696 55.9094C45.5983 55.7569 45.6746 55.4519 45.5221 55.1469C45.4458 55.0707 45.4458 54.9944 45.4458 54.9181C45.4458 54.8419 45.3696 54.7657 45.3696 54.6894C45.3696 54.6132 45.3696 54.6132 45.2933 54.5369C45.2933 54.4607 45.2171 54.3082 45.1408 54.2319C45.1408 54.3082 45.2171 54.3082 45.2171 54.3844C45.1408 54.2319 45.1408 54.1557 45.0646 54.0795C45.0646 54.0795 45.0646 54.0795 44.9884 54.0795C44.9121 54.0032 44.8358 54.0032 44.7596 53.927C44.5309 53.7745 44.2259 53.8507 44.0734 54.1557C43.9971 54.2319 43.9971 54.3082 43.9971 54.3844C43.9971 54.4607 43.9971 54.5369 43.9971 54.6132L43.9209 54.5369C43.8447 54.4607 43.7684 54.3844 43.6922 54.3082C43.5397 54.1557 43.3109 54.0795 43.0822 54.0795C42.8535 54.0795 42.5485 54.2319 42.4722 54.4607C42.396 54.6132 42.396 54.6894 42.396 54.8419C42.396 54.9944 42.396 55.0707 42.4722 55.2231C42.5485 55.2994 42.5485 55.3756 42.6247 55.4519C42.701 55.5281 42.7772 55.5281 42.8535 55.6044C42.9297 55.6044 42.9297 55.6806 43.006 55.6806C43.0822 55.7569 43.1584 55.7569 43.2347 55.8331L43.3109 55.9094L43.3872 55.9856C43.3872 55.9856 43.4634 55.9856 43.4634 56.0618C43.5397 56.1381 43.5397 56.2143 43.6159 56.2906C43.6159 56.2906 43.6159 56.2906 43.6159 56.3668C43.6922 56.5956 43.9209 56.7481 44.1496 56.7481C44.4546 56.6718 44.6071 56.4431 44.6071 56.1381Z" fill="#563827"/>
<path d="M44.3022 39.4399C44.531 39.3636 44.6834 39.1349 44.6834 38.9062C44.6834 39.0587 44.6834 39.0587 44.6834 38.8299C44.6834 38.7537 44.6834 38.6774 44.6834 38.6012C44.6834 38.5249 44.6834 38.525 44.6834 38.4487C44.6834 38.3725 44.6834 38.3725 44.6834 38.2962C44.6834 38.2962 44.6834 38.2962 44.6834 38.22C44.6834 38.22 44.6834 38.22 44.6834 38.1437L44.7597 38.0675C44.8359 37.9912 44.9884 37.915 44.7597 38.0675C44.8359 38.0675 44.8359 37.9912 44.9122 37.9912C44.9884 37.915 45.0647 37.915 45.0647 37.915C45.1409 37.915 45.1409 37.915 45.2172 37.8387C45.2172 37.8387 45.2172 37.8387 45.2934 37.8387H45.3697C45.6746 37.9912 46.0559 37.915 46.2846 37.6862C46.5133 37.3813 46.4371 37 46.2846 36.7713C46.2846 36.7713 46.2846 36.7713 46.2846 36.695V36.6188C46.2846 36.6188 46.2846 36.6188 46.2846 36.5426C46.2846 36.5426 46.2846 36.5426 46.2846 36.4663H46.3608H46.4371C46.5133 36.4663 46.5133 36.4663 46.4371 36.4663C46.5133 36.4663 46.5133 36.4663 46.5896 36.4663H46.6658C46.6658 36.4663 46.8183 36.4663 46.7421 36.4663C46.8183 36.4663 46.7421 36.4663 46.8183 36.4663C46.8946 36.5426 46.9708 36.5425 47.047 36.6188C47.1995 36.7713 47.4283 36.7713 47.5045 36.6188C47.657 36.4663 47.657 36.3138 47.5808 36.1613C47.5045 36.0088 47.4283 35.8563 47.2758 35.7801C47.1996 35.7801 47.1995 35.7038 47.1233 35.7038C47.0471 35.6276 46.9708 35.5513 46.8946 35.5513C46.5133 35.3226 46.0559 35.3989 45.6746 35.5513C45.2934 35.7038 45.0647 36.0851 44.9884 36.4663C44.4547 36.5426 43.9972 36.7713 43.616 37.1525C43.311 37.4575 43.0823 37.915 43.0823 38.4487C43.1585 38.9062 43.6922 39.6686 44.3022 39.4399Z" fill="#563827"/>
<path d="M74.2668 37.9911C74.4193 37.9149 74.4956 37.9149 74.6481 37.8386C74.7243 37.8386 74.7243 37.7624 74.8006 37.7624C74.7243 37.8386 74.8005 37.7624 74.8768 37.7624C74.8768 37.7624 74.953 37.7624 74.953 37.6862H75.0293C75.1055 37.6862 75.1818 37.6862 75.1818 37.6862H75.258H75.3343H75.4105C75.4868 37.6862 75.4868 37.7624 75.563 37.7624C75.563 37.7624 75.563 37.7624 75.563 37.8386V37.9149V37.9911V38.0674C75.563 38.0674 75.4868 38.2199 75.563 38.1436L75.4868 38.2199C75.4105 38.2961 75.3343 38.3724 75.3343 38.5248C75.3343 38.6773 75.4105 38.7536 75.563 38.8298C76.0205 38.9823 76.3255 38.3724 76.4017 37.9911C76.5542 37.5337 76.4017 36.9999 76.0967 36.6187C75.7155 36.2375 75.1055 36.0087 74.5718 36.1612C74.4193 36.1612 74.2668 36.2375 74.1143 36.3137C73.8856 36.085 73.5044 36.0087 73.1994 36.085C72.8944 36.1612 72.5894 36.39 72.4369 36.6949C72.2844 36.9999 72.2844 37.3812 72.2844 37.7624C72.2844 37.9911 72.4369 38.1436 72.6657 38.1436C72.8944 38.1436 73.1231 38.0674 73.1231 37.8386C73.1231 37.6861 73.1994 37.4574 73.2756 37.3812L73.3519 37.3049C73.3519 37.6862 73.8856 38.0674 74.2668 37.9911Z" fill="#563827"/>
<path d="M111.475 125.903C112.695 125.064 113.381 123.463 113.076 121.862C112.771 120.108 111.246 118.736 109.569 118.507C109.264 117.363 108.501 116.372 107.434 115.762C106.29 115.076 104.994 114.847 103.698 114.923C103.698 112.788 102.325 110.806 100.267 110.425C100.343 108.747 100.343 106.917 99.5805 105.469C99.0468 104.478 97.9794 103.791 96.9119 103.715C96.7594 102.343 96.5307 100.97 96.0732 99.7503C95.692 98.8353 95.0058 97.9966 94.1671 97.6916C94.3958 97.0817 94.3958 96.3192 94.1671 95.7092C93.8621 94.8705 93.1759 94.1843 92.3372 93.8793C92.3372 93.5744 92.2609 93.2694 92.1847 93.0406C91.9559 92.3544 91.4985 91.897 90.8122 91.6682C90.8885 91.5157 90.9647 91.287 90.9647 91.1345C91.1172 90.4483 91.1172 89.6858 90.9647 88.9996C90.8122 88.3134 90.5072 87.6272 90.126 87.0172C89.8973 86.636 89.4398 86.4073 88.9823 86.4835C88.9823 86.1023 88.9823 85.6448 88.9823 85.2636C89.8973 84.3486 90.736 83.2812 90.9647 81.985C91.041 81.375 90.9647 80.6888 90.5072 80.1551C90.3547 80.0026 90.2785 79.9263 90.126 79.8501C90.126 79.8501 89.9735 79.6976 89.8973 79.6976C89.8973 79.6214 89.8973 79.5451 89.9735 79.4689C90.0498 79.3164 90.0498 79.1639 90.126 79.0114C90.5835 77.7152 90.6597 76.3428 90.431 75.0466C90.431 74.8941 90.3548 74.6654 90.3548 74.5129C90.736 73.6742 91.041 72.8355 90.9647 71.9205C90.8885 71.3106 90.736 70.7006 90.431 70.2431C90.2785 70.0144 90.0498 69.7094 89.821 69.5569C89.821 69.5569 89.7448 69.4806 89.7448 69.4044C89.821 69.3282 89.8973 69.0994 89.8973 69.0994C90.5072 67.727 90.5835 66.4308 90.2023 64.9821C89.9735 64.2197 89.6685 63.5335 89.4398 62.771C89.1348 62.0848 88.9061 61.3223 88.5249 60.6361C88.8298 60.0261 89.0586 59.34 88.9061 58.6537C88.8298 58.12 88.5248 57.7388 88.2199 57.4338C88.8298 55.9089 89.1348 54.2315 88.4486 52.6303C88.1436 51.8678 87.5336 51.1054 87.5336 50.1904C87.4574 49.2755 87.9149 48.208 87.9911 47.2931C88.1436 45.5394 87.8386 43.7858 87.2287 42.1084C87.3049 42.0321 87.3049 41.9559 87.3812 41.8034C87.4574 41.6509 87.4574 41.3459 87.4574 41.1934C87.4574 41.1172 87.4574 41.0409 87.4574 40.8884C87.4574 40.8884 87.4574 40.8884 87.4574 40.8122C87.9911 40.3547 88.2199 39.6685 88.4486 38.9823C88.7536 38.2198 89.0586 37.4573 89.3635 36.6949C89.8973 35.0937 90.2785 33.4163 90.5835 31.6627C91.041 28.6128 91.3459 25.1055 90.5835 22.1319C90.2785 20.9882 89.6685 19.5396 88.4486 19.1583C87.0762 18.7008 86.0087 20.0733 85.0175 20.912C82.3489 23.3519 79.6803 25.7917 77.1642 28.4603C76.783 27.9266 76.2492 27.4691 75.6393 27.2404C74.1144 26.5542 72.2845 27.1641 71.1408 28.2316C70.912 27.3929 70.3783 26.5542 69.6159 26.173C69.1584 25.9442 68.7009 25.868 68.2434 25.9442C68.0147 25.563 67.7097 25.1818 67.3285 24.953C66.261 24.1906 64.7361 24.1906 63.5924 24.648C62.9062 24.8768 62.3725 25.1818 61.8388 25.6392C61.7625 25.6392 61.7625 25.7155 61.6863 25.7155C61.3813 25.563 61.0763 25.4868 60.7713 25.4868C60.2376 25.4868 59.7039 25.6392 59.2464 25.868C58.7889 25.3343 58.179 24.953 57.569 24.8005C56.1203 24.4193 54.5192 25.0293 53.528 26.173C53.1467 26.7067 52.7655 27.2404 52.613 27.8504C52.003 27.7741 51.3931 27.8504 50.7831 28.0029C49.8682 28.3078 49.0294 28.8416 48.267 29.4515C48.1907 29.5278 48.0383 29.604 47.962 29.7565C47.4283 29.3753 46.5896 29.2228 45.9796 29.2228C45.2172 29.2228 44.4547 29.4515 43.7685 29.7565C41.9386 27.3166 40.0324 24.953 37.8975 22.8181C36.0676 21.0645 33.4753 19.3871 30.9592 20.6832C28.5956 21.9032 28.6718 24.8005 28.9005 27.0117C29.1293 29.7565 29.5867 32.5014 30.4254 35.17C31.1879 37.6098 32.3316 40.2022 34.2377 41.9559C34.1615 42.0321 34.0852 42.1084 34.0852 42.1846C33.6278 42.7183 33.2465 43.4045 33.0941 44.0908C32.9416 44.6245 32.8653 45.2344 32.8653 45.8444C32.7891 46.1494 32.7128 46.4544 32.7128 46.7594C32.7128 47.4456 32.9416 48.0555 33.4753 48.513C33.5515 48.5893 33.704 48.7417 33.8565 48.818C33.9328 48.8942 33.9328 48.8942 33.9328 48.8942C33.8565 49.123 33.2465 49.5042 33.0941 49.733C32.0266 50.9529 31.5691 52.3253 31.5691 53.9265C31.5691 54.7652 31.6454 55.6039 31.7216 56.4426C31.7216 56.9001 31.7979 57.3576 31.8741 57.815C31.6454 58.1963 31.4929 58.5775 31.3404 58.9587C31.1117 59.7212 31.1117 60.5599 31.2642 61.3986C31.3404 61.7798 31.6454 62.161 31.7216 62.5423C31.7979 62.9235 31.4929 63.2285 31.2642 63.5335C30.0442 65.3634 30.8067 67.2695 30.9592 69.3282C31.0354 70.4719 30.8829 71.5393 31.1117 72.683C31.1879 73.293 31.3404 74.0554 31.6454 74.5891C31.4166 75.1991 31.3404 75.8853 31.5691 76.6478C31.7216 77.1052 32.0266 77.4865 32.3316 77.7915C32.4078 77.8677 32.5603 77.944 32.6366 78.0202C32.5603 78.0202 32.4078 78.4014 32.4078 78.4777C31.9504 79.4689 31.7216 80.4601 31.5691 81.4513C31.3404 83.5099 31.6454 85.5685 32.4078 87.4747C32.7128 88.2372 33.3228 89.4571 34.1615 90.372C34.1615 90.8295 34.2377 91.287 34.4665 91.7445C34.8477 92.4307 35.5339 92.8119 35.9914 93.4219C36.1439 93.7269 36.0676 93.9556 36.0676 94.2606C35.9914 94.7943 35.9151 95.328 35.9914 95.938C36.2964 97.6917 37.7451 99.3691 38.965 100.589C39.6512 101.275 40.6424 102.114 41.6336 102.724C41.4049 103.41 41.4049 104.096 41.7098 104.706C42.0148 105.469 42.6248 106.079 43.3873 106.384C43.4635 107.299 43.921 108.137 44.5309 108.671C44.8359 108.9 45.1409 109.129 45.4459 109.205C44.8359 110.501 44.9884 112.178 46.0559 113.322C45.5221 114.161 45.3696 115.228 45.5984 116.296C45.8271 117.592 46.5896 118.583 47.5045 119.422C46.2083 121.557 46.3608 124.378 47.8095 126.36C46.6658 127.504 45.9796 129.105 46.3608 130.859C46.5133 131.469 46.7421 132.002 47.0471 132.536C47.2758 132.994 47.5808 133.299 47.4283 133.68C47.1995 134.213 46.8183 134.518 46.7421 135.128C45.8271 135.738 45.2172 136.577 45.2934 137.873C45.3696 139.169 46.1321 140.161 47.0471 140.999C45.9034 141.838 45.1409 142.905 45.3697 144.507C45.8271 147.023 48.7245 147.785 50.8593 148.014C53.8329 148.319 56.8828 148.014 59.8564 147.785C62.9825 147.48 66.1085 147.48 69.2346 147.633C72.3607 147.785 75.4106 147.709 78.5366 147.099C81.434 146.565 84.3313 145.803 87.2287 145.117C93.0996 143.668 98.9706 142.067 104.537 139.779C107.281 138.636 110.102 137.187 111.856 134.671C113.534 132.307 113.915 129.029 112.466 126.436C111.932 126.208 111.704 126.055 111.475 125.903ZM84.4838 23.6568C85.0175 23.1231 85.6275 22.5894 86.1612 22.1319C86.39 21.9032 87.2287 20.912 87.5336 20.912C87.9149 20.912 88.2199 22.2082 88.2961 22.5131C88.3724 23.1231 88.3724 23.7331 88.3724 24.3431C88.3724 27.0879 88.1436 29.8328 87.5336 32.4251C87.2287 33.7975 86.7712 35.17 86.3137 36.5424C86.085 37.0761 85.78 37.7623 85.475 38.3723C85.475 38.2198 85.475 38.0673 85.3988 37.9148C85.3225 37.0761 85.17 36.1612 84.7126 35.3987C84.1788 34.4838 83.1114 34.1025 82.1964 34.3313C81.9677 33.645 81.739 32.9588 81.434 32.2726C81.0527 31.4339 80.6715 30.5952 80.0616 29.909C79.5278 29.3753 78.8416 28.9941 78.0792 29.1465C80.4428 27.3929 82.4252 25.4867 84.4838 23.6568ZM32.0266 34.3313C31.2642 31.6627 30.8067 28.7653 30.6542 26.0205C30.5779 24.953 30.5779 23.4281 31.5691 22.7419C32.8653 21.9032 34.4665 23.1231 35.3814 24.0381C37.6688 26.3254 39.575 28.994 41.4811 31.6627C41.4811 31.6627 41.4811 31.6627 41.4811 31.7389C41.0999 32.1964 40.8711 32.7301 40.6424 33.3401C40.4899 33.95 40.3374 34.6363 40.3374 35.3225C39.6512 35.3987 39.0412 35.7037 38.5075 36.1612C37.8976 36.7712 37.5926 37.5336 37.4401 38.3723C37.1351 38.5248 36.8301 38.6773 36.6014 38.906C36.1439 39.211 35.7627 39.6685 35.5339 40.126C35.3814 40.3547 35.3052 40.6597 35.2289 40.9647C35.2289 40.9647 35.2289 40.9647 35.2289 41.0409C33.9327 38.8298 32.7128 36.7711 32.0266 34.3313ZM109.569 125.064C109.035 125.445 109.111 126.131 109.569 126.436C109.264 126.894 109.111 127.428 109.416 128.114C110.331 129.791 109.721 131.926 108.654 133.375C107.358 135.128 105.223 136.196 103.24 137.035C98.5131 139.169 93.5571 140.618 88.6011 141.838C86.085 142.448 83.5689 143.058 81.0527 143.668C78.5366 144.278 76.0205 144.888 73.4282 144.964C70.7595 145.117 68.1672 144.812 65.5748 144.735C62.9062 144.659 60.3139 144.964 57.6453 145.193C54.9766 145.422 52.003 145.803 49.4107 145.117C48.877 144.964 47.5808 144.659 47.7333 143.897C47.8858 143.134 49.1819 142.753 49.7919 142.524C50.7831 142.143 51.2406 140.618 50.0969 140.084C49.1819 139.627 47.962 139.093 47.5808 138.026C47.5045 137.721 47.5045 137.492 47.5045 137.263C47.657 137.34 47.8858 137.34 48.0383 137.263C48.4195 137.111 48.8007 136.882 48.877 136.501C48.877 136.425 48.877 135.891 48.877 136.12C48.877 136.043 48.877 136.043 48.877 135.967C48.9532 135.967 48.9532 135.891 49.0294 135.891C49.4107 135.738 49.4869 135.357 49.4107 135.052C49.5632 134.9 49.6394 134.747 49.7157 134.595C49.9444 133.985 50.0207 133.375 49.8682 132.765C49.5632 131.774 48.7245 131.011 48.8007 129.944C48.8007 129.181 49.3344 128.343 50.0207 128.114C51.1643 127.656 51.3931 126.284 50.3256 125.521C48.6482 124.378 48.6482 121.709 50.0207 120.337C50.7069 119.65 50.4019 118.736 49.7157 118.202C48.877 117.592 46.6658 115.457 48.1907 114.39C49.0294 113.78 48.9532 112.483 47.8858 112.102C46.7421 111.721 46.6658 110.577 47.1996 109.739C47.8858 109.739 48.4957 109.586 49.1057 109.281C49.7919 108.9 49.6394 107.756 48.877 107.604C48.267 107.451 47.657 107.451 47.0471 107.451C47.0471 107.451 47.0471 107.451 46.9708 107.451C46.6658 107.375 46.5896 107.375 46.7421 107.451C46.5896 107.451 46.4371 107.375 46.2846 107.375C46.2083 107.375 46.1321 107.299 46.0559 107.299C45.9796 107.222 45.9034 107.222 45.8271 107.146L45.7509 107.07C45.6746 106.994 45.5984 106.917 45.5221 106.841C45.5221 106.765 45.4459 106.765 45.4459 106.689V106.612C45.4459 106.612 45.4459 106.46 45.3697 106.46C45.3697 106.384 45.3697 106.384 45.3697 106.307V106.231C45.3697 106.155 45.4459 106.155 45.4459 106.079C45.9796 105.24 45.0647 104.02 44.1497 104.325C44.1497 104.325 44.0735 104.325 43.9972 104.401C43.9972 104.401 43.9972 104.401 43.921 104.401H43.8447C43.7685 104.401 43.616 104.249 43.7685 104.401C43.6922 104.325 43.616 104.325 43.5398 104.249C43.616 104.249 43.616 104.249 43.616 104.249L43.5398 104.173C43.4635 104.096 43.3873 103.944 43.4635 104.096C43.4635 104.02 43.3873 104.02 43.3873 103.944C43.3873 103.944 43.3872 103.868 43.311 103.791C43.311 103.791 43.311 103.791 43.311 103.715C43.311 103.715 43.311 103.715 43.311 103.639C43.311 103.563 43.311 103.41 43.311 103.334C43.3872 103.334 43.4635 103.334 43.4635 103.334C44.0735 103.258 44.6072 102.648 44.226 102.038C43.3873 100.665 41.7861 99.9028 40.6424 98.8353C40.1087 98.3016 39.575 97.6917 39.1175 97.0817C38.66 96.4717 38.1263 95.8617 38.2025 95.0993C38.2788 94.1843 38.4313 93.3456 37.9738 92.5069C37.6688 91.897 37.0588 91.5157 36.6014 90.982C36.6776 90.372 36.4489 89.9146 36.1439 89.4571C36.1439 89.2284 36.2201 88.9996 36.2201 88.7709C36.2964 87.7034 36.1439 86.7122 36.2201 85.6448C36.2201 84.9586 35.1527 84.8061 35.0002 85.4923C34.8477 85.9498 34.6952 86.4072 34.5427 86.941C34.4665 86.7885 34.3902 86.636 34.314 86.4835C33.6278 84.9586 33.399 83.2049 33.5515 81.5275C33.704 79.9264 35.1527 78.0964 33.7803 76.724C33.4753 76.419 33.094 76.2666 32.9416 75.8091C32.8653 75.5041 32.8653 75.1991 32.9416 74.8941L33.0178 74.8179C33.1703 74.6654 33.1703 74.4366 33.2466 74.2842C33.704 73.5217 34.314 72.8355 34.7715 72.073C35.0765 71.5393 34.3902 71.0056 33.9328 71.463C33.6278 71.768 33.2465 72.1493 32.9416 72.4542C32.9416 72.4542 32.9416 72.4543 32.9416 72.378C32.7891 71.4631 32.9416 70.4719 32.8653 69.5569C32.7891 68.6419 32.5603 67.727 32.4841 66.8883C32.3316 65.9733 32.4841 65.3634 32.9416 64.6009C33.3228 63.9909 33.6278 63.3047 33.5515 62.5423C33.4753 61.7798 32.9416 61.2461 32.8653 60.4836C32.6366 59.1112 33.3228 57.6625 34.5427 56.9763C35.1527 56.6713 34.6952 55.6801 34.0852 55.9089C33.7803 55.9851 33.5515 56.1376 33.3228 56.2139C33.2465 55.6039 33.2465 54.9939 33.1703 54.3077C33.0941 53.6215 33.0941 52.9353 33.2466 52.2491C33.4753 51.5628 33.9328 51.0291 34.3902 50.4954C34.8477 50.0379 35.3052 49.5042 35.2289 48.818C35.2289 48.513 35.0764 48.2843 34.9239 48.0555C35.0002 47.903 35.0765 47.7506 35.0765 47.5981C35.0002 47.0644 34.8477 46.6069 34.7715 46.1494V45.9207C34.7715 45.8444 34.7715 45.6919 34.7715 45.6157V45.3869C34.7715 45.3107 34.7715 45.2344 34.7715 45.1582C34.8477 44.8532 34.924 44.6245 35.0002 44.3957L35.0765 44.3195C35.3052 43.862 35.5339 43.4808 35.9152 43.252C36.3726 42.9471 36.8301 42.6421 36.9826 41.9559C37.0588 41.4984 37.0588 41.1172 37.2876 40.6597C37.3638 40.5834 37.4401 40.5072 37.4401 40.4309C37.7451 40.5072 38.1263 40.3547 38.2025 40.0497C38.2788 39.8972 38.2788 39.7447 38.355 39.5923C38.66 39.3635 39.0412 39.211 39.4225 39.1348C39.9562 39.0585 39.8799 38.2198 39.4225 38.0673C39.27 38.0673 39.1937 37.9911 39.0412 37.9911C39.1175 37.8386 39.27 37.6861 39.3462 37.6099C39.6512 37.3049 40.3374 36.8474 40.7186 37.1524C41.3286 37.6861 42.4723 37.3811 42.3961 36.4662C42.3961 35.6275 42.1673 34.865 42.4723 33.95C42.701 33.2638 43.0823 32.5776 43.6922 32.1201C44.226 31.6627 44.9122 31.3577 45.5984 31.2052C45.9796 31.129 46.2846 31.129 46.6658 31.2052C46.7421 31.2052 46.8183 31.2052 46.8946 31.2814C46.8946 31.4339 46.8946 31.6627 46.8946 31.8152C47.0471 32.1201 47.0471 32.1964 46.9708 31.9677C46.9708 32.0439 47.0471 32.1201 47.0471 32.1964C47.1233 32.3489 47.1996 32.5014 47.3521 32.6539C47.5808 32.8826 47.962 32.9588 48.267 32.8826C48.572 32.8063 48.8007 32.5776 48.877 32.2726C48.877 32.2726 48.877 32.2726 48.877 32.1964C48.9532 32.1201 48.9532 32.0439 48.9532 32.0439C49.0294 31.9676 49.0295 31.8914 49.1057 31.8152C49.1057 31.8152 49.1819 31.7389 49.1819 31.6627C49.1819 31.5864 49.2582 31.5102 49.2582 31.5102C49.2582 31.5102 49.2582 31.4339 49.3344 31.4339C49.4107 31.3577 49.5632 31.2052 49.6394 31.1289C49.7157 31.0527 49.7919 31.0527 49.8682 30.9764C50.0207 30.9002 50.1731 30.7477 50.3256 30.6715C50.6306 30.519 50.8594 30.3665 51.1643 30.214C51.2406 30.214 51.3168 30.1377 51.3168 30.1377C51.3168 30.1377 51.3168 30.1377 51.3931 30.1377C51.5456 30.0615 51.6981 30.0615 51.8506 29.9853C51.8506 29.9853 51.8506 29.9853 51.9268 29.9853C52.0031 29.9853 52.003 29.9853 52.0793 29.9853H52.1555C52.308 30.3665 52.5368 30.5952 52.9942 30.5952C53.1467 30.5952 53.2992 30.519 53.3755 30.519C53.7567 31.0527 54.6717 30.6715 54.4429 29.9853C54.3667 29.7565 54.2904 29.5278 54.1379 29.3753C54.2142 29.2228 54.2142 29.1465 54.2904 28.994C54.5192 28.5366 54.8241 27.9266 55.2054 27.6979C55.5104 27.4691 55.6629 27.3929 55.9678 27.3166C56.1203 27.3166 56.3491 27.3167 56.5778 27.3929H56.654C56.7303 27.4691 56.8066 27.4691 56.8828 27.5454C56.959 27.6216 57.0353 27.6979 57.1115 27.7741C57.1115 27.7741 57.264 28.0029 57.1878 27.9266C57.1878 28.0029 57.264 28.2316 57.264 28.3841C57.4165 28.8416 57.7977 29.2228 58.3315 29.2228C58.7889 29.2228 59.3227 28.8416 59.3989 28.3841C59.4751 27.7741 60.0089 27.5454 60.5426 27.5454C60.6188 27.6216 60.6951 27.6979 60.7713 27.7741C61.0763 28.0029 61.3813 28.0029 61.6863 27.9266C61.9913 28.2316 62.6012 27.9266 62.4487 27.4691C62.525 27.4691 62.525 27.3929 62.6012 27.3929C63.0587 27.0879 63.5162 26.9354 64.0499 26.7829C64.5074 26.7067 65.0411 26.7067 65.3461 26.9354C65.6511 27.1642 65.7273 27.3929 65.5748 27.7741C65.4986 28.3079 65.6511 28.8416 66.1848 29.0703C66.6423 29.2228 67.3285 29.1465 67.5572 28.6128C67.6335 28.4603 67.7097 28.2316 67.7097 28.0791C67.7097 28.0791 67.786 28.0029 67.8622 28.0029C67.786 28.0029 68.0147 28.0791 68.0909 28.0791C68.1672 28.0791 68.2434 28.1553 68.3197 28.2316C68.8534 28.6891 69.0059 29.5278 69.4634 30.0615C69.7684 30.4427 70.4546 30.214 70.5308 29.8328C71.5983 29.4515 72.7419 28.7653 73.8856 29.0703C74.7243 29.299 75.3343 30.0615 75.1818 30.9764C75.1056 31.5102 75.4105 32.1964 76.0205 32.1201C76.6305 32.0439 77.0117 31.8152 77.4692 31.4339C77.6217 31.2814 77.8504 30.9002 78.0792 30.9002C78.3079 30.9002 78.5366 31.2052 78.6891 31.3577C79.1466 31.8914 79.4516 32.6539 79.7566 33.3401C80.1378 34.1788 80.4428 34.9412 80.7478 35.78C80.9765 36.4662 81.8152 36.5424 82.1964 35.9324C82.3489 35.7037 82.8064 35.8562 83.0351 36.0087C83.4164 36.3899 83.4926 37.0761 83.5689 37.5336C83.5689 37.6861 83.6451 37.9148 83.6451 38.0673C83.5689 38.0673 83.4926 37.9911 83.3401 37.9911C82.7302 37.7623 82.1202 38.4485 82.3489 38.9823C82.5014 39.3635 82.4252 39.6685 82.7302 40.0497C82.9589 40.3547 83.2639 40.6597 83.4164 40.9647C83.8738 41.5746 84.2551 42.3371 84.5601 43.0233C85.17 44.472 85.3988 46.0731 85.17 47.6743C85.0938 48.513 84.7888 49.2755 84.7888 50.1142C84.7888 50.8766 85.0938 51.5628 85.475 52.2491C85.8563 53.0115 86.3137 53.6977 86.3137 54.6127C86.3137 55.6039 85.9325 56.5951 85.5513 57.51C85.3225 58.1963 86.0087 58.73 86.6187 58.6537C86.6187 58.6537 86.7712 59.34 86.7712 59.4162C86.7712 59.6449 86.695 59.9499 86.6187 60.1787C86.39 60.2549 86.2375 60.4074 86.2375 60.7124C86.0087 62.161 86.7712 63.381 87.3049 64.6772C87.5337 65.2871 87.7624 65.8971 87.7624 66.5833C87.8386 67.3458 87.5337 67.8032 87.3049 68.4895C87.0762 69.0994 87.1524 69.7094 87.5336 70.2431C87.8386 70.7006 88.3723 70.9293 88.6011 71.463C88.6773 71.6918 88.7536 71.9205 88.7536 72.2255C88.5249 71.9968 88.2961 71.8443 87.9149 71.768C87.6861 71.6918 87.3049 71.8443 87.2287 72.1493C86.9999 73.2929 87.7624 74.2842 87.9149 75.4278C88.0674 76.5715 87.9149 77.7152 87.5336 78.7827C87.3812 79.3164 87.2287 79.9263 87.4574 80.4601C87.6099 80.765 87.7624 80.9938 88.0674 81.2225C88.1436 81.2988 88.5249 81.5275 88.4486 81.4513C88.6011 81.8325 88.1436 82.5187 87.9911 82.8237C87.8386 83.0524 87.7624 83.2812 87.6099 83.5861C87.5337 83.5099 87.5336 83.5099 87.4574 83.4337C87.2287 83.2812 86.8474 83.2812 86.7712 83.5861C86.6949 83.8911 86.6187 84.1961 86.6187 84.5011C86.6187 84.8823 86.6187 85.1873 86.6187 85.5685C86.6187 86.2548 86.39 86.941 86.1612 87.5509C85.78 88.6946 84.9413 89.6096 84.1026 90.4483C84.0263 90.5245 83.8738 90.677 83.7976 90.7533C83.7214 90.7533 83.5689 90.9058 83.6451 90.9058C83.5689 90.9058 83.4926 90.8295 83.4164 90.8295C83.2639 90.7533 83.1114 90.7533 82.9589 90.7533C82.1964 90.7533 81.739 91.2107 81.5865 91.8969C81.2815 92.8881 80.5953 93.7269 79.5278 93.8793C78.9179 93.9556 78.9179 95.023 79.5278 95.0993C79.9853 95.1755 80.2903 95.2518 80.7478 95.0993C81.2052 94.9468 81.5865 94.7181 81.8915 94.4131C82.1964 94.1081 82.5014 93.8031 82.7302 93.4219C82.8064 93.2694 82.9589 93.0406 83.0351 92.8882C83.2639 92.9644 83.5689 93.0406 83.8739 93.0406C84.4838 92.9644 84.9413 92.6594 85.3988 92.2782C86.2375 91.592 86.9237 90.7533 87.4574 89.7621C87.5336 89.6096 87.6099 89.4571 87.6861 89.3046C87.6861 89.5333 87.7624 89.7621 87.6861 90.0671V90.1433C87.6861 90.2196 87.6861 90.372 87.6099 90.4483V90.5245V90.6008C87.5337 90.677 87.6099 90.677 87.6099 90.6008C87.6099 90.677 87.5336 90.677 87.5336 90.7533C87.5336 90.7533 87.5336 90.7533 87.4574 90.8295C87.3812 90.9058 87.3049 90.982 87.1524 91.1345C86.9999 91.287 86.8474 91.3632 86.6949 91.5157C86.5424 91.6682 86.4662 91.8207 86.3137 91.9732C86.1612 92.1257 86.085 92.2782 86.0087 92.5069V92.4307L85.9325 92.5832C85.8562 92.8119 85.78 93.0407 85.78 93.3456C85.8562 93.7269 86.0087 93.9556 86.3137 94.1081C86.4662 94.1843 86.6187 94.1843 86.7712 94.1843C86.7712 94.1843 87.2287 94.1081 87.3049 94.1081C87.4574 94.1081 87.6099 94.1081 87.6099 94.0319H87.6861C87.6099 94.0319 87.5336 94.0319 87.4574 94.0319C87.6099 94.0319 87.7624 94.0318 87.9149 93.9556C88.1436 93.8794 88.2961 93.8031 88.5249 93.6506C88.6011 93.7269 88.7536 93.8031 88.9061 93.8793C88.9823 93.8793 89.0586 93.9556 89.2111 93.9556C89.2111 94.0318 89.2111 94.0319 89.2111 94.0319C89.2111 94.1081 89.2111 94.1081 89.2111 94.1081C89.2111 94.1081 89.2111 94.1081 89.2111 94.1843C89.2111 94.2606 89.1348 94.3368 89.1348 94.3368C89.0586 94.4893 88.9823 94.5656 88.9061 94.7181C88.5249 95.1755 88.6773 96.0143 89.1348 96.3955C89.5923 96.853 90.2785 96.9292 90.8122 96.6242C90.8122 96.6242 90.8122 96.6242 90.8885 96.6242C90.9647 96.6242 91.041 96.6242 91.041 96.7005C91.041 96.7005 91.041 96.7005 91.1172 96.7005C91.1172 96.7767 91.1935 96.7767 91.2697 96.8529L91.3459 96.9292L91.4222 97.0054C91.4222 97.0817 91.4984 97.1579 91.4984 97.1579C91.4984 97.2342 91.4984 97.3104 91.4984 97.4629C91.4984 97.5392 91.4984 97.5391 91.4984 97.6154C91.4984 97.6916 91.4222 97.7679 91.4222 97.8441C91.4222 97.9204 91.3459 97.9966 91.3459 98.0729L91.2697 98.3016C91.1172 98.6066 91.1172 98.9116 91.3459 99.2166C91.4984 99.4453 91.8797 99.674 92.1847 99.5215C92.1847 99.5215 92.2609 99.5216 92.2609 99.4453C92.3372 99.4453 92.4134 99.5215 92.4896 99.5215C93.5571 99.5215 93.7096 100.894 93.8621 101.733C94.0146 102.876 94.0908 104.096 94.1671 105.24C94.2433 106.231 95.2345 106.917 96.1495 106.384C97.5219 105.621 97.2169 111.187 97.2169 111.721C97.2169 112.407 97.8269 113.17 98.5893 113.093C100.114 112.865 101.41 114.161 100.572 115.686C100.19 116.448 100.648 117.821 101.715 117.668C103.317 117.439 107.053 117.134 106.976 119.727C106.976 120.413 107.586 121.023 108.273 121.023C109.264 120.947 110.179 121.404 110.484 122.395C111.094 123.387 110.407 124.53 109.569 125.064Z" fill="#563827"/>
</g>
</svg>
