<svg width="40" height="40" viewBox="0 0 40 40" fill="none" xmlns="http://www.w3.org/2000/svg">
<mask id="mask0_601_3214" style="mask-type:luminance" maskUnits="userSpaceOnUse" x="-4" y="-2" width="46" height="43">
<path d="M18.8519 40.24C6.56253 40.24 -3.40001 30.9185 -3.40001 19.42C-3.40001 7.92141 6.56253 -1.40002 18.8519 -1.40002C31.1413 -1.40002 41.1039 7.92141 41.1039 19.42C41.1039 30.9185 31.1413 40.24 18.8519 40.24Z" fill="white"/>
</mask>
<g mask="url(#mask0_601_3214)">
<path d="M10.783 37.1942C10.783 37.1715 10.8058 37.1715 10.8058 37.1488C10.8285 37.1033 10.8512 37.0579 10.8512 36.9897C10.8512 36.9215 10.8285 36.876 10.8058 36.8078C10.783 36.7169 10.7376 36.626 10.7149 36.5351C10.6467 36.3532 10.6239 36.1714 10.5785 35.9896C10.4648 35.6259 10.4421 35.2395 10.4876 34.8531C10.5103 34.694 10.2375 34.6713 10.2148 34.8077C10.1466 35.2168 10.1012 35.6259 10.1239 36.0578C10.1239 36.2623 10.1921 36.4896 10.2603 36.6942C10.283 36.8078 10.3285 36.9215 10.3966 37.0124C10.4648 37.126 10.533 37.1715 10.6467 37.217C10.6694 37.217 10.6694 37.217 10.6921 37.217C10.6694 37.2397 10.6694 37.2851 10.6467 37.3079C10.6467 37.4443 10.6239 37.6034 10.6239 37.7397C10.533 37.5352 10.4194 37.3306 10.3285 37.126C10.0557 36.4896 9.78296 35.7396 9.8966 35.0349C9.91933 34.9213 9.85114 34.8531 9.76023 34.8304C9.76023 34.8077 9.76023 34.7622 9.76023 34.7395C9.7375 34.5576 9.76023 34.3985 9.76023 34.2167C9.76023 34.1258 9.78296 34.103 9.78296 34.0121C9.80568 33.9667 9.80568 33.8985 9.82841 33.853C9.91933 33.853 9.98752 33.8303 10.0557 33.8076C10.2148 33.7621 10.3512 33.6485 10.4421 33.5121C10.533 33.3757 10.5785 33.2166 10.5785 33.0575C10.5785 32.9893 10.5785 32.9211 10.5558 32.8529C10.5558 32.8529 10.5558 32.8302 10.533 32.8075C10.5558 32.7848 10.6012 32.7848 10.6239 32.762C10.6694 32.7166 10.7376 32.6938 10.783 32.6484C10.874 32.5575 10.9649 32.4211 10.9876 32.3074C11.0103 32.2165 11.0331 32.0801 11.0103 31.9665C11.1013 31.921 11.1694 31.8756 11.2376 31.8074C11.3285 31.7392 11.3967 31.6256 11.4422 31.5119C11.4876 31.421 11.5104 31.3301 11.5331 31.2392C11.6922 31.3074 11.8513 31.1482 11.7831 30.9891C11.6922 30.8073 11.5558 30.6937 11.3967 30.6027C11.4649 30.58 11.5104 30.5573 11.5786 30.5346C11.9195 30.4209 12.2832 30.4209 12.6468 30.4436C13.0105 30.4664 13.3742 30.5573 13.7151 30.6709H13.7378C13.7606 30.7164 13.7833 30.7391 13.8288 30.7391C13.9651 30.7846 14.1242 30.8073 14.2606 30.8755C14.4197 30.9437 14.5788 31.0346 14.7379 31.1255C14.7834 31.1482 14.8289 31.1482 14.8743 31.1255C15.2152 31.2846 15.5335 31.4892 15.8289 31.7165C16.1244 31.9438 16.3972 32.1938 16.6472 32.4665C16.6699 32.4893 16.6926 32.512 16.7154 32.5575C16.5335 32.4211 16.329 32.3074 16.1017 32.2392C15.9653 32.1938 15.8744 32.3984 16.0108 32.4665C16.6245 32.762 17.0336 33.353 17.3973 33.9212C17.6018 34.2394 17.8064 34.5804 17.9655 34.8986C18.0109 34.9895 18.0564 35.0804 18.1019 35.1713C18.0337 35.0804 17.9882 34.9668 17.92 34.8758C17.8291 34.7395 17.5791 34.8304 17.6473 34.9895C17.9882 35.8305 18.2837 36.7169 18.5337 37.6034C18.6474 38.0352 18.761 38.4898 18.8519 38.9217C18.8974 39.1262 18.9201 39.3308 18.9656 39.5581C18.9656 39.5353 18.9428 39.5353 18.9428 39.5126C18.9201 39.4672 18.8292 39.4444 18.7837 39.4672C18.7156 39.5126 18.7156 39.5808 18.7383 39.6263C18.761 39.6717 18.7837 39.7399 18.8065 39.8081C18.761 39.899 18.6928 39.9899 18.6474 40.0581C18.5337 40.1945 18.4201 40.3309 18.261 40.4445C17.92 40.7173 17.5336 40.8764 17.1245 40.9673C16.8063 41.0355 16.4881 41.0809 16.1699 41.1037C14.8289 40.9218 13.4878 40.6491 12.1695 40.2854C12.0786 40.1718 11.9877 40.0354 11.8968 39.899C11.3967 39.1489 11.1013 38.2625 11.0331 37.3533C10.9876 37.2397 10.8967 37.1942 10.783 37.1942Z" fill="#E09868"/>
<path d="M7.1691 32.4893C7.19183 32.1938 7.57823 32.012 7.82825 31.9665C8.30557 31.8529 8.78288 31.7847 9.23747 31.671C9.69205 31.671 10.1239 31.6938 10.5785 31.7392C10.5785 31.7847 10.5785 31.8074 10.5785 31.8529C10.5785 31.8756 10.5785 31.8756 10.5785 31.8983C10.5785 31.921 10.5785 31.9438 10.5785 31.9665C10.5785 31.9665 10.5785 32.0347 10.5785 32.012C10.5558 32.1029 10.533 32.1483 10.4876 32.2165C10.4421 32.2847 10.3967 32.3302 10.3512 32.3756C10.3057 32.3984 10.283 32.3984 10.2376 32.4211C10.1921 32.4438 10.1694 32.4665 10.1466 32.4893C9.69205 32.3984 9.23747 32.3756 8.78288 32.3756C8.4874 32.3756 8.19192 32.3984 7.89644 32.4211C7.76006 32.4438 7.62369 32.4438 7.48731 32.4665C7.3964 32.4665 7.32821 32.4893 7.23729 32.4893C7.21456 32.4893 7.19183 32.4893 7.1691 32.4893Z" fill="#E8CCA3"/>
<path d="M7.48734 33.0348C7.82828 32.9893 8.16922 32.9439 8.51016 32.8984C9.0102 32.8302 9.53297 32.8075 10.033 32.8075C10.033 32.853 10.0557 32.9211 10.0785 32.9666C10.1012 33.0575 10.1012 33.1257 10.0785 33.1939C10.0557 33.2394 10.033 33.2621 10.0103 33.2848C9.48751 33.2394 8.98747 33.1939 8.46469 33.1939C8.16921 33.1939 7.87373 33.1939 7.57825 33.1712C7.5328 33.1712 7.48734 33.1712 7.46461 33.1712C7.46461 33.1712 7.44188 33.1712 7.41915 33.1484C7.41915 33.1257 7.41915 33.1257 7.41915 33.1257C7.44188 33.103 7.44188 33.0575 7.44188 33.0348C7.44188 33.0348 7.46461 33.0348 7.48734 33.0348Z" fill="#E8CCA3"/>
<path d="M9.0784 30.6937C9.53299 30.7164 9.98757 30.7846 10.4422 30.8755C10.624 30.921 10.8513 30.9437 11.0558 31.0119C11.0558 31.0346 11.0558 31.0574 11.0331 31.0801C11.0104 31.1255 11.0104 31.171 10.9877 31.2165V31.2392C10.9877 31.2392 10.9877 31.2392 10.9877 31.2619C10.9877 31.2619 10.9877 31.2847 10.9649 31.2847C10.9649 31.2847 10.9649 31.2847 10.9649 31.3074C10.9649 31.3301 10.9422 31.3528 10.9195 31.3756C10.9195 31.3756 10.9195 31.3756 10.9195 31.3983L10.8967 31.421C10.2831 31.2165 9.6239 31.1256 8.96476 31.1256C8.60109 31.1256 8.23742 31.1483 7.89648 31.1937C7.69191 31.2165 7.35098 31.3074 7.35098 31.0119C7.51008 30.9892 7.66919 30.9437 7.80556 30.8983C8.23742 30.671 8.64655 30.671 9.0784 30.6937Z" fill="#E8CCA3"/>
<path d="M4.00974 33.2393C4.10066 32.7847 4.21431 32.3529 4.32795 31.921C4.6007 31.0346 4.91891 30.1481 5.30531 29.3072C5.3735 29.1481 5.28258 29.0117 5.14621 28.9889C5.2144 28.7162 5.28258 28.4434 5.39623 28.1934C5.69171 27.4434 6.28267 26.8297 6.80544 26.216C6.89636 26.1023 6.87363 25.966 6.78271 25.875C6.82817 25.8068 6.8509 25.7387 6.89636 25.6705C7.10092 25.3295 7.35095 25.0113 7.60097 24.6931C7.89645 24.3522 8.19193 24.0112 8.48741 23.6703C8.51014 23.6248 8.5556 23.5794 8.57832 23.5567C8.57832 23.6703 8.60105 23.7612 8.64651 23.8749C8.7147 23.9885 8.85108 24.034 8.96472 24.034C9.07837 24.0112 9.21474 23.9203 9.23747 23.8067C9.2602 23.6476 9.2602 23.4657 9.2602 23.2839C9.28293 23.1248 9.28293 22.9657 9.28293 22.7839C9.28293 22.6248 9.28293 22.4656 9.28293 22.2838C9.28293 22.2156 9.28293 22.1247 9.2602 22.0565C9.23747 21.9656 9.21474 21.8747 9.21474 21.7838C9.21474 21.7383 9.19201 21.6929 9.14655 21.6701C9.16928 21.3292 9.23747 20.9882 9.30566 20.6473C9.32839 20.5564 9.35112 20.4655 9.37385 20.3518C9.85116 19.8745 10.033 19.1017 10.3512 18.5335C10.533 18.2153 10.8058 17.9198 11.1013 17.6698C11.3968 17.4198 11.6922 17.1925 12.0332 17.0106C12.1695 16.9424 12.0786 16.7379 11.9423 16.7833C11.5559 16.897 11.1922 17.0561 10.874 17.3061C10.5558 17.5561 10.3057 17.8289 10.0557 18.1471C10.033 18.1698 10.0103 18.2153 9.98754 18.238C9.96481 18.1925 9.91935 18.1698 9.87389 18.1698C10.0103 17.9425 10.1694 17.7152 10.3285 17.4879C10.4194 17.3743 10.5103 17.2606 10.5785 17.147C10.6467 17.0334 10.7149 16.9652 10.8512 16.9197C11.0104 16.8742 10.9422 16.647 10.7831 16.6697C10.6694 16.6924 10.5558 16.7379 10.4421 16.8061C10.624 16.556 10.7603 16.2833 10.9194 16.0787C10.9876 15.9878 11.1013 15.9196 11.1922 15.8287C11.2831 15.7605 11.3513 15.6923 11.4649 15.6241C11.6695 15.4878 11.8968 15.3514 12.1014 15.215C12.2605 15.1241 12.1468 14.8513 11.965 14.9195C11.6922 15.0105 11.3968 15.1241 11.1467 15.2605C11.1013 15.2832 11.0785 15.3059 11.0331 15.3059C11.0331 15.2832 11.0558 15.2377 11.0558 15.215C11.0785 15.0786 10.8967 15.0104 10.8058 15.0786C10.8058 15.0786 10.7831 15.0786 10.7831 15.1014C10.8967 14.8968 11.0104 14.6922 11.1467 14.4877C11.374 14.1013 11.6468 13.7376 11.9195 13.3512C12.0559 13.1694 12.1695 13.0103 12.3059 12.8512C12.4196 12.7148 12.5787 12.6239 12.715 12.4875C12.806 12.3966 12.7832 12.2375 12.6696 12.192C12.6469 12.1693 12.6014 12.1693 12.5787 12.1466C12.7605 11.9647 12.9651 11.7829 13.1696 11.6238C13.4878 11.3965 13.8061 11.2147 14.147 11.0328C14.3061 10.9419 14.4879 10.8737 14.647 10.7828C14.8061 10.6919 15.0107 10.6692 15.1698 10.601C15.2835 10.5555 15.3062 10.4419 15.2835 10.351C15.3289 10.3282 15.3744 10.3055 15.4198 10.3055C15.9426 10.1237 16.4881 9.96455 17.0109 9.85091C19.0338 9.39632 21.1931 9.30541 23.216 9.82818C24.1933 10.0782 25.1252 10.4873 25.9662 11.0328C26.3526 11.2829 26.7163 11.5783 27.0572 11.8965C27.3754 12.2148 27.6709 12.5784 28.0118 12.8739C28.0573 12.8966 28.1028 12.9194 28.1482 12.9194C28.2846 13.0785 28.3982 13.2376 28.5119 13.3967C28.8756 13.8967 29.1938 14.4422 29.4665 15.0104C29.512 15.0786 29.5347 15.1468 29.5802 15.2377C29.5574 15.215 29.5347 15.1923 29.512 15.1696C29.3756 15.0559 29.171 15.2377 29.3074 15.3741C29.8984 16.0105 30.2166 16.897 30.3302 17.7607C30.4211 18.238 30.4211 18.738 30.4211 19.2154C30.4211 19.2381 30.4211 19.2608 30.4211 19.2836C30.3984 19.1472 30.3757 18.9881 30.3302 18.8517C30.2848 18.6699 30.012 18.7153 30.012 18.8972C30.0802 19.7609 30.012 20.6473 29.9211 21.511C29.8984 21.7156 29.8756 21.8974 29.8302 22.102C29.8302 22.0111 29.8302 21.9201 29.8075 21.8292C29.8075 21.7156 29.6938 21.6701 29.6029 21.6701C29.5802 21.3065 29.512 20.9655 29.3983 20.6018C29.3301 20.3746 28.9892 20.4655 29.0347 20.6928C29.1483 21.261 29.1028 21.8292 29.0574 22.3975C29.0347 22.6929 28.9892 22.9657 28.9437 23.2612C28.921 23.5112 28.8528 23.8294 29.0119 24.0567C28.9892 24.1703 28.9665 24.2613 28.9437 24.3749C28.921 24.4658 28.8983 24.5567 28.8756 24.6477C28.8528 24.4886 28.8528 24.3522 28.8301 24.1931C28.8074 24.0112 28.5346 24.0794 28.5346 24.2385C28.5119 24.5567 28.4664 24.8522 28.421 25.1704C28.3982 25.0113 28.3755 24.8522 28.3301 24.7158C28.3073 24.5567 28.0346 24.5795 28.0346 24.7613C28.0573 25.4205 27.9437 26.0796 27.83 26.7387C27.7845 27.0342 27.6936 27.3297 27.6254 27.6025C27.6254 27.5115 27.6482 27.4434 27.6482 27.3524C27.6482 27.2615 27.5573 27.1706 27.4663 27.1706C27.3754 27.1706 27.2845 27.2615 27.2845 27.3524C27.2845 27.5343 27.2618 27.7161 27.239 27.8752C27.2163 27.8979 27.1936 27.8979 27.1936 27.9207C27.0572 28.148 26.9436 28.3753 26.8299 28.6025C26.8299 28.6253 26.8072 28.648 26.8072 28.6707C26.7163 28.648 26.6254 28.648 26.5799 28.7389C26.489 28.8753 26.3526 28.9662 26.2162 29.0571C26.0344 29.1708 25.8753 29.3072 25.7616 29.489C25.648 29.6481 25.5344 29.8299 25.4662 30.0345C25.398 30.2163 25.3752 30.4891 25.5116 30.6482C25.5571 30.6936 25.648 30.7164 25.7162 30.6709C25.8071 30.6255 25.8526 30.5345 25.898 30.4436C25.9435 30.3754 25.9662 30.2845 26.0117 30.1936C26.0799 30.0572 26.1708 29.8981 26.2617 29.7845C26.2617 29.8754 26.2844 29.9436 26.2844 30.0345C26.239 30.1481 26.2162 30.2845 26.2162 30.3982C26.2162 30.4891 26.2162 30.6027 26.3071 30.6482H26.3299C26.3526 30.8073 26.3526 30.9664 26.3526 31.1255C26.3526 31.2391 26.3526 31.3301 26.3526 31.4437C26.2617 31.2391 25.9207 31.3301 25.9662 31.5801C26.0799 32.171 26.1026 32.7847 26.148 33.3984C26.1708 33.5803 26.1708 33.7621 26.1708 33.9667C26.0344 33.9212 25.8526 33.9894 25.8298 34.1939C25.8071 35.0122 25.8753 35.8077 25.898 36.626C25.898 36.7851 25.898 36.9442 25.898 37.126C25.8298 37.126 25.7616 37.1715 25.7389 37.2624C25.6935 37.467 25.648 37.6488 25.6253 37.8534C25.6025 38.0579 25.5571 38.2398 25.5344 38.4443C25.5116 38.6489 25.4662 38.8534 25.4434 39.058C25.4207 39.2626 25.3298 39.5126 25.398 39.7399C25.4207 39.8081 25.4662 39.8535 25.5116 39.899C25.398 40.1945 25.1934 40.4445 24.9661 40.6491C24.6706 40.9218 24.307 41.1264 23.9433 41.2627C22.9887 41.581 21.9659 41.5355 20.9658 41.5128C19.9884 41.49 18.9883 41.4446 18.011 41.3537C18.3292 41.1946 18.6247 40.9673 18.8519 40.6945C18.8519 40.6945 18.8747 40.6718 18.8747 40.6491C18.8974 40.7172 18.8974 40.8082 18.9429 40.8536C18.9883 40.9218 19.0792 40.8763 19.1247 40.8309C19.1929 40.74 19.1702 40.5809 19.1702 40.4672C19.1702 40.399 19.1474 40.3536 19.1474 40.2854C19.2156 40.3081 19.3065 40.2627 19.352 40.1945C19.4884 39.7626 19.4202 39.2626 19.352 38.8307C19.2838 38.3761 19.1702 37.9215 19.0338 37.467C18.852 36.8533 18.6019 36.2623 18.3064 35.7168C18.3519 35.785 18.3974 35.8305 18.4428 35.8759C18.511 35.9441 18.6019 35.8986 18.6019 35.8077C18.6474 35.3986 18.3974 34.9895 18.2155 34.6485C18.0337 34.2849 17.8064 33.9439 17.5791 33.6257C17.4882 33.5121 17.3973 33.3984 17.3291 33.2848C17.3973 33.2848 17.4882 33.2393 17.4882 33.1711C17.5564 32.7847 17.1927 32.3756 16.9427 32.1028C16.6699 31.8074 16.3745 31.5346 16.0335 31.3073C15.7153 31.08 15.3289 30.8982 14.9652 30.7618C14.7607 30.6936 14.5788 30.6255 14.3743 30.6027C14.1925 30.4663 14.0106 30.3527 13.7833 30.2618C13.4197 30.1027 13.0333 29.989 12.6241 29.9436C12.2377 29.8981 11.7832 29.8754 11.3968 30.0118C11.1922 30.0799 11.0104 30.2163 10.8285 30.3072C10.7831 30.33 10.7376 30.3527 10.6921 30.3982C10.2603 30.2845 9.82843 30.1936 9.39658 30.1481C8.91926 30.1027 8.41922 30.0345 7.94191 30.1481C7.73734 30.1936 7.51005 30.3072 7.32821 30.3982C7.16911 30.4663 6.98728 30.5118 6.82817 30.6027C6.75998 30.6255 6.73726 30.7391 6.78271 30.8073L6.80544 30.83C6.75999 30.8755 6.73726 30.9437 6.73726 31.0118C6.71453 31.3073 6.87363 31.5801 7.10092 31.7165C6.71453 31.9665 6.41905 32.4211 6.57815 32.8756C6.62361 33.0348 6.73725 33.1029 6.87363 33.1257C6.82817 33.2166 6.82817 33.3302 6.8509 33.4211C6.96455 33.7848 7.3964 33.7848 7.69188 33.7848C8.23739 33.7848 8.78289 33.7848 9.32839 33.7621C9.1011 34.0576 9.03291 34.444 9.03291 34.8076C9.03291 35.0122 9.05564 35.2395 9.1011 35.4441C9.12383 35.5577 9.16929 35.6486 9.23747 35.7623C9.2602 35.8077 9.28293 35.8532 9.30566 35.8986C9.28293 36.4214 9.41931 36.9669 9.62387 37.467C9.78298 37.8534 9.94208 38.217 10.1466 38.5807C10.283 38.8307 10.4649 39.058 10.7149 39.1944C10.8058 39.4899 10.9194 39.7853 11.0558 40.0581C10.8513 39.9899 10.6694 39.9217 10.4649 39.8535C7.82826 38.9216 4.35068 37.3988 3.78245 34.3076C3.75972 34.2394 3.73699 34.1712 3.71426 34.1258C3.8961 33.8075 3.94156 33.5121 4.00974 33.2393Z" fill="#E09868"/>
<path d="M13.9879 20.7383C14.3515 20.0564 14.8516 19.4655 15.4198 18.9654C15.988 18.4881 16.6927 17.9653 17.4427 17.8517C17.5336 17.829 17.6473 17.8744 17.7155 17.9653C17.8973 17.8971 18.0791 17.8062 18.1701 17.6471C18.3746 17.238 18.0791 16.7152 17.8064 16.4197C17.6927 16.3061 17.5791 16.1924 17.4427 16.1015C17.3063 16.0788 17.1472 16.0561 16.9881 16.0561C16.3517 16.0561 15.7153 16.1015 15.0789 16.1243C14.7834 16.1243 14.6697 15.7606 14.8516 15.556C14.9198 15.4878 14.988 15.4197 15.0789 15.3515C15.0561 15.3287 15.0561 15.2833 15.0561 15.2378C15.0789 15.1696 15.1016 15.0787 15.1471 15.0105C15.1925 14.8514 15.3062 14.715 15.4198 14.6014C15.3744 14.5559 15.3516 14.5105 15.3744 14.465C15.3971 14.4196 15.4198 14.3741 15.4425 14.3286C15.4198 14.3059 15.3744 14.3059 15.3516 14.2832C15.2834 14.2377 15.2834 14.1241 15.3516 14.0786C15.5335 13.9877 15.7608 13.965 15.988 13.9877C16.079 13.965 16.1699 13.965 16.2608 13.9422C16.6699 13.9195 17.1018 14.0104 17.5109 14.0786C17.5336 14.0786 17.5564 14.0786 17.6018 14.0786C17.8518 14.0786 18.1246 14.1014 18.3746 14.1241C18.3519 14.1241 18.3519 14.1241 18.3292 14.1014C17.9655 13.9877 17.6018 13.8968 17.2382 13.8513C17.0563 13.8286 16.8745 13.8059 16.6699 13.7604C16.4881 13.7377 16.2835 13.7604 16.1244 13.6468C16.0108 13.5786 16.0335 13.4422 16.1244 13.374C16.2835 13.2831 16.4881 13.2604 16.6927 13.2604V13.2376C16.8745 12.9194 17.3745 12.9422 17.7155 13.0104C17.7382 12.9876 17.7609 12.9649 17.7837 12.9422C18.1473 12.874 18.5565 13.0331 18.8747 13.1695C18.9656 13.2149 19.0338 13.2376 19.1247 13.2831C19.102 13.2149 19.1474 13.1467 19.2156 13.124C19.352 13.0785 19.5111 13.1467 19.6475 13.2149C19.7156 13.2376 19.7838 13.2831 19.852 13.3058C19.6929 13.1922 19.5338 13.0785 19.3974 12.9422C19.3065 12.8285 19.3974 12.6694 19.5338 12.7149C19.9202 12.8058 20.2611 13.0558 20.5794 13.2604C20.8066 13.4195 21.0339 13.5786 21.2385 13.7604C21.1703 13.6695 21.1021 13.6013 21.0112 13.5104C20.9203 13.4195 20.8521 13.3286 20.8066 13.2149C20.7612 13.1013 20.8748 12.9876 20.9885 12.9876C20.9885 12.9422 20.9658 12.9194 20.9885 12.874C21.0339 12.8058 21.1249 12.7376 21.2158 12.7603C21.6022 12.8967 21.9431 13.2149 22.2386 13.5104C22.2613 13.5559 22.3068 13.5786 22.3295 13.624C22.3295 13.5559 22.3295 13.4649 22.3295 13.3967C22.3295 13.1695 22.6704 13.1695 22.6704 13.3967C22.6932 13.5786 22.6932 13.7604 22.7159 13.9195C22.7386 13.7377 22.7841 13.5786 22.8296 13.3967C22.8977 13.1695 23.2159 13.2604 23.1705 13.4877C23.1478 13.624 23.125 13.7604 23.1023 13.8741C23.1478 13.7604 23.1932 13.6695 23.2387 13.5559C23.3296 13.3513 23.6705 13.4877 23.6023 13.715C23.5569 13.8513 23.5114 14.0104 23.466 14.1695C23.5569 13.965 23.6705 13.7831 23.8296 13.6013C23.8978 13.5104 24.0569 13.5331 24.1251 13.6013C24.216 13.6922 24.1933 13.8059 24.1251 13.8968C23.966 14.1014 23.8524 14.3059 23.7615 14.5559C24.0342 14.3514 24.3751 14.215 24.7161 14.1468C24.8297 14.1241 24.9434 14.1695 24.9661 14.2832C24.9888 14.3968 24.9206 14.5105 24.8297 14.5332C24.7843 14.5332 24.7388 14.5559 24.6934 14.5787C25.1707 14.5559 25.648 14.6469 26.1026 14.8287C26.1935 14.8514 26.2389 14.9196 26.2389 15.0105C26.4208 15.0787 26.5799 15.1242 26.7617 15.1924C26.9663 15.2833 26.8981 15.6242 26.6708 15.556C26.4662 15.4878 26.2617 15.4197 26.0344 15.3742C26.4662 15.6015 26.8754 15.897 27.2163 16.2606C27.2618 16.3061 27.2845 16.3743 27.2618 16.4425C27.5118 16.6698 27.7618 16.9425 27.9891 17.1925C28.33 17.5789 28.671 17.9653 28.7164 18.4881C28.7392 18.6699 28.4209 18.7154 28.3755 18.5336C28.2618 18.1017 27.8754 17.8062 27.58 17.488C27.5345 17.4426 27.4891 17.3971 27.4436 17.3516C27.8073 17.9199 28.0573 18.579 28.0118 19.2609C28.0573 19.3745 28.1255 19.5109 28.1709 19.6246C28.2846 19.9882 28.33 20.3519 28.2846 20.7156C28.2618 20.8747 28.2164 21.0338 28.1709 21.1929C28.1709 21.4202 28.1482 21.6475 28.1255 21.8748C28.1027 22.0339 28.0118 22.1702 27.8527 22.193C27.7163 22.2157 27.5118 22.1248 27.489 21.9657C27.489 21.9429 27.489 21.8975 27.489 21.8748C27.489 21.852 27.489 21.852 27.489 21.8293C27.4663 21.6247 27.4891 21.4429 27.5118 21.2611C27.5345 20.7383 27.5118 20.2155 27.3527 19.7155C27.1936 19.2154 26.8299 18.7154 26.3071 18.5563C26.0116 18.4654 25.6707 18.4881 25.3752 18.5563C25.1252 18.6245 24.8752 18.7381 24.7615 18.9881C24.4888 19.5791 24.8525 20.2383 25.1707 20.7156C25.1934 20.761 25.1934 20.8065 25.1934 20.8292C25.2843 20.9883 25.3525 21.1474 25.4207 21.352C25.5798 21.8748 25.648 22.443 25.5798 23.0112C25.5343 23.6476 25.3752 24.2386 25.1479 24.8296C25.0343 25.125 24.9206 25.4205 24.7843 25.6933C24.6479 25.966 24.4661 26.307 24.216 26.4661C24.1933 26.4888 24.1706 26.4888 24.1478 26.4888C23.9206 26.8979 23.6478 27.2389 23.3069 27.5798C22.9205 27.9662 22.3295 28.5799 21.7613 28.5799C21.6249 28.5799 21.534 28.489 21.5113 28.3753C21.3294 28.4662 21.1249 28.5344 20.943 28.6026C20.693 28.6935 20.4203 28.7617 20.1702 28.8072C19.852 28.8754 19.5565 28.9436 19.2838 28.7617C19.2611 28.739 19.2383 28.7163 19.2156 28.6935C19.1929 28.7163 19.1701 28.7163 19.1474 28.739C18.5337 29.0117 17.92 28.8526 17.5109 28.3299C17.4882 28.2844 17.4654 28.239 17.4427 28.1935C17.3973 28.1708 17.3745 28.148 17.3291 28.148C17.3291 28.148 17.3291 28.1708 17.3063 28.1708C17.3973 28.2844 17.4882 28.3753 17.5791 28.489C17.7382 28.6481 17.5109 28.8981 17.3291 28.739C16.9199 28.4208 16.5563 28.0344 16.2608 27.6253C16.0335 27.4889 15.8289 27.2843 15.6698 27.0798C15.0561 26.7843 14.6243 26.2388 14.3288 25.6024C14.2606 25.6251 14.1697 25.6251 14.1242 25.5342C13.7606 24.7841 13.7151 23.9886 13.6469 23.1703C13.6015 22.3521 13.5787 21.5111 13.9879 20.7383Z" fill="#E8CCA3"/>
<path d="M22.1023 13.9877C22.2159 14.1468 22.3296 14.3059 22.4205 14.465C22.4205 14.3741 22.3977 14.2832 22.3977 14.215C22.2841 14.0559 22.1477 13.9195 22.0113 13.7832C21.8977 13.6695 21.7841 13.5786 21.6704 13.4877C21.8522 13.6468 21.9886 13.8286 22.1023 13.9877Z" fill="#E8CCA3"/>
<path d="M24.1934 19.7382C23.9888 19.1472 24.1024 18.4199 24.6479 18.0562C25.0798 17.7607 25.6708 17.7607 26.1481 17.9653C26.7163 18.2153 27.08 18.7153 27.2845 19.2836C27.5346 19.92 27.6255 20.6019 27.7164 21.261C27.8073 22.0338 27.83 22.8066 27.7391 23.5567C27.5346 24.9432 26.7845 26.3069 25.5344 26.9888C25.2389 27.1479 24.9207 26.8751 24.9889 26.5569C25.0343 26.3524 25.0798 26.1251 25.1253 25.9205C25.1253 25.9205 25.1253 25.9205 25.1025 25.9205C24.9661 26.0114 24.807 25.9205 24.7616 25.7841C24.6934 25.5568 24.7616 25.3523 24.807 25.125C24.8752 24.8977 24.9207 24.6477 24.9661 24.4204C25.0571 23.9658 25.1025 23.4885 25.1253 23.0112C25.148 22.4429 25.1253 21.852 25.0571 21.2837C24.807 20.7837 24.3979 20.3291 24.1934 19.7382Z" fill="#9B674B"/>
<path d="M26.7845 20.0564C26.7163 19.7155 26.6027 19.3518 26.3981 19.0563C26.2845 19.1472 26.0799 19.1472 25.989 19.0109C25.8753 18.8518 25.6253 18.7836 25.4435 18.8518C25.148 18.9427 25.0343 19.3064 25.1253 19.5791C25.3753 20.3064 25.8526 20.9429 26.0799 21.6702C26.3526 22.4885 26.3299 23.3294 26.1935 24.1704C26.1026 24.7159 25.989 25.2614 25.8753 25.8069C27.3073 24.375 27.2164 21.9202 26.7845 20.0564Z" fill="#9B674B"/>
<path d="M12.9423 20.2836C12.9878 19.7836 13.1469 19.2836 13.3742 18.829C13.3515 18.7835 13.3742 18.7153 13.3969 18.6699C13.8515 17.9198 14.397 17.1697 15.0334 16.5788C15.6244 16.0105 16.4199 15.5105 17.2836 15.5105C18.0564 15.5105 18.8747 16.1015 18.8065 16.9652C18.7156 17.8971 17.8064 18.238 17.0791 18.5789C16.3972 18.8972 15.7835 19.3745 15.3289 19.9654C15.1016 20.2609 14.8971 20.5791 14.7607 20.9201C14.6243 21.2383 14.5561 21.6701 14.2152 21.852C14.1243 21.8974 14.0106 21.9201 13.9197 21.9201C13.7833 22.0111 13.6015 21.9656 13.4879 21.852C13.3969 21.8065 13.306 21.7383 13.306 21.6474C13.2606 21.6019 13.2151 21.5338 13.1696 21.4656C12.9651 21.1019 12.9196 20.67 12.9423 20.2836Z" fill="#9B674B"/>
<path d="M18.9884 18.8971C19.1247 18.7607 19.2838 18.6698 19.4657 18.6016C19.4202 18.5107 19.4884 18.3743 19.602 18.3743C19.7612 18.3743 19.9203 18.397 20.0794 18.397C20.3294 18.3516 20.6021 18.3289 20.8294 18.3289C21.3295 18.3289 21.8068 18.4652 22.1705 18.7607C22.625 18.7834 23.0569 19.0789 23.3524 19.4199C23.716 19.8972 23.9206 20.5336 23.9888 21.1246C24.057 21.761 23.6933 22.3065 23.2842 22.7383C22.8978 23.1475 22.4205 23.4657 21.8977 23.6702C21.3522 23.8748 20.7612 23.9657 20.2612 23.6475C19.5566 23.3975 19.102 22.7383 18.8974 22.011C18.852 21.8519 18.8293 21.6928 18.8065 21.5337C18.6929 21.2155 18.602 20.8745 18.5565 20.5336C18.4883 19.9654 18.5565 19.3062 18.9884 18.8971Z" fill="#9B674B"/>
<path d="M9.46474 34.4894C9.57838 33.4211 10.533 32.6711 11.1922 31.921C11.374 31.6937 11.8058 31.8074 11.8513 32.1028C12.0331 33.0347 12.215 33.9666 12.5332 34.8531C12.6923 35.2849 12.8741 35.6941 13.1014 36.1032C13.2151 36.285 13.3287 36.4896 13.4651 36.6487C13.5333 36.7396 13.6242 36.8305 13.6924 36.9215C13.7378 36.9669 13.7606 36.9669 13.7606 36.9669C13.7606 36.9669 13.7606 36.9669 13.7378 36.9896C13.9197 36.6942 14.3515 36.7623 14.4424 37.0806C14.6015 37.6261 14.8061 38.1261 15.0107 38.6489C15.0789 38.5125 15.1471 38.3989 15.1925 38.2397C15.2834 37.8988 15.7835 37.8988 15.8744 38.2397C16.0335 38.7853 16.1699 39.308 16.3517 39.8535C16.3972 40.0126 16.4653 40.1717 16.5335 40.3308C16.6245 40.3763 16.6926 40.4445 16.7381 40.5581C16.7608 40.6263 16.7836 40.6945 16.7836 40.74C16.829 40.7854 16.8745 40.8536 16.9199 40.8991C17.079 41.0582 16.9199 41.2855 16.7154 41.2627C16.6245 41.24 16.5563 41.2173 16.4881 41.1946C16.3517 41.24 16.1699 41.24 16.0335 41.1264C15.8744 41.1264 15.7153 41.1491 15.5789 41.1491C15.3289 41.1491 15.0789 41.1264 14.8288 41.1036C14.3288 41.0582 13.8288 41.0127 13.3287 40.9218C12.4423 40.7627 11.6922 40.4218 11.1467 39.6944C10.6012 38.9898 10.283 38.0806 9.98751 37.2397C9.69203 36.3987 9.37382 35.3986 9.46474 34.4894Z" fill="#D87848"/>
<path d="M8.98743 19.829C8.94197 19.7608 8.94197 19.6699 8.9647 19.579C9.21472 18.8289 9.53293 18.1016 9.91933 17.4424C9.91933 17.4197 9.8966 17.4197 9.8966 17.397C9.71476 17.2833 9.62385 17.0106 9.80568 16.806C10.0784 16.5105 10.3739 16.2378 10.6921 16.0105C10.5103 15.8968 10.4194 15.6014 10.6012 15.3968C10.6239 15.3741 10.6239 15.3741 10.6467 15.3513C10.6012 15.2377 10.6012 15.0786 10.7149 14.9422C10.9421 14.6695 11.1467 14.3967 11.374 14.124C11.3967 14.1012 11.3967 14.0785 11.4195 14.0785C11.6467 13.783 11.8968 13.4875 12.1241 13.1921C12.3968 12.8511 13.0105 13.3057 12.7378 13.6694C12.715 13.6921 12.6923 13.7148 12.6696 13.7376C12.6696 13.7603 12.6468 13.7603 12.6468 13.783C12.7832 13.8967 12.8741 14.124 12.7605 14.2831L12.7378 14.3058C12.965 14.3967 13.0787 14.6922 12.8741 14.8967C12.7605 15.0104 12.6468 15.1013 12.5332 15.215C12.7378 15.3059 12.8741 15.6014 12.6696 15.8286C12.4423 16.0559 12.2377 16.2832 12.0331 16.5333C11.5331 17.4424 10.8285 18.2379 10.3057 19.1244C10.1239 19.4881 9.94206 19.8745 9.78295 20.2609C9.76022 20.329 9.71476 20.3745 9.6693 20.42C9.64658 20.4654 9.64658 20.4881 9.64658 20.5336C10.1466 19.6472 10.8285 18.8516 11.7377 18.3971C11.8968 18.3289 12.0332 18.5107 11.9195 18.6243C11.2149 19.3971 10.6012 20.2609 10.2148 21.2382C10.033 21.7155 9.85114 22.2156 9.71476 22.7383C9.57839 23.2384 9.55566 23.8066 9.07835 24.1248C8.78287 24.3067 8.4192 24.0566 8.39647 23.7384C8.26009 22.4429 8.48738 21.0791 8.98743 19.829Z" fill="#D87848"/>
<path d="M24.1251 31.0801C24.2615 30.7392 24.4433 30.4209 24.5342 30.0573C24.557 29.9436 24.5797 29.83 24.6024 29.7163C24.6252 29.58 24.7615 29.5345 24.8752 29.5572C24.8979 29.489 24.8979 29.4436 24.9206 29.3754C24.9434 29.239 25.0797 29.1481 25.2161 29.1026C25.2161 29.1026 25.2161 29.1026 25.2161 29.0799C25.2389 28.8754 25.3752 28.6935 25.5798 28.6481C25.5798 28.5799 25.5798 28.5117 25.5798 28.4435C25.6025 28.1707 25.8071 28.0344 26.0344 28.0116C26.0571 27.9207 26.0571 27.8298 26.0798 27.7162C26.1026 27.5116 26.3526 27.398 26.5344 27.4207C26.6481 27.4434 26.739 27.4889 26.8072 27.5798C26.8981 27.5343 27.0117 27.5116 27.1027 27.5343C27.1936 27.5571 27.239 27.6025 27.2845 27.648C27.3527 27.4434 27.4209 27.2616 27.5118 27.057C27.6254 26.7843 27.9664 26.8979 27.9209 27.1707C27.8073 28.0571 27.489 28.8981 27.2163 29.7391C27.1481 29.9209 26.989 30.0118 26.8299 29.9891C26.7844 30.0118 26.7163 30.0345 26.6708 30.0573C26.6253 30.2391 26.5799 30.4209 26.5344 30.6028C26.489 30.7846 26.3071 30.921 26.1253 30.921C26.0344 31.0119 25.898 31.0801 25.7616 31.0801C25.6025 31.4438 25.1707 31.4438 24.9661 31.1256C24.8752 31.1483 24.7615 31.1483 24.6706 31.0801C24.6252 31.1483 24.5797 31.1937 24.5115 31.2392C24.307 31.3983 24.0342 31.2847 24.1251 31.0801Z" fill="#D87848"/>
<path d="M20.3066 30.4663C20.3066 30.3754 20.3066 30.2845 20.3066 30.1936C20.3066 30.1481 20.3293 30.0799 20.3521 30.0572C20.3748 30.0344 20.4202 30.0117 20.4657 30.0117C20.5112 30.0117 20.5566 30.0117 20.5793 30.0344C20.6248 30.0572 20.6703 30.1026 20.6703 30.1481C20.693 30.2617 20.693 30.3527 20.693 30.4663C20.693 30.5345 20.6703 30.58 20.6475 30.6481C20.6248 30.7391 20.5566 30.83 20.443 30.83C20.3975 30.83 20.3293 30.7845 20.3066 30.7391C20.2839 30.6936 20.2839 30.6481 20.2839 30.6027C20.3066 30.5572 20.3066 30.5118 20.3066 30.4663Z" fill="#D87848"/>
<path d="M19.6475 30.1027C19.6702 30.08 19.7384 30.0573 19.7839 30.0573C19.8293 30.0573 19.8748 30.08 19.9202 30.1027C19.943 30.1482 19.9657 30.1936 19.9657 30.2391C19.9657 30.2845 19.9657 30.33 19.9657 30.3755C19.9657 30.3982 19.9657 30.3982 19.9657 30.4209C19.9657 30.4437 19.9657 30.4664 19.9657 30.4891C19.9657 30.5346 19.943 30.5346 19.9202 30.58C19.9202 30.58 19.9202 30.6028 19.8975 30.6028C19.8748 30.6255 19.8748 30.6255 19.8521 30.6255C19.8066 30.6482 19.7611 30.6482 19.7157 30.6255C19.6929 30.6255 19.6929 30.6028 19.6702 30.6028L19.6475 30.58C19.6248 30.5573 19.602 30.5346 19.602 30.4891C19.602 30.4664 19.602 30.4437 19.602 30.4209C19.602 30.3982 19.602 30.3982 19.602 30.3755C19.602 30.33 19.602 30.2845 19.602 30.2391C19.602 30.1936 19.6248 30.1254 19.6475 30.1027Z" fill="#D87848"/>
<path d="M15.829 29.2389C15.829 29.1935 15.8517 29.1707 15.8744 29.148C15.8744 29.1253 15.8972 29.1026 15.8972 29.0798C15.8972 29.0798 15.8972 29.0571 15.9199 29.0571C15.9426 29.0344 15.9426 29.0344 15.9654 29.0116C15.9881 28.9662 16.0335 28.9207 16.0563 28.8753C16.079 28.8525 16.1017 28.8071 16.1472 28.7843C16.1699 28.7616 16.2381 28.7389 16.2836 28.7389C16.329 28.7389 16.3745 28.7616 16.4199 28.7843C16.4427 28.8298 16.4654 28.8753 16.4654 28.9207C16.4654 28.9435 16.4654 28.9435 16.4654 28.9662C16.4654 28.9889 16.4427 29.0344 16.4199 29.0571C16.3972 29.0798 16.3745 29.1253 16.3517 29.148C16.329 29.1707 16.3063 29.1935 16.2608 29.2389C16.2154 29.2617 16.1926 29.3071 16.1472 29.3299C16.1017 29.3526 16.079 29.3753 16.0335 29.3753C16.0108 29.3753 15.9881 29.398 15.9654 29.398C15.9426 29.398 15.9199 29.398 15.8972 29.3753C15.829 29.3298 15.8062 29.2844 15.829 29.2389Z" fill="#D87848"/>
<path d="M15.3971 28.5571C15.4198 28.4434 15.4426 28.3298 15.4426 28.1934C15.4426 28.1707 15.4653 28.148 15.488 28.1252C15.5107 28.1025 15.5335 28.0798 15.5562 28.057C15.6017 28.0343 15.6698 28.0116 15.738 28.0343C15.7835 28.057 15.8517 28.0798 15.8744 28.148C15.8971 28.1934 15.9199 28.2616 15.8971 28.3298C15.8517 28.4434 15.829 28.5571 15.7835 28.6707C15.7608 28.7162 15.738 28.7617 15.6926 28.7844C15.6471 28.8071 15.5789 28.8298 15.5335 28.8071C15.488 28.7844 15.4426 28.7617 15.4198 28.7162C15.4198 28.6935 15.3971 28.6935 15.3971 28.6707C15.3971 28.6253 15.3971 28.6025 15.3971 28.5571Z" fill="#D87848"/>
<path d="M20.4885 41.0582C21.2385 41.0127 21.9886 40.7173 22.5796 40.2399C23.216 39.7172 23.6251 39.0126 23.8979 38.2398C24.2161 37.2624 24.3752 36.2169 24.3979 35.1713C24.3979 34.8076 24.3752 34.444 24.3752 34.103C24.3525 33.5121 24.2843 32.9211 24.1706 32.3529C24.057 31.8301 23.9206 31.2846 23.9661 30.7391C24.057 29.7617 24.5797 28.8753 25.3753 28.3298C25.7844 28.0343 26.3072 27.9207 26.6026 27.4888C26.8981 27.057 26.989 26.5115 27.0572 25.9887C27.1027 25.625 27.6482 25.6023 27.8073 25.8978C27.9209 26.1251 27.9437 26.3296 27.8982 26.6024C27.8755 26.6933 27.83 26.7615 27.7391 26.8297C27.58 27.557 27.2618 28.2162 26.6026 28.6253C26.1708 28.898 25.7389 29.0571 25.398 29.4435C25.3071 29.5345 25.2389 29.6481 25.148 29.7618C25.3298 29.7845 25.4662 29.9663 25.3525 30.1709C25.2616 30.3527 25.1934 30.5345 25.1707 30.7164C25.2162 30.6255 25.2616 30.5345 25.3298 30.4436C25.5571 30.1254 26.0344 30.1709 26.1481 30.5573C26.5572 31.8301 26.6254 33.1711 26.2844 34.4667C26.239 34.6485 26.1026 34.7395 25.9435 34.7622C25.9662 35.4213 25.989 36.0805 25.989 36.7396C25.9662 37.717 25.9435 38.7853 25.6707 39.7399C25.4207 40.6491 24.7843 41.2628 23.8979 41.581C23.3751 41.7628 22.8069 41.831 22.2386 41.8764C21.6477 41.9219 21.034 41.9901 20.443 42.0356C19.9202 42.0128 19.9202 41.1037 20.4885 41.0582Z" fill="#D87848"/>
<path d="M3.9643 34.103C3.75973 34.0803 3.5779 33.9212 3.60063 33.6939C3.66882 33.1256 3.82792 32.6029 4.05521 32.1028C3.89611 31.6937 4.14613 31.2391 4.32796 30.8755C4.5098 30.5572 4.69163 30.239 4.91893 29.9436C4.8962 29.8526 4.91893 29.7617 4.96438 29.6708C5.10076 29.3526 5.28259 29.0571 5.4417 28.7616C5.37351 28.7389 5.32805 28.6934 5.28259 28.648C5.14622 28.4889 5.19168 28.2843 5.30532 28.1252C5.57807 27.7615 5.87355 27.4433 6.19176 27.1251C6.12357 27.1479 6.07812 27.1706 6.00993 27.1933C5.66899 27.307 5.37351 26.8069 5.64626 26.5796C5.8281 26.4205 6.00993 26.2387 6.19176 26.0796C6.12357 25.9432 6.12358 25.7841 6.23722 25.6477C6.3736 25.4886 6.50997 25.3522 6.64635 25.2159C7.37368 24.4431 8.10102 23.6475 8.89655 22.9429C9.07838 22.7838 9.44205 23.0111 9.28294 23.2384C9.1693 23.3748 9.05565 23.5339 8.942 23.6703C9.28294 23.6248 9.60115 24.0112 9.28294 24.3067C8.7829 24.7613 8.28285 25.1931 7.78281 25.6477C7.91919 25.5795 8.05556 25.5113 8.19194 25.4432C8.62379 25.2159 8.98746 25.8296 8.57833 26.1023C8.32831 26.2841 8.07829 26.466 7.851 26.6478C7.94192 26.7842 7.96464 26.966 7.78281 27.1251C7.44187 27.4206 7.14639 27.7615 6.87364 28.1025C6.87364 28.1479 6.85091 28.2161 6.80545 28.2616C6.48725 28.7844 6.19176 29.3071 5.87355 29.8299C5.87355 29.8754 5.85083 29.8981 5.8281 29.9436C5.71445 30.1708 5.6008 30.4209 5.46443 30.6254C5.53261 30.7163 5.55534 30.83 5.50988 30.9436C5.48716 30.9664 5.48716 31.0118 5.46443 31.0346C5.37351 31.2391 5.28259 31.4437 5.16895 31.6255C5.30532 31.7164 5.37351 31.8528 5.32805 32.0574C5.30532 32.1256 5.28259 32.1938 5.25986 32.2619V32.2847C5.07803 33.0347 4.8962 33.7848 4.73709 34.5349C4.73709 34.5803 4.71436 34.6031 4.69163 34.6485C4.64617 34.7849 4.62345 34.944 4.57799 35.0804C4.46434 35.5122 3.737 35.444 3.78246 34.9667C3.78246 34.9213 3.78246 34.8985 3.80519 34.8531C3.87338 34.6258 3.91884 34.3758 3.9643 34.103Z" fill="#D87848"/>
<path d="M7.39644 28.8298C7.46463 28.5798 7.51009 28.3298 7.64646 28.1252C7.76011 27.9207 7.94194 27.7161 8.1465 27.6252C8.28288 27.557 8.41926 27.5343 8.55563 27.6025C8.64655 27.6252 8.71474 27.7161 8.69201 27.807C8.66928 27.8752 8.60109 27.9207 8.55563 27.9661C8.55563 27.9661 8.55563 27.9661 8.5329 27.9661C8.51017 27.9888 8.51017 27.9888 8.48744 28.0116C8.46471 28.0116 8.44198 28.0343 8.41926 28.0343C8.3738 28.057 8.32834 28.0798 8.28288 28.1025L8.26015 28.1252C8.23742 28.148 8.21469 28.148 8.21469 28.1707C8.19196 28.1934 8.16924 28.2161 8.16924 28.2161L8.1465 28.2389C8.1465 28.2389 8.1465 28.2389 8.12377 28.2616C8.03286 28.3525 7.9874 28.4889 7.91921 28.6025C7.91921 28.6253 7.91921 28.6253 7.89648 28.648C7.89648 28.648 7.89648 28.6707 7.87375 28.6707L7.85102 28.6935C7.85102 28.7162 7.8283 28.7162 7.8283 28.7389C7.80557 28.8071 7.78284 28.8753 7.76011 28.9435C7.71465 29.0344 7.62373 29.1026 7.53282 29.0799C7.41917 29.0344 7.37371 28.9435 7.39644 28.8298Z" fill="#D87848"/>
<path d="M8.82835 27.307C8.91927 27.2388 9.01018 27.1479 9.1011 27.0797C9.14656 27.057 9.19202 27.0343 9.23748 27.0115C9.26021 26.9888 9.28294 26.9888 9.30567 26.9661C9.3284 26.9434 9.37385 26.9434 9.39658 26.9434C9.41931 26.9434 9.46477 26.9661 9.4875 26.9661C9.51023 26.9888 9.53296 27.0115 9.53296 27.0343C9.53296 27.057 9.53296 27.0797 9.53296 27.1025C9.53296 27.1479 9.51023 27.1707 9.4875 27.1934C9.46477 27.2161 9.46477 27.2161 9.44204 27.2388C9.41931 27.2616 9.39658 27.2616 9.39658 27.2843C9.35112 27.307 9.32839 27.3298 9.28294 27.3525C9.21475 27.3979 9.14656 27.4434 9.07837 27.4889C9.05564 27.5116 9.05564 27.5116 9.03291 27.5343C9.01018 27.5571 8.96472 27.5798 8.91927 27.5798C8.87381 27.5798 8.82835 27.5571 8.80562 27.5343C8.78289 27.4661 8.76016 27.3525 8.82835 27.307Z" fill="#D87848"/>
<path d="M19.6702 28.8298C19.693 28.8071 19.7384 28.7844 19.7611 28.7616C19.7839 28.7389 19.7839 28.7389 19.8066 28.7162C19.8521 28.6707 19.8975 28.6253 19.943 28.5798C19.9657 28.5571 20.0112 28.4889 20.0566 28.4434C20.2157 28.2161 20.3066 27.9661 20.4203 27.7161C20.443 27.6479 20.5112 27.6024 20.6021 27.6252C20.6703 27.6479 20.7385 27.7388 20.693 27.807C20.6021 28.1025 20.4885 28.398 20.3294 28.648C20.2612 28.7844 20.1475 28.898 20.0339 28.9889C19.9203 29.1026 19.7384 29.2162 19.5793 29.148C19.5111 29.1253 19.4884 29.0571 19.5111 28.9889C19.5566 28.9207 19.6248 28.8753 19.6702 28.8298Z" fill="#563827"/>
<path d="M19.2383 28.1934C19.3747 28.0343 19.4883 27.8979 19.5793 27.7161C19.6247 27.6479 19.6929 27.6252 19.7611 27.6706C19.8293 27.7161 19.852 27.7843 19.8066 27.8525C19.7156 28.057 19.5793 28.2389 19.4429 28.4207C19.3065 28.6025 19.1247 28.7616 18.8974 28.8298C18.8065 28.8525 18.7155 28.7616 18.7837 28.6707C18.9201 28.4889 19.0792 28.3525 19.2383 28.1934Z" fill="#563827"/>
<path d="M17.1018 28.2161C17.1473 28.1025 17.1927 27.9888 17.2382 27.8752C17.2837 27.7843 17.3291 27.6933 17.3746 27.5797C17.42 27.4888 17.4882 27.3751 17.5791 27.3069C17.6246 27.2615 17.6928 27.2388 17.761 27.2615C17.8292 27.2842 17.8973 27.3297 17.8973 27.3979C17.9201 27.6251 17.8519 27.8752 17.8064 28.1025C17.7837 28.2161 17.761 28.307 17.7382 28.4207C17.6928 28.557 17.67 28.6934 17.5564 28.8071C17.3973 28.9662 17.1018 28.898 17.0564 28.6707C17.0336 28.5798 17.0336 28.4889 17.0564 28.3979C17.0564 28.307 17.0791 28.2616 17.1018 28.2161Z" fill="#563827"/>
<path d="M16.67 27.1252C16.6927 27.0342 16.8063 26.9661 16.8972 26.9888C16.9882 27.0115 17.0563 27.1024 17.0336 27.2161C17.0109 27.2843 16.9882 27.3524 16.9882 27.4206C16.9882 27.4661 16.9654 27.4888 16.9654 27.5343C16.9654 27.557 16.9654 27.5797 16.9654 27.6025V27.6252C16.9654 27.6479 16.9654 27.6934 16.9654 27.7161C16.9654 27.7388 16.9654 27.7843 16.9427 27.807C16.9427 27.807 16.9427 27.8298 16.9427 27.8525C16.9427 27.9207 16.9427 28.0116 16.8972 28.0798C16.8745 28.148 16.8291 28.1934 16.7609 28.1934C16.6927 28.1934 16.6472 28.148 16.6245 28.0798C16.6018 28.0116 16.6018 27.898 16.6018 27.8298C16.6018 27.7388 16.6018 27.6707 16.6245 27.5797C16.6018 27.4206 16.6245 27.2615 16.67 27.1252Z" fill="#563827"/>
<path d="M16.329 26.7387C16.329 26.8751 16.329 27.0342 16.329 27.1705C16.329 27.3069 16.3063 27.466 16.2835 27.6024C16.2835 27.6478 16.1926 27.6478 16.1926 27.6024C16.1699 27.466 16.1471 27.3069 16.1471 27.1705C16.1471 27.0342 16.1471 26.8751 16.1471 26.7387C16.1244 26.625 16.329 26.625 16.329 26.7387Z" fill="#563827"/>
<path d="M21.4885 21.0337C21.4431 21.011 21.3976 21.011 21.3522 21.011C21.1476 20.9882 20.943 21.011 20.7157 21.011C20.3066 21.011 19.8748 20.9428 19.4884 20.7837C19.1702 20.6473 18.8065 20.3973 18.8747 19.9881C18.9201 19.7608 19.2383 19.7608 19.352 19.92C19.4202 20.0336 19.4656 20.1245 19.602 20.2154C19.7611 20.3063 19.9202 20.3518 20.1021 20.3745C20.3066 20.42 20.4884 20.4427 20.693 20.4427C20.8748 20.4427 21.0794 20.42 21.2612 20.4427C21.2385 20.3973 21.2385 20.3291 21.2612 20.2836C21.3522 20.0336 21.4431 19.7836 21.4658 19.5336C21.4658 19.4654 21.4658 19.3744 21.4431 19.3063C21.4203 19.2835 21.3976 19.2835 21.3749 19.2608C21.3294 19.2381 21.284 19.1926 21.2385 19.1699C21.1931 19.1472 21.1703 19.1472 21.1249 19.1244C20.8976 19.0108 20.6476 18.9199 20.4884 18.6926C20.3293 18.4653 20.3521 18.1471 20.5112 17.9425V17.9198V17.897C20.5339 17.8061 20.6021 17.7379 20.693 17.7152C20.9885 17.647 21.2612 17.7379 21.5567 17.8289C21.8067 17.897 22.0568 17.9652 22.3068 18.0334C22.5568 18.1016 22.7841 18.2153 23.0114 18.3289C23.1932 18.4198 23.5569 18.5789 23.6024 18.8289C23.6024 18.8744 23.6024 18.9199 23.5796 18.9653C23.6024 18.9653 23.6024 19.0562 23.5796 19.1244C23.5342 19.4199 23.2841 19.5108 23.0341 19.5563C22.7841 19.6699 22.5341 19.6699 22.2613 19.6245C22.1931 19.6245 22.1477 19.6472 22.125 19.6699C22.1022 19.6927 22.1022 19.7836 22.1022 19.829C22.0795 19.8972 22.0795 19.9881 22.034 20.0563C21.9658 20.2154 21.8977 20.3518 21.8067 20.4882C21.784 20.5336 21.7386 20.5564 21.6931 20.5791C21.8749 20.6927 22.0568 20.8291 22.2386 20.9428C22.4886 21.1019 22.7386 21.2383 22.9887 21.3974C23.125 21.4201 23.2614 21.4428 23.3751 21.3974C23.4887 21.3519 23.6024 21.511 23.5342 21.6019C23.1932 22.0792 22.625 21.761 22.2386 21.511C22.0568 21.3974 21.8749 21.2382 21.6931 21.1246C21.6249 21.1019 21.5567 21.0564 21.4885 21.0337ZM22.2159 18.7153C22.3068 18.738 22.3977 18.7608 22.4659 18.7835C22.5568 18.8062 22.6477 18.8062 22.7386 18.8062C22.8523 18.8289 22.9659 18.8517 23.0796 18.9199C23.125 18.9199 23.1478 18.9426 23.1705 18.9653C23.1705 18.9199 23.125 18.8517 23.0796 18.7835C22.9887 18.738 22.8977 18.6698 22.8068 18.6244C22.5795 18.5107 22.3522 18.4426 22.125 18.3744C21.8977 18.3062 21.6704 18.238 21.4203 18.1925C21.3749 18.1925 21.3067 18.1698 21.2612 18.1698C21.284 18.1925 21.3067 18.238 21.3294 18.2607C21.4658 18.3062 21.6022 18.4198 21.7158 18.488C21.8749 18.5789 22.034 18.6471 22.2159 18.7153Z" fill="#563827"/>
<path d="M19.8975 22.1701C19.8975 22.1019 19.9657 21.9883 20.0339 21.9883C20.1021 21.9883 20.1475 21.9883 20.2157 22.011C20.2384 22.011 20.2612 22.0337 20.2839 22.0565C20.3521 22.0792 20.4203 22.1019 20.4885 22.1474C20.6248 22.1928 20.784 22.2383 20.9203 22.2838C21.0794 22.3292 21.2158 22.3519 21.3749 22.3747C21.4431 22.3747 21.5113 22.3974 21.5795 22.3974C21.6704 22.3974 21.7613 22.4429 21.8522 22.4656C22.0113 22.5111 22.0113 22.7611 21.8522 22.7838C21.7613 22.8065 21.6704 22.8293 21.5795 22.8065C21.4886 22.8065 21.3976 22.7838 21.3067 22.7838C21.1249 22.7611 20.9431 22.7383 20.784 22.6929C20.6248 22.6474 20.443 22.602 20.2839 22.5565C20.1475 22.4883 19.8975 22.3974 19.8975 22.1701Z" fill="#563827"/>
<path d="M25.6253 20.3973C25.5798 20.3064 25.5571 20.1928 25.5343 20.1018C25.5116 19.8973 25.5571 19.67 25.6707 19.4654C25.7389 19.3745 25.8298 19.2609 25.9207 19.2154C26.0798 19.079 26.2844 19.1018 26.4208 19.2381C26.5117 19.3063 26.5572 19.42 26.5799 19.5336C26.6253 19.7154 26.6481 19.9427 26.5799 20.1246C26.489 20.3291 26.3299 20.5337 26.1026 20.6019C25.9207 20.6701 25.7162 20.5792 25.6253 20.3973Z" fill="#563827"/>
<path d="M17.2382 17.6015C17.1018 17.6924 16.9427 17.6924 16.8063 17.6242C16.6926 17.5788 16.6017 17.4879 16.5563 17.397C16.4881 17.2606 16.4881 17.1242 16.5108 16.9651C16.5335 16.8742 16.579 16.7605 16.6245 16.6923C16.6699 16.6242 16.7154 16.5332 16.8063 16.4878C16.8972 16.4196 17.0109 16.3741 17.1245 16.3514C17.1472 16.3514 17.1472 16.3514 17.17 16.3514C17.2381 16.3287 17.2836 16.3514 17.3291 16.3514C17.3745 16.3514 17.4427 16.3741 17.4654 16.4196C17.5109 16.4423 17.5336 16.4878 17.5791 16.5332C17.6245 16.6242 17.6473 16.7378 17.6473 16.8515C17.6473 17.0333 17.5791 17.2151 17.4882 17.3742C17.3973 17.4651 17.3291 17.5561 17.2382 17.6015Z" fill="#563827"/>
<path d="M25.2843 23.5794C25.2162 23.4658 25.2389 23.3067 25.2389 23.193C25.2389 23.0566 25.2616 22.943 25.2616 22.8066C25.2616 22.5566 25.2389 22.2838 25.1707 22.0338C25.148 21.9429 25.2389 21.8974 25.3071 21.9202C25.2843 21.8065 25.2616 21.6929 25.2389 21.5792C25.1934 21.3974 25.1252 21.2156 25.0343 21.0337C24.9434 20.8519 24.8752 20.6701 24.7843 20.4882C24.7161 20.3746 24.8752 20.2837 24.9434 20.3519C25.1025 20.511 25.2389 20.6473 25.3525 20.8292C25.4662 21.011 25.5571 21.2383 25.6253 21.4429C25.6935 21.6474 25.7617 21.852 25.7844 22.0793C25.8071 22.2838 25.8526 22.5566 25.6707 22.693C25.648 22.7157 25.6026 22.7157 25.5571 22.693C25.5571 22.7384 25.5571 22.7612 25.5798 22.8066C25.6026 22.943 25.6026 23.0794 25.5798 23.2157C25.5571 23.3748 25.5571 23.534 25.4207 23.6249C25.3753 23.6476 25.3071 23.6021 25.2843 23.5794Z" fill="#563827"/>
<path d="M16.1471 19.5335C16.1699 19.5108 16.2153 19.488 16.2608 19.4653C16.2153 19.4426 16.1926 19.3971 16.1926 19.3517C16.2608 19.1698 16.3972 19.0335 16.5563 18.9198C16.7154 18.8062 16.8745 18.7152 17.0563 18.6471C17.2154 18.5789 17.3973 18.5334 17.5791 18.5107C17.7837 18.488 18.0109 18.5107 18.1928 18.4425C18.3519 18.397 18.4655 18.6471 18.3064 18.7152C18.1246 18.8062 17.9428 18.8062 17.7382 18.8289C17.5564 18.8516 17.3973 18.8971 17.2154 18.9653C17.0563 19.0335 16.8972 19.1244 16.7608 19.2153C16.6699 19.2607 16.6017 19.3289 16.5108 19.3744C16.6699 19.3289 16.829 19.3289 17.0109 19.3744C17.079 19.3744 17.1018 19.4653 17.1018 19.5108C17.1018 19.579 17.0336 19.6244 16.9881 19.6244C16.8518 19.6244 16.7154 19.6699 16.579 19.7153C16.5563 19.7153 16.5335 19.7381 16.5335 19.7381H16.5108C16.4881 19.7608 16.4426 19.7608 16.4199 19.7835C16.3744 19.8063 16.3517 19.8063 16.3063 19.829C16.2608 19.8517 16.2153 19.8744 16.1699 19.8744C16.0562 19.8972 15.9653 19.7835 16.0108 19.6699C16.0562 19.6017 16.1017 19.579 16.1471 19.5335Z" fill="#563827"/>
<path d="M26.9436 18.1925C27.1481 18.2834 27.3527 18.3743 27.5345 18.5107C27.7164 18.6471 27.8755 18.8062 27.9891 19.0108C28.1028 19.1926 28.2164 19.3972 28.2846 19.6244C28.3528 19.829 28.3982 20.079 28.2846 20.2836C28.2391 20.3518 28.1482 20.3518 28.1255 20.2836C28.1028 20.2609 28.08 20.2154 28.08 20.1927C28.08 20.3291 28.1028 20.4882 28.0118 20.6245C27.9437 20.7154 27.8073 20.7382 27.7391 20.6245C27.6709 20.4882 27.6709 20.3518 27.6709 20.1927C27.6709 20.0563 27.6482 19.9199 27.6255 19.8063C27.58 19.5335 27.5118 19.2608 27.4209 19.0108C27.3982 18.9653 27.4209 18.9198 27.4436 18.8971C27.3982 18.8517 27.3754 18.8062 27.33 18.7607C27.1936 18.6244 27.0572 18.488 26.8754 18.3743C26.8072 18.2834 26.8527 18.147 26.9436 18.1925Z" fill="#563827"/>
<path d="M16.1699 14.5786C16.1926 14.5786 16.1926 14.5786 16.2153 14.5559C16.1926 14.5559 16.1699 14.5559 16.1471 14.5559C16.0335 14.5332 15.988 14.3513 16.079 14.2604C16.3972 13.9649 16.9427 14.0331 17.3291 14.1468C17.7382 14.2831 18.0791 14.5332 18.3292 14.8968C18.4201 15.0332 18.2155 15.1696 18.1019 15.0787C18.0109 14.9877 17.8973 14.9196 17.7609 14.8741C17.7382 14.965 17.6473 15.0105 17.5336 14.965C17.42 14.9196 17.2836 14.8968 17.17 14.8968C17.0336 14.8968 16.8972 14.8968 16.7608 14.9423C16.6017 14.965 16.4654 15.0105 16.3062 15.0332C16.1699 15.0559 16.0108 15.1241 15.8744 15.0559C15.8289 15.0332 15.7607 14.9877 15.7835 14.9196C15.8062 14.7377 16.0108 14.6468 16.1699 14.5786Z" fill="#563827"/>
<path d="M13.6242 24.7613C13.6696 24.7158 13.7151 24.7158 13.7606 24.7386C13.8287 24.7613 13.8515 24.8295 13.8742 24.8977C13.9197 25.125 13.9424 25.3523 14.0333 25.5795C14.1242 25.8296 14.2379 26.0569 14.3515 26.2842C14.4197 26.3978 14.2606 26.5342 14.1697 26.4205C14.0106 26.2387 13.8742 26.0569 13.7833 25.8296C13.6924 25.6023 13.6242 25.375 13.5787 25.1477C13.556 25.0568 13.5333 24.8522 13.6242 24.7613Z" fill="#563827"/>
<path d="M13.2151 24.4431C13.2833 24.4886 13.306 24.5341 13.3288 24.6022C13.3515 24.6704 13.3515 24.7386 13.3742 24.8068C13.3742 24.8295 13.3742 24.8523 13.3742 24.8977V24.9205C13.3742 24.9205 13.3742 24.9205 13.3742 24.9432C13.3742 24.9886 13.397 25.0341 13.397 25.0796C13.4197 25.1705 13.4424 25.2841 13.4879 25.375C13.5106 25.4205 13.5106 25.466 13.5333 25.5114C13.5561 25.5569 13.5788 25.6023 13.6015 25.6251C13.6697 25.7387 13.5106 25.8524 13.4197 25.7614C13.3515 25.6933 13.2606 25.6023 13.1924 25.5114C13.1242 25.4205 13.0787 25.3069 13.0333 25.1932C12.9878 25.0796 12.9651 24.9659 12.9651 24.8523C12.9651 24.7841 12.9651 24.7386 12.9651 24.6704C12.9651 24.6022 12.9651 24.5568 12.9878 24.4886C13.0106 24.375 13.1469 24.375 13.2151 24.4431Z" fill="#563827"/>
<path d="M12.6014 23.8294C12.6241 23.8748 12.6468 23.8976 12.6696 23.943C12.6696 23.9658 12.6923 24.0112 12.6923 24.0567C12.715 24.1249 12.715 24.2158 12.7378 24.284C12.7605 24.4431 12.7832 24.6022 12.8287 24.7386C12.8287 24.8067 12.8059 24.8522 12.7605 24.8749C12.715 24.8977 12.6468 24.8522 12.6241 24.8067C12.5787 24.6476 12.5559 24.4885 12.5105 24.3294C12.4877 24.2612 12.465 24.1703 12.465 24.1021C12.465 24.0567 12.4423 24.0112 12.4423 23.9658C12.4423 23.9203 12.4423 23.8748 12.465 23.8294C12.465 23.7839 12.5559 23.7839 12.6014 23.8294Z" fill="#563827"/>
<path d="M22.8977 28.1025C22.9205 28.1025 22.9432 28.0798 22.9659 28.0798C22.9659 28.0798 22.9659 28.0798 22.9887 28.0798C23.0341 28.0571 23.0796 28.0344 23.125 27.9889C23.125 27.9889 23.1478 27.9889 23.1478 27.9662C23.1478 27.9662 23.125 27.9662 23.125 27.9889L23.1478 27.9662C23.1705 27.9434 23.1932 27.9207 23.216 27.898C23.2841 27.8298 23.3751 27.7616 23.4433 27.6934C23.5342 27.6252 23.6024 27.557 23.6933 27.4661C23.7387 27.4207 23.8069 27.4207 23.8751 27.4434C23.9206 27.4661 23.966 27.557 23.9433 27.6025C23.9206 27.6252 23.9206 27.6707 23.8978 27.6934C23.8978 27.7161 23.8751 27.7161 23.8751 27.7389C23.8978 27.7161 23.8751 27.7616 23.8524 27.7843C23.8296 27.8525 23.8069 27.898 23.7615 27.9434C23.6933 28.0571 23.6024 28.148 23.5114 28.2389C23.4205 28.3298 23.3069 28.4208 23.1932 28.4662C23.0341 28.5344 22.7614 28.6026 22.6705 28.398C22.625 28.3071 22.6477 28.2389 22.6932 28.1707C22.7614 28.1253 22.8296 28.1025 22.8977 28.1025Z" fill="#563827"/>
<path d="M22.6932 27.8298C22.7159 27.807 22.7387 27.807 22.7614 27.7843C22.8069 27.7389 22.8523 27.7161 22.8978 27.6707C22.9887 27.6252 23.0569 27.557 23.1478 27.5116C23.216 27.4661 23.2842 27.4888 23.3296 27.557C23.3524 27.5798 23.3524 27.6025 23.3524 27.6479C23.3524 27.6934 23.3296 27.7161 23.3069 27.7389C23.2387 27.807 23.1478 27.8525 23.0796 27.9207C23.0341 27.9662 22.9887 27.9889 22.9432 28.0116C22.9205 28.0343 22.875 28.0571 22.8523 28.0571C22.8296 28.0571 22.8069 28.0798 22.7841 28.0798C22.7387 28.1025 22.6705 28.0798 22.6477 28.0343C22.625 27.9889 22.6023 27.9434 22.6477 27.898C22.6477 27.898 22.6705 27.8525 22.6932 27.8298Z" fill="#563827"/>
<path d="M18.9656 13.0785C18.9202 13.033 18.8747 12.9648 18.8065 12.9421C18.7838 12.9193 18.7383 12.8966 18.7156 12.8739C18.6701 12.8512 18.6474 12.8284 18.6247 12.8057C18.5565 12.7602 18.511 12.7148 18.4429 12.6921C18.3974 12.6693 18.3747 12.6466 18.3519 12.6011C18.3292 12.5784 18.3065 12.5329 18.2837 12.5102C18.2837 12.4875 18.2837 12.4648 18.3292 12.442C18.3747 12.4193 18.3974 12.442 18.4429 12.4648C18.4883 12.4648 18.511 12.4875 18.5565 12.5102C18.6247 12.5557 18.6929 12.6011 18.7611 12.6693C18.8747 12.7602 18.9656 12.8966 19.0338 13.033C19.0565 13.0785 19.0111 13.1239 18.9656 13.0785Z" fill="#563827"/>
<path d="M18.2155 12.9876C18.1928 12.9648 18.1701 12.9421 18.1473 12.9194C18.1246 12.8967 18.1019 12.8739 18.1019 12.8512C18.0792 12.8285 18.0792 12.8285 18.0564 12.8057C18.0564 12.8057 18.0564 12.783 18.0337 12.783C18.011 12.7603 17.9882 12.7148 18.011 12.6694C18.0337 12.6239 18.0792 12.6012 18.1246 12.6239C18.1928 12.6466 18.2383 12.6694 18.3064 12.6921C18.3746 12.7148 18.4201 12.7603 18.4656 12.8057C18.5337 12.8967 18.6247 12.9648 18.6928 13.0558C18.7156 13.0785 18.7156 13.1012 18.7156 13.124C18.7156 13.1467 18.6928 13.1921 18.6928 13.1921C18.6474 13.2376 18.5792 13.2376 18.5337 13.1921C18.511 13.1694 18.4883 13.1467 18.4656 13.1467L18.4428 13.124C18.4428 13.124 18.4428 13.124 18.4201 13.124C18.3746 13.1012 18.3292 13.0558 18.2837 13.033C18.2837 13.033 18.2383 13.0103 18.2155 12.9876Z" fill="#563827"/>
<path d="M26.739 16.3742C26.8072 16.3742 26.8754 16.3742 26.9208 16.397C26.8981 16.397 26.8981 16.3742 26.8754 16.3742C26.8754 16.3742 26.8526 16.3742 26.8526 16.3515C26.8072 16.3288 26.7845 16.3288 26.739 16.3061C26.7163 16.3061 26.7163 16.2833 26.6935 16.2833C26.6708 16.2833 26.6708 16.2833 26.6481 16.2606C26.6481 16.2606 26.6481 16.2606 26.6253 16.2606H26.6026C26.5799 16.2606 26.5799 16.2379 26.5572 16.2379C26.5344 16.2379 26.489 16.2151 26.4662 16.2151C26.4435 16.2151 26.4435 16.2151 26.4208 16.2151C26.4208 16.2151 26.4208 16.2151 26.3981 16.2151C26.3981 16.2151 26.3981 16.2151 26.3753 16.2151C26.3526 16.2151 26.3071 16.2151 26.2844 16.2151C26.2162 16.2151 26.148 16.1469 26.148 16.0788C26.148 16.0106 26.1935 15.9651 26.2844 15.9424C26.4435 15.9424 26.5799 15.9651 26.7163 16.0106C26.7845 16.0333 26.8754 16.0788 26.9208 16.1469C26.9663 16.2151 27.0572 16.2606 27.0572 16.3288C27.0572 16.3742 27.0572 16.397 27.0345 16.4197C27.0572 16.4197 27.0799 16.4424 27.1027 16.4424C27.1254 16.4652 27.1481 16.4652 27.1709 16.4879C27.2163 16.5106 27.2618 16.5561 27.3072 16.5788C27.33 16.6015 27.33 16.647 27.33 16.6697C27.33 16.6924 27.2845 16.7152 27.2618 16.7152C27.2163 16.7152 27.1481 16.7152 27.1027 16.6924C27.0799 16.6924 27.0799 16.6924 27.0572 16.6924H27.0345C27.0345 16.6924 27.0345 16.6924 27.0572 16.6924H27.0117C26.989 16.6924 26.9663 16.6924 26.9436 16.6697C26.8981 16.647 26.8526 16.647 26.8072 16.647C26.7845 16.647 26.7845 16.647 26.7617 16.647C26.8072 16.647 26.7617 16.647 26.739 16.647C26.7163 16.647 26.6935 16.647 26.6708 16.647C26.6026 16.647 26.5344 16.6015 26.5344 16.5106C26.6026 16.4424 26.6481 16.3742 26.739 16.3742Z" fill="#563827"/>
<path d="M20.6476 24.3977C20.6476 24.4204 20.6248 24.4204 20.6248 24.4431C20.6021 24.4659 20.6021 24.4886 20.5794 24.4886C20.5567 24.5113 20.5112 24.5341 20.4657 24.5113C20.4203 24.4886 20.3748 24.4431 20.3748 24.3977C20.3748 24.375 20.3748 24.375 20.3748 24.3522C20.3521 24.375 20.3294 24.375 20.3066 24.3977C20.2839 24.3977 20.2384 24.3977 20.2384 24.3977C20.2157 24.375 20.193 24.3522 20.193 24.3295C20.1703 24.284 20.193 24.2613 20.193 24.2158C20.193 24.1931 20.193 24.1931 20.193 24.1704C20.193 24.1477 20.193 24.1249 20.2157 24.0795C20.2384 24.0113 20.2612 23.9658 20.2839 23.8976C20.2839 23.8749 20.3066 23.8522 20.3294 23.8294L20.3521 23.8067C20.3975 23.784 20.443 23.784 20.4885 23.8067C20.5339 23.8294 20.5567 23.8522 20.5794 23.8976C20.5794 23.9204 20.5794 23.9204 20.5794 23.9431C20.6021 23.9431 20.6248 23.9431 20.6248 23.9431C20.6476 23.9431 20.693 23.9658 20.693 24.0113C20.7158 24.034 20.7158 24.0795 20.7158 24.1022C20.693 24.1704 20.693 24.2386 20.6703 24.284C20.6703 24.3295 20.6476 24.375 20.6476 24.3977Z" fill="#563827"/>
<path d="M11.0103 31.2391C11.0103 31.2391 11.0103 31.262 10.9875 31.262C10.9875 31.2848 10.9875 31.262 11.0103 31.2391Z" fill="#563827"/>
<path d="M17.3973 36.2624C17.4882 36.3078 17.5564 36.4215 17.6019 36.5124C17.6473 36.6033 17.6928 36.7169 17.7382 36.8306C17.8064 37.0351 17.8746 37.217 17.9428 37.4215C18.0564 37.8534 18.1019 38.2625 18.1246 38.7171C18.1246 38.8308 17.9428 38.8535 17.9428 38.7398C17.8746 38.3307 17.761 37.9216 17.6019 37.5125C17.5337 37.3079 17.4428 37.1261 17.3746 36.9215C17.3291 36.8306 17.2837 36.7397 17.2609 36.6487C17.2155 36.5578 17.1927 36.4442 17.2155 36.3305C17.2155 36.2396 17.3291 36.2169 17.3973 36.2624Z" fill="#563827"/>
<path d="M16.3518 34.6713C16.4199 34.7395 16.4654 34.8077 16.5109 34.8986C16.5563 34.9668 16.6018 35.0577 16.6472 35.1259C16.67 35.1941 16.67 35.2622 16.6018 35.3077C16.5336 35.3304 16.4427 35.3304 16.4199 35.2622C16.3745 35.1713 16.329 35.0804 16.3063 34.9895C16.2836 34.8986 16.2608 34.8304 16.2381 34.7395C16.2381 34.7167 16.2381 34.6713 16.2608 34.6486C16.2836 34.6486 16.329 34.6486 16.3518 34.6713Z" fill="#563827"/>
<path d="M10.9649 36.6942C10.9194 36.626 10.874 36.5351 10.8512 36.4442C10.8285 36.3533 10.8058 36.2851 10.7831 36.1942C10.7376 36.0123 10.7149 35.8532 10.7149 35.6714C10.7149 35.6032 10.783 35.535 10.8285 35.535C10.8967 35.535 10.9649 35.5578 10.9876 35.6487C11.0103 35.8078 11.0558 35.9669 11.0785 36.1487C11.1013 36.2396 11.1013 36.3078 11.124 36.3987C11.1467 36.4897 11.1467 36.5806 11.1467 36.6715C11.1694 36.7397 11.0103 36.7851 10.9649 36.6942Z" fill="#563827"/>
<path d="M13.7151 31.3528C13.9424 31.4665 14.1697 31.5801 14.3743 31.762C14.4652 31.8301 14.5561 31.9211 14.647 32.0347C14.738 32.1484 14.7834 32.262 14.8289 32.3984C14.8516 32.4666 14.7607 32.512 14.7152 32.4666C14.6243 32.3984 14.5334 32.3075 14.4425 32.2165C14.3743 32.1256 14.2834 32.0347 14.1925 31.9665C14.0106 31.8074 13.8288 31.6483 13.6242 31.5347C13.5788 31.5119 13.556 31.4437 13.5788 31.3983C13.6242 31.3301 13.6697 31.3301 13.7151 31.3528Z" fill="#563827"/>
<path d="M14.2152 32.4211C14.2606 32.3983 14.3061 32.3983 14.3516 32.4438C14.4197 32.5347 14.4652 32.6483 14.5334 32.7393C14.5561 32.7847 14.6016 32.8302 14.6243 32.8984C14.647 32.9211 14.647 32.9438 14.6698 32.9666C14.6925 32.9893 14.6925 33.0347 14.7152 33.0575C14.738 33.1257 14.647 33.1711 14.6016 33.1257C14.5561 33.0802 14.5334 33.0347 14.4879 32.9893C14.4652 32.9438 14.4197 32.8984 14.397 32.8529C14.3288 32.762 14.2834 32.6483 14.2152 32.5574C14.147 32.512 14.1697 32.4438 14.2152 32.4211Z" fill="#563827"/>
<path d="M25.1934 35.035C25.3071 35.3986 25.4207 35.7396 25.4662 36.126C25.4889 36.3078 25.5116 36.4896 25.5116 36.6942C25.5116 36.8988 25.5344 37.1261 25.4662 37.3079C25.4434 37.3761 25.398 37.4443 25.3071 37.467C25.2616 37.467 25.2389 37.4897 25.1934 37.467C25.1252 37.4443 25.057 37.3761 25.0343 37.3079C24.9889 37.1261 25.0343 36.9442 25.0343 36.7397C25.0343 36.5578 25.0343 36.376 25.0343 36.1942C25.0343 35.8305 25.0343 35.4668 24.9888 35.1032C24.9661 34.9441 25.148 34.8986 25.1934 35.035Z" fill="#563827"/>
<path d="M24.6479 37.5123C24.6707 37.3532 24.6707 37.1941 24.6479 37.035C24.6479 36.9668 24.7161 36.9214 24.7616 36.9214C24.8298 36.9214 24.8752 36.9668 24.8752 37.035C24.898 37.1941 24.898 37.3532 24.8752 37.5123C24.8752 37.6033 24.8525 37.6715 24.8298 37.7624C24.8298 37.8078 24.807 37.8533 24.807 37.876C24.807 37.9215 24.7843 37.9669 24.7616 37.9897C24.7161 38.0806 24.5797 38.0351 24.5797 37.9442C24.5797 37.8533 24.6025 37.7851 24.6025 37.6942C24.6252 37.6487 24.6479 37.5805 24.6479 37.5123Z" fill="#563827"/>
<path d="M25.6025 25.625C25.6252 25.6023 25.6252 25.5569 25.648 25.5341C25.6707 25.4659 25.6934 25.3977 25.7162 25.3296C25.7389 25.2386 25.7389 25.1477 25.7616 25.0795V25.0568C25.7616 25.0114 25.7616 24.9659 25.7616 24.8977C25.7616 24.8295 25.8071 24.7841 25.8753 24.7841C25.9435 24.7841 25.9889 24.8295 25.9889 24.8977C26.0116 25.0568 26.0116 25.2386 25.9662 25.3977C25.9435 25.4659 25.9207 25.5569 25.898 25.625C25.8753 25.6705 25.8525 25.716 25.8298 25.7614C25.8071 25.8069 25.7844 25.8296 25.7389 25.8751C25.6707 25.9433 25.5571 25.8751 25.5798 25.7841C25.5798 25.716 25.5798 25.6705 25.6025 25.625Z" fill="#563827"/>
<path d="M12.9423 20.8064C12.9878 20.6473 13.0787 20.4882 13.1696 20.3746C13.2833 20.2382 13.3969 20.1018 13.5333 20.0109C13.6697 19.92 13.8288 19.8745 13.9879 19.8291C14.0788 19.8063 14.147 19.9427 14.0561 19.9882C13.9879 20.0109 13.9197 20.0564 13.8742 20.1018C13.8288 20.1473 13.7833 20.1927 13.7151 20.2382C13.6015 20.3291 13.5106 20.42 13.4196 20.5337C13.3515 20.6473 13.2833 20.761 13.2378 20.8973C13.2151 20.9655 13.1924 21.0337 13.1924 21.1019C13.1924 21.1474 13.1696 21.1928 13.1469 21.2383C13.1242 21.2837 13.1014 21.2837 13.0787 21.3065C13.056 21.3292 13.0105 21.3292 12.9878 21.3065C12.9651 21.2837 12.9423 21.261 12.9196 21.2156C12.8969 21.1701 12.8969 21.1246 12.8969 21.0565C12.8969 20.9655 12.9196 20.8973 12.9423 20.8064Z" fill="#563827"/>
<path d="M12.4196 20.3518C12.465 20.2382 12.556 20.1473 12.6241 20.0336C12.7833 19.8518 12.9878 19.7154 13.1924 19.6018C13.2606 19.5563 13.3515 19.579 13.3969 19.6472C13.4424 19.7154 13.4197 19.8063 13.3515 19.8518C13.306 19.8745 13.2606 19.8973 13.2151 19.9427C13.1924 19.9654 13.1697 19.9654 13.1469 19.9882L13.1242 20.0109C13.1242 20.0109 13.1242 20.0109 13.1015 20.0109C13.0105 20.0791 12.9424 20.1473 12.8514 20.2382C12.806 20.2837 12.7833 20.3291 12.7378 20.3518C12.7151 20.3973 12.6696 20.42 12.6241 20.4882C12.6014 20.5109 12.6014 20.5109 12.5787 20.5337C12.556 20.5564 12.556 20.5791 12.5332 20.6019C12.5105 20.6473 12.465 20.6928 12.4196 20.7382C12.3741 20.7837 12.2832 20.7382 12.2832 20.6928C12.2832 20.6246 12.3059 20.5791 12.3059 20.5109C12.3741 20.4655 12.3969 20.42 12.4196 20.3518Z" fill="#563827"/>
<path d="M12.0332 16.0106C12.0105 15.9879 12.0105 15.9424 12.0332 15.9197C12.0559 15.8969 12.0786 15.8515 12.1241 15.8288C12.1468 15.806 12.1696 15.7606 12.1923 15.7378C12.215 15.7151 12.2377 15.7151 12.2832 15.6924C12.3059 15.6924 12.3287 15.6924 12.3514 15.7151C12.3741 15.7151 12.3741 15.7378 12.3741 15.7378C12.3741 15.7606 12.3969 15.7606 12.3969 15.7833C12.3969 15.806 12.3969 15.806 12.3969 15.8288C12.3969 15.8515 12.3969 15.8515 12.3741 15.8742C12.3741 15.8969 12.3514 15.8969 12.3287 15.9197C12.2832 15.9424 12.2605 15.9651 12.215 15.9879C12.1696 16.0106 12.1468 16.0333 12.1014 16.0561C12.1014 16.0333 12.0559 16.0333 12.0332 16.0106Z" fill="#563827"/>
<path d="M3.16876 34.0803C3.1233 33.7621 3.19149 33.3984 3.23695 33.1029C3.30513 32.6256 3.44151 32.1483 3.60062 31.6937C3.75972 31.2164 3.94156 30.7618 4.19158 30.33C4.19158 30.1936 4.21431 30.0799 4.23704 29.9436C4.28249 29.7163 4.32795 29.4663 4.37341 29.239C4.48705 28.7616 4.57797 28.2843 4.78254 27.8297C5.07802 27.1933 5.5326 26.6933 6.05538 26.2614C6.10084 26.0114 6.23721 25.7387 6.35086 25.5341C6.55542 25.1477 6.82817 24.784 7.10092 24.4431C7.3964 24.1021 7.71461 23.7612 8.03282 23.4203C8.21465 23.2157 8.39649 23.0339 8.60105 22.8293H8.57832L8.60105 22.8066C8.57832 22.8066 8.57832 22.8293 8.5556 22.8293C8.53287 22.852 8.48741 22.8748 8.46468 22.9202C8.44195 22.943 8.39649 22.9884 8.37376 23.0111C8.37376 22.9884 8.39649 22.9884 8.39649 22.9657C8.35103 23.0111 8.3283 23.0566 8.26011 23.0793C8.21465 23.1021 8.14647 23.1021 8.10101 23.0566C8.05555 23.0111 8.03282 22.943 8.03282 22.8748C8.03282 22.8293 8.03282 22.7838 8.05555 22.7611C7.98736 22.7838 7.91917 22.7157 7.96463 22.6475C7.98736 22.6247 7.98736 22.602 8.01009 22.5793C8.03282 22.5566 8.03282 22.5566 8.05555 22.5338C8.07828 22.5111 8.12374 22.4656 8.14647 22.4429C8.21465 22.3747 8.28284 22.3065 8.35103 22.2383C8.39649 22.1929 8.44195 22.1929 8.48741 22.2383C8.51014 22.2838 8.53287 22.3293 8.48741 22.3747H8.51014C8.53287 22.3747 8.57832 22.3747 8.60105 22.3747C8.57832 22.2611 8.57832 22.1474 8.57832 22.0111C8.55559 21.5337 8.60105 21.0792 8.66924 20.6018C8.64651 20.5791 8.62378 20.5564 8.62378 20.5109C8.57833 19.4881 8.7147 18.488 9.12383 17.5561C9.30566 17.1243 9.53295 16.6924 9.8057 16.2833C9.85116 15.9878 9.89662 15.6696 10.0103 15.3968C10.1921 14.9195 10.4194 14.4649 10.6694 14.0558C10.8512 13.7603 11.0785 13.4649 11.2831 13.1694C11.2149 12.7602 11.5331 12.3966 11.7831 12.1011C12.0559 11.7602 12.3741 11.4647 12.7378 11.1919C13.0105 10.9874 13.2833 10.8055 13.5788 10.6692C13.6015 10.6464 13.6015 10.601 13.6469 10.5782C13.7379 10.51 13.8288 10.4646 13.897 10.4191C13.8742 10.3964 13.8515 10.3737 13.8288 10.3737C13.7833 10.3282 13.8061 10.26 13.8515 10.2373C13.8742 10.2146 13.897 10.1918 13.9424 10.1918C13.9652 10.1918 14.0106 10.1918 14.0333 10.1918C14.0788 10.1918 14.147 10.1918 14.1924 10.1918H14.3288C14.4652 10.1236 14.6016 10.0555 14.7607 9.98727C14.738 9.98727 14.7152 9.96454 14.6698 9.96454C14.6016 9.96454 14.5788 9.89636 14.5788 9.82817C14.5788 9.78271 14.647 9.71452 14.6925 9.73725C14.8289 9.75998 14.9652 9.78271 15.0789 9.8509C15.5789 9.64634 16.1017 9.48723 16.6245 9.35085C17.67 9.0781 18.761 8.919 19.852 8.89627C22.0113 8.82808 24.2388 9.28267 26.0799 10.4419C26.6935 10.8283 27.3754 11.3056 27.8527 11.9193C28.2164 12.2602 28.5573 12.6239 28.8301 13.0103C28.9892 13.2148 29.1256 13.4194 29.2619 13.624C29.3529 13.6921 29.4211 13.7831 29.512 13.874C29.6029 13.9876 29.7165 14.0785 29.7847 14.2149C29.8075 14.2604 29.8302 14.2831 29.8302 14.3286C29.8529 14.374 29.8302 14.374 29.8529 14.4195C29.8756 14.4877 29.8756 14.5559 29.8302 14.624C29.8302 14.6468 29.8529 14.6468 29.8529 14.6695C30.012 14.965 30.1484 15.2605 30.2848 15.5559C30.3984 15.8287 30.5802 16.1469 30.5575 16.4424C30.5575 16.4651 30.5575 16.4878 30.5348 16.5106C30.6712 16.8288 30.7621 17.1697 30.8303 17.5334C30.9212 18.0789 30.9439 18.6017 30.9212 19.1472C30.8985 19.4199 30.8757 19.6927 30.853 19.9881C30.8075 20.2382 30.7848 20.5337 30.6484 20.7609C30.6257 20.7837 30.603 20.8064 30.5802 20.8064C30.5802 21.0564 30.5802 21.2837 30.5575 21.5337C30.5121 21.9883 30.4666 22.4429 30.353 22.8748C30.262 23.2612 30.1257 23.7839 29.8302 24.0794C29.8075 24.1021 29.7393 24.1249 29.6938 24.1249C29.6711 24.284 29.6256 24.4431 29.6029 24.6022C29.4892 25.0568 29.3756 25.5114 29.1938 25.9432C29.0574 26.2614 28.921 26.6706 28.671 26.9433C28.6483 27.0115 28.6255 27.1024 28.6028 27.1706C28.4892 27.5115 28.3755 27.8525 28.2391 28.1934C28.2391 28.3298 28.2391 28.4662 28.2391 28.5798C28.2391 28.6935 28.2164 28.7844 28.1937 28.8753C28.1937 28.9207 28.1709 28.9662 28.1709 29.0117C28.1482 29.0571 28.1255 29.1026 28.1028 29.148C28.08 29.2162 27.9664 29.1935 27.9664 29.1253C27.9664 29.0799 27.9437 29.0117 27.9437 28.9662C27.9437 28.9207 27.9437 28.8753 27.9437 28.8298C27.8982 28.9207 27.8527 29.0117 27.8073 29.1026C27.8073 29.1708 27.7845 29.239 27.7618 29.2844C27.7164 29.3981 27.7164 29.489 27.6482 29.5799C27.6027 29.6481 27.5118 29.6254 27.4891 29.5572V29.5344C27.4209 29.6026 27.3527 29.6708 27.2618 29.739C27.1481 29.8072 27.0572 29.7163 27.0345 29.6026C27.0345 29.5572 27.0345 29.5344 27.0345 29.489C26.989 29.6481 26.9208 29.7845 26.8754 29.9436C26.8981 29.989 26.8981 30.0572 26.9208 30.1027C26.989 30.3982 27.0118 30.7164 27.0572 31.0118C27.0799 31.3073 27.1027 31.6028 27.1027 31.921C27.1027 32.0801 27.0799 32.2165 27.0572 32.3756C27.0345 32.5347 27.0118 32.6711 26.8754 32.762C26.8526 32.7847 26.8072 32.7847 26.7617 32.7847C26.7845 32.9438 26.8072 33.1257 26.8299 33.2848C26.8754 33.8985 26.9436 34.5803 26.7163 35.1713C26.6935 35.2395 26.6254 35.2849 26.5572 35.3077C26.6026 35.7623 26.6708 36.2168 26.6935 36.6714C26.7163 37.0806 26.7163 37.4897 26.6708 37.8988C26.6254 38.217 26.5799 38.7852 26.2617 38.9443H26.239C26.239 38.9671 26.239 39.0125 26.239 39.0353C26.239 39.1489 26.239 39.2853 26.2162 39.3989C26.239 39.4444 26.239 39.4899 26.239 39.5353C26.239 39.899 26.1708 40.3308 25.9889 40.649C25.8071 40.99 25.5343 41.3309 25.2161 41.5582C24.4661 42.1264 23.4887 42.2855 22.5795 42.331C20.6476 42.4219 18.6928 42.2855 16.7609 42.0583C16.079 41.9673 15.3971 41.8764 14.7152 41.7401C14.1243 41.7173 13.5106 41.6491 12.9423 41.49C12.6923 41.4218 12.465 41.3309 12.2605 41.1945C11.8741 41.0809 11.4877 40.99 11.124 40.8536C9.41931 40.3081 7.69188 39.6262 6.19175 38.6261C4.71435 37.6261 3.37333 36.2396 3.05511 34.4212C2.98693 34.3076 3.05511 34.1712 3.16876 34.0803ZM17.0791 40.99C17.4882 40.8991 17.8973 40.74 18.2155 40.4672C18.3519 40.3536 18.4883 40.2172 18.6019 40.0808C18.6701 39.9899 18.7156 39.899 18.761 39.8308C18.7383 39.7626 18.7156 39.7171 18.6928 39.649C18.6701 39.5808 18.6701 39.5126 18.7383 39.4899C18.7838 39.4671 18.8747 39.4671 18.8974 39.5353C18.8974 39.558 18.9201 39.558 18.9201 39.5808C18.8747 39.3762 18.8519 39.1489 18.8065 38.9443C18.7156 38.4898 18.6247 38.0579 18.4883 37.6261C18.2383 36.7396 17.9655 35.8532 17.6018 35.0122C17.5337 34.8531 17.7837 34.7622 17.8746 34.8985C17.9428 34.9895 17.9882 35.1031 18.0564 35.194C18.011 35.1031 17.9655 35.0122 17.92 34.9213C17.7382 34.5803 17.5564 34.2621 17.3518 33.9439C16.9881 33.3984 16.579 32.7847 15.9653 32.4892C15.829 32.4211 15.9199 32.2165 16.0562 32.262C16.2835 32.3301 16.4881 32.4438 16.6699 32.5802C16.6472 32.5574 16.6245 32.5347 16.6018 32.4892C16.3517 32.2165 16.079 31.9665 15.7835 31.7392C15.488 31.5119 15.1698 31.3073 14.8289 31.1482C14.7834 31.1709 14.738 31.1709 14.6925 31.1482C14.5561 31.0573 14.397 30.9664 14.2152 30.8982C14.0788 30.8527 13.9197 30.8073 13.7833 30.7618C13.7379 30.7618 13.7151 30.7164 13.6924 30.6936H13.6697C13.3287 30.58 12.9651 30.4891 12.6014 30.4663C12.2605 30.4436 11.8741 30.4209 11.5331 30.5573C11.4877 30.58 11.4195 30.6027 11.3513 30.6254C11.5104 30.7164 11.6468 30.8527 11.7377 31.0118C11.8286 31.1709 11.6468 31.3528 11.4877 31.2619C11.4649 31.3528 11.4422 31.4437 11.3968 31.5346C11.3513 31.6483 11.2604 31.7392 11.1922 31.8301C11.124 31.8756 11.0558 31.9437 10.9649 31.9892C10.9876 32.1028 10.9649 32.2165 10.9422 32.3301C10.8967 32.4665 10.8285 32.5802 10.7376 32.6711C10.6921 32.7165 10.6467 32.762 10.5785 32.7847C10.5558 32.8074 10.5103 32.8075 10.4876 32.8302C10.4876 32.8529 10.4876 32.8756 10.5103 32.8756C10.533 32.9438 10.533 33.012 10.533 33.0802C10.533 33.2393 10.4876 33.3984 10.3967 33.5348C10.3057 33.6712 10.1694 33.7848 10.0103 33.8303C9.94208 33.853 9.85116 33.8757 9.78297 33.8757C9.76024 33.9212 9.76024 33.9894 9.73752 34.0348C9.71479 34.1257 9.71478 34.1712 9.71478 34.2394C9.71478 34.4212 9.69205 34.5803 9.71478 34.7622C9.71478 34.7849 9.71478 34.8304 9.71478 34.8531C9.8057 34.8758 9.87389 34.944 9.85116 35.0576C9.76024 35.7623 10.0103 36.5123 10.283 37.1487C10.3739 37.3533 10.4876 37.5579 10.5785 37.7624C10.5785 37.6261 10.5785 37.4669 10.6012 37.3306C10.6012 37.2851 10.624 37.2624 10.6467 37.2397C10.624 37.2397 10.624 37.2397 10.6012 37.2397C10.4876 37.1942 10.3967 37.1487 10.3512 37.0351C10.3057 36.9214 10.2603 36.8305 10.2148 36.7169C10.1466 36.5123 10.1012 36.3078 10.0785 36.0805C10.0557 35.6713 10.1012 35.2395 10.1694 34.8304C10.1921 34.6712 10.4649 34.7167 10.4421 34.8758C10.3967 35.2622 10.4421 35.6259 10.533 36.0123C10.5785 36.1941 10.624 36.3759 10.6694 36.5578C10.6921 36.6487 10.7376 36.7396 10.7603 36.8305C10.7831 36.8987 10.8058 36.9442 10.8058 37.0124C10.8058 37.0578 10.7831 37.1033 10.7603 37.1715C10.7603 37.1942 10.7376 37.1942 10.7376 37.2169C10.8285 37.1942 10.9422 37.2624 10.9649 37.3988C11.0331 38.3079 11.3286 39.1716 11.8286 39.9444C11.9195 40.0808 12.0104 40.2172 12.1014 40.3308C13.4197 40.6945 14.738 40.9673 16.1017 41.1491C16.4654 41.1036 16.7836 41.0582 17.0791 40.99ZM7.46459 32.4438C7.60097 32.4211 7.73734 32.4211 7.87372 32.3983C8.1692 32.3756 8.46468 32.3529 8.76016 32.3529C9.21474 32.3529 9.69206 32.3756 10.1239 32.4665C10.1466 32.4438 10.1921 32.4211 10.2148 32.3983C10.2603 32.3756 10.283 32.3756 10.3285 32.3529C10.3739 32.3074 10.4194 32.2847 10.4649 32.1938C10.5103 32.1028 10.533 32.0801 10.5558 31.9892C10.5558 32.0119 10.5558 31.9437 10.5558 31.9437C10.5558 31.921 10.5558 31.8983 10.5558 31.8756C10.5558 31.8528 10.5558 31.8528 10.5558 31.8301C10.5558 31.7846 10.533 31.7619 10.5558 31.7164C10.1012 31.671 9.66933 31.6483 9.21474 31.6483C8.76016 31.7846 8.28284 31.8528 7.80553 31.9437C7.55551 32.0119 7.16911 32.1938 7.14638 32.4665C7.16911 32.4665 7.16911 32.4665 7.19184 32.4665C7.30548 32.4665 7.37367 32.4665 7.46459 32.4438ZM7.3964 33.1711C7.41913 33.1938 7.44186 33.1938 7.44186 33.1938C7.48732 33.1938 7.53278 33.1938 7.55551 33.1938C7.85099 33.1938 8.14647 33.1938 8.44195 33.2166C8.96472 33.2166 9.46477 33.262 9.98754 33.3075C10.0103 33.2848 10.033 33.2393 10.0557 33.2166C10.0785 33.1484 10.0785 33.0802 10.0557 32.9893C10.033 32.9211 10.033 32.8756 10.0103 32.8302C9.51022 32.8302 8.98745 32.8529 8.48741 32.9211C8.14647 32.9666 7.80553 33.012 7.46459 33.0575C7.44186 33.0575 7.44186 33.0575 7.41913 33.0575C7.41913 33.0802 7.41913 33.1257 7.3964 33.1484C7.3964 33.1484 7.3964 33.1484 7.3964 33.1711ZM7.37367 30.9664C7.37367 31.2846 7.71461 31.1937 7.91917 31.1482C8.28284 31.1028 8.62378 31.08 8.98745 31.08C9.6466 31.1028 10.283 31.1709 10.9194 31.3755L10.9422 31.3528C10.9422 31.3528 10.9422 31.3528 10.9422 31.33C10.9649 31.3073 10.9649 31.2846 10.9876 31.2619C10.9876 31.2619 10.9876 31.2619 10.9876 31.2391C10.9876 31.2391 10.9876 31.2164 11.0104 31.2164C11.0104 31.2164 11.0104 31.2164 11.0104 31.1937V31.1709C11.0331 31.1255 11.0331 31.08 11.0558 31.0346C11.0558 31.0118 11.0558 30.9891 11.0785 30.9664C10.874 30.8982 10.6467 30.8755 10.4649 30.83C10.0103 30.7391 9.55568 30.6709 9.1011 30.6482C8.64651 30.6254 8.26011 30.6254 7.85099 30.7845C7.69188 30.8982 7.53278 30.9437 7.37367 30.9664ZM10.5558 39.8081C10.7376 39.8762 10.9422 39.9444 11.1467 40.0126C11.0104 39.7399 10.8967 39.4444 10.8058 39.1489C10.5558 39.0125 10.3967 38.7852 10.2603 38.5352C10.0557 38.1716 9.89662 37.8079 9.73752 37.4215C9.53295 36.8987 9.41931 36.3759 9.41931 35.8532C9.39658 35.8077 9.37385 35.785 9.35112 35.7168C9.30566 35.6032 9.2602 35.535 9.21474 35.3986C9.16928 35.194 9.14655 34.9667 9.14655 34.7622C9.14655 34.3985 9.21474 33.9894 9.44203 33.7166C8.89653 33.7394 8.35103 33.7394 7.80553 33.7394C7.48732 33.7394 7.07819 33.7394 6.96455 33.3757C6.94182 33.2848 6.94181 33.1711 6.98727 33.0802C6.8509 33.0575 6.73726 32.9893 6.6918 32.8302C6.53269 32.3756 6.82817 31.921 7.21457 31.671C6.96454 31.5119 6.82817 31.2391 6.8509 30.9664C6.8509 30.8982 6.89636 30.83 6.91909 30.7845L6.89636 30.7618C6.8509 30.6936 6.87363 30.6027 6.94182 30.5573C7.10092 30.4663 7.28275 30.4436 7.44186 30.3527C7.64642 30.2618 7.85099 30.1709 8.05555 30.1027C8.51014 29.989 9.03291 30.0345 9.51022 30.1027C9.94208 30.1481 10.3967 30.239 10.8058 30.3527C10.8512 30.33 10.8967 30.2845 10.9422 30.2618C11.124 30.1481 11.3286 30.0345 11.5104 29.9663C11.8741 29.8299 12.3514 29.8526 12.7378 29.8981C13.1469 29.9436 13.5333 30.0572 13.897 30.2163C14.1015 30.3072 14.3061 30.4209 14.4879 30.5573C14.6925 30.6027 14.8743 30.6482 15.0789 30.7164C15.4426 30.8527 15.829 31.0346 16.1472 31.2619C16.4881 31.4892 16.7836 31.7619 17.0563 32.0574C17.2836 32.3301 17.6473 32.7393 17.6018 33.1257C17.6018 33.1938 17.5109 33.2393 17.4427 33.2393C17.5337 33.353 17.6246 33.4666 17.6928 33.5802C17.92 33.9212 18.1473 34.2621 18.3292 34.6031C18.511 34.944 18.761 35.3531 18.7156 35.7623C18.7156 35.8532 18.6247 35.8986 18.5565 35.8304C18.511 35.785 18.4656 35.7395 18.4201 35.6713C18.7156 36.2396 18.9656 36.8078 19.1474 37.4215C19.2838 37.8761 19.3975 38.3307 19.4656 38.7852C19.5338 39.2171 19.6247 39.7399 19.4656 40.149C19.4429 40.2399 19.352 40.2626 19.2611 40.2399C19.2838 40.3081 19.2838 40.3536 19.2838 40.4218C19.3065 40.5354 19.3065 40.6945 19.2383 40.7854C19.1929 40.8309 19.102 40.8763 19.0565 40.8081C19.0111 40.74 18.9883 40.6718 18.9883 40.6036C18.9883 40.6263 18.9656 40.6263 18.9656 40.649C18.7383 40.9218 18.4428 41.1491 18.1246 41.3082C19.102 41.3991 20.1021 41.4446 21.0794 41.4673C22.0568 41.49 23.1023 41.5355 24.0569 41.2173C24.4206 41.0809 24.7843 40.8763 25.0798 40.6036C25.3071 40.399 25.5116 40.149 25.6253 39.8535C25.5798 39.8081 25.5344 39.7626 25.5116 39.6944C25.4434 39.4899 25.5343 39.2398 25.5571 39.0125C25.5798 38.808 25.6025 38.6034 25.648 38.3988C25.6707 38.1943 25.6935 38.0125 25.7389 37.8079C25.7616 37.6033 25.8298 37.4215 25.8526 37.2169C25.8753 37.126 25.9435 37.0806 26.0117 37.0806C26.0117 36.9214 26.0117 36.7623 26.0117 36.5805C25.9662 35.7623 25.898 34.9667 25.9435 34.1485C25.9435 33.9439 26.1253 33.8757 26.2844 33.9212C26.2844 33.7393 26.2844 33.5348 26.2617 33.353C26.2162 32.7393 26.1935 32.1256 26.0799 31.5346C26.0344 31.2846 26.3753 31.1709 26.4662 31.3982C26.4662 31.2846 26.4662 31.1937 26.4662 31.08C26.4662 30.9209 26.4435 30.7618 26.4435 30.6027H26.4208C26.3299 30.5573 26.3299 30.4436 26.3299 30.3527C26.3299 30.2163 26.3526 30.1027 26.3981 29.989C26.3981 29.8981 26.3753 29.8299 26.3753 29.739C26.2844 29.8754 26.2162 30.0118 26.1253 30.1481C26.0799 30.239 26.0571 30.3072 26.0117 30.3981C25.9662 30.4891 25.9207 30.58 25.8298 30.6254C25.7616 30.6709 25.6707 30.6482 25.6253 30.6027C25.4889 30.4436 25.5343 30.1709 25.5798 29.989C25.648 29.7845 25.7389 29.6254 25.8753 29.4435C26.0117 29.2844 26.148 29.1253 26.3299 29.0117C26.4662 28.9207 26.6026 28.8526 26.6935 28.6935C26.739 28.6025 26.8526 28.6025 26.9208 28.6253C26.9208 28.6025 26.9436 28.5798 26.9436 28.5571C27.0572 28.3298 27.1709 28.1025 27.3072 27.8752C27.33 27.8525 27.33 27.8297 27.3527 27.8297C27.3754 27.6479 27.3981 27.4661 27.3981 27.307C27.3981 27.2161 27.4663 27.1251 27.58 27.1251C27.6709 27.1251 27.7618 27.2161 27.7618 27.307C27.7618 27.3979 27.7391 27.4661 27.7391 27.557C27.83 27.2615 27.8982 26.9888 27.9437 26.6933C28.0573 26.0341 28.1709 25.3977 28.1482 24.7158C28.1482 24.5567 28.421 24.5113 28.4437 24.6704C28.4664 24.8295 28.5119 24.9886 28.5346 25.125C28.6028 24.8068 28.6255 24.5113 28.6483 24.1931C28.6483 24.034 28.921 23.9658 28.9437 24.1476C28.9665 24.3067 28.9892 24.4431 28.9892 24.6022C29.0119 24.5113 29.0347 24.4204 29.0574 24.3294C29.0801 24.2158 29.1028 24.1249 29.1256 24.0112C28.9665 23.8067 29.0119 23.4657 29.0574 23.2157C29.0801 22.9202 29.1256 22.6475 29.171 22.352C29.2392 21.7838 29.2847 21.2155 29.1483 20.6473C29.1028 20.42 29.4211 20.3291 29.512 20.5564C29.6256 20.8973 29.6938 21.261 29.7165 21.6247C29.8075 21.6019 29.9211 21.6701 29.9211 21.7838C29.9211 21.8747 29.9211 21.9656 29.9438 22.0565C29.9666 21.8519 30.012 21.6701 30.0347 21.4655C30.1257 20.6018 30.1938 19.7154 30.1257 18.8517C30.1029 18.6699 30.3984 18.6244 30.4439 18.8062C30.4666 18.9426 30.5121 19.1017 30.5348 19.2381C30.5348 19.2154 30.5348 19.1926 30.5348 19.1699C30.5575 18.6699 30.5348 18.1925 30.4893 17.6925C30.3757 16.8288 30.0575 15.9651 29.4665 15.3059C29.3301 15.1695 29.5347 14.9877 29.6711 15.1014C29.6938 15.1241 29.7165 15.1468 29.7393 15.1695C29.6938 15.1014 29.6711 15.0332 29.6256 14.9423C29.3529 14.3968 29.0347 13.8512 28.671 13.3285C28.5573 13.1694 28.421 13.0103 28.3073 12.8512C28.2619 12.8512 28.2164 12.8512 28.1709 12.8057C27.83 12.5102 27.5573 12.1466 27.2163 11.8283C26.8754 11.5101 26.5117 11.2147 26.1253 10.9646C25.2843 10.3964 24.3524 10.01 23.3751 9.75998C21.3522 9.23721 19.1929 9.3054 17.17 9.78271C16.6245 9.89636 16.1017 10.0555 15.5789 10.2373C15.5335 10.26 15.488 10.26 15.4426 10.2828C15.4653 10.3737 15.4198 10.4873 15.3289 10.5328C15.1471 10.601 14.9652 10.6464 14.8061 10.7146C14.647 10.8055 14.4879 10.8737 14.3061 10.9646C13.9652 11.1465 13.6242 11.3283 13.3287 11.5556C13.1242 11.7147 12.9196 11.8738 12.7378 12.0784C12.7605 12.0784 12.806 12.1011 12.8287 12.1238C12.9423 12.192 12.9651 12.3511 12.8742 12.4193C12.7378 12.5557 12.6014 12.6466 12.465 12.783C12.3287 12.9421 12.215 13.1239 12.0786 13.283C11.8059 13.6467 11.5331 14.0104 11.3058 14.4195C11.1922 14.624 11.0558 14.8286 10.9422 15.0332L10.9649 15.0104C11.0558 14.965 11.2376 15.0332 11.2149 15.1468C11.2149 15.1923 11.1922 15.215 11.1922 15.2377C11.2376 15.215 11.2831 15.215 11.3058 15.1923C11.5786 15.0559 11.8513 14.9423 12.1241 14.8513C12.3059 14.7831 12.4196 15.0559 12.2605 15.1468C12.0332 15.2605 11.8286 15.4196 11.624 15.5559C11.5331 15.6241 11.4422 15.6923 11.3513 15.7605C11.2604 15.8514 11.1695 15.9196 11.0785 16.0105C10.8967 16.2151 10.7603 16.4878 10.6012 16.7379C10.7149 16.6697 10.8285 16.6242 10.9422 16.6015C11.1013 16.5788 11.1695 16.8061 11.0104 16.8515C10.874 16.897 10.8058 16.9652 10.7376 17.0788C10.6694 17.1924 10.5785 17.3061 10.4876 17.4197C10.3285 17.647 10.1694 17.8743 10.033 18.1016C10.0785 18.1016 10.1239 18.1243 10.1466 18.1698C10.1694 18.1471 10.1921 18.1016 10.2148 18.0789C10.4421 17.7607 10.7149 17.4879 11.0331 17.2379C11.3513 16.9879 11.715 16.8288 12.1014 16.7151C12.2377 16.6697 12.3287 16.8742 12.1923 16.9424C11.8513 17.1243 11.5559 17.3516 11.2604 17.6016C10.9649 17.8516 10.7149 18.1243 10.5103 18.4653C10.1921 19.0335 10.0103 19.8063 9.53295 20.2836C9.51022 20.3745 9.48749 20.4655 9.46477 20.5791C9.39658 20.92 9.32839 21.261 9.30566 21.6019C9.35112 21.6247 9.37385 21.6701 9.37385 21.7156C9.37385 21.8065 9.41931 21.8974 9.41931 21.9883C9.41931 22.0565 9.44203 22.1474 9.44203 22.2156C9.44203 22.3747 9.44203 22.5338 9.44203 22.7157C9.44203 22.8748 9.44204 23.0339 9.41931 23.2157C9.39658 23.3975 9.41931 23.5566 9.39658 23.7385C9.37385 23.8521 9.23747 23.943 9.12383 23.9658C9.01018 23.9885 8.8738 23.9203 8.80561 23.8067C8.76016 23.7157 8.73743 23.6021 8.73743 23.4885C8.7147 23.5339 8.66924 23.5794 8.64651 23.6021C8.35103 23.943 8.05555 24.284 7.76007 24.6249C7.51005 24.9431 7.26003 25.2613 7.05546 25.6023C7.01 25.6705 6.98727 25.7387 6.94182 25.8068C7.03273 25.8978 7.05546 26.0569 6.96455 26.1478C6.44177 26.7387 5.85081 27.3752 5.55533 28.1252C5.44169 28.3752 5.3735 28.648 5.30531 28.9207C5.44169 28.9435 5.5326 29.0799 5.46441 29.239C5.07802 30.0799 4.75981 30.9664 4.48705 31.8528C4.35068 32.2847 4.25976 32.7393 4.16885 33.1711C4.10066 33.4439 4.0552 33.7394 3.96428 33.9894C4.00974 34.0348 4.03247 34.103 4.03247 34.1712C4.4416 37.3533 7.91918 38.8762 10.5558 39.8081Z" fill="#563827"/>
</g>
</svg>
