<svg width="40" height="40" viewBox="0 0 40 40" fill="none" xmlns="http://www.w3.org/2000/svg">
<mask id="mask0_601_3394" style="mask-type:luminance" maskUnits="userSpaceOnUse" x="-1" y="0" width="43" height="41">
<path d="M20.58 40.44C32.2774 40.44 41.76 31.5676 41.76 20.6229C41.76 9.6783 32.2774 0.805908 20.58 0.805908C8.88263 0.805908 -0.599976 9.6783 -0.599976 20.6229C-0.599976 31.5676 8.88263 40.44 20.58 40.44Z" fill="white"/>
</mask>
<g mask="url(#mask0_601_3394)">
<path d="M9.26532 25.6855C9.09224 25.6206 8.89753 25.6422 8.72446 25.6638C8.52975 25.6855 8.33504 25.7071 8.16197 25.8153C8.03216 25.9018 7.88072 26.01 7.81582 26.1614C7.72928 26.3345 7.66437 26.5509 7.77254 26.7239C7.85908 26.8537 8.05379 26.897 8.16197 26.7672C8.20523 26.7239 8.22687 26.7023 8.2485 26.659C8.2485 26.6374 8.27014 26.6374 8.27014 26.6158C8.29177 26.5941 8.3134 26.5725 8.33504 26.5509C8.33504 26.5509 8.35667 26.5509 8.35667 26.5292C8.35667 26.5292 8.37831 26.5292 8.37831 26.5076C8.39994 26.5076 8.37831 26.5076 8.35667 26.5292C8.37831 26.5076 8.42158 26.4859 8.44321 26.4859C8.46484 26.4859 8.48648 26.4643 8.48648 26.4643C8.55138 26.4427 8.61629 26.421 8.68119 26.421C8.8759 26.3994 9.07061 26.4427 9.24368 26.3778C9.39512 26.3345 9.50329 26.2047 9.50329 26.0316C9.50329 25.8586 9.41676 25.7287 9.26532 25.6855Z" fill="#F9F7E2"/>
<path d="M9.54654 25.1446C9.41673 25.0797 9.24366 25.058 9.09221 25.1229C9.00568 25.1662 8.91914 25.2095 8.85424 25.296C8.81097 25.3609 8.8326 25.4474 8.89751 25.4907C8.96241 25.534 9.04895 25.534 9.09221 25.4691L9.11385 25.4474C9.11385 25.4474 9.11385 25.4474 9.13549 25.4258H9.15712C9.15712 25.4258 9.15712 25.4258 9.17875 25.4258C9.17875 25.4258 9.17876 25.4258 9.15712 25.4258C9.17876 25.4258 9.17875 25.4258 9.20039 25.4042C9.22202 25.4042 9.22202 25.4042 9.24366 25.4042C9.24366 25.4042 9.24366 25.4042 9.22202 25.4042H9.24366C9.26529 25.4042 9.26529 25.4042 9.24366 25.4042C9.26529 25.4042 9.26529 25.4042 9.28692 25.4258C9.28692 25.4258 9.28692 25.4258 9.30856 25.4258C9.33019 25.4258 9.3302 25.4474 9.35183 25.4474C9.37346 25.4691 9.41673 25.4691 9.43837 25.4907C9.43837 25.4907 9.46 25.4907 9.46 25.5123L9.48164 25.534C9.50327 25.5556 9.5249 25.5772 9.54654 25.5772C9.56817 25.5772 9.56817 25.5772 9.58981 25.5989C9.63308 25.6205 9.65471 25.5989 9.67634 25.5772C9.71961 25.534 9.74124 25.4907 9.74124 25.4474C9.74124 25.3825 9.71961 25.3609 9.69798 25.296C9.67635 25.2527 9.63307 25.1878 9.54654 25.1446Z" fill="#F9F7E2"/>
<path d="M16.7941 17.7889C16.5561 17.724 16.3397 17.8755 16.2099 18.0702C16.0585 18.2865 16.0369 18.5894 16.0369 18.849C16.0369 19.0221 16.0585 19.1735 16.145 19.325C16.1883 19.4115 16.2748 19.498 16.3614 19.5413C16.383 19.5413 16.383 19.5413 16.4047 19.5629C16.4696 19.6278 16.5561 19.6495 16.6426 19.6495C16.6643 19.6495 16.7075 19.6495 16.7292 19.6278C16.7941 19.6062 16.8373 19.5846 16.8806 19.5413C17.0537 19.3899 17.2051 19.1735 17.2484 18.9355C17.3133 18.6759 17.27 18.3947 17.1619 18.1567C17.0969 17.9836 16.9671 17.8322 16.7941 17.7889Z" fill="#F9F7E2"/>
<path d="M18.5248 16.7721C18.5031 16.7505 18.4599 16.7289 18.4382 16.7072C18.395 16.6856 18.3517 16.664 18.2868 16.6423C18.2219 16.6207 18.157 16.5991 18.1137 16.5774C18.0056 16.5342 17.8757 16.5125 17.7676 16.4693C17.508 16.4044 17.2051 16.3611 16.9238 16.4476C16.7508 16.5125 16.7075 16.7289 16.8806 16.837C16.9238 16.8587 16.9455 16.8803 17.0104 16.902C17.0104 16.902 17.0969 16.9236 17.032 16.9236C17.0969 16.9452 17.1618 16.9885 17.2483 17.0101C17.3565 17.0534 17.4863 17.075 17.5945 17.1183C17.7027 17.1616 17.8325 17.1832 17.9406 17.2265C17.9623 17.2265 17.9839 17.2481 18.0056 17.2481C18.0056 17.2481 18.0272 17.2697 18.0488 17.2697C18.0921 17.2914 18.1354 17.313 18.1786 17.313C18.2219 17.313 18.2652 17.3346 18.2868 17.3346C18.395 17.313 18.395 17.313 18.3301 17.3346C18.4382 17.3563 18.568 17.2481 18.6113 17.1399C18.6546 17.0318 18.6329 16.8803 18.5464 16.7938C18.5897 16.8587 18.568 16.8587 18.5248 16.7721Z" fill="#F9F7E2"/>
<path d="M19.3469 9.93567C19.2603 10.1087 19.1954 10.2818 19.1305 10.4549C19.1089 10.4765 19.0872 10.4765 19.0656 10.4982C18.7411 11.0174 18.568 11.6231 18.33 12.1856C18.1353 12.64 17.8541 13.0726 17.3781 13.2674C16.9455 13.4404 16.4695 13.4404 16.0368 13.3106C15.9719 13.289 15.8421 13.2457 15.8421 13.2025C15.8421 13.1592 15.9286 13.051 15.9719 13.0077C16.0152 12.9428 16.0584 12.8779 16.1017 12.813C16.2099 12.6616 16.3181 12.5102 16.4262 12.3587C16.4262 12.3803 16.4262 12.4236 16.4262 12.4452C16.4262 12.64 16.7507 12.7265 16.794 12.4885C16.8589 12.164 16.9887 11.8395 17.1402 11.5582C17.2916 11.2554 17.4863 10.9741 17.7243 10.7361C18.1786 10.2818 18.7411 10.0222 19.3469 9.93567Z" fill="#7A7A7A"/>
<path d="M16.5344 8.89715C16.8589 9.24329 17.1834 9.65435 17.6377 9.84906C17.6594 9.84906 17.6594 9.84906 17.681 9.87069C17.5296 9.97886 17.3998 10.1087 17.27 10.2385C17.032 10.4765 16.8589 10.7577 16.7075 11.0606C16.5128 11.212 16.318 11.3635 16.1017 11.4716C16.3829 10.8875 16.3397 10.1303 16.2531 9.52454C16.1882 9.09185 16.0801 8.6808 15.7988 8.35629C15.6474 8.18321 15.4743 8.03177 15.3012 7.88033C15.2796 7.8587 15.258 7.83706 15.2363 7.81543C15.7123 8.11831 16.145 8.50773 16.5344 8.89715Z" fill="#F9F7E2"/>
<path d="M14.6955 10.7577C14.5008 10.3683 14.3926 9.95726 14.3061 9.52457C14.1546 8.789 14.1979 8.0318 14.371 7.31787C14.4359 7.33951 14.5224 7.38277 14.5873 7.42604C14.5657 7.44768 14.5657 7.46931 14.5657 7.49095C14.5657 7.902 14.8902 8.20488 15.1498 8.48612C15.4311 8.76737 15.5609 9.07025 15.6258 9.45967C15.6691 9.80582 15.6474 10.1736 15.6258 10.5414C15.6041 10.8659 15.5176 11.1904 15.2796 11.4068C15.258 11.4284 15.2364 11.45 15.2147 11.4717C15.1498 11.4068 15.0633 11.3419 14.9984 11.277C14.8686 11.1039 14.782 10.9308 14.6955 10.7577Z" fill="#F9F7E2"/>
<path d="M36.2 33.9714C36.1567 34.1228 36.1135 34.2526 36.0486 34.4041C35.8539 34.5555 35.6591 34.7502 35.4861 34.9233C35.1183 35.3127 34.8154 35.7237 34.4909 36.1132C34.1015 36.5675 33.6688 36.9569 33.1496 37.2598C32.5871 37.6059 31.9813 37.8655 31.3756 38.1468C28.9092 39.2501 26.2915 40.0506 23.6305 40.5698C22.3757 40.8078 21.1209 40.916 19.8661 41.0891C19.9743 40.7862 19.9959 40.4184 20.0608 40.1371C20.1473 39.6612 20.2122 39.1636 20.2339 38.666C20.3204 37.6708 20.2771 36.6757 20.1906 35.6805C20.0175 33.6901 19.5848 31.7214 19.0656 29.7959C18.9358 29.2767 18.7627 28.7791 18.5897 28.2815C18.5031 28.0219 18.395 27.7623 18.2868 27.5243C18.2435 27.4162 18.1786 27.308 18.1354 27.1998C19.1305 26.6157 19.9094 25.7071 20.3637 24.6037C20.5151 24.2143 20.6233 23.8032 20.6882 23.3922C20.7315 22.9811 20.8396 22.4186 20.5368 22.0941C20.3853 21.9427 20.1257 21.986 20.0175 22.159C19.8445 22.4403 19.931 22.8513 19.8877 23.1758C19.8445 23.522 19.7579 23.8465 19.6498 24.171C19.4334 24.7984 19.0656 25.3825 18.6113 25.8369C18.0921 26.3561 17.4647 26.7239 16.7724 26.9402C15.907 27.2215 15.02 27.3945 14.1546 27.6325C13.6354 27.7623 13.1162 27.8921 12.597 28.0436C12.4239 28.0868 12.2508 28.1517 12.0777 28.195C11.5585 27.9354 10.9528 28.7791 10.6715 29.1253C10.2605 29.6229 9.89267 30.1205 9.24364 30.3152C8.61625 30.5099 7.72924 30.6613 7.16675 30.207C6.9504 30.0339 6.77733 29.8176 6.60425 29.6012C6.69079 29.6445 6.79896 29.6661 6.90713 29.6878C7.81577 29.9474 8.70279 29.8608 9.45999 29.2551C9.7845 28.9955 10.0657 28.6926 10.3686 28.3897C10.5417 28.2166 10.7148 28.0436 10.8879 27.8705C11.0826 27.6974 11.2773 27.4162 11.5152 27.2864C12.0345 27.0051 11.3205 26.2695 11.0177 26.7888C10.9095 26.9618 10.7148 27.1133 10.585 27.2431C10.4335 27.3945 10.2605 27.5676 10.109 27.719C9.84941 27.9787 9.58979 28.2599 9.28691 28.4762C9.00566 28.6926 8.68115 28.8873 8.35664 28.9955C7.98885 29.1036 7.59943 29.0604 7.23165 28.9738C6.86386 28.8657 6.49609 28.7142 6.1283 28.5628C5.82542 28.433 5.58744 28.3032 5.56581 27.957C5.52254 27.308 5.63071 26.6373 5.58744 25.9883C5.63071 25.9234 5.65234 25.8369 5.63071 25.7503C5.58744 25.5989 5.52254 25.4691 5.50091 25.3393C5.47927 25.2095 5.47927 25.0797 5.50091 24.9499C5.56581 24.647 5.71725 24.409 5.95522 24.2143C6.17157 24.0196 6.43118 23.8898 6.69079 23.7383C6.79896 23.7383 6.8855 23.6734 6.97204 23.5869C7.75088 22.5052 8.55134 21.4235 9.30854 20.3417C10.0225 19.3249 10.823 18.3298 11.4287 17.248C11.6883 16.7721 11.9047 16.2529 12.0128 15.712C12.121 15.1711 12.0345 14.5437 12.4239 14.1111C12.7484 13.7433 13.2244 13.4837 13.657 13.2457C14.0681 13.0293 14.5224 12.8346 14.9335 12.6399C15.3662 12.4452 15.8854 12.2072 16.3181 11.926C16.1666 12.0991 16.0152 12.2505 15.8637 12.4236C15.6907 12.6183 15.4527 12.8563 15.3878 13.0942C15.2364 13.6351 16.0585 13.8731 16.4479 13.938C16.9455 14.0029 17.4647 13.938 17.8974 13.6784C18.2003 13.5053 18.4166 13.2673 18.5897 12.9861C18.5897 13.1159 18.5897 13.2457 18.5897 13.3755C18.5897 13.5918 18.9358 13.6567 18.9791 13.4188C19.3036 11.8178 19.8012 10.3034 20.6666 8.91882C20.9694 9.30824 21.2074 9.74093 21.4238 10.1736C21.705 10.7361 22.0079 11.3202 22.1377 11.9476C22.354 12.9861 21.8348 14.0894 20.9478 14.6519C20.4935 14.9548 20.9045 15.6687 21.3805 15.3875C22.0728 14.9764 22.5704 14.3274 22.8084 13.5918C22.8516 13.7 22.9165 13.7865 22.9814 13.8731C23.0463 13.9596 23.1545 14.0462 23.2627 14.0894C23.6737 14.6303 24.1281 15.1279 24.5607 15.6471C25.1232 16.2961 25.6857 16.9668 26.2482 17.6375C27.3948 18.9788 28.5415 20.3417 29.6664 21.7263C30.7698 23.0893 31.8299 24.4955 32.8683 25.9018C33.8635 27.2647 34.902 28.6277 35.6592 30.1421C36.0486 30.9209 36.3082 31.7647 36.3298 32.6517C36.3298 33.1493 36.3082 33.5603 36.2 33.9714Z" fill="#F9F7E2"/>
<path d="M37.1736 33.2141C37.2168 32.4569 37.1086 31.6781 36.8707 30.9642C36.3298 29.2983 35.2481 27.8921 34.2313 26.4858C32.0895 23.5652 29.753 20.7744 27.3516 18.0701C26.6809 17.3129 25.9886 16.5341 25.3179 15.7769C24.6256 15.0197 23.955 14.2192 23.1978 13.5485C23.1978 13.5269 23.1978 13.5269 23.1761 13.5053C23.1761 13.462 23.1761 13.4404 23.1545 13.3971C23.1329 13.3538 23.0896 13.3105 23.0463 13.2889C23.0247 13.2673 22.9598 13.2673 22.9165 13.2673C23.0031 12.8779 23.0031 12.4884 22.9382 12.099C22.8516 11.5582 22.6136 11.0389 22.3757 10.563C22.8084 10.974 23.2627 11.3635 23.7603 11.7096C23.9766 11.861 24.193 12.0125 24.4093 12.1423C24.5824 12.2505 24.7771 12.3586 24.9069 12.5101C25.2314 12.9211 24.9285 13.5269 24.7122 13.9163C24.604 14.111 24.8204 14.3057 25.0151 14.2192C25.3612 14.0461 25.7074 13.8947 26.0535 13.7432C27.265 15.3658 28.4549 16.9667 29.7746 18.4811C30.4669 19.2816 31.1592 20.0605 31.8731 20.8609C32.4789 21.5316 33.063 22.1806 33.5606 22.9162C34.1231 23.7167 34.5558 24.6253 34.6207 25.5988C34.6423 25.8801 34.9019 26.0099 35.1616 25.9017C35.3995 25.7936 35.6591 26.0099 35.789 26.2046C35.962 26.4642 36.0486 26.7671 36.1567 27.0483C36.3947 27.6325 36.676 28.1733 37.0005 28.7142C37.5846 29.6228 38.3202 30.4233 39.1423 31.1156C38.4716 31.8079 37.8226 32.5218 37.1736 33.2141Z" fill="#7A7A7A"/>
<path d="M27.0054 38.7958C26.0319 38.7092 24.9934 38.6443 24.193 38.0386C23.479 37.4977 23.0463 36.6323 22.7002 35.8319C21.8132 33.8199 20.9911 31.743 20.407 29.6228C20.1041 28.5195 19.8877 27.3729 19.7147 26.2262C20.1906 25.8801 20.6233 25.469 20.9694 24.9714C21.7483 23.8681 21.943 22.3753 21.3805 21.1422C21.1425 20.6446 20.5151 19.671 19.9094 20.2768C19.693 20.4931 19.6065 20.8177 19.5199 21.0989C19.4334 21.3369 19.3469 21.5749 19.2603 21.8345C19.044 22.0941 18.8709 22.3753 18.7195 22.6566C18.5464 23.0027 18.395 23.3705 18.2651 23.7383C18.2219 23.8681 18.1786 24.0195 18.1353 24.171C17.7027 24.82 17.1834 25.4041 16.5128 25.8801C15.0416 26.9185 13.2676 27.5892 11.5369 28.1301C11.2556 28.2166 11.3638 28.6276 11.6667 28.5844C12.7917 28.3897 13.8518 28.0435 14.8902 27.5892C15.2147 28.0868 16.3613 27.6541 16.7507 27.4594C16.8589 27.3945 16.9887 27.3296 17.0969 27.2647C17.1834 27.3512 17.3132 27.3945 17.4863 27.3512C17.508 27.3512 17.5512 27.3296 17.5729 27.3296C17.5945 27.3729 17.6161 27.4378 17.6378 27.481C17.7676 27.719 17.8757 27.9353 18.0055 28.1733C18.4599 29.1252 18.8493 30.1204 19.1522 31.1372C19.7579 33.1925 20.0175 35.291 19.9094 37.4328C19.8445 38.6227 19.693 39.8342 19.3685 40.9808C19.3036 41.2188 19.4983 41.5001 19.7579 41.5001C21.056 41.4135 22.354 41.2188 23.6305 40.9592C24.8853 40.678 26.1184 40.2669 27.265 39.6395C27.6112 39.3583 27.3948 38.8174 27.0054 38.7958Z" fill="#E0DCC3"/>
<path d="M22.1377 11.3201C22.0512 10.9091 21.8564 10.5413 21.6834 10.1519C21.5968 9.93555 21.4887 9.74084 21.4021 9.5245C21.3156 9.32979 21.2507 9.13508 21.056 9.02691C20.6233 8.78893 20.2122 9.24325 20.0175 9.56777C19.8228 9.89228 19.7146 10.2817 19.5848 10.6495C19.4334 11.1038 19.282 11.5365 19.1305 11.9908C19.044 12.2072 18.9791 12.4451 18.8925 12.6615C18.806 12.9211 18.7195 13.1158 18.8493 13.3754C18.9358 13.5701 19.1738 13.5918 19.3469 13.5052C19.5632 13.397 19.6065 13.224 19.6714 13.0076L19.8445 12.4668C19.9526 12.1206 20.0824 11.7745 20.1906 11.4283C20.2988 11.0822 20.4069 10.7577 20.5367 10.4115C20.58 10.3033 20.6233 10.1735 20.6882 10.0654C20.6882 10.087 20.7098 10.1086 20.7098 10.1303C20.7964 10.3033 20.8829 10.498 20.9694 10.6711C21.1209 10.974 21.2507 11.2985 21.3589 11.623C21.5968 12.3153 21.4454 13.1374 21.294 13.8297C21.229 14.111 21.5968 14.1975 21.705 13.9379C21.8781 13.5268 22.0944 13.0942 22.1593 12.6615C22.2459 12.2072 22.2459 11.7745 22.1377 11.3201Z" fill="#E0DCC3"/>
<path d="M27.7843 19.3031C27.8059 19.1733 27.8059 19.0219 27.7843 18.8921C27.7194 18.5027 27.3516 18.2214 26.9622 18.4161C26.7891 18.5027 26.8756 18.8055 27.0703 18.7839C27.3949 18.7623 26.9838 19.9089 26.9405 20.082C26.8107 20.5146 26.6809 20.9257 26.5079 21.3368C26.1833 22.1805 25.7939 23.0026 25.3396 23.8031C24.431 25.3824 23.306 26.8102 21.9646 28.065C21.6185 28.3895 22.0512 28.9088 22.4622 28.7141C25.0367 27.416 26.9838 24.9497 27.7194 22.1589C27.9357 21.3584 28.0439 20.5363 28.0655 19.6925C28.0439 19.4978 27.9357 19.368 27.7843 19.3031Z" fill="#7A7A7A"/>
<path d="M25.318 27.0699C24.5391 27.892 23.6738 28.6276 22.7219 29.255C21.7699 29.8824 20.7531 30.38 19.7147 30.8343C19.52 30.9209 19.5416 31.1372 19.6498 31.267C19.4983 31.4617 19.4334 31.6997 19.4983 32.0026C19.52 32.0675 19.5416 32.1324 19.6065 32.1756C19.5633 32.2189 19.4983 32.2405 19.4551 32.2838C19.0873 32.5434 19.3036 33.2357 19.7796 33.0627C21.1858 32.6083 22.419 31.7862 23.544 30.8127C24.0848 30.3367 24.5824 29.8391 25.0584 29.2983C25.556 28.7358 25.967 28.1084 26.0319 27.3512C26.0103 27.005 25.5343 26.832 25.318 27.0699Z" fill="#7A7A7A"/>
<path d="M14.9118 13.2024C14.7387 13.2673 14.5873 13.3538 14.4575 13.4404C13.9816 13.3971 13.5056 13.8514 13.3109 14.2625C13.1594 14.6086 13.0513 14.9764 12.9431 15.3442C12.8133 15.712 12.6835 16.0798 12.532 16.4259C12.2292 17.1399 11.883 17.8322 11.472 18.5028C11.0825 19.1302 10.6282 19.7792 10.5201 20.5364C10.4552 20.9908 10.9527 21.2071 11.234 20.8393C12.0777 19.736 12.6619 18.5028 13.2676 17.2697C13.5705 16.6423 13.8517 16.0149 14.1546 15.4091C14.3061 15.1279 14.4359 14.825 14.6089 14.5437C14.782 14.2625 15.0416 14.0678 15.2796 13.8514C15.5609 13.5918 15.2796 13.0942 14.9118 13.2024Z" fill="#7A7A7A"/>
<path d="M16.0368 14.0461C15.8854 13.9163 15.6691 13.9379 15.5176 14.0677C15.3662 14.0461 15.2364 14.1326 15.1498 14.2408C14.9768 14.4788 14.847 14.76 14.7171 15.0196V15.0413C14.5657 15.2792 14.4359 15.5172 14.3061 15.7768C14.3061 15.7768 14.3061 15.7985 14.2845 15.7985C14.2628 15.8201 14.2628 15.8634 14.2412 15.885C14.2196 15.9499 14.2196 16.0364 14.2412 16.1013C14.2196 16.1446 14.1979 16.1662 14.1979 16.2095C14.1114 16.4258 14.0898 16.6422 14.133 16.8802C14.1763 17.1398 14.5873 17.248 14.7388 17.0532C15.0417 16.6855 15.2796 16.2311 15.5176 15.7985C15.7556 15.3874 15.9719 14.9547 16.1667 14.522C16.2316 14.3706 16.2099 14.1759 16.0368 14.0461Z" fill="#7A7A7A"/>
<path d="M18.4382 13.5269C18.3517 13.4403 18.1786 13.3754 18.0488 13.4187C17.9623 13.4619 17.8757 13.4836 17.8108 13.5701C17.7676 13.6134 17.7243 13.6783 17.681 13.7216C17.5945 13.8297 17.5079 13.9379 17.4214 14.0461C17.27 14.2408 17.1402 14.4355 16.9887 14.6302C16.7075 15.0196 16.4911 15.4523 16.2531 15.885C16.145 16.0797 16.4046 16.296 16.5777 16.123C16.9022 15.7768 17.2483 15.4523 17.5728 15.1062C17.7243 14.9331 17.8757 14.76 18.0488 14.5869C18.1353 14.5004 18.2002 14.4139 18.2651 14.3273C18.3733 14.1975 18.5248 14.0677 18.5464 13.9163C18.568 13.7648 18.5464 13.6134 18.4382 13.5269Z" fill="#7A7A7A"/>
<path d="M26.6809 17.8969C26.443 17.7888 26.1184 17.9186 26.1401 18.2214C26.1617 18.6541 26.0535 19.0435 25.9021 19.4546C25.729 19.9089 25.5559 20.3632 25.3829 20.8176C25.2098 21.2502 25.0584 21.7046 24.8853 22.1373C24.7122 22.5916 24.5824 23.0675 24.4093 23.5002C24.3228 23.6949 24.6257 23.8031 24.7338 23.6517C25.0367 23.1973 25.3396 22.7646 25.5776 22.2671C25.8156 21.7911 26.0319 21.2935 26.2266 20.7743C26.4213 20.2767 26.6377 19.7791 26.7891 19.2599C26.9189 18.9137 27.1353 18.1349 26.6809 17.8969Z" fill="#7A7A7A"/>
<path d="M25.8372 16.8153C25.7939 16.7287 25.7506 16.6638 25.6857 16.5989C25.6857 16.5773 25.6857 16.5556 25.6857 16.534C25.6857 16.0148 25.0151 16.0148 24.8636 16.4258C24.1713 18.1349 23.4141 19.7792 22.3541 21.3152C22.2675 21.445 22.2675 21.5964 22.3541 21.7262C22.2892 21.856 22.2243 21.9859 22.1377 22.094C21.943 22.4185 22.3973 22.7863 22.6786 22.5051C23.1329 22.0508 23.5223 21.5099 23.8901 20.9907C24.2579 20.4715 24.6257 19.9306 24.9502 19.3681C25.2747 18.8272 25.5992 18.2648 25.8372 17.7023C25.9237 17.421 25.967 17.0965 25.8372 16.8153Z" fill="#7A7A7A"/>
<path d="M24.3444 15.885C24.3011 15.4956 24.1497 14.9114 23.6521 14.9331C23.3492 14.9331 23.1545 15.3225 23.3925 15.5605C23.4357 15.5821 23.4574 15.6254 23.479 15.6686C23.479 15.6686 23.5006 15.6686 23.5006 15.6903C23.5006 15.7119 23.5007 15.7119 23.5223 15.7335C23.5439 15.7985 23.5655 15.8634 23.5655 15.9283C23.5655 15.9499 23.5655 15.9932 23.5655 16.0148C23.5223 16.4475 23.3276 16.8802 23.1545 17.2912C22.9165 17.8321 22.6785 18.3729 22.4406 18.9138C22.354 19.0869 22.3757 19.2816 22.5271 19.3897C22.6569 19.4979 22.8949 19.4979 23.0031 19.3681C23.5223 18.7191 23.9117 17.9186 24.1497 17.1398C24.3228 16.7071 24.4093 16.296 24.3444 15.885Z" fill="#7A7A7A"/>
<path d="M31.289 24.0844C31.289 23.9979 31.2674 23.9113 31.2241 23.8032C31.0727 23.4786 30.8347 23.1974 30.5535 22.9378C30.3804 22.6998 30.2073 22.4618 30.0342 22.2022C29.991 22.1373 29.9477 22.094 29.8828 22.0724C29.8828 21.8128 29.4501 21.7479 29.3852 22.0291C29.3852 22.0508 29.3852 22.0724 29.3636 22.094C29.2554 22.094 29.1689 22.1157 29.0823 22.1373C29.0607 22.1373 29.0391 22.1157 29.0174 22.1157C28.7145 22.0291 28.3684 22.3969 28.5847 22.6782C28.6064 22.7214 28.628 22.7431 28.6713 22.7863C28.6713 22.808 28.6496 22.8512 28.6496 22.8729C28.5198 23.6301 28.3251 24.3657 28.1088 25.1229C28.0655 25.2527 28.0222 25.3825 27.979 25.5123C27.1785 26.9618 26.2915 28.368 25.7723 29.9257C25.6641 30.2286 25.967 30.4233 26.2266 30.38C26.6376 30.3151 26.9838 29.9906 27.3083 29.7093C27.6545 29.4281 27.979 29.1252 28.2819 28.8007C28.9093 28.1517 29.4934 27.481 30.0342 26.7671C30.3155 26.4209 30.5967 26.0531 30.8563 25.707C31.1159 25.3608 31.3539 24.9714 31.3539 24.5387C31.3756 24.3873 31.3323 24.2358 31.289 24.0844Z" fill="#7A7A7A"/>
<path d="M29.4069 28.7574C26.8756 31.5482 23.5656 33.5169 19.9743 34.577C19.7363 34.6419 19.6931 34.9015 19.8012 35.0746L19.7796 35.0963C19.6714 35.2693 19.6931 35.5073 19.8229 35.6587C19.7796 36.6107 19.8878 37.9304 21.0344 37.6058C21.5536 37.4544 22.0512 37.2164 22.5271 36.9784C23.0247 36.7188 23.5007 36.4592 23.9767 36.1563C24.8637 35.5722 25.729 34.9232 26.5511 34.2525C27.33 33.6035 28.0655 32.9112 28.6713 32.1107C29.342 31.2453 29.8828 30.2502 30.0775 29.1468C30.1424 28.779 29.6881 28.4329 29.4069 28.7574Z" fill="#7A7A7A"/>
<path d="M12.0345 26.7453C11.9263 26.3127 11.8398 25.8583 11.6451 25.4473C11.2989 24.6684 10.6066 24.106 9.84941 23.7814C9.39508 23.5867 8.94077 23.5002 8.46481 23.4353C8.16193 23.392 7.81578 23.3704 7.49127 23.392C7.36146 23.3488 7.23166 23.3488 7.10185 23.3488C6.7557 23.392 6.40955 23.5002 6.12831 23.6949C5.45764 24.1709 5.2413 24.9064 5.26293 25.7069C5.26293 26.2045 5.3062 26.6804 5.3062 27.178C5.32783 27.6324 5.3062 28.0867 5.3711 28.541C5.41437 28.8871 5.52254 29.2549 5.80379 29.4713C6.0634 29.666 6.47445 29.5794 6.64753 29.8823C6.84224 30.2068 6.95041 30.5097 7.29656 30.6828C7.64271 30.8559 8.03212 30.8775 8.42154 30.8126C9.24364 30.6828 9.97921 30.2717 10.6282 29.7741C10.9528 29.5362 11.2556 29.2766 11.5585 28.9953C11.8614 28.7357 12.1643 28.4761 12.2292 28.065C12.3157 27.654 12.1426 27.178 12.0345 26.7453Z" fill="#7A7A7A"/>
<path d="M19.1522 23.3921C19.044 22.4402 18.6762 21.4017 17.7892 20.9258C17.5729 20.8176 17.2267 21.0123 17.3349 21.2719C17.6594 22.1373 17.8541 23.0243 17.919 23.9546C17.9407 24.4089 17.919 24.8632 17.8757 25.3175C17.8541 25.5555 17.8325 25.8151 17.7676 26.0747C17.7027 26.118 17.6594 26.2045 17.6378 26.3127C17.6378 26.356 17.6161 26.3992 17.6378 26.4425C17.6161 26.4858 17.5729 26.529 17.5296 26.5723C17.3782 26.7454 17.6161 26.9617 17.7676 26.8103C17.7892 26.7887 17.8108 26.767 17.8325 26.7454C17.9839 26.8103 18.2003 26.7887 18.3301 26.594C18.9575 25.6637 19.2603 24.5171 19.1522 23.3921Z" fill="#7A7A7A"/>
<path d="M17.3998 23.3272C17.3565 23.0676 17.0104 23.1541 16.9887 23.3921C16.9455 23.7599 16.9022 24.1277 16.9022 24.5171C16.9022 24.8632 16.9022 25.2094 16.8589 25.5339C16.8157 25.9666 16.621 26.6156 16.1883 26.832C16.1666 26.832 16.1666 26.832 16.145 26.832C15.8421 26.8969 15.7556 27.2863 15.9719 27.5026C16.1883 27.719 16.4695 27.6324 16.6859 27.481C17.0536 27.1997 17.3349 26.8103 17.4647 26.3776C17.7892 25.3608 17.5512 24.3008 17.3998 23.3272Z" fill="#7A7A7A"/>
<path d="M15.7772 24.2142C15.7556 24.0194 15.6258 23.8247 15.3878 23.8247C15.3445 23.7598 15.3012 23.7166 15.258 23.6733C15.1714 23.5868 14.9984 23.6084 14.9551 23.7598C14.8902 24.0627 14.9767 24.3656 14.9767 24.6685C14.9984 24.9714 14.9984 25.2526 14.9984 25.5555C14.9767 26.1396 14.8469 26.7237 14.6306 27.2646C14.5657 27.4377 14.5657 27.6107 14.6955 27.7405C14.8253 27.8704 15.02 27.892 15.1714 27.8055C15.7123 27.5026 15.7123 26.7454 15.7556 26.2045C15.8205 25.5555 15.8205 24.8848 15.7772 24.2142Z" fill="#7A7A7A"/>
<path d="M31.2458 23.5219C31.2458 23.5436 31.2458 23.5436 31.2458 23.5219V23.4138C31.2458 23.4787 31.2458 23.457 31.2458 23.3921C31.2458 23.3489 31.2241 23.284 31.2025 23.2407C31.0511 22.9811 30.7914 22.7431 30.5751 22.5268C30.3588 22.2888 30.1208 22.0724 29.9044 21.8345C29.6881 21.6181 29.4501 21.4018 29.1689 21.272C29.0174 21.2071 28.866 21.2071 28.7362 21.2936C28.628 21.3801 28.5415 21.5532 28.5847 21.7047C28.6064 21.7479 28.6064 21.7696 28.6064 21.7263C28.6064 21.7479 28.6064 21.7479 28.6064 21.7696C28.6064 21.8128 28.628 21.8777 28.628 21.921C28.628 22.0075 28.6496 22.0941 28.6496 22.1806C28.6713 22.3753 28.6929 22.5268 28.7146 22.7215C28.7362 22.9162 28.7578 23.0893 28.8011 23.284C28.8444 23.457 28.8876 23.6301 28.9093 23.8248C28.9309 24.0628 29.277 24.0628 29.277 23.8248C29.2987 23.457 29.3852 23.1109 29.3852 22.7431C29.3852 22.6566 29.3852 22.57 29.3852 22.4835C29.515 22.6133 29.6232 22.7431 29.753 22.8729C29.9261 23.046 30.0991 23.2191 30.2506 23.3921C30.2939 23.4354 30.3371 23.4787 30.3588 23.5219C30.3804 23.5436 30.402 23.5652 30.4237 23.5868C30.4237 23.5868 30.4453 23.6085 30.4453 23.6301C30.4669 23.6517 30.4886 23.695 30.5102 23.7167C30.5318 23.7599 30.5751 23.7816 30.6184 23.8032C30.6616 23.8248 30.7049 23.8465 30.7482 23.8681C30.878 23.9763 31.0727 24.0195 31.1809 23.8465C31.2241 23.7816 31.2458 23.7383 31.2458 23.6517C31.2458 23.6085 31.2458 23.5652 31.2458 23.5219Z" fill="#7A7A7A"/>
<path d="M33.9284 27.6757C33.777 27.1132 33.5606 26.6589 33.2145 26.2046C33.1929 26.1829 33.1712 26.1613 33.1496 26.1397C32.9981 25.9449 32.7602 26.0098 32.6304 26.1613C32.414 26.2046 32.2193 26.4642 32.3708 26.7021C32.4573 26.832 32.5438 26.9401 32.6304 27.0483C32.5006 27.8488 32.0246 28.6492 31.5919 29.2983C31.3323 29.7093 31.0511 30.0987 30.7698 30.4882C30.4669 30.9425 30.2073 31.4184 29.9044 31.8727C29.7314 32.1324 30.1208 32.3487 30.2939 32.1107C31.0078 31.1588 31.7434 30.2069 32.4789 29.2766C32.652 29.0603 32.8467 28.8439 33.0198 28.606C33.1712 28.4113 33.3659 28.2165 33.4741 28.0002V27.9786C33.7121 28.0867 33.9933 27.9137 33.9284 27.6757Z" fill="#7A7A7A"/>
<path d="M22.6353 25.8367C22.0944 26.356 21.5103 26.8536 20.9262 27.3295C20.6449 27.5459 20.3637 27.7838 20.0608 28.0002C19.7579 28.2165 19.3901 28.4329 19.1089 28.6925C19.0223 28.779 18.9791 28.9305 19.0223 29.0603C19.0223 29.0819 19.0223 29.0819 19.044 29.1035C19.1305 29.3199 19.4334 29.4713 19.6281 29.255C19.693 29.1901 19.7579 29.1468 19.8445 29.0819C20.0175 28.9954 20.169 28.9305 20.3204 28.8439C20.7315 28.6276 21.1209 28.368 21.4887 28.0867C22.1593 27.5891 22.7435 26.9617 23.068 26.1829C23.1545 25.9017 22.8516 25.6204 22.6353 25.8367Z" fill="#7A7A7A"/>
<path d="M34.9885 24.993C34.7722 25.0146 34.7289 24.7766 34.6856 24.6252C34.6207 24.4088 34.5775 24.1709 34.4909 23.9762C34.3178 23.5651 34.0366 23.219 33.7337 22.9161C33.063 22.2021 32.3491 21.5315 31.7001 20.7743C31.0511 20.0171 30.4237 19.2382 29.8395 18.4378C29.2338 17.6157 28.7146 16.7503 28.1304 15.9282C27.8275 15.4955 27.503 15.0628 27.1136 14.6734C26.7458 14.284 26.3348 13.8729 25.8372 13.6133C25.7723 13.57 25.6641 13.6566 25.7074 13.7431C25.9886 14.1542 26.3564 14.522 26.6593 14.9114C26.9838 15.3224 27.2867 15.7551 27.5896 16.1878C28.1737 17.0532 28.7146 17.9402 29.3419 18.7839C29.9477 19.606 30.5751 20.4065 31.2241 21.1637C31.8948 21.9209 32.6087 22.6348 33.2794 23.392C33.6472 23.8031 33.8635 24.2141 33.9717 24.755C34.0799 25.2526 34.3827 25.7934 34.9669 25.7285C35.4645 25.6853 35.4645 24.9497 34.9885 24.993Z" fill="#919191"/>
<path d="M9.26526 25.6854C9.09218 25.6205 8.89747 25.6421 8.7244 25.6637C8.52969 25.6854 8.33498 25.707 8.16191 25.8152C8.0321 25.9017 7.88066 26.0099 7.81575 26.1613C7.72922 26.3344 7.66431 26.5507 7.77248 26.7238C7.85902 26.8536 8.05373 26.8969 8.16191 26.7671C8.20517 26.7238 8.22681 26.7022 8.24844 26.6589C8.24844 26.6373 8.27008 26.6373 8.27008 26.6156C8.29171 26.594 8.31334 26.5724 8.33498 26.5507C8.33498 26.5507 8.35661 26.5507 8.35661 26.5291C8.35661 26.5291 8.37825 26.5291 8.37825 26.5075C8.39988 26.5075 8.37825 26.5075 8.35661 26.5291C8.37825 26.5075 8.42151 26.4858 8.44315 26.4858C8.46478 26.4858 8.48642 26.4642 8.48642 26.4642C8.55132 26.4426 8.61622 26.4209 8.68113 26.4209C8.87584 26.3993 9.07055 26.4426 9.24362 26.3777C9.39506 26.3344 9.50323 26.2046 9.50323 26.0315C9.50323 25.8584 9.4167 25.7286 9.26526 25.6854Z" fill="#563827"/>
<path d="M9.54654 25.1444C9.41673 25.0795 9.24366 25.0579 9.09221 25.1228C9.00568 25.1661 8.91914 25.2093 8.85424 25.2959C8.81097 25.3608 8.8326 25.4473 8.89751 25.4906C8.96241 25.5339 9.04895 25.5339 9.09221 25.469L9.11385 25.4473C9.11385 25.4473 9.11385 25.4473 9.13549 25.4257H9.15712C9.15712 25.4257 9.15712 25.4257 9.17875 25.4257C9.17875 25.4257 9.17876 25.4257 9.15712 25.4257C9.17876 25.4257 9.17875 25.4257 9.20039 25.4041C9.22202 25.4041 9.22202 25.4041 9.24366 25.4041C9.24366 25.4041 9.24366 25.4041 9.22202 25.4041H9.24366C9.26529 25.4041 9.26529 25.4041 9.24366 25.4041C9.26529 25.4041 9.26529 25.4041 9.28692 25.4257C9.28692 25.4257 9.28692 25.4257 9.30856 25.4257C9.33019 25.4257 9.3302 25.4473 9.35183 25.4473C9.37346 25.469 9.41673 25.469 9.43837 25.4906C9.43837 25.4906 9.46 25.4906 9.46 25.5122L9.48164 25.5339C9.50327 25.5555 9.5249 25.5771 9.54654 25.5771C9.56817 25.5771 9.56817 25.5771 9.58981 25.5988C9.63308 25.6204 9.65471 25.5988 9.67634 25.5771C9.71961 25.5339 9.74124 25.4906 9.74124 25.4473C9.74124 25.3824 9.71961 25.3608 9.69798 25.2959C9.67635 25.2526 9.63307 25.1877 9.54654 25.1444Z" fill="#563827"/>
<path d="M16.794 17.7888C16.556 17.7239 16.3397 17.8753 16.2099 18.0701C16.0584 18.2864 16.0368 18.5893 16.0368 18.8489C16.0368 19.022 16.0584 19.1734 16.145 19.3248C16.1882 19.4114 16.2748 19.4979 16.3613 19.5412C16.383 19.5412 16.383 19.5412 16.4046 19.5628C16.4695 19.6277 16.556 19.6494 16.6426 19.6494C16.6642 19.6494 16.7075 19.6494 16.7291 19.6277C16.794 19.6061 16.8373 19.5845 16.8805 19.5412C17.0536 19.3897 17.2051 19.1734 17.2483 18.9354C17.3132 18.6758 17.27 18.3946 17.1618 18.1566C17.0969 17.9835 16.9671 17.8321 16.794 17.7888Z" fill="#563827"/>
<path d="M18.5248 16.7719C18.5031 16.7503 18.4599 16.7286 18.4382 16.707C18.395 16.6854 18.3517 16.6637 18.2868 16.6421C18.2219 16.6205 18.157 16.5988 18.1137 16.5772C18.0056 16.5339 17.8757 16.5123 17.7676 16.469C17.508 16.4041 17.2051 16.3608 16.9238 16.4474C16.7508 16.5123 16.7075 16.7286 16.8806 16.8368C16.9238 16.8584 16.9455 16.8801 17.0104 16.9017C17.0104 16.9017 17.0969 16.9233 17.032 16.9233C17.0969 16.945 17.1618 16.9882 17.2483 17.0099C17.3565 17.0531 17.4863 17.0748 17.5945 17.118C17.7027 17.1613 17.8325 17.183 17.9406 17.2262C17.9623 17.2262 17.9839 17.2479 18.0056 17.2479C18.0056 17.2479 18.0272 17.2695 18.0488 17.2695C18.0921 17.2911 18.1354 17.3128 18.1786 17.3128C18.2219 17.3128 18.2652 17.3344 18.2868 17.3344C18.395 17.3128 18.395 17.3128 18.3301 17.3344C18.4382 17.356 18.568 17.2479 18.6113 17.1397C18.6546 17.0315 18.6329 16.8801 18.5464 16.7935C18.5897 16.8584 18.568 16.8584 18.5248 16.7719Z" fill="#563827"/>
<path d="M39.9211 30.7262C38.8394 29.9257 37.9524 28.8656 37.3034 27.719C37.1519 27.4378 37.0005 27.1565 36.8707 26.8536C36.7192 26.5291 36.6111 26.183 36.4164 25.8801C36.1567 25.469 35.7241 25.1878 35.2697 25.1878C35.0101 23.5219 33.8851 22.2023 32.7602 20.9907C31.3107 19.4547 29.9477 17.8754 28.6064 16.2528C27.8275 15.3009 27.0487 14.3274 26.3131 13.3322C26.2266 13.224 26.1184 13.2024 26.0103 13.2456C25.8155 13.3322 25.5992 13.4404 25.4045 13.5269C25.5127 13.2673 25.5776 12.986 25.5343 12.7048C25.4478 12.1639 24.9934 11.926 24.5607 11.6663C23.6305 11.0822 22.7218 10.4115 21.8997 9.67598C21.5968 9.13512 21.2507 8.63754 20.818 8.20485C20.6666 8.05341 20.407 8.09668 20.2988 8.26975C20.0824 8.57263 19.8661 8.91878 19.693 9.2433C19.6281 9.20003 19.5632 9.15676 19.4767 9.15676C19.1305 9.17839 18.806 9.26493 18.4815 9.39474C18.1354 9.41637 17.8325 9.22166 17.5945 8.96205C17.27 8.63754 16.9671 8.26975 16.621 7.96687C15.9287 7.31784 15.1498 6.84189 14.2628 6.51737C14.0897 6.45247 13.895 6.58227 13.8301 6.75535C13.5272 7.75053 13.484 8.81061 13.6787 9.82742C13.7869 10.325 13.9383 10.801 14.1546 11.2553C14.3061 11.5582 14.5657 11.9476 14.8902 12.0341C14.8253 12.0558 14.782 12.0774 14.7171 12.099C13.8085 12.4668 12.8566 12.813 12.121 13.462C11.6667 13.8514 11.472 14.349 11.3854 14.9548C11.3205 15.5173 11.2124 16.0148 10.9528 16.5124C10.4119 17.5941 9.61143 18.5677 8.91914 19.5412C8.03213 20.7744 7.16675 22.0075 6.30138 23.2407C6.25811 23.3056 6.23648 23.3921 6.23648 23.457C6.23648 23.457 6.21485 23.457 6.21485 23.4787C5.91197 23.6301 5.60908 23.8248 5.37111 24.0628C5.13313 24.3224 4.98169 24.6253 4.91679 24.9714C4.87352 25.2527 4.87352 25.6205 5.00332 25.8801C4.93842 26.2479 4.93842 26.6157 4.91679 26.9618C4.89515 27.4161 4.78698 27.9137 4.89515 28.368C5.00332 28.7575 5.3062 29.0171 5.65235 29.1901C6.0634 29.7526 6.27975 30.4449 6.86388 30.8776C7.53454 31.3752 8.46482 31.2887 9.24365 31.094C10.0009 30.9209 10.5417 30.5098 11.0177 29.9041C11.234 29.6445 11.4287 29.3632 11.6451 29.1252C11.7532 29.0171 11.883 28.9305 12.0128 28.8224C12.2292 28.7791 12.4672 28.7575 12.6835 28.6926C13.1811 28.5844 13.7003 28.4762 14.1979 28.3464C15.1498 28.1301 16.145 27.9354 17.0753 27.6325C17.27 27.5676 17.4431 27.5027 17.6161 27.4161C17.7027 27.6974 17.8108 27.9786 17.8757 28.2382C18.0055 28.6926 18.1137 29.1252 18.2219 29.5796C18.4382 30.5315 18.6979 31.4617 18.8926 32.4137C19.282 34.2958 19.4983 36.1997 19.4118 38.1035C19.3901 38.6227 19.3469 39.1419 19.2603 39.6395C19.2171 39.8991 19.1738 40.1804 19.1089 40.44C19.0656 40.678 18.9575 40.9376 19.0007 41.1756C18.8709 41.2837 18.9575 41.5433 19.1522 41.5433C20.5151 41.6515 21.9214 41.4352 23.2843 41.2188C24.6257 41.0025 25.9453 40.7212 27.265 40.3535C28.6064 39.9857 29.9261 39.5097 31.2025 38.9905C32.3707 38.4929 33.6688 38.0169 34.5991 37.1083C35.0318 36.6973 35.3995 36.1997 35.789 35.7453C35.8539 35.6588 35.9404 35.5723 36.0053 35.4857C36.1135 35.5074 36.2433 35.4857 36.3298 35.4208C36.5245 35.2478 36.676 35.0314 36.7841 34.8151C36.8923 34.7285 37.0221 34.6636 37.1303 34.5771C37.2817 34.4689 37.325 34.2958 37.2817 34.1444C38.1904 33.1925 39.099 32.2406 40.0077 31.267C40.1807 31.1589 40.1158 30.8993 39.9211 30.7262ZM19.3469 9.93559C19.2603 10.1087 19.1954 10.2817 19.1305 10.4548C19.1089 10.4765 19.0873 10.4765 19.0656 10.4981C18.7411 11.0173 18.568 11.6231 18.3301 12.1856C18.1354 12.6399 17.8541 13.0726 17.3782 13.2673C16.9455 13.4404 16.4695 13.4404 16.0368 13.3105C15.9719 13.2889 15.8421 13.2456 15.8421 13.2024C15.8421 13.1591 15.9287 13.0509 15.9719 13.0077C16.0152 12.9428 16.0585 12.8779 16.1017 12.813C16.2099 12.6615 16.3181 12.5101 16.4262 12.3586C16.4262 12.3803 16.4262 12.4235 16.4262 12.4452C16.4262 12.6399 16.7508 12.7264 16.794 12.4884C16.8589 12.1639 16.9887 11.8394 17.1402 11.5582C17.2916 11.2553 17.4863 10.974 17.7243 10.7361C18.1786 10.2817 18.7411 10.0221 19.3469 9.93559ZM16.5344 8.89715C16.8589 9.2433 17.1834 9.65435 17.6378 9.84906C17.6594 9.84906 17.6594 9.84906 17.681 9.87069C17.5296 9.97886 17.3998 10.1087 17.27 10.2385C17.032 10.4765 16.8589 10.7577 16.7075 11.0606C16.5128 11.212 16.3181 11.3635 16.1017 11.4716C16.383 10.8875 16.3397 10.1303 16.2532 9.52454C16.1883 9.09186 16.0801 8.6808 15.7988 8.35629C15.6474 8.18321 15.4743 8.03177 15.3013 7.88033C15.2796 7.8587 15.258 7.83707 15.2364 7.81543C15.7123 8.11831 16.145 8.50773 16.5344 8.89715ZM14.6955 10.7577C14.5008 10.3683 14.3926 9.95723 14.3061 9.52454C14.1546 8.78898 14.1979 8.03177 14.371 7.31784C14.4359 7.33948 14.5224 7.38274 14.5873 7.42601C14.5657 7.44765 14.5657 7.46928 14.5657 7.49092C14.5657 7.90197 14.8902 8.20485 15.1498 8.4861C15.4311 8.76734 15.5609 9.07022 15.6258 9.45964C15.669 9.80579 15.6474 10.1736 15.6258 10.5414C15.6041 10.8659 15.5176 11.1904 15.2796 11.4067C15.258 11.4284 15.2364 11.45 15.2147 11.4716C15.1498 11.4067 15.0633 11.3418 14.9984 11.2769C14.8686 11.1038 14.782 10.9308 14.6955 10.7577ZM36.2 33.9713C36.1567 34.1228 36.1135 34.2526 36.0486 34.404C35.8539 34.5555 35.6592 34.7502 35.4861 34.9232C35.1183 35.3127 34.8154 35.7237 34.4909 36.1131C34.1015 36.5674 33.6688 36.9569 33.1496 37.2597C32.5871 37.6059 31.9813 37.8655 31.3756 38.1468C28.9092 39.2501 26.2915 40.0506 23.6305 40.5698C22.3757 40.8078 21.1209 40.9159 19.8661 41.089C19.9743 40.7861 19.9959 40.4184 20.0608 40.1371C20.1473 39.6612 20.2122 39.1636 20.2339 38.666C20.3204 37.6708 20.2772 36.6756 20.1906 35.6804C20.0175 33.6901 19.5849 31.7214 19.0656 29.7959C18.9358 29.2767 18.7627 28.7791 18.5897 28.2815C18.5031 28.0219 18.395 27.7623 18.2868 27.5243C18.2435 27.4161 18.1786 27.308 18.1354 27.1998C19.1305 26.6157 19.9094 25.707 20.3637 24.6037C20.5151 24.2142 20.6233 23.8032 20.6882 23.3921C20.7315 22.9811 20.8396 22.4186 20.5368 22.0941C20.3853 21.9426 20.1257 21.9859 20.0175 22.159C19.8445 22.4402 19.931 22.8513 19.8877 23.1758C19.8445 23.5219 19.7579 23.8465 19.6498 24.171C19.4334 24.7984 19.0656 25.3825 18.6113 25.8368C18.0921 26.356 17.4647 26.7238 16.7724 26.9402C15.907 27.2214 15.02 27.3945 14.1546 27.6325C13.6354 27.7623 13.1162 27.8921 12.597 28.0435C12.4239 28.0868 12.2508 28.1517 12.0777 28.195C11.5585 27.9354 10.9528 28.7791 10.6715 29.1252C10.2605 29.6228 9.89268 30.1204 9.24365 30.3151C8.61626 30.5098 7.72925 30.6613 7.16675 30.207C6.95041 30.0339 6.77734 29.8175 6.60426 29.6012C6.6908 29.6445 6.79897 29.6661 6.90714 29.6877C7.81578 29.9473 8.70279 29.8608 9.45999 29.255C9.78451 28.9954 10.0658 28.6926 10.3686 28.3897C10.5417 28.2166 10.7148 28.0435 10.8879 27.8704C11.0826 27.6974 11.2773 27.4161 11.5153 27.2863C12.0345 27.0051 11.3205 26.2695 11.0177 26.7887C10.9095 26.9618 10.7148 27.1132 10.585 27.2431C10.4335 27.3945 10.2605 27.5676 10.109 27.719C9.84941 27.9786 9.5898 28.2599 9.28692 28.4762C9.00567 28.6926 8.68116 28.8873 8.35664 28.9954C7.98886 29.1036 7.59944 29.0603 7.23166 28.9738C6.86387 28.8656 6.49609 28.7142 6.12831 28.5627C5.82543 28.4329 5.58745 28.3031 5.56582 27.957C5.52255 27.308 5.63072 26.6373 5.58745 25.9883C5.63072 25.9234 5.65235 25.8368 5.63072 25.7503C5.58745 25.5988 5.52255 25.469 5.50091 25.3392C5.47928 25.2094 5.47928 25.0796 5.50091 24.9498C5.56582 24.6469 5.71725 24.409 5.95523 24.2142C6.17157 24.0195 6.43119 23.8897 6.6908 23.7383C6.79897 23.7383 6.88551 23.6734 6.97205 23.5869C7.75088 22.5051 8.55135 21.4234 9.30855 20.3417C10.0225 19.3249 10.823 18.3297 11.4287 17.248C11.6883 16.772 11.9047 16.2528 12.0128 15.712C12.121 15.1711 12.0345 14.5437 12.4239 14.111C12.7484 13.7432 13.2244 13.4836 13.6571 13.2456C14.0681 13.0293 14.5224 12.8346 14.9335 12.6399C15.3662 12.4452 15.8854 12.2072 16.3181 11.926C16.1666 12.099 16.0152 12.2505 15.8638 12.4235C15.6907 12.6183 15.4527 12.8562 15.3878 13.0942C15.2364 13.6351 16.0585 13.873 16.4479 13.9379C16.9455 14.0028 17.4647 13.9379 17.8974 13.6783C18.2003 13.5053 18.4166 13.2673 18.5897 12.986C18.5897 13.1158 18.5897 13.2456 18.5897 13.3755C18.5897 13.5918 18.9358 13.6567 18.9791 13.4187C19.3036 11.8178 19.8012 10.3034 20.6666 8.91878C20.9694 9.3082 21.2074 9.74089 21.4238 10.1736C21.705 10.7361 22.0079 11.3202 22.1377 11.9476C22.3541 12.986 21.8348 14.0894 20.9478 14.6519C20.4935 14.9548 20.9046 15.6687 21.3805 15.3874C22.0728 14.9764 22.5704 14.3274 22.8084 13.5918C22.8516 13.7 22.9165 13.7865 22.9814 13.873C23.0463 13.9596 23.1545 14.0461 23.2627 14.0894C23.6737 14.6302 24.1281 15.1278 24.5607 15.6471C25.1232 16.2961 25.6857 16.9668 26.2482 17.6374C27.3948 18.9787 28.5415 20.3417 29.6664 21.7263C30.7698 23.0893 31.8299 24.4955 32.8683 25.9017C33.8635 27.2647 34.902 28.6277 35.6592 30.1421C36.0486 30.9209 36.3082 31.7646 36.3298 32.6516C36.3298 33.1492 36.3082 33.5603 36.2 33.9713ZM37.1736 33.2141C37.2168 32.4569 37.1087 31.6781 36.8707 30.9642C36.3298 29.2983 35.2481 27.8921 34.2313 26.4859C32.0895 23.5652 29.753 20.7744 27.3516 18.0701C26.6809 17.3129 25.9886 16.5341 25.3179 15.7769C24.6257 15.0197 23.955 14.2192 23.1978 13.5485C23.1978 13.5269 23.1978 13.5269 23.1762 13.5053C23.1762 13.462 23.1762 13.4404 23.1545 13.3971C23.1329 13.3538 23.0896 13.3105 23.0463 13.2889C23.0247 13.2673 22.9598 13.2673 22.9165 13.2673C23.0031 12.8779 23.0031 12.4884 22.9382 12.099C22.8516 11.5582 22.6137 11.0389 22.3757 10.563C22.8084 10.974 23.2627 11.3635 23.7603 11.7096C23.9766 11.861 24.193 12.0125 24.4093 12.1423C24.5824 12.2505 24.7771 12.3586 24.9069 12.5101C25.2314 12.9211 24.9285 13.5269 24.7122 13.9163C24.604 14.111 24.8204 14.3057 25.0151 14.2192C25.3612 14.0461 25.7074 13.8947 26.0535 13.7432C27.265 15.3658 28.4549 16.9667 29.7746 18.4812C30.4669 19.2816 31.1592 20.0605 31.8732 20.8609C32.4789 21.5316 33.063 22.1806 33.5606 22.9162C34.1231 23.7167 34.5558 24.6253 34.6207 25.5988C34.6423 25.8801 34.902 26.0099 35.1616 25.9017C35.3995 25.7936 35.6592 26.0099 35.789 26.2046C35.962 26.4642 36.0486 26.7671 36.1567 27.0483C36.3947 27.6325 36.676 28.1733 37.0005 28.7142C37.5846 29.6228 38.3202 30.4233 39.1423 31.1156C38.4716 31.8079 37.8226 32.5218 37.1736 33.2141Z" fill="#563827"/>
</g>
</svg>
